/* XPM */
static char *result[] = {
/* columns rows colors chars-per-pixel */
"32 32 178 2 ",
"   c #18100E",
".  c #0B0E1B",
"X  c #13131D",
"o  c #2B1B1B",
"O  c #321F1B",
"+  c #3E2504",
"@  c #362A14",
"#  c #3E3018",
"$  c #161622",
"%  c #1D1B26",
"&  c #1C1D2A",
"*  c #1F1F30",
"=  c #211A24",
"-  c #17252F",
";  c #1E2032",
":  c #1C303E",
">  c #24212D",
",  c #29292D",
"<  c #332826",
"1  c #232335",
"2  c #24263A",
"3  c #27293C",
"4  c #2B2B3C",
"5  c #292330",
"6  c #36333E",
"7  c #4A2C02",
"8  c #44260B",
"9  c #493002",
"0  c #533100",
"q  c #5A3701",
"w  c #5B3800",
"e  c #482E18",
"r  c #4A3916",
"t  c #613A00",
"y  c #693E00",
"u  c #493D24",
"i  c #453A39",
"p  c #5A441A",
"a  c #544018",
"s  c #6F4700",
"d  c #7B4900",
"f  c #744500",
"g  c #614A1D",
"h  c #7E5C1B",
"j  c #5B4724",
"k  c #4F423D",
"l  c #58463C",
"z  c #7B5E25",
"x  c #745923",
"c  c #675534",
"v  c #7F6025",
"b  c #79602F",
"n  c #2B2C43",
"m  c #2D2F4A",
"M  c #2E304B",
"N  c #323343",
"B  c #33344C",
"V  c #3A3A45",
"C  c #2F3554",
"Z  c #343652",
"A  c #3A3B55",
"S  c #3C3D5B",
"D  c #373955",
"F  c #393F60",
"G  c #423D49",
"H  c #3F404D",
"J  c #3E405B",
"K  c #3A4967",
"L  c #365169",
"P  c #3B5576",
"I  c #49484C",
"U  c #5D4E4F",
"Y  c #52504F",
"T  c #434352",
"R  c #42445D",
"E  c #4C4C5B",
"W  c #64595D",
"Q  c #434462",
"!  c #474865",
"~  c #4C4D66",
"^  c #4C4D69",
"/  c #4E506C",
"(  c #52536D",
")  c #515265",
"_  c #545571",
"`  c #595A74",
"'  c #5A5C78",
"]  c #605E6D",
"[  c #5F6079",
"{  c #61627D",
"}  c #686878",
"|  c #757474",
" . c #845504",
".. c #8C5300",
"X. c #915B00",
"o. c #995A00",
"O. c #885719",
"+. c #8F6000",
"@. c #9D6300",
"#. c #AC6600",
"$. c #A86500",
"%. c #B26B00",
"&. c #B77002",
"*. c #8C6A2A",
"=. c #81642D",
"-. c #956F26",
";. c #99742D",
":. c #94712B",
">. c #8D6D31",
",. c #846836",
"<. c #9C7833",
"1. c #987636",
"2. c #A37C2E",
"3. c #A37C31",
"4. c #C57B00",
"5. c #D47F00",
"6. c #827E7C",
"7. c #AD832F",
"8. c #AC8332",
"9. c #A9833C",
"0. c #AB8539",
"q. c #B08733",
"w. c #B68A34",
"e. c #BB8E35",
"r. c #B58C3B",
"t. c #B88D38",
"y. c #BE9238",
"u. c #D58501",
"i. c #DE8700",
"p. c #D88A00",
"a. c #DB9402",
"s. c #E59401",
"d. c #EA9200",
"f. c #EE9A00",
"g. c #FB9B00",
"h. c #F09800",
"j. c #F2A301",
"k. c #FAA100",
"l. c #FEAC02",
"z. c #F7A800",
"x. c #FFB303",
"c. c #FFBA05",
"v. c #C49433",
"b. c #C49D4B",
"n. c #3C6681",
"m. c #4F7A9A",
"M. c #656681",
"N. c #6D6E88",
"B. c #797988",
"V. c #697991",
"C. c #797A93",
"Z. c #777892",
"A. c #748086",
"S. c #4F82A4",
"D. c #7EA9C3",
"F. c #848389",
"G. c #828182",
"H. c #82839D",
"J. c #888994",
"K. c #939393",
"L. c #A09F9F",
"P. c #898AA2",
"I. c #9192AB",
"U. c #9697B0",
"Y. c #A3A3A4",
"T. c #AFAFB5",
"R. c gray70",
"E. c #92B0C1",
"W. c #84B4D5",
"Q. c #8AC3E7",
"!. c #CBCBCC",
"~. c #C5C5C4",
"^. c #DAD9D8",
"/. c #C5E0EC",
"(. c #CDF2FA",
"). c #D4F2F5",
"_. c #E1E0E1",
"`. c None",
/* pixels */
"`.`.`.`.`.`.`.`.`.`.`.`.`.`.`.`.`.`.`.`.`.`.`.`.`.`.`.`.`.`.`.`.",
"`.`.`.`.`.`.`.`.`.`.8   `.`.`.`.`.`.`.`.`.`.`.`.`.`.`.`.`.`.`.`.",
"`.`.`.`.`.`.`.`.`.`.k 6.`.`.`.`.`.`.`.`.`.`.`.`.`.`.`.`.`.`.`.`.",
"`.`.`.`.`.`.`.`.`.`.Y ^.K.`.`.`.`.`.`.`.`.`.`.`.`.`.`.`.`.`.`.`.",
"`.`.`.`.`.`.`.`.`.`.`.Y.!.T `.: - `.`.`.`.`.`.`.`.`.`.`.`.`.`.`.",
"`.`.`.`.`.`.`.`.`.`.`.A./.D.m.n.L `.`.`.`.`.`.`.`.`.`.`.`.`.`.`.",
"`.`.`.`.`.`.`.`.`.L D.).(.W.m.P L 3 X `.`.`.`.`.`.`.`.`.`.`.`.`.",
"`.`.`.`.`.`.`.`.`.S.Q.E.V.! C m m n 2 * X `.`.`.`.`.`.`.`.`.`.`.",
"`.`.`.`.`.`.`.`.`.L P F G F F Z B N B 4 1 - 6 `.`.`.`.`.`.`.`.`.",
"`.`.`.`.`.`.`.`.$ m S Q ! ! Q S Z ` T.} 3 3 F.| `.`.`.`.`.`.`.`.",
"`.`.`.`.`.`.`.`.n F ! _ ' ' ( ! D } _.R.E 1 E Y.I `.`.`.`.`.`.`.",
"`.`.`.`.`.`.`.; D ! ' N.C.N.{ ^ J ! !.~.B.5 1 F.| `.`.`.`.`.`.`.",
"`.`.`.`.`.`.`.m F / M.H.I.P.N.` R Z J.!.K.N ; H G.`.`.`.`.`.`.`.",
"`.a :.8.,.@ $ Z Q _ N.P.U.P.N.( R B A J.F.4 1 1 T , `.`.`.`.`.`.",
"`.;.e.e.b.b > Z F / M.Z.H.Z.M.~ J B N n 6 ; 2 , 4 $ `.`.`.`.`.`.",
"p q.<.z t.9.k Z F ! _ M.M.[ / Q A B 4 3 2 2 3 4 4 & `.`.`.f 0 `.",
"p q.,.@ 3.r.l Z S F ! / ^ ^ Q D B n n 2 3 3 6 i 6 = `.+.s.f.%.7 ",
"a q.r.h 7.v.,.M Z D S G J G Z Z n 4 2 2 3 4 6 k G & `.a.c.j.%.0 ",
"`.*.y.e.v.v.1.B m Z Z Z Z Z m m n 2 2 2 n B Y U G `.s j.x.a.o.`.",
"`.`.*.t.e.q.<.i n m m m m m n n 2 2 1 3 N G W W l 8 w f.g.4.d `.",
"`.`.r 8.q.1.;.j n n n n n n 2 2 2 ; 2 3 V E ] W O.%.u.g.d.#.0 `.",
"`.`.`.<.w.q.w.O.< n n * 2 n ; ; 1 1 3 4 V E ) N 7 ..s.g.5...`.`.",
"`.`.a 8.<.x 8.-.# % * 2 5 5 = 1 ; 1 3 4 B H N `.`.`.d 5.%.t `.`.",
"`.`.p q.>.@ ;.<.j `.$ < e @ = = ; 2 3 N N 1 `.`.`.`.`.t y `.`.`.",
"`.`.`.8.r.v 2.0.c `.`. .&.e & * 2 2 2 1 $ `.`.`.`.`.`.`.`.`.`.`.",
"`.`.`.=.y.e.w.1.u `.0 4.#.9 . $ X X `.`.`.`.`.`.`.`.`.`.`.`.`.`.",
"`.`.`.`.z ;.b u 9 u.i.u.$.t `.`.`.`.`.`.`.`.`.`.`.`.`.`.`.`.`.`.",
"`.`.`.`.`.`.`.`.+.l.k.s.k.i...`.`.`.`.`.`.`.`.`.`.`.`.`.`.`.`.`.",
"`.`.`.`.`.`.`.`. .z.x.x.c.d.%.t `.`.`.`.`.`.`.`.`.`.`.`.`.`.`.`.",
"`.`.`.`.`.`.`.`.`.u.l.x.l.i.#.d `.`.`.`.`.`.`.`.`.`.`.`.`.`.`.`.",
"`.`.`.`.`.`.`.`.`.t @.&.%.X.d q `.`.`.`.`.`.`.`.`.`.`.`.`.`.`.`.",
"`.`.`.`.`.`.`.`.`.`.`.`.`.`.`.`.`.`.`.`.`.`.`.`.`.`.`.`.`.`.`.`."
};
