/* XPM */
static char *result[] = {
/* columns rows colors chars-per-pixel */
"32 32 184 2 ",
"   c #2B1B1B",
".  c #321F1B",
"X  c #1D1A28",
"o  c #211A24",
"O  c #1F2033",
"+  c #25222F",
"@  c #332926",
"#  c #232335",
"$  c #2C2832",
"%  c #24253A",
"&  c #27283B",
"*  c #2B2B3C",
"=  c #35313D",
"-  c #472D17",
";  c #443720",
":  c #453A39",
">  c #7F4D08",
",  c #7C581C",
"<  c #5F4824",
"1  c #4E403B",
"2  c #57493C",
"3  c #785B28",
"4  c #7E622A",
"5  c #7C6434",
"6  c #2B2C43",
"7  c #2D2F4A",
"8  c #2E304B",
"9  c #333345",
"0  c #3C3943",
"q  c #383846",
"w  c #32344C",
"e  c #3C3B4A",
"r  c #2F3554",
"t  c #343551",
"y  c #373956",
"u  c #3A3B54",
"i  c #3C3D5B",
"p  c #393F60",
"a  c #3F404E",
"s  c #3E405B",
"d  c #3D4966",
"f  c #315166",
"g  c #3C5775",
"h  c #38637F",
"j  c #4A464F",
"k  c #5D4E4F",
"l  c #424553",
"z  c #4B4A54",
"x  c #43445D",
"c  c #4C4C5B",
"v  c #4F5059",
"b  c #55565E",
"n  c #715F47",
"m  c #64585C",
"M  c #726246",
"N  c #7F694C",
"B  c #7B705B",
"V  c #434462",
"C  c #474865",
"Z  c #4C4D66",
"A  c #4C4D69",
"S  c #4E506C",
"D  c #575764",
"F  c #52536D",
"G  c #545571",
"H  c #595A74",
"J  c #5A5C78",
"K  c #605E6D",
"L  c #5F6079",
"P  c #62636A",
"I  c #736E6D",
"U  c #676771",
"Y  c #61627D",
"T  c #68697D",
"R  c #78797C",
"E  c #955B08",
"W  c #865718",
"Q  c #96661C",
"!  c #A86500",
"~  c #AB6500",
"^  c #B16700",
"/  c #B56D01",
"(  c #B6760E",
")  c #8C6A28",
"_  c #99752D",
"`  c #896C34",
"'  c #83663A",
"]  c #8D7139",
"[  c #9A7732",
"{  c #9C7832",
"}  c #AB7924",
"|  c #A37C2F",
" . c #A47E31",
".. c #C47600",
"X. c #D47D00",
"o. c #886C42",
"O. c #8B7248",
"+. c #867657",
"@. c #8C7D60",
"#. c #AC822F",
"$. c #AD8431",
"%. c #A7823B",
"&. c #B18633",
"*. c #B68A34",
"=. c #BB8E35",
"-. c #B68C3A",
";. c #BE9136",
":. c #C8830B",
">. c #D58401",
",. c #DE8600",
"<. c #DB9403",
"1. c #E59301",
"2. c #EA9200",
"3. c #EF9D00",
"4. c #FB9B00",
"5. c #F5A501",
"6. c #FEAB01",
"7. c #FFB303",
"8. c #FFBA05",
"9. c #C49433",
"0. c #AC8B4D",
"q. c #948569",
"w. c #968C7A",
"e. c #9B9079",
"r. c #AD956D",
"t. c #A59275",
"y. c #C39D4A",
"u. c #4F799A",
"i. c #656681",
"p. c #6D6E88",
"a. c #7C7D81",
"s. c #697991",
"d. c #787992",
"f. c #7A858D",
"g. c #7E919E",
"h. c #5083A5",
"j. c #7BA5C2",
"k. c #818184",
"l. c #8B8B8C",
"z. c #9A9283",
"x. c #868896",
"c. c #919293",
"v. c #979899",
"b. c #A59D8E",
"n. c #B2A084",
"m. c #AEA99F",
"M. c #B6AA96",
"N. c #898AA2",
"B. c #9399A8",
"V. c #9697B0",
"C. c #A3A3A4",
"Z. c #AEAAA4",
"A. c #ABABAD",
"S. c #B0ABA2",
"D. c #B8B2AA",
"F. c #AFAFB3",
"G. c #B5B5B5",
"H. c #BCB9B4",
"J. c #BDBDBC",
"K. c #C2BEB8",
"L. c #C9C5BF",
"P. c #85B2CD",
"I. c #92B0C1",
"U. c #BEC2C3",
"Y. c #89C3E7",
"T. c #C5C5C5",
"R. c #C9C7C3",
"E. c #CBC9C6",
"W. c #CCCCCC",
"Q. c #D2D1CF",
"!. c #D4D4D3",
"~. c #D9D7D5",
"^. c #DCDCDB",
"/. c #DCDEE1",
"(. c #C4E0EC",
"). c #D1F2F8",
"_. c #E3E3E4",
"`. c #ECECEC",
"'. c #EFEFF0",
"]. c #EFF0F2",
"[. c #F2F2F2",
"{. c #F7F8F8",
"}. c #F7F8FB",
"|. c #FFFFFF",
/* pixels */
"|.|.|.|.|.|.|.|.|.}.^.].|.|.|.|.|.|.|.|.|.|.|.|.|.|.|.|.|.|.|.|.",
"|.|.|.|.|.|.|.|.|.D.< I '.|.|.|.|.|.|.|.|.|.|.|.|.|.|.|.|.|.|.|.",
"|.|.|.|.|.|.|.|.|.l.: w.v.|.|.|.|.|.|.|.|.|.|.|.|.|.|.|.|.|.|.|.",
"|.|.|.|.|.|.|.|.|.`.l.~.v.E.|.|.|.|.|.|.|.|.|.|.|.|.|.|.|.|.|.|.",
"|.|.|.|.|.|.|.|.|.|.^.F.E.f.B.d.x._.|.|.|.|.|.|.|.|.|.|.|.|.|.|.",
"|.|.|.|.|.|.|.|.|.[.U.c.(.j.u.h f v.|.|.|.|.|.|.|.|.|.|.|.|.|.|.",
"|.|.|.|.|.|.|.|.`.g.P.).).P.u.g f s R J.[.|.|.|.|.|.|.|.|.|.|.|.",
"|.|.|.|.|.|.|.|.G.h.Y.I.s.d t 7 w 6 % & b J.}.|.|.|.|.|.|.|.|.|.",
"|.|.|.|.|.|.|.|.W.g g i i i y y w 8 8 6 O = l.W.|.|.|.|.|.|.|.|.",
"|.|.|.|.|.|.|.{.f.w i V C C V i w H F.U & # k.k.W.|.|.|.|.|.|.|.",
"|.|.|.|.|.|.|.A.8 p C G L H F C u T _.F.c O v C.R ].|.|.|.|.|.|.",
"|.|.|.|.|.|.`.c y C J p.d.p.Y A s C W.R.a.% # f.w.U.|.|.|.|.|.|.",
"|.[.R.D.R.}.A.8 p S i.N.N.N.p.H x t x.E.c.= O a k.C.|.|.|.|.|.|.",
"[.e.[ %.O.z.U 8 p G p.N.V.N.p.G x w u c.l.* # # j l.|.|.|.|.|.|.",
"m.[ =.=.y.5 $ y V S i.d.N.d.Y A s w 6 6 9 # # # # D {.|.|.}.|.|.",
"@.$.{ 4 =.%.1 r s C G i.i.J S x u w 6 & # # & = * v [.^.n.r.t.W.",
"+.&.` 2  .*.2 t u s C Z A Z x u w 6 & & % & = : = v ~.%.1.3.~ N ",
"q.&.-.3 $.9.' w t u u s s u y 8 6 6 % % & = q 1 : U M.<.8.5.~ O.",
"K.] ;.=.9.9.{ w 8 t t t t t 7 6 6 % % % * q k k e x.r.5.8.<.E b.",
"{.b.] =.=.&.{ 0 7 7 8 8 8 6 6 6 % % # & 6 l m m 2 n o.3.4...W ~.",
"|.}.z.#.&.[ _ < % 6 6 6 6 6 % 6 % # # * q c K b W / >.4.2.~ q.}.",
"|.|.m.| *.&.*.W @ 6 % % 6 % O O O # & * w c Z z o.Q 2.4.X.E K.|.",
"|.|.e.#.{ 3 &.) ; + O % + + + # O # & = q a a A.}.W.O.X.^ o.'.|.",
"|.|.q.#.` 2 | | n c.q @ - .   o # # & 6 6 l F.|.|.|.E.' , H.|.|.",
"|.|.b.#.-.) { %.+.].U.) / - X X + # % q R ~.|.|.|.|.|.`.~.}.|.|.",
"|.|.Q.] =.=.*.] w.L.t...^ M R P P R B.!.{.|.|.|.|.|.|.|.|.|.|.|.",
"|.|.|.S.] _ ` B q.:.,.>.! o.D.'.|.|.|.|.|.|.|.|.|.|.|.|.|.|.|.|.",
"|.|.|.}.Q.Z.G.^.0.6.5.2.5.,.E z.}.|.|.|.|.|.|.|.|.|.|.|.|.|.|.|.",
"|.|.|.|.|.|.|.}.0.5.7.7.8.2.~ , /.|.|.|.|.|.|.|.|.|.|.|.|.|.|.|.",
"|.|.|.|.|.|.|.|.M.>.6.7.6.,.~ > L.|.|.|.|.|.|.|.|.|.|.|.|.|.|.|.",
"|.|.|.|.|.|.|.|.'.t.} ( ( E W ' ~.|.|.|.|.|.|.|.|.|.|.|.|.|.|.|.",
"|.|.|.|.|.|.|.|.|.}./.T.H.H.R._.|.|.|.|.|.|.|.|.|.|.|.|.|.|.|.|."
};
