/* XPM */
static char *_1999e585cf547c59c84029e4c6a75e6pEA0QY5zWQGLnLfG[] = {
/* columns rows colors chars-per-pixel */
"42 42 179 2 ",
"   c #1E1B2F",
".  c #58391C",
"X  c #5A3A1F",
"o  c #4E3229",
"O  c #523527",
"+  c #724914",
"@  c #714D19",
"#  c #9A6620",
"$  c #9F6D22",
"%  c #9B6B29",
"&  c #A77024",
"*  c #A5772E",
"=  c #AF7D30",
"-  c #C88222",
";  c #C88829",
":  c #CC8A2A",
">  c #DD972D",
",  c #DC962F",
"<  c #C78B31",
"1  c #CC9035",
"2  c #D59430",
"3  c #DD9831",
"4  c #DC9D38",
"5  c #DD9F3E",
"6  c #DF9F3E",
"7  c #E3962A",
"8  c #E6992A",
"9  c #E09A30",
"0  c #E49931",
"q  c #E3A03A",
"w  c #E1A13D",
"e  c #EDA73B",
"r  c #EFA73C",
"t  c #F8AF3D",
"y  c #B18044",
"u  c #B68A56",
"i  c #EEAB41",
"p  c #F3AE44",
"a  c #F5B043",
"s  c #F7B246",
"d  c #FBB243",
"f  c #F9B045",
"g  c #F8B851",
"h  c #F9B953",
"j  c #FEBB55",
"k  c #FEBF56",
"l  c #FFBE58",
"z  c #C69A67",
"x  c #D3A66C",
"c  c #D6A86E",
"v  c #DAAC6F",
"b  c #DFAE71",
"n  c #E3B266",
"m  c #E6B26A",
"M  c #E5B46B",
"N  c #EAB568",
"B  c #EEBB6E",
"V  c #F1BD6E",
"C  c #EFBD71",
"Z  c #F0BE71",
"A  c #FFC35A",
"S  c #FEC25B",
"D  c #FFC15E",
"F  c #FFF75B",
"G  c #FFCA62",
"H  c #5888A4",
"J  c #5D91AD",
"K  c #6B97A5",
"L  c #76A5B0",
"P  c #7BAFBE",
"I  c #59A0C1",
"U  c #5BA4C5",
"Y  c #7AAEC0",
"T  c #7FB2C2",
"R  c #74BACE",
"E  c #68B7DF",
"W  c #76BCD1",
"Q  c #69B9E1",
"!  c #75C1DA",
"~  c #79C8EB",
"^  c #7ACAED",
"/  c #7ECEFA",
"(  c #BBA99E",
")  c #82AFBF",
"_  c #81B2BE",
"`  c #ACA8A8",
"'  c #B7AEAB",
"]  c #ACABB3",
"[  c #BCB3B0",
"{  c #B9B4B6",
"}  c #D4B386",
"|  c #DAB081",
" . c #CCAD93",
".. c #C4AB9E",
"X. c #C2AF9F",
"o. c #D5B690",
"O. c #DBB893",
"+. c #DDBA93",
"@. c #E1BE93",
"#. c #E1BE94",
"$. c #C2B9B5",
"%. c #C6B9B6",
"&. c #D8C1AE",
"*. c #DAC5B5",
"=. c #EBCEAD",
"-. c #E4D2BF",
";. c #E9D3BC",
":. c #82B4C1",
">. c #84B6C2",
",. c #8AB4C1",
"<. c #88B5C7",
"1. c #90BAC7",
"2. c #B3B4C4",
"3. c #B9B8C3",
"4. c #9BC1CE",
"5. c #ACC9D1",
"6. c #A3E0F4",
"7. c #A5E2F6",
"8. c #ADE7FA",
"9. c #AFE9FB",
"0. c #C4C1C5",
"q. c #CBC4C3",
"w. c #C2C0C9",
"e. c #CAC7CE",
"r. c #D5CAC8",
"t. c #D3CECF",
"y. c #D8CECF",
"u. c #DDD2CD",
"i. c #D6D4D2",
"p. c #D6D2D4",
"a. c #D5D5DA",
"s. c #D3D3DE",
"d. c #DCDADA",
"f. c #EEE1D6",
"g. c #F4E5D7",
"h. c #F0E4DA",
"j. c #D3D5E4",
"k. c #D8D7E2",
"l. c #DFDDE0",
"z. c #D8DEE5",
"x. c #DADAE8",
"c. c #E2DEE3",
"v. c gray88",
"b. c #E3E4E5",
"n. c #E8E3E4",
"m. c #ECE5E6",
"M. c #E1E6ED",
"N. c #E6E8EE",
"B. c #EDEDEB",
"V. c #ECEBEE",
"C. c #EFEEEC",
"Z. c #F0E8E3",
"A. c #F1EBE9",
"S. c #F3EDED",
"D. c #F7EFED",
"F. c #F7F1EF",
"G. c #E6E8F6",
"H. c #E6EEF4",
"J. c #EDEBF1",
"K. c #EFEFF9",
"L. c #F0EEF5",
"P. c #F0F1F2",
"I. c #F2F3F5",
"U. c #F5F6F7",
"Y. c #FAF5F0",
"T. c #FAF5F1",
"R. c #F0F1FA",
"E. c #F6F6F8",
"W. c #F1F3FE",
"Q. c #F4F4FC",
"!. c #FCF7F9",
"~. c #FAF7FC",
"^. c #F8F8F9",
"/. c #F9F8FA",
"(. c #FDFAFA",
"). c #FAF9FD",
"_. c #FDFAFC",
"`. c #FEFDFD",
"'. c white",
/* pixels */
"'.'.'.'.'.'.'.'.'.'.'.'.'.'.'.'.'.'.'.'.'.'.'.'.'.'.'.'.'.'.'.'.'.'.'.'.'.'.'.'.'.'.",
"'.'.'.'.'.'.'.'.'.'.'.'.'.'.'.'.'.'.'.l.` d.'.'.'.'.'.'.'.'.'.'.'.'.'.'.'.'.'.'.'.'.",
"'.'.'.'.'.'.'.'.'.'.'.'.'.'.'.'.'.'.'.a.v.i.'.'.'.'.'.'.'.'.'.'.'.'.'.'.'.'.'.'.'.'.",
"'.'.'.'.'.'.'.'.'.'.'.'.'.'.'.'.'.'.'.N.E.C.'.'.'.'.'.'.'.'.'.'.'.'.'.'.'.'.'.'.'.'.",
"'.'.'.'.'.'.'.'.'.'.'.'.'.'.'.'.'.'.'.N.U.C.'.'.'.'.'.'.'.'.'.'.'.'.'.'.'.'.'.'.'.'.",
"'.'.'.'.'.'.'.'.'.'.'.'.'.'.'.'.'.'.'.M.P.B.'.'.'.'.'.'.'.'.'.'.'.'.'.'.'.'.'.'.'.'.",
"'.'.'.'.'.'.'.'.'.'.'.'.'.'.'.'.'.'.'.z.H.b.'.'.'.'.'.'.'.'.'.'.'.'.'.'.'.'.'.'.'.'.",
"'.'.'.'.'.'.'.'.'.'.'.'.'.'.'.1.<.T Y ) 4.,.P :.1.5.'.'.'.'.'.'.'.'.'.'.'.'.'.'.'.'.",
"'.'.'.'.'.'.'.'.'.'.'.'.'.'.'.J U Q / ^ 9.7.! W >.L '.'.'.'.'.'.'.'.'.'.'.'.'.'.'.'.",
"'.'.'.'.'.'.'.'.'.'.'.'.'.'.'.H I E / ~ 8.6.! R _ K '.'.'.'.'.'.'.'.'.'.'.'.'.'.'.'.",
"'.'.'.'.'.'.'.'.'.'.'.'.'.F F F F F F F F F F F F F F F '.'.'.'.'.'.'.'.'.'.'.'.'.'.",
"'.'.'.'.'.'.'.'.'.'.'.'.F F F F F F F F F F F F F F F F F '.'.'.'.'.'.'.'.'.'.'.'.'.",
"'.'.'.'.'.'.'.'.'.'.'.F F F F F F F F F F F F F F F F F F F '.'.'.'.'.'.'.'.'.'.'.'.",
"'.'.'.'.'.'.'.'.'.'.F F F F F F F F F F F F F F F F F F F F F '.'.'.'.'.'.'.'.'.'.'.",
"'.'.'.'.'.'.'.'.'.F F F F F F F F F F F F F F F F F F F F F F F '.'.'.'.'.'.'.'.'.'.",
"'.'.'.'.'.'.'.'.E.F F F F F F F F F F F F F F F F F F F F F F F /.'.'.'.'.'.'.'.'.'.",
"'.'.'.'.'.'.'.'.F F F F F F F F F F F F F F F F F F F F F F F F F '.'.'.'.'.'.'.'.'.",
"'.'.'.'.'.'.'.'.F F F F F F F c.n.F F F F F F F S.q.F F F F F F F '.'.'.'.'.'.'.'.'.",
"'.'.'.'.'.'.'.N.F F F F F F w.J._.{ F F F F F F (.D.F F F F F F F V.'.'.'.'.'.'.'.'.",
"'.'.'.'.'.'.'.F F F F F F F k.K.~.t.F F F F F Q.!.F.[ F F F F F F F '.'.'.'.'.'.'.'.",
"'.'.'.'.'.'.'.F F F F F F F x.W.).p.F F F F F Q._.S.$.F F F F F F F '.'.'.'.'.'.'.'.",
"'.'.'.'.'.'.'.F F F F F F F j.W.).0.F F F F F R.'.S.' F F F F F F F '.'.'.'.'.'.'.'.",
"'.'.'.'.'.'.'.F F F F F F F 2.G.J.F F F F F F s.E.m.F F F F F F F F '.'.'.'.'.'.'.'.",
"'.'.'.'.'.'.'.F F F F F F F F 3.] F F F F F F F e.F F F F F F F F F '.'.'.'.'.'.'.'.",
"'.'.'.'.'.'.'.I.F F F F F F F F F F F F F F F F F F F F F F F F F E.'.'.'.'.'.'.'.'.",
"'.'.'.'.'.'.'.'.F F F F F F F F F F F F F F F F F F F F F F F F F '.'.'.'.'.'.'.'.'.",
"'.'.'.'.'.'.'.'.F F F F F F F F F F F F F F F F F F F F F F F F F '.'.'.'.'.'.'.'.'.",
"'.'.'.'.'.'.'.'.'.F F F F F F F F F F F F F F F F F F F F F F F '.'.'.'.'.'.'.'.'.'.",
"'.'.'.'.'.'.'.'.'.l.F F F F F F F F F F F F F F F F F F F F F F '.'.'.'.'.'.'.'.'.'.",
"'.'.'.'.'.'.'.'.'.'.F F F F F F F F F F F F F F F F F F F F F '.'.'.'.'.'.'.'.'.'.'.",
"'.'.'.'.'.'.'.'.'.'.'.F F F F F F F F F F F F F F F F F F F '.'.'.'.'.'.'.'.'.'.'.'.",
"'.'.'.'.'.'.'.'.'.'.'.'...o   F F F F F F F F F F F F O  .'.'.'.'.'.'.'.'.'.'.'.'.'.",
"'.'.'.'.'.'.'.'.'.'.'.'.o.* X F F F F F F F F F F F . = @.'.'.'.'.'.'.'.'.'.'.'.'.'.",
"'.'.'.'.'.'.'.'.'.'.'.'.} * @ y.w.F F F F F F F w.%.@ = @.'.'.'.'.'.'.'.'.'.'.'.'.'.",
"'.'.'.'.'.'.'.'.'.'.'.-.u # + r.'.'.'.'.'.'.'.'.'.( + # z h.'.'.'.'.'.'.'.'.'.'.'.'.",
"'.'.'.'.'.'.'.'.'.'.c , 6 6 < % u.'.'.'.'.'.'.'.X.$ 1 w q > =.'.'.'.'.'.'.'.'.'.'.'.",
"'.'.'.'.'.'.'.'.'.;.> a k S g 2 y '.'.'.'.'.'.A.& 4 h S A t 0 T.'.'.'.'.'.'.'.'.'.'.",
"'.'.'.'.'.'.'.'.'.+.3 s S G S e - /.'.'.'.'.'.*.; i S G A d 8 g.'.'.'.'.'.'.'.'.'.'.",
"'.'.'.'.'.'.'.'.'.O.3 p j D k e - L.'.'.'.'.'.&.: i j D k f 7 g.'.'.'.'.'.'.'.'.'.'.",
"'.'.'.'.'.'.'.'.'.f.v m B C C m | '.'.'.'.'.'.Z.x n B B V N b T.'.'.'.'.'.'.'.'.'.'.",
"'.'.'.'.'.'.'.'.'.'.'.'.'.'.'.'.'.'.'.'.'.'.'.'.'.'.'.'.'.'.'.'.'.'.'.'.'.'.'.'.'.'.",
"'.'.'.'.'.'.'.'.'.'.'.'.'.'.'.'.'.'.'.'.'.'.'.'.'.'.'.'.'.'.'.'.'.'.'.'.'.'.'.'.'.'."
};
