/* XPM */
static char *result[] = {
/* columns rows colors chars-per-pixel */
"42 42 184 2 ",
"   c #653C0C",
".  c #5D3D24",
"X  c #553D39",
"o  c #78420E",
"O  c #6E4A1F",
"+  c #694326",
"@  c #6D4C23",
"#  c #785027",
"$  c #7F5327",
"%  c #765238",
"&  c #894C11",
"*  c #825619",
"=  c #935616",
"-  c #975516",
";  c #945E16",
":  c #A15E15",
">  c #99651E",
",  c #A4661D",
"<  c #B06818",
"1  c #B66B1E",
"2  c #BB6F1E",
"3  c #B4741E",
"4  c #844F2B",
"5  c #875C21",
"6  c #8A5B25",
"7  c #8E6221",
"8  c #8D622C",
"9  c #926420",
"0  c #906623",
"q  c #9C6027",
"w  c #9D6B21",
"e  c #9C6C22",
"r  c #986B24",
"t  c #96672E",
"y  c #8D6030",
"u  c #A1622C",
"i  c #A57023",
"p  c #A47427",
"a  c #AE7421",
"s  c #AC7624",
"d  c #B17721",
"f  c #B47423",
"g  c #B57E28",
"h  c #A27337",
"j  c #A97933",
"k  c #C56F1B",
"l  c #C06B1C",
"z  c #D27C1F",
"x  c #C67821",
"c  c #C67B21",
"v  c #C77C22",
"b  c #C87C22",
"n  c #8C6544",
"m  c #A07542",
"M  c #AA7E4B",
"N  c #976F68",
"B  c #B3862B",
"V  c #BB8328",
"C  c #BD832A",
"Z  c #B8852B",
"A  c #BF8629",
"S  c #B48235",
"D  c #B3823A",
"F  c #B3823B",
"G  c #B58338",
"H  c #C18022",
"J  c #CF8320",
"K  c #CC8124",
"L  c #C18A2C",
"P  c #D28524",
"I  c #D58727",
"U  c #D08B27",
"Y  c #DC892C",
"T  c #D99329",
"R  c #DE922C",
"E  c #CF8534",
"W  c #CD8F32",
"Q  c #C18E3D",
"!  c #C79732",
"~  c #CF9C32",
"^  c #CE9F34",
"/  c #CD9C3C",
"(  c #D09730",
")  c #E19127",
"_  c #E19226",
"`  c #E4982D",
"'  c #E59A2E",
"]  c #E69938",
"[  c #CBA138",
"{  c #D0A034",
"}  c #D0A636",
"|  c #D2A636",
" . c #DEA335",
".. c #D3A837",
"X. c #E8A136",
"o. c #EFA634",
"O. c #E5A13E",
"+. c #EDA538",
"@. c #F0A736",
"#. c #F3A83B",
"$. c #F1AA3F",
"%. c #EEB03A",
"&. c #F1B43B",
"*. c #FEBF3D",
"=. c #FDC13F",
"-. c #FEC03E",
";. c #FFC33F",
":. c #FFC43F",
">. c #B78749",
",. c #B88649",
"<. c #B98A4D",
"1. c #B88A4E",
"2. c #C98940",
"3. c #EB9C42",
"4. c #CCA341",
"5. c #E0A141",
"6. c #E6A342",
"7. c #E3A346",
"8. c #E8A247",
"9. c #ECAC44",
"0. c #F5AE43",
"q. c #EFB04B",
"w. c #F7B44D",
"e. c #F9B64D",
"r. c #F9B74D",
"t. c #FEB949",
"y. c #FEBA48",
"u. c #FFA95B",
"i. c #FDBB52",
"p. c #FFC440",
"a. c #FFCC43",
"s. c #FFD446",
"d. c #FFD647",
"f. c #FFC057",
"g. c #FFC257",
"h. c #FFC65B",
"j. c #FFC75B",
"k. c #FFC65D",
"l. c #FFC85E",
"z. c #FEE956",
"x. c #F2C47B",
"c. c #59888E",
"v. c #5595AC",
"b. c #659AA1",
"n. c #5FA3B4",
"m. c #7AA7AE",
"M. c #66A7B5",
"N. c #64A6B7",
"B. c #68A7B8",
"V. c #68A9B8",
"C. c #7CABB5",
"Z. c #73ADBC",
"A. c #72ACBE",
"S. c #78ACB8",
"D. c #6EB1BF",
"F. c #60A7C1",
"G. c #67B1C4",
"H. c #69B3C5",
"J. c #6FBCCE",
"K. c #76BDCC",
"L. c #7FC0CF",
"P. c #87B8BF",
"I. c #A2A5A4",
"U. c #B1B4B2",
"Y. c gray71",
"T. c #B8BBB8",
"R. c #E0B99B",
"E. c #CBB0A0",
"W. c #FDE7A3",
"Q. c #8CB9C3",
"!. c #8EB1CC",
"~. c #B9B9C0",
"^. c #98C3CD",
"/. c #85C8D7",
"(. c #8ACADB",
"). c #9FD0DB",
"_. c #9CC4E1",
"`. c #90D1E2",
"'. c #A5D7E2",
"]. c #BCECF7",
"[. c #C7D0D6",
"{. c #DBDBE0",
"}. c #C6F6FD",
"|. c None",
/* pixels */
"|.|.|.|.|.|.|.|.|.|.|.|.|.|.|.|.|.|.|.|.|.|.|.|.|.|.|.|.|.|.|.|.|.|.|.|.|.|.|.|.|.|.",
"|.|.|.|.|.|.|.|.|.|.|.|.|.|.|.|.|.|.|.|.|.W.|.|.|.|.|.|.|.|.|.|.|.|.|.|.|.|.|.|.|.|.",
"|.|.|.|.|.|.|.|.|.|.|.|.|.|.|.|.|.|.|.|.|.z.|.|.|.|.|.|.|.|.|.|.|.|.|.|.|.|.|.|.|.|.",
"|.|.|.|.|.|.|.|.|.|.|.|.|.|.|.|.|.|.|.|.|.N {.|.|.|.|.|.|.|.|.|.|.|.|.|.|.|.|.|.|.|.",
"|.|.|.|.|.|.|.|.|.|.|.|.|.|.|.|.|.|.|.|.|.I.|.|.|.|.|.|.|.|.|.|.|.|.|.|.|.|.|.|.|.|.",
"|.|.|.|.|.|.|.|.|.|.|.|.|.|.|.|.|.|.|.|.|.U.|.|.|.|.|.|.|.|.|.|.|.|.|.|.|.|.|.|.|.|.",
"|.|.|.|.|.|.|.|.|.|.|.|.|.|.|.|.|.|.|.|.Y.T.|.|.|.|.|.|.|.|.|.|.|.|.|.|.|.|.|.|.|.|.",
"|.|.|.|.|.|.|.|.|.|.|.|.|.|.|.|.C.S.M.V.Q.^.Z.N.B.A.|.|.|.|.|.|.|.|.|.|.|.|.|.|.|.|.",
"|.|.|.|.|.|.|.|.|.|.|.|.|.|.|.|.b.P.K./.'.}.`.J.G.F._.|.|.|.|.|.|.|.|.|.|.|.|.|.|.|.",
"|.|.|.|.|.|.|.|.|.|.|.|.|.|.|.[.c.m.D.L.).].(.H.n.v.!.|.|.|.|.|.|.|.|.|.|.|.|.|.|.|.",
"|.|.|.|.|.|.|.|.|.|.|.|.|.|.u.u.u.u.u.u.u.u.u.u.u.u.u.u.|.|.|.|.|.|.|.|.|.|.|.|.|.|.",
"|.|.|.|.|.|.|.|.|.|.|.|.|.u.u.u.u.u.u.u.u.u.u.u.u.u.u.u.u.u.|.|.|.|.|.|.|.|.|.|.|.|.",
"|.|.|.|.|.|.|.|.|.|.|.|.u.u.u.u.u.u.u.u.u.u.u.u.u.u.u.u.u.u.u.|.|.|.|.|.|.|.|.|.|.|.",
"|.|.|.|.|.|.|.|.|.|.|.u.u.u.u.u.u.u.u.u.u.u.u.u.u.u.u.u.u.u.u.u.|.|.|.|.|.|.|.|.|.|.",
"|.|.|.|.|.|.|.|.|.|.u.u.u.u.u.u.u.u.u.n C h u.u.u.u.u.u.u.u.u.u.u.|.|.|.|.|.|.|.|.|.",
"|.|.|.|.|.|.|.|.|.u.u.u.u.u.u.u.u.u.u.M %.Q u.u.u.u.u.u.u.u.u.u.u.|.|.|.|.|.|.|.|.|.",
"|.|.|.|.|.|.|.|.|.u.u.u.u.u.u.u.u.u.u.1.s.4.u.u.u.u.u.u.u.u.u.u.u.|.|.|.|.|.|.|.|.|.",
"|.|.|.|.|.|.|.|.u.u.u.u.u.u.u.u.u.u.u.<.p./ u.u.u.u.u.u.u.u.u.u.u.u.|.|.|.|.|.|.|.|.",
"|.|.|.|.|.|.|.|.u.u.u.u.u.u.u.u.u.u.u.>.=.[ u.u.u.u.u.u.u.u.u.u.u.u.|.|.|.|.|.|.|.|.",
"|.|.|.|.|.|.|.|.u.u.u.u.u.u.u.u.u.u.u.m  .Z u.u.u.u.u.u.u.u.u.u.u.u.|.|.|.|.|.|.|.|.",
"|.|.|.|.|.|.|.|.u.u.u.u.u.u.u.u.u.u.u.t g e u.u.u.u.u.u.u.u.u.u.u.u.u.|.|.|.|.|.|.|.",
"|.|.|.|.|.|.|.|.u.u.u.u.u.u.u.u.u.u.% > i 9 7 u.u.u.u.u.u.u.u.u.u.u.u.|.|.|.|.|.|.|.",
"|.|.|.|.|.|.|.|.u.u.u.u.u.u.u.u.u.u.6 s ( B r u.u.u.u.u.u.u.u.u.u.u.u.|.|.|.|.|.|.|.",
"|.|.|.|.|.|.|.|.u.u.u.u.u.u.u.u.u.u.$ A *...0 u.u.u.u.u.u.u.u.u.u.u.u.|.|.|.|.|.|.|.",
"|.|.|.|.|.|.|.|.u.u.u.u.u.u.u.u.u.u.X V -.| @ u.u.u.u.u.u.u.u.u.u.u.|.|.|.|.|.|.|.|.",
"|.|.|.|.|.|.|.|.|.u.u.u.u.u.u.u.u.u.u.S d.} u.u.u.u.u.u.u.u.u.u.u.u.|.|.|.|.|.|.|.|.",
"|.|.|.|.|.|.|.|.|.u.u.u.u.u.u.u.u.u.u.F a.^ u.u.u.u.u.u.u.u.u.u.u.|.|.|.|.|.|.|.|.|.",
"|.|.|.|.|.|.|.|.|.|.u.u.u.u.u.u.u.u.u.D :.~ u.u.u.u.u.u.u.u.u.u.|.|.|.|.|.|.|.|.|.|.",
"|.|.|.|.|.|.|.|.|.|.|.u.u.u.u.u.u.u.u.G ;.{ u.u.u.u.u.u.u.u.u.u.|.|.|.|.|.|.|.|.|.|.",
"|.|.|.|.|.|.|.|.|.|.|.|.u.u.u.u.u.u.u.j &.! u.u.u.u.u.u.u.u.u.|.|.|.|.|.|.|.|.|.|.|.",
"|.|.|.|.|.|.|.|.|.|.|.|.u.u.u.u.u.u.u.8 L p u.u.u.u.u.u.u.u.|.|.|.|.|.|.|.|.|.|.|.|.",
"|.|.|.|.|.|.|.|.|.|.|.|.|.q u.u.u.u.u.# w 5 u.u.u.u.u.u.4 |.|.|.|.|.|.|.|.|.|.|.|.|.",
"|.|.|.|.|.|.|.|.|.|.|.|.|.R 7.+ u.u.u.. * O u.u.u.u.u.2.] |.|.|.|.|.|.|.|.|.|.|.|.|.",
"|.|.|.|.|.|.|.|.|.|.|.|.|.` w.,.|.u.u.u.u.u.u.u.u.~.E.6.$.|.|.|.|.|.|.|.|.|.|.|.|.|.",
"|.|.|.|.|.|.|.|.|.|.|.|.f ' e.a |.|.|.|.|.|.|.|.|.|.y O.0.3 |.|.|.|.|.|.|.|.|.|.|.|.",
"|.|.|.|.|.|.|.|.|.|.|.I 2 Y 8.,   |.|.|.|.|.|.|.|.|.o E 3.1 K |.|.|.|.|.|.|.|.|.|.|.",
"|.|.|.|.|.|.|.|.|.|.|.z J +.q.W ; = |.|.|.|.|.|.|.& d 5.9.T b P |.|.|.|.|.|.|.|.|.|.",
"|.|.|.|.|.|.|.|.|.|.R.k _ y.l.r.H - |.|.|.|.|.|.|.: X.g.j.o.v x |.|.|.|.|.|.|.|.|.|.",
"|.|.|.|.|.|.|.|.|.|.|.l ) t.k.i.U u |.|.|.|.|.|.|.< #.f.h.@.c |.|.|.|.|.|.|.|.|.|.|.",
"|.|.|.|.|.|.|.|.|.|.|.|.|.|.x.|.|.|.|.|.|.|.|.|.|.|.|.|.|.|.|.|.|.|.|.|.|.|.|.|.|.|.",
"|.|.|.|.|.|.|.|.|.|.|.|.|.|.|.|.|.|.|.|.|.|.|.|.|.|.|.|.|.|.|.|.|.|.|.|.|.|.|.|.|.|.",
"|.|.|.|.|.|.|.|.|.|.|.|.|.|.|.|.|.|.|.|.|.|.|.|.|.|.|.|.|.|.|.|.|.|.|.|.|.|.|.|.|.|."
};
