/* XPM */
static char *_e7543599c1446dea91a01aca7e03d09gjEGDJLvISuDZ8Kt[] = {
/* columns rows colors chars-per-pixel */
"42 42 159 2 ",
"   c #5E391F",
".  c #493636",
"X  c #583930",
"o  c #664513",
"O  c #63461D",
"+  c #724E1C",
"@  c #76531B",
"#  c #7E571B",
"$  c #795A29",
"%  c #705133",
"&  c #776043",
"*  c #895416",
"=  c #8B611F",
"-  c #92611A",
";  c #B46C1C",
":  c #B0701F",
">  c #88592A",
",  c #8A6222",
"<  c #8A6528",
"1  c #916722",
"2  c #996B24",
"3  c #9A6C24",
"4  c #9D7226",
"5  c #85683F",
"6  c #A37326",
"7  c #A97727",
"8  c #A67929",
"9  c #AC7C2A",
"0  c #B57924",
"q  c #A97C36",
"w  c #B07D36",
"e  c #C47A25",
"r  c #826A4A",
"t  c #907650",
"y  c #AE802B",
"u  c #B3822D",
"i  c #BC862A",
"p  c #B9872E",
"a  c #AE8237",
"s  c #AE823B",
"d  c #B38335",
"f  c #BB8736",
"g  c #C98428",
"h  c #D38527",
"j  c #D58B27",
"k  c #D48A28",
"l  c #D6892C",
"z  c #D7942F",
"x  c #DB942C",
"c  c #C88B36",
"v  c #D08D33",
"b  c #DE9F39",
"n  c #E3992E",
"m  c #EBA53A",
"M  c #F2AC3E",
"N  c #97805E",
"B  c #A1804F",
"V  c #B28948",
"C  c #B9914C",
"Z  c #AF8B54",
"A  c #B68F53",
"S  c #B89257",
"D  c #99817B",
"F  c #BE9F6F",
"G  c #A79378",
"H  c #B19476",
"J  c #D89C48",
"K  c #C69658",
"L  c #D19957",
"P  c #E49F4A",
"I  c #DCA348",
"U  c #EFAD44",
"Y  c #E6A849",
"T  c #F2AC41",
"R  c #F5B045",
"E  c #F2B34D",
"W  c #FFA95B",
"Q  c #F9BB57",
"!  c #C3A06A",
"~  c #D6A361",
"^  c #D9A86B",
"/  c #C6A97C",
"(  c #D6AA72",
")  c #EBB96E",
"_  c #E6B975",
"`  c #FFC55C",
"'  c #5B9BB6",
"]  c #6896A5",
"[  c #61A2BE",
"{  c #76ABBC",
"}  c #79ADBE",
"|  c #5EA8C3",
" . c #7AAEC0",
".. c #64B2D2",
"X. c #6ABBDE",
"o. c #71BAD8",
"O. c #6BBDE0",
"+. c #78C4E3",
"@. c #AB9584",
"#. c #BAA790",
"$. c #9997A2",
"%. c #A5A3AD",
"&. c #BBAFAE",
"*. c #A5A5B0",
"=. c #B7B5BD",
"-. c #CAAD82",
";. c #CEB084",
":. c #CFB496",
">. c #D3BB99",
",. c #E0B785",
"<. c #C9BAA4",
"1. c #D0BBA3",
"2. c #E9C796",
"3. c #D9C0A9",
"4. c #CDC5BF",
"5. c #D3C1B4",
"6. c #DFD1BF",
"7. c #E3CEB4",
"8. c #E7D0B8",
"9. c #81B2C3",
"0. c #93B9C6",
"q. c #94BDCD",
"w. c #BBBBC2",
"e. c #C2BEC6",
"r. c #C1BFC8",
"t. c #84D1F5",
"y. c #8BD4F3",
"u. c #BEF8FF",
"i. c #C4C4C6",
"p. c #C4CBCB",
"a. c #D9CFC6",
"s. c #DDD5CE",
"d. c #CACDD5",
"f. c #D1CDD2",
"g. c #C7D1D7",
"h. c #CED6DB",
"j. c #D7D7DD",
"k. c #E2D3C1",
"l. c #E7D1CB",
"z. c #ECDED2",
"x. c #EEE6DC",
"c. c #F0E4DC",
"v. c #DEDFE2",
"b. c #E0DEE8",
"n. c #DEE6EC",
"m. c #C1FAFF",
"M. c #E1E1E6",
"N. c #E4E2EA",
"B. c #E4E9EE",
"V. c #F4EBE5",
"C. c #F5EFEB",
"Z. c #F3F0EE",
"A. c #EDEFF3",
"S. c #F0EDF1",
"D. c #EFF0F2",
"F. c #F4F3F5",
"G. c #F9F4F1",
"H. c #F6F6FA",
"J. c #FFFFFF",
/* pixels */
"J.J.J.J.J.J.J.J.J.J.J.J.J.J.J.J.J.J.J.J.J.J.J.J.J.J.J.J.J.J.J.J.J.J.J.J.J.J.J.J.J.J.",
"J.J.J.J.J.J.J.J.J.J.J.J.J.J.J.J.J.J.J.F.i.l.J.J.J.J.J.J.J.J.J.J.J.J.J.J.J.J.J.J.J.J.",
"J.J.J.J.J.J.J.J.J.J.J.J.J.J.J.J.J.J.H.n.d.D J.J.J.J.J.J.J.J.J.J.J.J.J.J.J.J.J.J.J.J.",
"J.J.J.J.J.J.J.J.J.J.J.J.J.J.J.J.J.H.F.F.w.j.J.J.J.J.J.J.J.J.J.J.J.J.J.J.J.J.J.J.J.J.",
"J.J.J.J.J.J.J.J.J.J.J.J.J.J.J.J.J.A.F.h.F.J.J.J.J.J.J.J.J.J.J.J.J.J.J.J.J.J.J.J.J.J.",
"J.J.J.J.J.J.J.J.J.J.J.J.J.J.J.J.J.B.A.j.J.J.J.J.J.J.J.J.J.J.J.J.J.J.J.J.J.J.J.J.J.J.",
"J.J.J.J.J.J.J.J.J.J.J.J.J.J.J.J.A.n.d.A.J.J.J.J.J.J.J.J.J.J.J.J.J.J.J.J.J.J.J.J.J.J.",
"J.J.J.J.J.J.J.J.J.J.J.J.B.q.9. .} q.0.{ {  .0.M.J.J.J.J.J.J.J.J.J.J.J.J.J.J.J.J.J.J.",
"J.J.J.J.J.J.J.J.J.J.J.J.h.[ ..O.t.m.y.+.o.| ] p.J.J.J.J.J.J.J.J.J.J.J.J.J.J.J.J.J.J.",
"J.J.J.J.J.J.J.J.J.J.J.J.g.' ..X.t.u.y.+.o.| ] p.J.J.J.J.J.J.J.J.J.J.J.J.J.J.J.J.J.J.",
"J.J.J.J.J.J.J.J.J.J.J.W W W W W W W W W W W W W W H.J.J.J.J.J.J.J.J.J.J.J.J.J.J.J.J.",
"J.J.J.J.J.J.J.J.J.v.W W W W W W W W W W W W W W W W W J.J.J.J.J.J.6.! S ;.x.J.J.J.J.",
"J.J.J.J.J.J.J.J.W W W W W W W W W W W W W W W W W W W W J.J.J.J.3.p p u u d z.J.J.J.",
"J.J.J.J.J.J.J.W W W W W W W W W W W W W W W W W W W W W W J.J.Z.4 i y S 4 u S J.J.J.",
"J.J.J.J.J.J.H.W W W W W W W W W W W W W W W W W W W W W W F.J.<.y u -.J.& 8 9 C.J.J.",
"J.J.J.J.J.J.W W W W W W W W W W W W W W W W W W W W W W W W J.G i y 6.J.N 9 9 x.J.J.",
"J.J.J.J.J.N.W W W W W W W W W W W W W W W W W W W W W W W W D.5 p u / s., p a J.J.J.",
"J.J.J.J.H.W W W W f.S.$.W W W W W W W W W W W W W W W W W W W @ p 9 9 8 u 9 -.J.J.J.",
"J.J.J.J.W W W W $.b.H.r.W W W W W W W W W W W W W W W W W W W 7 7 7 7 8 9 9 x.J.J.J.",
"J.J.J.J.W W W W =.N.H.r.W W W W W W W W W W W W W W W W W W W 3 u 9 0 7 8 V J.J.J.J.",
"J.J.J.J.W W W W e.N.H.*.W W W W W W W W W W W W W W W W W W W < y 8 6 2 6 V J.J.J.J.",
"J.J.J.J.W W W W =.b.S.W W W W W W W W W W W W W W W W W W W W @ 1 , = = 7 q F.J.J.J.",
"J.J.J.J.W W W W $.j.h.W W W W W W W W W W W W W W W W W W W W o = = 2 8 9 9 >.J.J.J.",
"J.J.J.J.J.W W W W $.W W W W W W W W W W W W W W W W W W W W W O 9 9 A a.+ 9 A J.J.J.",
"J.J.J.J.J.W W W W W W W W W W W W W W W W W W W W W W W W W W & y y a.J.r 8 9 J.J.J.",
"J.J.J.J.J.W W W W W W W W W W W W W W W W W W W W W W W W W w.@.9 y k.G.$ y s J.J.J.",
"J.J.J.J.J.J.W W W W W W W W W W W W W W W W W W W W W W W W H.4.1 u C B 4 y / J.J.J.",
"J.J.J.J.J.J.W W W W W W W W W W W W W W W W W W W W W W W W J.J.t 9 y y y s V.J.J.J.",
"J.J.J.J.J.J.J.W W W W W W W W W W W W W W W W W W W W W W J.J.J.F.#.Z q F x.J.J.J.J.",
"J.J.J.J.J.J.J.H.W W W W W W W W W W W W W W W W W W W W F.J.J.J.J.J.J.J.J.J.J.J.J.J.",
"J.J.J.J.J.J.J.J.S.W W W W W W W W W W W W W W W W W W A.J.J.J.J.J.J.J.J.J.J.J.J.J.J.",
"J.J.J.J.J.J.J.J.J.H.W W W W W W W W W W W W W X $ W J.J.J.J.J.J.J.J.J.J.J.J.J.J.J.J.",
"J.J.J.J.J.J.J.J.J.J.J.n.W W W W W W W W W W > P l J.J.J.J.J.J.J.J.J.J.J.J.J.J.J.J.J.",
"J.J.J.J.J.J.J.J.J.G.:.H @.&.%.. . W W W W $.w E v J.J.J.J.J.J.J.J.J.J.J.J.J.J.J.J.J.",
"J.J.J.J.J.J.J.J.V.c g 4 # o %   @ * 5.J.J.J.q E z J.J.J.J.J.J.J.J.J.J.J.J.J.J.J.J.J.",
"J.J.J.J.J.J.J.J.,.x b J d 3 - * - 6 0 f K 1.> J h J.J.J.J.J.J.J.J.J.J.J.J.J.J.J.J.J.",
"J.J.J.J.J.J.J.J.J x U Q I c 0 : h b R R m j ; e k ^ J.J.J.J.J.J.J.J.J.J.J.J.J.J.J.J.",
"J.J.J.J.J.J.J.J.K x U Q Y v g g x M ` ` M n j h n j V.J.J.J.J.J.J.J.J.J.J.J.J.J.J.J.",
"J.J.J.J.J.J.J.J.z.,._ ) ^ ~ ( c x M ` ` T n h h l h z.J.J.J.J.J.J.J.J.J.J.J.J.J.J.J.",
"J.J.J.J.J.J.J.J.J.J.J.J.J.J.J.L x m ` ` m x h h v ~ C.J.J.J.J.J.J.J.J.J.J.J.J.J.J.J.",
"J.J.J.J.J.J.J.J.J.J.J.J.J.J.J.G.8.2.2.2.2.2.7.c.J.J.J.J.J.J.J.J.J.J.J.J.J.J.J.J.J.J.",
"J.J.J.J.J.J.J.J.J.J.J.J.J.J.J.J.J.J.J.J.J.J.J.J.J.J.J.J.J.J.J.J.J.J.J.J.J.J.J.J.J.J."
};
