/* XPM */
static char *result[] = {
/* columns rows colors chars-per-pixel */
"42 42 184 2 ",
"   c #111326",
".  c #13162B",
"X  c #16192D",
"o  c #1B1A2C",
"O  c #101730",
"+  c #141B34",
"@  c #1A1D33",
"#  c #161E3A",
"$  c #191F39",
"%  c #211D2C",
"&  c #211C27",
"*  c #221F31",
"=  c #1F2035",
"-  c #1C223C",
";  c #14203C",
":  c #2C232D",
">  c #232233",
",  c #22253C",
"<  c #25283C",
"1  c #2C2837",
"2  c #56361A",
"3  c #653C0C",
"4  c #402724",
"5  c #44302A",
"6  c #5D3D24",
"7  c #553D39",
"8  c #78420E",
"9  c #6F461A",
"0  c #6B4724",
"q  c #794C21",
"w  c #7C5227",
"e  c #765238",
"r  c #1D2542",
"t  c #1E2A46",
"y  c #1E2C4B",
"u  c #172345",
"i  c #1D2E50",
"p  c #1E3255",
"a  c #212642",
"s  c #242A44",
"d  c #2A2D46",
"f  c #242C49",
"g  c #292E4A",
"h  c #302E41",
"j  c #2C3146",
"k  c #223049",
"l  c #2C324D",
"z  c #323142",
"x  c #31344C",
"c  c #38364A",
"v  c #3D3A4B",
"b  c #393748",
"n  c #202D50",
"m  c #2F3551",
"M  c #23345A",
"N  c #213154",
"B  c #313651",
"V  c #353A53",
"C  c #3A3E54",
"Z  c #3B3F58",
"A  c #293E67",
"S  c #233961",
"D  c #433C49",
"F  c #3E4155",
"G  c #3E4259",
"H  c #5A4B4C",
"J  c #404256",
"K  c #4D4551",
"L  c #44475C",
"P  c #46495D",
"I  c #494B5E",
"U  c #584F55",
"Y  c #675249",
"T  c #4A4D62",
"R  c #474C61",
"E  c #535567",
"W  c #575A6C",
"Q  c #5F6171",
"!  c #646676",
"~  c #854E16",
"^  c #955616",
"/  c #975B1A",
"(  c #825619",
")  c #A15E15",
"_  c #99651E",
"`  c #B36A1B",
"'  c #BD6D1C",
"]  c #B4731F",
"[  c #A4661D",
"{  c #844E2A",
"}  c #895C23",
"|  c #9A5D24",
" . c #8E6227",
".. c #916522",
"X. c #9B6B22",
"o. c #96672E",
"O. c #A57225",
"+. c #AD7426",
"@. c #B67725",
"#. c #A67635",
"$. c #C56F1B",
"%. c #D27C1F",
"&. c #C67A21",
"*. c #C87C22",
"=. c #8C6544",
"-. c #A57A47",
";. c #976F68",
":. c #8E726A",
">. c #BC842A",
",. c #B3862B",
"<. c #B4823A",
"1. c #B48235",
"2. c #CE8222",
"3. c #C6852A",
"4. c #D48728",
"5. c #DC9229",
"6. c #CA8B36",
"7. c #CF9E33",
"8. c #CA9A37",
"9. c #D79732",
"0. c #E19227",
"q. c #E5992D",
"w. c #E59937",
"e. c #CBA138",
"r. c #D1A435",
"t. c #D9A636",
"y. c #ECA435",
"u. c #E9A33B",
"i. c #F2A93D",
"p. c #F0A736",
"a. c #EEB03A",
"s. c #F8BA3C",
"d. c #FEC23F",
"f. c #B98A4E",
"g. c #B78749",
"h. c #C98940",
"j. c #EB9C42",
"k. c #CCA341",
"l. c #E3A243",
"z. c #E9A445",
"x. c #EDAC4B",
"c. c #ECAC44",
"v. c #F5AE43",
"b. c #EFB04B",
"n. c #F9B74D",
"m. c #FEBA49",
"M. c #F7B44D",
"N. c #FDBB52",
"B. c #FFC842",
"V. c #FFD547",
"C. c #F8D04F",
"Z. c #FFC157",
"A. c #FFC65C",
"S. c #FFC85E",
"D. c #FBD353",
"F. c #FEE956",
"G. c #59888E",
"H. c #5086B0",
"J. c #5595AC",
"K. c #639AA3",
"L. c #5FA2B5",
"P. c #7AA7AE",
"I. c #62A4B5",
"U. c #6AA7B5",
"Y. c #72ADBC",
"T. c #6EB1BF",
"R. c #5F9FCE",
"E. c #60A7C1",
"W. c #6AB5C8",
"Q. c #76BDCC",
"!. c #7FC0CF",
"~. c #A19F9D",
"^. c #87B8BF",
"/. c #A7A8A7",
"(. c #B4B6B4",
"). c #8CB9C3",
"_. c #98C3CD",
"`. c #88C9D9",
"'. c #9FD0DB",
"]. c #90D1E2",
"[. c #A5D7E2",
"{. c #BCECF7",
"}. c #C6F6FD",
"|. c None",
/* pixels */
"|.|.|.|.|.|.|.|.|.|.|.|.|.|.|.|.|.|.|.|.|.|.|.|.|.|.|.|.|.|.|.|.|.|.|.|.|.|.|.|.|.|.",
"|.|.|.|.|.|.|.|.|.|.|.|.|.|.|.|.|.|.|.|.|.D.|.|.|.|.|.|.|.|.|.|.|.|.|.|.|.|.|.|.|.|.",
"|.|.|.|.|.|.|.|.|.|.|.|.|.|.|.|.|.|.|.|.C.F.|.|.|.|.|.|.|.|.|.|.|.|.|.|.|.|.|.|.|.|.",
"|.|.|.|.|.|.|.|.|.|.|.|.|.|.|.|.|.|.|.|.:.;.|.|.|.|.|.|.|.|.|.|.|.|.|.|.|.|.|.|.|.|.",
"|.|.|.|.|.|.|.|.|.|.|.|.|.|.|.|.|.|.|.|.~./.|.|.|.|.|.|.|.|.|.|.|.|.|.|.|.|.|.|.|.|.",
"|.|.|.|.|.|.|.|.|.|.|.|.|.|.|.|.|.|.|.|./.(.|.|.|.|.|.|.|.|.|.|.|.|.|.|.|.|.|.|.|.|.",
"|.|.|.|.|.|.|.|.|.|.|.|.|.|.|.|.|.|.|.|.(.(.|.|.|.|.|.|.|.|.|.|.|.|.|.|.|.|.|.|.|.|.",
"|.|.|.|.|.|.|.|.|.|.|.|.|.|.|.|.K.U.I.U.)._.Y.I.I.L.|.|.|.|.|.|.|.|.|.|.|.|.|.|.|.|.",
"|.|.|.|.|.|.|.|.|.|.|.|.|.|.|.|.K.^.Q.`.[.}.].W.W.E.R.|.|.|.|.|.|.|.|.|.|.|.|.|.|.|.",
"|.|.|.|.|.|.|.|.|.|.|.|.|.|.|.|.G.P.T.!.'.{.`.W.L.J.H.|.|.|.|.|.|.|.|.|.|.|.|.|.|.|.",
"|.|.|.|.|.|.|.|.|.|.|.|.|.|.a - - t y k k k y y r r a s |.|.|.|.|.|.|.|.|.|.|.|.|.|.",
"|.|.|.|.|.|.|.|.|.|.|.|.|.- , s s s f f l m l n f s s a a |.|.|.|.|.|.|.|.|.|.|.|.|.",
"|.|.|.|.|.|.|.|.|.|.|.|.- a s s f l l m B B B m l f f r a a a |.|.|.|.|.|.|.|.|.|.|.",
"|.|.|.|.|.|.|.|.|.|.|.> , s f g l B B K Y H Z V m l f f s a r |.|.|.|.|.|.|.|.|.|.|.",
"|.|.|.|.|.|.|.|.|.|.- , s s g l m V G =.>.#.R L V B m f f r a r |.|.|.|.|.|.|.|.|.|.",
"|.|.|.|.|.|.|.|.|.|., s d d l l V Z P -.a.g.Q T G V m g f s f s r |.|.|.|.|.|.|.|.|.",
"|.|.|.|.|.|.|.|.|.> s f g g l B V Z R f.V.k.! E L Z B l g f f i r |.|.|.|.|.|.|.|.|.",
"|.|.|.|.|.|.|.|.|., j j x l l m V G R f.B.8.Q E R Z V m l f f f y r |.|.|.|.|.|.|.|.",
"|.|.|.|.|.|.|.|.= < j c c x l m V G L g.d.r.E R L G V x l g f n n n |.|.|.|.|.|.|.|.",
"|.|.|.|.|.|.|.|.= < h D v x l B V Z J -.t.,.I P L Z C B l g s f N M |.|.|.|.|.|.|.|.",
"|.|.|.|.|.|.|.|.@ < 1 K D x l B C Z K o.,._ Y P R R C B l g f s M A |.|.|.|.|.|.|.|.",
"|.|.|.|.|.|.|.|.* , 1 D v x x V v J e _ O._ ..U R D V l g f a f M A |.|.|.|.|.|.|.|.",
"|.|.|.|.|.|.|.|.o > j b b j x V C F } +.7.,.X.Y L C V l f a r y M S |.|.|.|.|.|.|.|.",
"|.|.|.|.|.|.|.|.@ , 1 1 j j l l V v { >.s.t...H D V l g f a r u i p |.|.|.|.|.|.|.|.",
"|.|.|.|.|.|.|.|.|.o > < s s j l l l 7 >.d.r.0 v Z m l f t r - u u i |.|.|.|.|.|.|.|.",
"|.|.|.|.|.|.|.|.|.o @ ; , < s s j d j 1.V.r.v x l m s a r - # # # u |.|.|.|.|.|.|.|.",
"|.|.|.|.|.|.|.|.|.X X @ - - - a s s d <.V.r.z d f s a t - ; # O + |.|.|.|.|.|.|.|.|.",
"|.|.|.|.|.|.|.|.|.|.o X @ = - , < < a 1.d.7.s s a a - - # # O O + |.|.|.|.|.|.|.|.|.",
"|.|.|.|.|.|.|.|.|.|.@ . X = = ; - - , <.B.7.- , - $ $ + + + X O |.|.|.|.|.|.|.|.|.|.",
"|.|.|.|.|.|.|.|.|.|.|.. X X @ @ + ; - #.a.8.; ; $ # @ + O O O |.|.|.|.|.|.|.|.|.|.|.",
"|.|.|.|.|.|.|.|.|.|.|.|.. . X @ @ @ @  .3.O.+ + @ @ @ @ X . |.|.|.|.|.|.|.|.|.|.|.|.",
"|.|.|.|.|.|.|.|.|.|.|.|.|.| 5 : : > @ w X.} @ @ * : : : { |.|.|.|.|.|.|.|.|.|.|.|.|.",
"|.|.|.|.|.|.|.|.|.|.|.|.|.0.l.0 % > o 6 ( 9 X X % o 4 6.w.|.|.|.|.|.|.|.|.|.|.|.|.|.",
"|.|.|.|.|.|.|.|.|.|.|.|.|.q.M.#.|.|.o         o @ |.|.z.c.|.|.|.|.|.|.|.|.|.|.|.|.|.",
"|.|.|.|.|.|.|.|.|.|.|.|.@.q.n.+.2 |.|.|.|.|.|.|.|.|.~ l.v.@.@.|.|.|.|.|.|.|.|.|.|.|.",
"|.|.|.|.|.|.|.|.|.|.|.4.' 4.j.[ 3 q |.|.|.|.|.|.|.8 3 6.j.' 2.2.|.|.|.|.|.|.|.|.|.|.",
"|.|.|.|.|.|.|.|.|.|.|.%.2.y.b.6./ ^ |.|.|.|.|.|.|.^ +.l.c.5.*.4.|.|.|.|.|.|.|.|.|.|.",
"|.|.|.|.|.|.|.|.|.|.|.$.0.m.S.m.*.^ |.|.|.|.|.|.|.) y.Z.A.y.*.&.|.|.|.|.|.|.|.|.|.|.",
"|.|.|.|.|.|.|.|.|.|.|.' 0.m.A.N.4./ |.|.|.|.|.|.|.` i.N.A.p.*.@.|.|.|.|.|.|.|.|.|.|.",
"|.|.|.|.|.|.|.|.|.|.|.|.4.u.x.z.3.|.|.|.|.|.|.|.|.|.w.x.x.9.|.|.|.|.|.|.|.|.|.|.|.|.",
"|.|.|.|.|.|.|.|.|.|.|.|.|.|.|.|.|.|.|.|.|.|.|.|.|.|.|.|.|.|.|.|.|.|.|.|.|.|.|.|.|.|.",
"|.|.|.|.|.|.|.|.|.|.|.|.|.|.|.|.|.|.|.|.|.|.|.|.|.|.|.|.|.|.|.|.|.|.|.|.|.|.|.|.|.|."
};
