/* XPM */
static char *_108d1942a614996c574f823cb50a5b9CliTaVLk1nbCS7Lf[] = {
/* columns rows colors chars-per-pixel */
"42 42 156 2 ",
"   c #5E391F",
".  c #493636",
"X  c #583930",
"o  c #664513",
"O  c #63461D",
"+  c #724E1C",
"@  c #76531B",
"#  c #7E571B",
"$  c #795A29",
"%  c #705133",
"&  c #776043",
"*  c #895416",
"=  c #8B611F",
"-  c #92611A",
";  c #B46C1C",
":  c #B0701F",
">  c #88592A",
",  c #8A6222",
"<  c #8A6528",
"1  c #916722",
"2  c #996B24",
"3  c #9A6C24",
"4  c #9D7226",
"5  c #85683F",
"6  c #A37326",
"7  c #A97727",
"8  c #A67929",
"9  c #AC7C2A",
"0  c #B57924",
"q  c #A97C36",
"w  c #B07D36",
"e  c #C47A25",
"r  c #826A4A",
"t  c #907650",
"y  c #AE802B",
"u  c #B3822D",
"i  c #BC862A",
"p  c #B9872E",
"a  c #AE8237",
"s  c #AE823B",
"d  c #B38335",
"f  c #BB8736",
"g  c #C98428",
"h  c #D38527",
"j  c #D58B27",
"k  c #D48A28",
"l  c #D6892C",
"z  c #D7942F",
"x  c #DB942C",
"c  c #C88B36",
"v  c #D08D33",
"b  c #DE9F39",
"n  c #E3992E",
"m  c #EBA53A",
"M  c #F2AC3E",
"N  c #97805E",
"B  c #A1804F",
"V  c #B28948",
"C  c #B9914C",
"Z  c #AF8B54",
"A  c #B68F53",
"S  c #B89257",
"D  c #99817B",
"F  c #BE9F6F",
"G  c #A79378",
"H  c #B19476",
"J  c #D89C48",
"K  c #C69658",
"L  c #D19957",
"P  c #E49F4A",
"I  c #DCA348",
"U  c #EFAD44",
"Y  c #E6A849",
"T  c #F2AC41",
"R  c #F5B045",
"E  c #F2B34D",
"W  c #F9BB57",
"Q  c #C3A06A",
"!  c #D6A361",
"~  c #D9A86B",
"^  c #C6A97C",
"/  c #D6AA72",
"(  c #EBB96E",
")  c #E6B975",
"_  c #FFC55C",
"`  c #FFF75B",
"'  c #5B9BB6",
"]  c #6896A5",
"[  c #61A2BE",
"{  c #76ABBC",
"}  c #79ADBE",
"|  c #5EA8C3",
" . c #7AAEC0",
".. c #64B2D2",
"X. c #6ABBDE",
"o. c #71BAD8",
"O. c #6BBDE0",
"+. c #78C4E3",
"@. c #AB9584",
"#. c #BAA790",
"$. c #9796A1",
"%. c #A5A3AD",
"&. c #BBAFAE",
"*. c #A5A5B0",
"=. c #B7B5BD",
"-. c #CAAD82",
";. c #CEB084",
":. c #CFB496",
">. c #D3BB99",
",. c #E0B785",
"<. c #C9BAA4",
"1. c #E9C796",
"2. c #D9C0A9",
"3. c #CDC5BF",
"4. c #D3C1B4",
"5. c #DFD1BF",
"6. c #E3CEB4",
"7. c #E7D0B8",
"8. c #93B9C6",
"9. c #94BDCD",
"0. c #BBBBC2",
"q. c #C2BEC6",
"w. c #C1BFC8",
"e. c #84D1F5",
"r. c #8BD4F3",
"t. c #BEF8FF",
"y. c #C4C4C6",
"u. c #C4CBCB",
"i. c #D9CFC6",
"p. c #DDD5CE",
"a. c #CACDD5",
"s. c #D1CDD2",
"d. c #C7D1D7",
"f. c #CED6DB",
"g. c #D7D7DD",
"h. c #E2D3C1",
"j. c #E7D1CB",
"k. c #ECDED2",
"l. c #EEE6DC",
"z. c #F0E4DC",
"x. c #E0DEE8",
"c. c #DEE6EC",
"v. c #C1FAFF",
"b. c #E4E2EA",
"n. c #E4E9EE",
"m. c #EEEAEA",
"M. c #F4EBE5",
"N. c #F5EFEB",
"B. c #F3F0EE",
"V. c #EDEFF3",
"C. c #F0EDF1",
"Z. c #EFF0F2",
"A. c #F4F3F5",
"S. c #F9F4F1",
"D. c #F6F6FA",
"F. c #FFFFFF",
/* pixels */
"F.F.F.F.F.F.F.F.F.F.F.F.F.F.F.F.F.F.F.F.F.F.F.F.F.F.F.F.F.F.F.F.F.F.F.F.F.F.F.F.F.F.",
"F.F.F.F.F.F.F.F.F.F.F.F.F.F.F.F.F.F.F.A.y.j.F.F.F.F.F.F.F.F.F.F.F.F.F.F.F.F.F.F.F.F.",
"F.F.F.F.F.F.F.F.F.F.F.F.F.F.F.F.F.F.D.c.a.D F.F.F.F.F.F.F.F.F.F.F.F.F.F.F.F.F.F.F.F.",
"F.F.F.F.F.F.F.F.F.F.F.F.F.F.F.F.F.F.A.A.0.g.F.F.F.F.F.F.F.F.F.F.F.F.F.F.F.F.F.F.F.F.",
"F.F.F.F.F.F.F.F.F.F.F.F.F.F.F.F.F.m.A.f.A.F.F.F.F.F.F.F.F.F.F.F.F.F.F.F.F.F.F.F.F.F.",
"F.F.F.F.F.F.F.F.F.F.F.F.F.F.F.F.F.n.V.g.F.F.F.F.F.F.F.F.F.F.F.F.F.F.F.F.F.F.F.F.F.F.",
"F.F.F.F.F.F.F.F.F.F.F.F.F.F.F.F.V.c.a.V.F.F.F.F.F.F.F.F.F.F.F.F.F.F.F.F.F.F.F.F.F.F.",
"F.F.F.F.F.F.F.F.F.F.F.F.n.9. . .} 9.8.{ {  .8.b.F.F.F.F.F.F.F.F.F.F.F.F.F.F.F.F.F.F.",
"F.F.F.F.F.F.F.F.F.F.F.F.f.[ ..O.e.v.r.+.o.| ] u.F.F.F.F.F.F.F.F.F.F.F.F.F.F.F.F.F.F.",
"F.F.F.F.F.F.F.F.F.F.F.F.d.' ..X.e.t.r.+.o.| ] u.F.F.F.F.F.F.F.F.F.F.F.F.F.F.F.F.F.F.",
"F.F.F.F.F.F.F.F.F.F.F.` ` ` ` ` ` ` ` ` ` ` ` ` ` D.F.F.F.F.F.F.F.F.F.F.F.F.F.F.F.F.",
"F.F.F.F.F.F.F.F.F.` ` ` ` ` ` ` ` ` ` ` ` ` ` ` ` ` ` F.F.F.F.F.F.5.Q S ;.l.F.F.F.F.",
"F.F.F.F.F.F.F.F.` ` ` ` ` ` ` ` ` ` ` ` ` ` ` ` ` ` ` ` F.F.F.F.2.p p u u d k.F.F.F.",
"F.F.F.F.F.F.F.` ` ` ` ` ` ` ` ` ` ` ` ` ` ` ` ` ` ` ` ` ` F.F.B.4 i y S 4 u S F.F.F.",
"F.F.F.F.F.F.D.` ` ` ` ` ` ` ` ` ` ` ` ` ` ` ` ` ` ` ` ` ` A.F.<.y u -.F.& 8 9 N.F.F.",
"F.F.F.F.F.F.` ` ` ` ` ` ` ` ` ` ` ` ` ` ` ` ` ` ` ` ` ` ` ` F.G i y 5.F.N 9 9 l.F.F.",
"F.F.F.F.F.m.` ` ` ` ` ` ` ` ` ` ` ` ` ` ` ` ` ` ` ` ` ` ` ` Z.5 p u ^ p., p a F.F.F.",
"F.F.F.F.D.` ` ` ` s.C.` ` ` ` ` ` ` ` ` ` ` ` ` ` ` ` ` ` ` ` @ p 9 9 8 u 9 -.F.F.F.",
"F.F.F.F.m.` ` ` ` x.D.w.` ` ` ` ` ` ` ` ` ` ` ` ` ` ` ` ` ` ` 7 7 7 7 8 9 9 l.F.F.F.",
"F.F.F.F.` ` ` ` =.b.D.w.` ` ` ` ` ` ` ` ` ` ` ` ` ` ` ` ` ` ` 3 u 9 0 7 8 V F.F.F.F.",
"F.F.F.F.` ` ` ` q.x.D.*.` ` ` ` ` ` ` ` ` ` ` ` ` ` ` ` ` ` ` < y 8 6 2 6 V F.F.F.F.",
"F.F.F.F.` ` ` ` 0.x.V.` ` ` ` ` ` ` ` ` ` ` ` ` ` ` ` ` ` ` ` @ 1 , = = 7 q A.F.F.F.",
"F.F.F.F.` ` ` ` $.g.f.` ` ` ` ` ` ` ` ` ` ` ` ` ` ` ` ` ` ` ` o = = 2 8 9 9 >.F.F.F.",
"F.F.F.F.F.` ` ` ` $.` ` ` ` ` ` ` ` ` ` ` ` ` ` ` ` ` ` ` ` ` O 9 9 A i.+ 9 A F.F.F.",
"F.F.F.F.F.` ` ` ` ` ` ` ` ` ` ` ` ` ` ` ` ` ` ` ` ` ` ` ` ` ` & y y i.F.r 8 9 F.F.F.",
"F.F.F.F.F.` ` ` ` ` ` ` ` ` ` ` ` ` ` ` ` ` ` ` ` ` ` ` ` ` 0.@.9 y h.S.$ y s F.F.F.",
"F.F.F.F.F.F.` ` ` ` ` ` ` ` ` ` ` ` ` ` ` ` ` ` ` ` ` ` ` ` D.3.1 u C B 4 y ^ F.F.F.",
"F.F.F.F.F.F.` ` ` ` ` ` ` ` ` ` ` ` ` ` ` ` ` ` ` ` ` ` ` ` F.F.t 9 y y y s M.F.F.F.",
"F.F.F.F.F.F.F.` ` ` ` ` ` ` ` ` ` ` ` ` ` ` ` ` ` ` ` ` ` F.F.F.A.#.Z q F l.F.F.F.F.",
"F.F.F.F.F.F.F.D.` ` ` ` ` ` ` ` ` ` ` ` ` ` ` ` ` ` ` ` A.F.F.F.F.F.F.F.F.F.F.F.F.F.",
"F.F.F.F.F.F.F.F.C.` ` ` ` ` ` ` ` ` ` ` ` ` ` ` ` ` ` V.F.F.F.F.F.F.F.F.F.F.F.F.F.F.",
"F.F.F.F.F.F.F.F.F.D.` ` ` ` ` ` ` ` ` ` ` ` ` X $ ` F.F.F.F.F.F.F.F.F.F.F.F.F.F.F.F.",
"F.F.F.F.F.F.F.F.F.F.F.c.` ` ` ` ` ` ` ` ` ` > P g F.F.F.F.F.F.F.F.F.F.F.F.F.F.F.F.F.",
"F.F.F.F.F.F.F.F.F.S.:.H @.&.%.. . ` ` ` ` $.w E z F.F.F.F.F.F.F.F.F.F.F.F.F.F.F.F.F.",
"F.F.F.F.F.F.F.F.M.c g 4 # o %   @ * 4.F.F.F.q E z F.F.F.F.F.F.F.F.F.F.F.F.F.F.F.F.F.",
"F.F.F.F.F.F.F.F.,.x b J d 3 - * - 6 0 f K 2.> J h F.F.F.F.F.F.F.F.F.F.F.F.F.F.F.F.F.",
"F.F.F.F.F.F.F.F.J x U W I c 0 : h b R R m j ; e k ~ F.F.F.F.F.F.F.F.F.F.F.F.F.F.F.F.",
"F.F.F.F.F.F.F.F.K x U W Y v g g x M _ _ M n j h n j M.F.F.F.F.F.F.F.F.F.F.F.F.F.F.F.",
"F.F.F.F.F.F.F.F.k.,.) ( ~ ! / c x M _ _ T n h h l h k.F.F.F.F.F.F.F.F.F.F.F.F.F.F.F.",
"F.F.F.F.F.F.F.F.F.F.F.F.F.F.F.L x m _ _ m x h h v ! N.F.F.F.F.F.F.F.F.F.F.F.F.F.F.F.",
"F.F.F.F.F.F.F.F.F.F.F.F.F.F.F.S.7.1.1.1.1.1.6.z.F.F.F.F.F.F.F.F.F.F.F.F.F.F.F.F.F.F.",
"F.F.F.F.F.F.F.F.F.F.F.F.F.F.F.F.F.F.F.F.F.F.F.F.F.F.F.F.F.F.F.F.F.F.F.F.F.F.F.F.F.F."
};
