/* XPM */
static char *f6dc52859c82477abaa100e72c2fb99dvhcgT1JXboD4k4aC[] = {
/* columns rows colors chars-per-pixel */
"42 42 185 2 ",
"   c #5A3A1F",
".  c #4E3229",
"X  c #523527",
"o  c #744B14",
"O  c #714D19",
"+  c #ED1C24",
"@  c #93621F",
"#  c #9A6620",
"$  c #9F6D22",
"%  c #9B6B29",
"&  c #A77024",
"*  c #A5772E",
"=  c #AF7A31",
"-  c #AF7D30",
";  c #C88222",
":  c #C88829",
">  c #CC8A2A",
",  c #DD972D",
"<  c #C78B31",
"1  c #CC9035",
"2  c #D59430",
"3  c #D99731",
"4  c #DC9D38",
"5  c #DF9F3E",
"6  c #E3962A",
"7  c #E6992A",
"8  c #E49931",
"9  c #E3A03A",
"0  c #E1A13D",
"q  c #EDA73B",
"w  c #EFA73C",
"e  c #F8AF3D",
"r  c #B18044",
"t  c #B68A56",
"y  c #EEAB41",
"u  c #F3AE44",
"i  c #F7B246",
"p  c #FBB243",
"a  c #F9B045",
"s  c #F8B851",
"d  c #F9B953",
"f  c #FEBB55",
"g  c #FFBF56",
"h  c #FFBE58",
"j  c #C69A67",
"k  c #D3A66C",
"l  c #D6A86E",
"z  c #DFAE71",
"x  c #E3B266",
"c  c #E6B26A",
"v  c #E5B46B",
"b  c #EAB568",
"n  c #EFBB6C",
"m  c #EEBB6E",
"M  c #F1BD6E",
"N  c #EFBD71",
"B  c #F0BE71",
"V  c #FFC35A",
"C  c #FFC35B",
"Z  c #FEC25C",
"A  c #FFCA62",
"S  c #5888A4",
"D  c #5D91AD",
"F  c #6B97A5",
"G  c #76A5B0",
"H  c #7BAFBE",
"J  c #59A0C1",
"K  c #5BA4C5",
"L  c #7AAEC0",
"P  c #7FB2C2",
"I  c #74BACE",
"U  c #68B7DF",
"Y  c #76BCD1",
"T  c #69B9E1",
"R  c #75C1DA",
"E  c #79C8EB",
"W  c #7ACAED",
"Q  c #7ECEFA",
"!  c #858491",
"~  c #858591",
"^  c #94939C",
"/  c #BBA99E",
"(  c #82AFBF",
")  c #81B2BE",
"_  c #ACA8A8",
"`  c #AEA9AC",
"'  c #B7AEAB",
"]  c #ACABB3",
"[  c #BCB3B0",
"{  c #B9B4B6",
"}  c #B3B4BF",
"|  c #B6B7BF",
" . c #D4B386",
".. c #DAB081",
"X. c #CCAD93",
"o. c #C4AB9E",
"O. c #C2AF9F",
"+. c #D5B690",
"@. c #DBB893",
"#. c #DDBA93",
"$. c #E1BE93",
"%. c #E1BE94",
"&. c #C2B9B5",
"*. c #C6B9B6",
"=. c #D8C1AE",
"-. c #DAC5B5",
";. c #EBCEAD",
":. c #E4D2BF",
">. c #E9D3BC",
",. c #82B4C1",
"<. c #84B6C2",
"1. c #8AB4C1",
"2. c #88B5C7",
"3. c #90BAC7",
"4. c #B3B4C4",
"5. c #B7B8C2",
"6. c #B9B8C3",
"7. c #BBBCC3",
"8. c #9BC1CE",
"9. c #ACC9D1",
"0. c #A3E0F4",
"q. c #A5E2F6",
"w. c #ADE7FA",
"e. c #AFE9FB",
"r. c #C4C1C5",
"t. c #CBC4C3",
"y. c #C1C1C8",
"u. c #C2C0C9",
"i. c #CAC7CE",
"p. c #D5CAC8",
"a. c #D3CECF",
"s. c #D8CECF",
"d. c #DDD2CD",
"f. c #CACBD3",
"g. c #D6D4D2",
"h. c #D6D2D4",
"j. c #D5D5DA",
"k. c #D3D3DE",
"l. c #DCDADA",
"z. c #EEE1D6",
"x. c #F4E5D7",
"c. c #F0E4DA",
"v. c #D3D5E4",
"b. c #D8D7E2",
"n. c #DFDDE0",
"m. c #DCDDE2",
"M. c #D8DEE5",
"N. c #DADAE8",
"B. c #E2DEE3",
"V. c gray88",
"C. c #E3E4E5",
"Z. c #E8E3E4",
"A. c #ECE5E6",
"S. c #E1E6ED",
"D. c #E6E8EE",
"F. c #EDEDEB",
"G. c #ECEBEF",
"H. c #EFEEEC",
"J. c #F0E8E3",
"K. c #F1EBE9",
"L. c #F3EDED",
"P. c #F7EFED",
"I. c #F7F1EF",
"U. c #E6E8F6",
"Y. c #E6EEF4",
"T. c #EDEBF1",
"R. c #EFEFF9",
"E. c #F0EEF5",
"W. c #F0F1F2",
"Q. c #F2F3F5",
"!. c #F5F6F7",
"~. c #FAF5F0",
"^. c #FAF5F1",
"/. c #F0F1FA",
"(. c #F6F6F8",
"). c #F7F7F9",
"_. c #F0F1FC",
"`. c #F1F3FE",
"'. c #F4F4FC",
"]. c #FCF7F9",
"[. c #FAF7FC",
"{. c #F8F8F9",
"}. c #FAF9FD",
"|. c #FDFAFC",
" X c white",
/* pixels */
" X X X X X X X X X X X X X X X X X X X X X X X X X X X X X X X X X X X X X X X X X X",
" X X X X X X X X X X X X X X X X X X Xn._ l. X X X X X X X X X X X X X X X X X X X X",
" X X X X X X X X X X X X X X X X X X Xj.V.g. X X X X X X X X X X X X X X X X X X X X",
" X X X X X X X X X X X X X X X X X X XD.(.H. X X X X X X X X X X X X X X X X X X X X",
" X X X X X X X X X X X X X X X X X X XD.!.H. X X X X X X X X X X X X X X X X X X X X",
" X X X X X X X X X X X X X X X X X X XS.W.F. X X X X X X X X X X X X X X X X X X X X",
" X X X X X X X X X X X X X X X X X X XM.Y.C. X X X X X X X X X X X X X X X X X X X X",
" X X X X X X X X X X X X X X X3.2.P L ( 8.1.H ,.3.9. X X X X X X X X X X X X X X X X",
" X X X X X X X X X X X X X X XD K T Q W e.q.R Y <.G  X X X X X X X X X X X X X X X X",
" X X X X X X X X X X X X X X XS J U Q E w.0.R I ) F  X X X X X X X X X X X X X X X X",
" X X X X X X X X X X X X X+ + + + + + + + + + + + + + +  X X X X X X X X X X X X X X",
" X X X X X X X X X X X X+ + + + + + + + + + + + + + + + +  X X X X X X X X X X X X X",
" X X X X X X X X X X X+ + + + + + + + + + + + + + + + + + +  X X X X X X X X X X X X",
" X X X X X X X X X X+ + + + + + + + + + + + + + + + + + + + +  X X X X X X X X X X X",
" X X X X X X X X X+ + + + + + + + + + + + + + + + + + + + + + +  X X X X X X X X X X",
" X X X X X X X X(.+ + + + + + + + + + + + + + + + + + + + + + + (. X X X X X X X X X",
" X X X X X X X X+ + + + + + + + + + + + + + + + + + + + + + + + +  X X X X X X X X X",
" X X X X X X X+ + + + + + + + B.Z.+ + + + + + ] P.t.+ + + + + + +  X X X X X X X X X",
" X X X X X X X+ + + + + + + u.R.|.{ + + + + + G.|.P.+ + + + + + + +  X X X X X X X X",
" X X X X X X X+ + + + + + + b._.[.a.+ + + + + '.].I.[ + + + + + + +  X X X X X X X X",
" X X X X X X X+ + + + + + + N._.}.h.+ + + + + '.|.L.&.+ + + + + + +  X X X X X X X X",
" X X X X X X X+ + + + + + + v.`.}.r.+ + + + + /. XP.' + + + + + + +  X X X X X X X X",
" X X X X X X X+ + + + + + + 4.U.T.^ + + + + + k.(.A.+ + + + + + + +  X X X X X X X X",
" X X X X X X Xf.+ + + + + + + 5.] + + + + + + + i.` + + + + + + + +  X X X X X X X X",
" X X X X X X XQ.+ + + + + + + + + + + + + + + + + + + + + + + + + !. X X X X X X X X",
" X X X X X X X X+ + + + + + + + + + + + + + + + + + + + + + + + +  X X X X X X X X X",
" X X X X X X X X7.+ + + + + + + + + + + + + + + + + + + + + + + u. X X X X X X X X X",
" X X X X X X X X X+ + + + + + + + + + + + + + + + + + + + + + +  X X X X X X X X X X",
" X X X X X X X X Xn.+ + + + + + + + + + + + + + + + + + + + + n. X X X X X X X X X X",
" X X X X X X X X X X5.+ + + + + + + + + + + + + + + + + + + 7. X X X X X X X X X X X",
" X X X X X X X X X X X} + + + + + + + + + + + + + + + + + |  X X X X X X X X X X X X",
" X X X X X X X X X X X Xo.. + + + + + + + + + + + + + X X. X X X X X X X X X X X X X",
" X X X X X X X X X X X X+.*   + + + + + + + + + + +   = $. X X X X X X X X X X X X X",
" X X X X X X X X X X X X .* O s.y.! + + + + + ! u.*.O - $. X X X X X X X X X X X X X",
" X X X X X X X X X X|.:.t @ o p. X X X X X X X X X/ o @ j c. X X X X X X X X X X X X",
" X X X X X X X X X Xl 3 0 5 < % d. X X X X X X XO.$ 1 0 9 , ;. X X X X X X X X X X X",
" X X X X X X X X X>., u g Z s 2 r  X X X X X XK.& 4 d Z V e 8 ^. X X X X X X X X X X",
" X X X X X X X X X#.6 i V A V q ; (. X X X X X-.: y V A Z p 7 x. X X X X X X X X X X",
" X X X X X X X X X@.3 u g Z h w : R. X X X X X=.> y f V h p 6 c. X X X X X X X X X X",
" X X X X X X X X Xz.z c m N N c z  X X X X X XA.k x m m M b z ^. X X X X X X X X X X",
" X X X X X X X X X X X X X X X X X X X X X X X X X X X X X X X X X X X X X X X X X X",
" X X X X X X X X X X X X X X X X X X X X X X X X X X X X X X X X X X X X X X X X X X"
};
