/* XPM */
static char *result[] = {
/* columns rows colors chars-per-pixel */
"32 32 151 2 ",
"   c #16162E",
".  c #171A2F",
"X  c #1A1A2E",
"o  c #0E1531",
"O  c #111634",
"+  c #141934",
"@  c #1A1D33",
"#  c #151C3B",
"$  c #191E3B",
"%  c #201E2F",
"&  c #211E32",
"*  c #2F1F33",
"=  c #1C2036",
"-  c #1B213C",
";  c #372526",
":  c #31212A",
">  c #242134",
",  c #2A2536",
"<  c #2B2836",
"1  c #22243D",
"2  c #292739",
"3  c #2B293E",
"4  c #4C3323",
"5  c #76521D",
"6  c #6F4A2E",
"7  c #172042",
"8  c #1C2443",
"9  c #1C2648",
"0  c #1F2A4C",
"q  c #222643",
"w  c #282742",
"e  c #242945",
"r  c #292A46",
"t  c #242B4A",
"y  c #292E4D",
"u  c #2C314E",
"i  c #25314E",
"p  c #333144",
"a  c #3C3645",
"s  c #32334B",
"d  c #3B3648",
"f  c #3C394D",
"g  c #242E51",
"h  c #282F51",
"j  c #253351",
"k  c #2D3352",
"l  c #2A385D",
"z  c #323753",
"x  c #353B55",
"c  c #363D5A",
"v  c #393E5A",
"b  c #423946",
"n  c #403C4E",
"m  c #493E49",
"M  c #3C425D",
"N  c #374060",
"B  c #3F4460",
"V  c #44475E",
"C  c #474C65",
"Z  c #494D65",
"A  c #4A4F69",
"S  c #434B69",
"D  c #4F5268",
"F  c #4C5166",
"G  c #52566C",
"H  c #55596E",
"J  c #595969",
"K  c #525264",
"L  c #595D72",
"P  c #565A72",
"I  c #5E6175",
"U  c #66636E",
"Y  c #636679",
"T  c #696C7E",
"R  c #83561F",
"E  c #90601C",
"W  c #97662A",
"Q  c #A66E22",
"!  c #A77123",
"~  c #AA742C",
"^  c #B17525",
"/  c #BA7E2B",
"(  c #B2732A",
")  c #C17E30",
"_  c #BB822A",
"`  c #C3812B",
"'  c #D5902A",
"]  c #DD942D",
"[  c #DE9930",
"{  c #E5982A",
"}  c #E0952A",
"|  c #E49F36",
" . c #E8A236",
".. c #E6A33A",
"X. c #E1A240",
"o. c #EDAE4A",
"O. c #F4AD40",
"+. c #FCB74E",
"@. c #F9B64C",
"#. c #F6B752",
"$. c #FCBB53",
"%. c #FFC15C",
"&. c #FFC961",
"*. c #517884",
"=. c #407590",
"-. c #5A95A6",
";. c #5395B5",
":. c #5E9DB3",
">. c #699EA9",
",. c #6696A4",
"<. c #64A7CB",
"1. c #75AFC9",
"2. c #67B7DD",
"3. c #76C3DB",
"4. c #7CCDF7",
"5. c #888994",
"6. c #90919F",
"7. c #9B989F",
"8. c #A29D9B",
"9. c #9699A8",
"0. c #A69FA0",
"q. c #A8A7AB",
"w. c #AAA2A2",
"e. c #BAB1AF",
"r. c #A0A2B0",
"t. c #ADAFBE",
"y. c #ACAAB3",
"u. c #8DBFCF",
"i. c #82BCCC",
"p. c #A0B9C2",
"a. c #A7BFCB",
"s. c #8FD5F2",
"d. c #ACE7F8",
"f. c #CDCBCE",
"g. c #DCDBDD",
"h. c #D5D2D7",
"j. c #E1DCDE",
"k. c #E8E1DF",
"l. c #E4E1DE",
"z. c #DCDDE6",
"x. c #DEE0EE",
"c. c #E7E6E5",
"v. c #E8E6E8",
"b. c #E7E8ED",
"n. c #E7EAF0",
"m. c #E3E4F0",
"M. c #F5F1F2",
"N. c #F5F4FB",
"B. c #FBF9FD",
"V. c #F8F2F1",
"C. c None",
/* pixels */
"C.C.C.C.C.C.C.C.C.C.C.C.C.C.C.C.C.C.C.C.C.C.C.C.C.C.C.C.C.C.C.C.",
"C.C.C.C.C.C.C.C.C.C.C.C.C.C.C.q.8.C.C.C.C.C.C.C.C.C.C.C.C.C.C.C.",
"C.C.C.C.C.C.C.C.C.C.C.C.C.C.C.n.c.C.C.C.C.C.C.C.C.C.C.C.C.C.C.C.",
"C.C.C.C.C.C.C.C.C.C.C.C.C.C.C.n.c.C.C.C.C.C.C.C.C.C.C.C.C.C.C.C.",
"C.C.C.C.C.C.C.C.C.C.C.C.C.C.C.z.g.C.C.C.C.C.C.C.C.C.C.C.C.C.C.C.",
"C.C.C.C.C.C.C.C.C.C.C.C.C.-.-.a.p.-.C.C.C.C.C.C.C.C.C.C.C.C.C.C.",
"C.C.C.C.C.C.C.C.C.C.C.C.;.2.4.s.d.3.i.>.C.C.C.C.C.C.C.C.C.C.C.C.",
"C.C.C.C.C.C.C.C.C.C.C.C.=.;.<.1.u.:.,.*.C.C.C.C.C.C.C.C.C.C.C.C.",
"C.C.C.C.C.C.C.C.C.C.1 q q t g j j i e r < V C.C.C.C.C.C.C.C.C.C.",
"C.C.C.C.C.C.C.C.C.w 8 e h h h z z k u y r r b C.C.C.C.C.C.C.C.C.",
"C.C.C.C.C.C.C.C.q q e g h z N n M v z u s r e a C.C.C.C.C.C.C.C.",
"C.C.C.C.C.C.C.q w e t g k v S G H C M z u y e q C.C.C.C.C.C.C.C.",
"C.C.C.C.C.C.C.w w t h h Z B G T T H D V k u r 8 3 C.C.C.C.C.C.C.",
"C.C.C.C.C.C.& 1 r y h y.V.9.G Y Y I v.k.K s s e - C.C.C.C.C.C.C.",
"C.C.C.C.C.C.$ q t t B z.M.h.Z G H 6.B.V.0.z f p 8 3 C.C.C.C.C.C.",
"C.C.C.C.C.C.+ 7 t g P m.N.j.C G H r.B.V.e.x f d 1 3 C.C.C.C.C.C.",
"C.C.C.C.C.C.O 7 8 g S x.N.f.D L T 9.B.V.w.s f a 1 < C.C.C.C.C.C.",
"C.C.C.C.C.C.o # 8 g l p.z.5.S L T T h.j.U u p p 1 2 C.C.C.C.C.C.",
"C.C.C.C.C.C.O O 7 9 g N L c M C D Z L J u u e 1 = C.C.C.C.C.C.C.",
"C.C.C.C.C.C.C.O # 7 9 0 g j k c v v z k e 9 - = @ C.C.C.C.C.C.C.",
"C.C.C.C.C.C.C.O O 7 7 7 9 t t y u y t e 8 - - @ = C.C.C.C.C.C.C.",
"C.C.C.C.C.C.C.C.O O # 7 7 8 8 e e 8 8 - - - = . C.C.C.C.C.C.C.C.",
"C.C.C.C.C.C.C.C.O O # $ $ 7 - $ - - # - = = . C.C.C.C.C.C.C.C.C.",
"C.C.C.C.C.C.C.C.C.* X & 2 & # # # $ > < > ; C.C.C.C.C.C.C.C.C.C.",
"C.C.C.C.C.C.C.C.C.C.W ; @ & @ O + @ % X 4 ^ C.C.C.C.C.C.C.C.C.C.",
"C.C.C.C.C.C.C.C.C.C.~ 6 C.    + . X C.C.5 ` C.C.C.C.C.C.C.C.C.C.",
"C.C.C.C.C.C.C.C.C./ ! R C.C.C.C.C.C.C.C.E ^ ` C.C.C.C.C.C.C.C.C.",
"C.C.C.C.C.C.C.C.[ @.#.X.Q C.C.C.C.C.C._ o.$. .] C.C.C.C.C.C.C.C.",
"C.C.C.C.C.C.C.)  .$.&.$.' C.C.C.C.C.~ ..%.%.%.{ C.C.C.C.C.C.C.C.",
"C.C.C.C.C.C.C.C. .+.%.$.] C.C.C.C.C.( ..%.%.@.} C.C.C.C.C.C.C.C.",
"C.C.C.C.C.C.C.C.C.C.C.C.C.C.C.C.C.C.C.C.C.C.C.C.C.C.C.C.C.C.C.C.",
"C.C.C.C.C.C.C.C.C.C.C.C.C.C.C.C.C.C.C.C.C.C.C.C.C.C.C.C.C.C.C.C."
};
