/* XPM */
static char *be2d490fda1f4f59bc7d11aa6a840225N3IbFL7yWPMmCdpG[] = {
/* columns rows colors chars-per-pixel */
"42 42 157 2 ",
"   c None",
".  c #382826",
"X  c #5E391F",
"o  c #493636",
"O  c #664513",
"+  c #63461D",
"@  c #724E1C",
"#  c #76531B",
"$  c #7E571B",
"%  c #795A29",
"&  c #705133",
"*  c #776043",
"=  c #6A6875",
"-  c #ED1C24",
";  c #895416",
":  c #855E1E",
">  c #8B611F",
",  c #92611A",
"<  c #B46C1C",
"1  c #AC721F",
"2  c #B0701F",
"3  c #814A2A",
"4  c #875826",
"5  c #895A2D",
"6  c #8A6222",
"7  c #8A6528",
"8  c #916722",
"9  c #9F6720",
"0  c #9A6C24",
"q  c #996F29",
"w  c #936C24",
"e  c #9D7226",
"r  c #85683F",
"t  c #A37326",
"y  c #A97727",
"u  c #A67929",
"i  c #AC7C2A",
"p  c #A0752B",
"a  c #B17E2B",
"s  c #B57924",
"d  c #A77936",
"f  c #A77E39",
"g  c #AC7E33",
"h  c #B07D36",
"j  c #C47A25",
"k  c #826A4A",
"l  c #907650",
"z  c #AE802B",
"x  c #BF8427",
"c  c #B3822D",
"v  c #B9872E",
"b  c #B8882D",
"n  c #AE823B",
"m  c #AE8237",
"M  c #B38335",
"N  c #BE8C30",
"B  c #B8823B",
"V  c #C98428",
"C  c #D38527",
"Z  c #D58B27",
"A  c #D48A28",
"S  c #D6892C",
"D  c #D7942F",
"F  c #DB942C",
"G  c #DE982C",
"H  c #C88B36",
"J  c #D08D33",
"K  c #DE9F39",
"L  c #E3992E",
"P  c #E09A31",
"I  c #E7A136",
"U  c #EDA73D",
"Y  c #F2AC3E",
"T  c #97805E",
"R  c #A1804F",
"E  c #B28948",
"W  c #B9914C",
"Q  c #AF8B54",
"!  c #B68F53",
"~  c #B89052",
"^  c #B8945A",
"/  c #A79378",
"(  c #D89C48",
")  c #C69658",
"_  c #D29750",
"`  c #D09B5E",
"'  c #E49F4A",
"]  c #DCA348",
"[  c #EFAD44",
"{  c #E6A849",
"}  c #F2AC41",
"|  c #F5B045",
" . c #F2B34D",
".. c #F4B858",
"X. c #F8BA58",
"o. c #FEBE56",
"O. c #C3A06A",
"+. c #D6A361",
"@. c #C8AA7C",
"#. c #D6AA72",
"$. c #E1AF64",
"%. c #EBB96E",
"&. c #FFC55C",
"*. c #FFC85D",
"=. c #5B9BB6",
"-. c #6896A5",
";. c #61A2BE",
":. c #79ADBE",
">. c #76ABBC",
",. c #5EA8C3",
"<. c #7AAEC0",
"1. c #64B2D2",
"2. c #6ABBDE",
"3. c #70B9D7",
"4. c #71BBD9",
"5. c #6BBDE0",
"6. c #78C4E3",
"7. c #958A8C",
"8. c #96949D",
"9. c #9997A1",
"0. c #9998A3",
"q. c #A3A1AA",
"w. c #A5A5B0",
"e. c #B7B3BA",
"r. c #CBAE82",
"t. c #CEB084",
"y. c #E7C89C",
"u. c #EAC795",
"i. c #D9C0A9",
"p. c #D3C1B4",
"a. c #E3CEB4",
"s. c #81B2C3",
"d. c #93B9C6",
"f. c #94BDCD",
"g. c #BBB8C0",
"h. c #C2BEC6",
"j. c #C1BFC8",
"k. c #84D1F5",
"l. c #8BD4F3",
"z. c #BEF8FF",
"x. c #C4CBCB",
"c. c #D9CFC6",
"v. c #DDD5CE",
"b. c #CFCFDA",
"n. c #D1CDD2",
"m. c #D5D4DF",
"M. c #E2D3C1",
"N. c #F0E4DC",
"B. c #E0DEE8",
"V. c #DFE6E8",
"C. c #C1FAFF",
"Z. c #E4E2EA",
"A. c #EFEFF6",
"S. c #F0EDF1",
"D. c #F6F5FB",
"F. c #FFFFFF",
"G. c #F5F3F3",
/* pixels */
"                                                                                    ",
"                                                                                    ",
"                                                                                    ",
"                                                                                    ",
"                                                                                    ",
"                                                                                    ",
"                                                                                    ",
"                                    Z.d.s.:.:.d.f.<.<.<.f.                          ",
"                                    x.-.,.4.6.l.C.l.6.1.;.                          ",
"                                  F.x.-.,.3.6.l.z.k.2.1.=.                          ",
"                                  - - - - - - - - - - - - - -                       ",
"          t.) O.                - - - - - - - - - - - - - - - -                     ",
"        M c c c b             - - - - - - - - - - - - - - - - - -                   ",
"      ^ c e ^ c N p         - - - - - - - - - - - - - - - - - - - -                 ",
"      i u * F.r.c z       - - - - - - - - - - - - - - - - - - - - - -               ",
"      i i T F.a.c b /   - - - - - - - - - - - - - - - - - - - - - - - -             ",
"      n c 6 v.@.c b r   - - - - - - - - - - - - - - - - - - - - - - - -             ",
"        c a u a i b # 7.- - - - - - - - - - - - - - - - - - 0.S.n.- - - -           ",
"        i i y y y i y - - - - - - - - - - - - - - - - - - - x.D.Z.9.- - -           ",
"        E u t a s c u - - - - - - - - - - - - - - - - - - - h.D.Z.e.- - - -         ",
"        E p 0 t y z 7 - - - - - - - - - - - - - - - - - - - w.D.Z.g.- - - -         ",
"        g u > : 8 8 # - - - - - - - - - - - - - - - - - - - - A.B.g.- - - -         ",
"        i i u w 6 > O - - - - - - - - - - - - - - - - - - - - b.m.0.- - -           ",
"      ~ i # c.! u i + - - - - - - - - - - - - - - - - - - - - - 0.- - - -           ",
"      i u k F.M.i z * - - - - - - - - - - - - - - - - - - - - - - - - - -           ",
"      n i % G.M.c u 7.  - - - - - - - - - - - - - - - - - - - - - - - -             ",
"        c p R W c w     - - - - - - - - - - - - - - - - - - - - - - - -             ",
"        n i i c i l     - - - - - - - - - - - - - - - - - - - - - - -               ",
"            f Q           - - - - - - - - - - - - - - - - - - - - - -               ",
"                            - - - - - - - - - - - - - - - - - - - -                 ",
"                              - - - - - - - - - - - - - - - - - -                   ",
"                                - 3 - - - - - - - - - - - - - -                     ",
"                                  C ' 5 - - - - - - - - -                           ",
"                                  D  .h w.= - - . . o                               ",
"                                  D  .d F.  F.p.; @ X & O $ t x H                   ",
"                                  S ( 4 i.) B s y 9 ; , e M ( K F                   ",
"                                  Z j < Z I | | L V 1 s H ] ..[ G _                 ",
"                                Z L C Z L | *.&.Y L j V J { X.[ F _                 ",
"                                C S C A P } &.&.Y F H #.+.$.%.                      ",
"                                +.J C A F U &.&.U F `                               ",
"                                  F.N.a.y.u.u.u.y.                                  ",
"                                                                                    "
};
