/* XPM */
static char *result[] = {
/* columns rows colors chars-per-pixel */
"32 32 162 2 ",
"   c #13162C",
".  c #191728",
"X  c #18192C",
"o  c #171525",
"O  c #151A35",
"+  c #1A1B33",
"@  c #161C3B",
"#  c #191E3C",
"$  c #211B2B",
"%  c #211E33",
"&  c #1D223E",
"*  c #3B2828",
"=  c #35242D",
"-  c #232033",
";  c #24243C",
":  c #27283F",
">  c #3B2F30",
",  c #322D3B",
"<  c #3B333E",
"1  c #643C15",
"2  c #492D20",
"3  c #412D2C",
"4  c #422E27",
"5  c #48362A",
"6  c #453223",
"7  c #44383F",
"8  c #794F19",
"9  c #744E14",
"0  c #694220",
"q  c #694B29",
"w  c #755426",
"e  c #7F5924",
"r  c #1C2344",
"t  c #1F2848",
"y  c #1D2649",
"u  c #212644",
"i  c #242945",
"p  c #2A2B44",
"a  c #252C4B",
"s  c #292D4C",
"d  c #29314E",
"f  c #373244",
"g  c #3B394B",
"h  c #263352",
"j  c #2C3352",
"k  c #2E3758",
"l  c #313554",
"z  c #333957",
"x  c #353B5A",
"c  c #393E5B",
"v  c #413740",
"b  c #413A48",
"n  c #3D425E",
"m  c #3E4563",
"M  c #414763",
"N  c #454A65",
"B  c #494D65",
"V  c #444D6A",
"C  c #4D526C",
"Z  c #54576C",
"A  c #55596F",
"S  c #515772",
"D  c #535A74",
"F  c #575E79",
"G  c #595D73",
"H  c #4B6173",
"J  c #5E6276",
"K  c #506873",
"L  c #59617D",
"P  c #66687A",
"I  c #706F7C",
"U  c #8A5B1D",
"Y  c #88611F",
"T  c #A46A1D",
"R  c #8A6222",
"E  c #8F6922",
"W  c #8C6528",
"Q  c #9A6E24",
"!  c #966C29",
"~  c #906625",
"^  c #9D7226",
"/  c #9D6B3B",
"(  c #AD6B28",
")  c #A37427",
"_  c #A97728",
"`  c #A57929",
"'  c #AC7C2B",
"]  c #A4762B",
"[  c #BB7A23",
"{  c #B37C29",
"}  c #A67830",
"|  c #AB7B31",
" . c #B07F30",
".. c #C57E2B",
"X. c #B2822C",
"o. c #BC8A2F",
"O. c #BB8631",
"+. c #CB832C",
"@. c #CD8A2A",
"#. c #CE8324",
"$. c #D28325",
"%. c #D38B2C",
"&. c #D5882B",
"*. c #D4922E",
"=. c #DB932C",
"-. c #C68838",
";. c #CB8B30",
":. c #DD9C38",
">. c #E1972D",
",. c #E19D34",
"<. c #E09F3B",
"1. c #CD9640",
"2. c #CF9943",
"3. c #D89F45",
"4. c #E29F42",
"5. c #E3A444",
"6. c #E7A94A",
"7. c #F4AF45",
"8. c #EBB04F",
"9. c #F5B145",
"0. c #F8B346",
"q. c #EEB254",
"w. c #F7B854",
"e. c #FFC95F",
"r. c #656B85",
"t. c #6B6E81",
"y. c #6A728C",
"u. c #7B7B88",
"i. c #4B839C",
"p. c #719098",
"a. c #5895A7",
"s. c #5591A2",
"d. c #5797B3",
"f. c #6A99AA",
"g. c #5EA6C1",
"h. c #61A8C5",
"j. c #66A7C4",
"k. c #68BADC",
"l. c #74BEDC",
"z. c #7AC9E9",
"x. c #9495A1",
"c. c #87A7B4",
"v. c #ADACB5",
"b. c #B5B3BC",
"n. c #B7B5BB",
"m. c #BDBAC1",
"M. c #96C9D6",
"N. c #BFC6CE",
"B. c #B2CAD5",
"V. c #81CFF2",
"C. c #B6F2FE",
"Z. c #C7C1C5",
"A. c #C8C3CA",
"S. c #CBCCD2",
"D. c #D5D3D9",
"F. c #DDE1E5",
"G. c #E4E2E8",
"H. c #E8E7F0",
"J. c #EAE9F1",
"K. c #E5EBF1",
"L. c #F4F5F7",
"P. c None",
/* pixels */
"P.P.P.P.P.P.P.P.P.P.P.P.P.P.P.P.P.P.P.P.P.P.P.P.P.P.P.P.P.P.P.P.",
"P.P.P.P.P.P.P.P.P.P.P.P.P.P.P.b.P.P.P.P.P.P.P.P.P.P.P.P.P.P.P.P.",
"P.P.P.P.P.P.P.P.P.P.P.P.P.P.L.S.P.P.P.P.P.P.P.P.P.P.P.P.P.P.P.P.",
"P.P.P.P.P.P.P.P.P.P.P.P.P.J.F.P.P.P.P.P.P.P.P.P.P.P.P.P.P.P.P.P.",
"P.P.P.P.P.P.P.P.P.P.P.P.P.K.N.P.P.P.P.P.P.P.P.P.P.P.P.P.P.P.P.P.",
"P.P.P.P.P.P.P.P.P.P.P.a.f.B.c.s.P.P.P.P.P.P.P.P.P.P.P.P.P.P.P.P.",
"P.P.P.P.P.P.P.P.P.P.h.k.V.C.z.l.g.p.P.P.P.P.P.P.P.P.P.P.P.P.P.P.",
"P.P.P.P.P.P.P.P.P.H i.d.j.M.j.d.i.K P.P.P.P.P.P.P.P.P.P.P.P.P.P.",
"P.P.P.P.P.P.P.P.u i a a s h h s a u ; P.P.P.P.P.P.P.P.P.P.P.P.P.",
"P.P.P.P.P.P.P.p p a s j l l j j d s i u ; P.P.P.P.X.O.X.X.P.P.P.",
"P.P.P.P.P.P.f p a s j z c c c z j d s i : ; P.P.! o.X.W ' | P.P.",
"P.P.P.P.P.b s s a h z m C A C n z j a a p , P.P.` X.P.P.^ | P.P.",
"P.P.P.P.Z.g s Z B k x V J t.J B c l s s p f < P.` X.P.U X.} P.P.",
"P.P.P.P.S.s I G.D.k n B J P G B c z d s p p 7 q ) _ '  .X.P.P.P.",
"P.P.P.Z.b.a v.J.G.z n V S S C N b z l s s p f q X.' _ _ | P.P.P.",
"P.P.P.A.x.i n.J.D.z M C F F B M m c l s p i < > { ' ) Q } P.P.P.",
"P.P.P.n.P r m.K.m.k m F y.r.S M m c l a t r , 5 Y Y U ^ ' P.P.P.",
"P.P.P.P.b r u.A.F k m r.y.r.S M c z d a r & , 6 Y ) ] ! ' P.P.P.",
"P.P.P.P.: r y s y h x V S S M x z h a y r O - 3 ^ X.P.P.^ | P.P.",
"P.P.P.P.+ # # r y a h z x z k d a t y # & O X P.Y X.P.w ` } P.P.",
"P.P.P.P.P.O @ # r y y a d d a a y r r @ O     P.w X.' ] ' P.P.P.",
"P.P.P.P.P.@ O @ @ r r y u u u y r # # O O   P.P.P.W ` ' P.P.P.P.",
"P.P.P.P.P.P.O O @ @ @ r & r u & # @ O O   P.P.P.P.P.P.P.P.P.P.P.",
"P.P.P.P.P.P.P.O O O @ @ % ; ; - % % +   P.P.P.P.P.P.P.P.P.P.P.P.",
"P.P.P.P.P.P.P.P.P.% % + + + + X $ / ..P.P.P.P.P.P.P.P.P.P.P.P.P.",
"P.P.P.P.P.P.P.P.U 0 3 = 4 * o o 2 3.:.P.P.P.P.P.P.P.P.P.P.P.P.P.",
"P.P.P.P.P.P.P.%.O.~ 9 1 8 U P.P.P.1.:.P.P.P.P.P.P.P.P.P.P.P.P.P.",
"P.P.P.P.P.P.@.,.8.1.{ ) [ %.<.*.[ ( &.P.P.P.P.P.P.P.P.P.P.P.P.P.",
"P.P.P.P.P.P...,.w.6.;...=.9.e.0.>.$.>.&.P.P.P.P.P.P.P.P.P.P.P.P.",
"P.P.P.P.P.P.P.P.5.:.-.[ =.9.e.7.=.&.&.#.P.P.P.P.P.P.P.P.P.P.P.P.",
"P.P.P.P.P.P.P.P.P.P.P.P.@.5.q.4.%.+.P.P.P.P.P.P.P.P.P.P.P.P.P.P.",
"P.P.P.P.P.P.P.P.P.P.P.P.P.P.P.P.P.P.P.P.P.P.P.P.P.P.P.P.P.P.P.P."
};
