/* XPM */
static char *result[] = {
/* columns rows colors chars-per-pixel */
"42 42 184 2 ",
"   c #13162B",
".  c #16182E",
"X  c #1A192D",
"o  c #171626",
"O  c #151A34",
"+  c #1C1D34",
"@  c #161C3B",
"#  c #191F3D",
"$  c #221E2C",
"%  c #211E33",
"&  c #1D213D",
"*  c #2F272F",
"=  c #382725",
"-  c #242033",
";  c #23243B",
":  c #2B2739",
">  c #332D3C",
",  c #3A2F31",
"<  c #3B323B",
"1  c #542D11",
"2  c #5B3C19",
"3  c #4F3B2E",
"4  c #443639",
"5  c #583930",
"6  c #5F4218",
"7  c #664718",
"8  c #79541B",
"9  c #734C1B",
"0  c #654321",
"q  c #725222",
"w  c #7C592A",
"e  c #181F40",
"r  c #1C2344",
"t  c #1E2749",
"y  c #1F2849",
"u  c #1D2C46",
"i  c #212542",
"p  c #262945",
"a  c #2A2B44",
"s  c #252C4B",
"d  c #292E4C",
"f  c #202748",
"g  c #29304F",
"h  c #21364F",
"j  c #353144",
"k  c #3A3545",
"l  c #262E51",
"z  c #292F50",
"x  c #2C3352",
"c  c #2F3859",
"v  c #233C55",
"b  c #313654",
"n  c #333956",
"m  c #353B59",
"M  c #393E5B",
"N  c #433944",
"B  c #3C415D",
"V  c #3D4056",
"C  c #28425C",
"Z  c #3D4461",
"A  c #364F64",
"S  c #2C4861",
"D  c #48495E",
"F  c #414762",
"G  c #454A64",
"H  c #464E6B",
"J  c #494F6A",
"K  c #4C526C",
"L  c #53576B",
"P  c #4D5573",
"I  c #515772",
"U  c #545A72",
"Y  c #585F7A",
"T  c #5A5F74",
"R  c #5B627D",
"E  c #5E6276",
"W  c #626579",
"Q  c #68697B",
"!  c #885719",
"~  c #8B611F",
"^  c #92611A",
"/  c #AC721F",
"(  c #B0701F",
")  c #B46C1C",
"_  c #825220",
"`  c #895A2D",
"'  c #814929",
"]  c #8A6122",
"[  c #896325",
"{  c #916722",
"}  c #9A6C24",
"|  c #996B24",
" . c #9F732C",
".. c #9D7226",
"X. c #A37326",
"o. c #A97727",
"O. c #A5762D",
"+. c #A67929",
"@. c #AC7C2B",
"#. c #AF7128",
"$. c #B17E2C",
"%. c #B47825",
"&. c #A37631",
"*. c #AA7B32",
"=. c #B07F37",
"-. c #C37D2A",
";. c #C57D26",
":. c #8B7069",
">. c #AE802B",
",. c #B3822D",
"<. c #B9872E",
"1. c #BC862A",
"2. c #B98834",
"3. c #CA832B",
"4. c #C88327",
"5. c #D38527",
"6. c #D58B27",
"7. c #D48A28",
"8. c #D6892B",
"9. c #DB942C",
"0. c #D9942C",
"q. c #C58531",
"w. c #C98932",
"e. c #D08F33",
"r. c #DD9E3C",
"t. c #D69537",
"y. c #E3992E",
"u. c #E09A31",
"i. c #EBA53A",
"p. c #F2AC3E",
"a. c #D99C46",
"s. c #E49F4A",
"d. c #DCA348",
"f. c #E6A84A",
"g. c #E8A844",
"h. c #F2AC41",
"j. c #F5B045",
"k. c #F2B34D",
"l. c #F9BB57",
"z. c #FFC55C",
"x. c #FFC85D",
"c. c #5F6782",
"v. c #646C86",
"b. c #6D6F81",
"n. c #6B718A",
"m. c #7B7C8A",
"M. c #6F7690",
"N. c #5C9BAF",
"B. c #5D9DB5",
"V. c #6797A7",
"C. c #63A1B9",
"Z. c #5EA8C3",
"A. c #66B5D6",
"S. c #71BAD8",
"D. c #6BBDE0",
"F. c #78C4E3",
"G. c #8D8E97",
"H. c #97949B",
"J. c #9997A2",
"K. c #A5A5B0",
"L. c #AEB1B8",
"P. c #B8B2B9",
"I. c #C5BBBE",
"U. c #94BBCA",
"Y. c #BBB8C0",
"T. c #C2BDC4",
"R. c #C1BFC8",
"E. c #87D2F4",
"W. c #BEF8FF",
"Q. c #C0C0CA",
"!. c #CACED5",
"~. c #D1CDD2",
"^. c #DDDADE",
"/. c #D6D4DE",
"(. c #E1DEE7",
"). c #DCE5EF",
"_. c #C1FAFF",
"`. c #E3E3EA",
"'. c #ECEFF5",
"]. c #F0EDF1",
"[. c #EFF0F3",
"{. c #F6F6FA",
"}. c #F4F6F7",
"|. c None",
/* pixels */
"|.|.|.|.|.|.|.|.|.|.|.|.|.|.|.|.|.|.|.|.|.|.|.|.|.|.|.|.|.|.|.|.|.|.|.|.|.|.|.|.|.|.",
"|.|.|.|.|.|.|.|.|.|.|.|.|.|.|.|.|.|.|.|.|.H.|.|.|.|.|.|.|.|.|.|.|.|.|.|.|.|.|.|.|.|.",
"|.|.|.|.|.|.|.|.|.|.|.|.|.|.|.|.|.|.|.|.:.!.^.|.|.|.|.|.|.|.|.|.|.|.|.|.|.|.|.|.|.|.",
"|.|.|.|.|.|.|.|.|.|.|.|.|.|.|.|.|.|.|.|.|.L.}.[.|.|.|.|.|.|.|.|.|.|.|.|.|.|.|.|.|.|.",
"|.|.|.|.|.|.|.|.|.|.|.|.|.|.|.|.|.|.|.|.|.|.!.}.`.|.|.|.|.|.|.|.|.|.|.|.|.|.|.|.|.|.",
"|.|.|.|.|.|.|.|.|.|.|.|.|.|.|.|.|.|.|.|.|.|.|.'.`.|.|.|.|.|.|.|.|.|.|.|.|.|.|.|.|.|.",
"|.|.|.|.|.|.|.|.|.|.|.|.|.|.|.|.|.|.|.|.|.|.|.!.).|.|.|.|.|.|.|.|.|.|.|.|.|.|.|.|.|.",
"|.|.|.|.|.|.|.|.|.|.|.|.|.|.|.|.|.|.|.V.B.N.N.U.U.C.B.B.B.|.|.|.|.|.|.|.|.|.|.|.|.|.",
"|.|.|.|.|.|.|.|.|.|.|.|.|.|.|.|.|.|.|.V.C.S.E.E._.E.F.A.B.|.|.|.|.|.|.|.|.|.|.|.|.|.",
"|.|.|.|.|.|.|.|.|.|.|.|.|.|.|.|.|.|.|.V.Z.S.S.E.W.E.A.A.B.|.|.|.|.|.|.|.|.|.|.|.|.|.",
"|.|.|.|.|.|.|.|.|.|.|.|.|.|.|.|.|.|.& & u h v S A C h u r ; |.|.|.|.|.|.|.|.|.|.|.|.",
"|.|.|.|.|.=.$.@.|.|.|.|.|.|.|.|.& ; p p s g g g x x h s s s p f |.|.|.|.|.|.|.|.|.|.",
"|.|.|.|.,.,.,.2.2.|.|.|.|.|.|.& p p a d d g b b b x x z d s s p a |.|.|.|.|.|.|.|.|.",
"|.|.|.*.,...&.>.<. .|.|.|.|.; ; a s d g x n m m m m n x x d s s d j |.|.|.|.|.|.|.|.",
"|.|.|.@.+.6 |.=.<.>.|.|.|.; a a p d g x n M F G G G M m c z d s s j N |.|.|.|.|.|.|.",
"|.|.|.@.@.q |.|.,.<.w |.: < j p s d g c m F J T E U G M c x l s s d k |.|.|.|.|.|.|.",
"|.|.|.@.,.~ |.*.@.<.q |.< 4 a s d x x b M G U Q b.W K F n b x Q m d j H.|.|.|.|.|.|.",
"|.|.|.&.>.>.@.@.@.1.8 4 N j a p d d x m B G L Q Q W K F M b J.].~.D g G.^.|.|.|.|.|.",
"|.|.|.|.@.@.o.o.o.@.X.3 N a p d z j b m B F K U Y U K F M n T.{.`.H.s L (.|.|.|.|.|.",
"|.|.|.|.*.o.X.@.%.,. ., N : p d d x n M B F J K I I J G M M R.{.`.P.p d /.I.|.|.|.|.",
"|.|.|.|.O...| X.@.@.[ 4 < p p s d b n M F F J I Y c.c.H F m K.{.`.T.p p R.T.|.|.|.|.",
"|.|.|.|.@.+.~ ~ { { 8 4 > & u f d b n B F F J Y c.c.c.P Z n m.'.`.P.f i K.P.|.|.|.|.",
"|.|.|.|.>.@.+.| ~ ! 7 , > & r r s x n M M F J R n.M.c.P Z c M /./.J.i r m.|.|.|.|.|.",
"|.|.|.*.>.9 |. .>.@.6 * - & r r f s x b n M G I c.c.c.H m x l b.H.M r ; > |.|.|.|.|.",
"|.|.|.@.O.0 |.|.>.>.6 - & & @ r t t d x b n B F H P H Z c l l t r r # & : |.|.|.|.|.",
"|.|.|.@.@.8 |.|.>.@.0 |.o   @ & r r t s l x b n M M m c l s t r r r @ + |.|.|.|.|.|.",
"|.|.|.&.@.O.[ >.,.{ |.|.    O & & r f f f l l z x x z l t t t e e @ O O |.|.|.|.|.|.",
"|.|.|.|.@.@.>.,.@.q |.|.|.  O O @ @ e r r f s s l f s t t r r e @ @ O |.|.|.|.|.|.|.",
"|.|.|.|.|.&.O. .w |.|.|.|.    O O @ @ r e f f r r i r r r e e @ @ O O |.|.|.|.|.|.|.",
"|.|.|.|.|.|.|.|.|.|.|.|.|.|.  . O @ O O e e & i i r e e e @ @ O O O |.|.|.|.|.|.|.|.",
"|.|.|.|.|.|.|.|.|.|.|.|.|.|.|..   . O # % % ; a ; % @ @ @ @ O O O |.|.|.|.|.|.|.|.|.",
"|.|.|.|.|.|.|.|.|.|.|.|.|.|.|.|.. w 5 * % % % % % # O @ O + + |.|.|.|.|.|.|.|.|.|.|.",
"|.|.|.|.|.|.|.|.|.|.|.|.|.|.|.|.|.3.s.` o o   X X O + X % - |.|.|.|.|.|.|.|.|.|.|.|.",
"|.|.|.|.|.|.|.|.|.|.|.|.|.|.|.|.|.e.k.$.|.. o X = = = |.|.7 _ |.|.|.|.|.|.|.|.|.|.|.",
"|.|.|.|.|.|.|.|.|.|.|.|.|.|.|.|.|.0.k.&.|.|.|.|.! 9 1 2 7 8 X.1.3.|.|.|.|.|.|.|.|.|.",
"|.|.|.|.|.|.|.|.|.|.|.|.|.|.|.|.|.8.a.! |.#.%.%.) } ! ^ | 2.a.r.0.3.|.|.|.|.|.|.|.|.",
"|.|.|.|.|.|.|.|.|.|.|.|.|.|.|.|.3.7.;.) 6.i.k.j.y.7./ %.w.d.l.g.9.3.|.|.|.|.|.|.|.|.",
"|.|.|.|.|.|.|.|.|.|.|.|.|.|.|.|.6.y.5.5.y.j.x.z.p.9.;.4.e.f.l.j.9.-.|.|.|.|.|.|.|.|.",
"|.|.|.|.|.|.|.|.|.|.|.|.|.|.|.|.5.9.5.7.y.p.x.x.p.9.;.q.w.a.f.r.w.|.|.|.|.|.|.|.|.|.",
"|.|.|.|.|.|.|.|.|.|.|.|.|.|.|.|.-.3.5.7.9.i.l.l.i.9.;.|.|.|.|.|.|.|.|.|.|.|.|.|.|.|.",
"|.|.|.|.|.|.|.|.|.|.|.|.|.|.|.|.|.|.|.|.|.t.g.d.|.|.|.|.|.|.|.|.|.|.|.|.|.|.|.|.|.|.",
"|.|.|.|.|.|.|.|.|.|.|.|.|.|.|.|.|.|.|.|.|.|.|.|.|.|.|.|.|.|.|.|.|.|.|.|.|.|.|.|.|.|."
};
