/* XPM */
static char *result[] = {
/* columns rows colors chars-per-pixel */
"32 32 155 2 ",
"   c #14162C",
".  c #1B1729",
"X  c #16192D",
"o  c #1D1C2D",
"O  c #101731",
"+  c #141B34",
"@  c #1A1E34",
"#  c #191F3A",
"$  c #141E3A",
"%  c #231C2C",
"&  c #211F31",
"*  c #16213D",
"=  c #1E233C",
"-  c #26202C",
";  c #2B212C",
":  c #3A2828",
">  c #222335",
",  c #21243B",
"<  c #27293F",
"1  c #2B2A3C",
"2  c #312730",
"3  c #372C34",
"4  c #3C313A",
"5  c #603C1B",
"6  c #47393C",
"7  c #734417",
"8  c #5D4239",
"9  c #764F22",
"0  c #775320",
"q  c #73523B",
"w  c #1C2442",
"e  c #1D2847",
"r  c #1D2B4B",
"t  c #222642",
"y  c #242A45",
"u  c #292E47",
"i  c #242C49",
"p  c #292E4B",
"a  c #2D3146",
"s  c #27324E",
"d  c #2D324D",
"f  c #343242",
"g  c #32354C",
"h  c #3C394A",
"j  c #2F3451",
"k  c #23355B",
"l  c #25385F",
"z  c #213154",
"x  c #313651",
"c  c #353A53",
"v  c #3A3D54",
"b  c #253962",
"n  c #423C49",
"m  c #3E4054",
"M  c #3F4359",
"N  c #354F5D",
"B  c #5A4D4C",
"V  c #404050",
"C  c #43455A",
"Z  c #46495F",
"A  c #484B5E",
"S  c #4B4653",
"D  c #574F56",
"F  c #5A5259",
"G  c #624D44",
"H  c #745748",
"J  c #4E5165",
"K  c #545464",
"L  c #635D66",
"P  c #65616C",
"I  c #844D18",
"U  c #914B12",
"Y  c #8A5F1E",
"T  c #8A5614",
"R  c #915E17",
"E  c #9A511C",
"W  c #9F6018",
"Q  c #A26B1F",
"!  c #80562F",
"~  c #906623",
"^  c #9C6820",
"/  c #966728",
"(  c #98622A",
")  c #8C643F",
"_  c #AD6A20",
"`  c #A36F23",
"'  c #B76F28",
"]  c #A3722F",
"[  c #B97721",
"{  c #B07A27",
"}  c #A8723A",
"|  c #C8751E",
" . c #C06C23",
".. c #C47620",
"X. c #C57C23",
"o. c #CF7E20",
"O. c #B78129",
"+. c #BA833A",
"@. c #CF8625",
"#. c #CD802C",
"$. c #D38726",
"%. c #D08529",
"&. c #D98F29",
"*. c #CC922E",
"=. c #D6922E",
"-. c #C38E34",
";. c #D28F39",
":. c #DC9433",
">. c #D39931",
",. c #D09C39",
"<. c #E49B34",
"1. c #E6AF39",
"2. c #F7AE3C",
"3. c #E7B13A",
"4. c #F4BD3D",
"5. c #B38243",
"6. c #BE965C",
"7. c #C59140",
"8. c #D29E46",
"9. c #D1A14A",
"0. c #E5A042",
"q. c #EAA840",
"w. c #E8A544",
"e. c #F5B147",
"r. c #F5B049",
"t. c #FCBC4E",
"y. c #F5C842",
"u. c #FFC157",
"i. c #FFC65C",
"p. c #FCE859",
"a. c #3F6888",
"s. c #5C7F88",
"d. c #497E90",
"f. c #56848F",
"g. c #598E9C",
"h. c #538FA0",
"j. c #5E9FB0",
"k. c #6C9DAB",
"l. c #68A0AD",
"z. c #61A2B3",
"x. c #64ACBF",
"c. c #7FAFB6",
"v. c #76A8B6",
"b. c #5EA1CC",
"n. c #6EBACC",
"m. c #77BCCA",
"M. c #83AEBA",
"N. c #8EB5BF",
"B. c #A3A5A2",
"V. c #B4B5B1",
"C. c #8CCAD8",
"Z. c #A5C0C5",
"A. c #9FDBEA",
"S. c #BAE9F2",
"D. c None",
/* pixels */
"D.D.D.D.D.D.D.D.D.D.D.D.D.D.D.D.D.D.D.D.D.D.D.D.D.D.D.D.D.D.D.D.",
"D.D.D.D.D.D.D.D.D.D.D.D.D.D.D.p.D.D.D.D.D.D.D.D.D.D.D.D.D.D.D.D.",
"D.D.D.D.D.D.D.D.D.D.D.D.D.D.D.6.D.D.D.D.D.D.D.D.D.D.D.D.D.D.D.D.",
"D.D.D.D.D.D.D.D.D.D.D.D.D.D.D.B.D.D.D.D.D.D.D.D.D.D.D.D.D.D.D.D.",
"D.D.D.D.D.D.D.D.D.D.D.D.D.D.D.V.D.D.D.D.D.D.D.D.D.D.D.D.D.D.D.D.",
"D.D.D.D.D.D.D.D.D.D.D.D.l.z.v.Z.M.z.j.D.D.D.D.D.D.D.D.D.D.D.D.D.",
"D.D.D.D.D.D.D.D.D.D.D.f.c.m.C.S.A.n.b.b.D.D.D.D.D.D.D.D.D.D.D.D.",
"D.D.D.D.D.D.D.D.D.D.D.N s.g.k.N.v.h.f.a.D.D.D.D.D.D.D.D.D.D.D.D.",
"D.D.D.D.D.D.D.D.D.D.= t y i p j s i i t t t D.D.D.D.D.D.D.D.D.D.",
"D.D.D.D.D.D.D.D.D., y i p j j j j j i i y t t D.D.D.D.D.D.D.D.D.",
"D.D.D.D.D.D.D.D., t u p x x H ) v v j s i y t w D.D.D.D.D.D.D.D.",
"D.D.D.D.D.D.D.= y y d j x C 5.>.K Z v j i y i e D.D.D.D.D.D.D.D.",
"D.D.D.D.D.D.= < u u d x v Z 9.y.P J C c d i i r w D.D.D.D.D.D.D.",
"D.D.D.D.D.D.= a g g d x v Z 8.4.L J M v d p i i r D.D.D.D.D.D.D.",
"D.D.D.D.D.D., f h g d x v Z 7.1.K Z M v j d i i z D.D.D.D.D.D.D.",
"D.D.D.D.D.D.> f n g g x v S ] O.G Z C v g d u i l k D.D.D.D.D.D.",
"D.D.D.D.D.D.= 4 V g s m V q W ` ! F C m d i y r b k D.D.D.D.D.D.",
"D.D.D.D.D.D.o 1 4 f s c m q >.3.W B M x p i e e k D.D.D.D.D.D.D.",
"D.D.D.D.D.D.o > < y u g g 8 >.4.0 m m s u w w w r D.D.D.D.D.D.D.",
"D.D.D.D.D.D.. * = = = u u a ,.y.6 g a u e = * $ * D.D.D.D.D.D.D.",
"D.D.D.D.D.D.D.X * = = = y u ,.4.6 u u w = * + + + D.D.D.D.D.D.D.",
"D.D.D.D.D.D.D.X . o = = w , ,.4.4 = = * * + O O D.D.D.D.D.D.D.D.",
"D.D.D.D.D.D.D.D.  X X * @ # -.1.3 * o + + O   D.D.D.D.D.D.D.D.D.",
"D.D.D.D.D.D.D.D.D.; o - @ @ / { 2 * & - % % D.D.D.D.D.D.D.D.D.D.",
"D.D.D.D.D.D.D.D.D.$.+.: - & 9 Y % @ & ; } X.D.D.D.D.D.D.D.D.D.D.",
"D.D.D.D.D.D.D.D.D.&.r.( D.. % ; X X D.D.w.<.D.D.D.D.D.D.D.D.D.D.",
"D.D.D.D.D.D.D.D.X.@.r.R 5 D.D.D.D.D.D.7 w.:.[ D.D.D.D.D.D.D.D.D.",
"D.D.D.D.D.D.D.D.o.$.0.Q I D.D.D.D.D.I T ;.:.X.%.D.D.D.D.D.D.D.D.",
"D.D.D.D.D.D.D...| 2.i.q.Q D.D.D.D.D.U :.u.t.$...D.D.D.D.D.D.D.D.",
"D.D.D.D.D.D.D.D.| 2.i.e._ D.D.D.D.D.E <.u.t.@.' D.D.D.D.D.D.D.D.",
"D.D.D.D.D.D.D.D.D.D.D.D.D.D.D.D.D.D.D.D.D.D.D.D.D.D.D.D.D.D.D.D.",
"D.D.D.D.D.D.D.D.D.D.D.D.D.D.D.D.D.D.D.D.D.D.D.D.D.D.D.D.D.D.D.D."
};
