/* XPM */
static char *result[] = {
/* columns rows colors chars-per-pixel */
"42 42 171 2 ",
"   c #0F142F",
".  c #15162E",
"X  c #17192D",
"o  c #1C1B2E",
"O  c #18162F",
"+  c #0E1432",
"@  c #121733",
"#  c #141935",
"$  c #1A1D33",
"%  c #151C3B",
"&  c #1A1E3B",
"*  c #21192B",
"=  c #1C213C",
"-  c #1E2136",
";  c #242134",
":  c #292535",
">  c #23243C",
",  c #2C2B3F",
"<  c #27273E",
"1  c #593A1E",
"2  c #4E3229",
"3  c #523527",
"4  c #724B16",
"5  c #75501A",
"6  c #161F41",
"7  c #1C2443",
"8  c #1D2649",
"9  c #1F294C",
"0  c #172042",
"q  c #1D324C",
"w  c #222643",
"e  c #242945",
"r  c #2A2A43",
"t  c #242B4B",
"y  c #292E4C",
"u  c #312F42",
"i  c #2B314E",
"p  c #20334A",
"a  c #363346",
"s  c #3D3746",
"d  c #35354D",
"f  c #3B3749",
"g  c #3F3B4D",
"h  c #262F51",
"j  c #263153",
"k  c #2D3352",
"l  c #283958",
"z  c #313652",
"x  c #343A55",
"c  c #393950",
"v  c #353C59",
"b  c #393E5A",
"n  c #2C3B61",
"m  c #433B4B",
"M  c #4A3F4A",
"N  c #28445D",
"B  c #3D425E",
"V  c #30485E",
"C  c #3A4B64",
"Z  c #40455E",
"A  c #404762",
"S  c #464B64",
"D  c #494E65",
"F  c #434B68",
"G  c #484D68",
"H  c #4D5066",
"J  c #4D5269",
"K  c #51556C",
"L  c #55596E",
"P  c #575B70",
"I  c #595D71",
"U  c #5E6174",
"Y  c #5B6179",
"T  c #646577",
"R  c #636679",
"E  c #6A6C7E",
"W  c #66697C",
"Q  c #95631E",
"!  c #9A5C28",
"~  c #9C6920",
"^  c #A46B23",
"/  c #AD6F25",
"(  c #A6762F",
")  c #AE7229",
"_  c #B7762A",
"`  c #AF7C31",
"'  c #C27D2A",
"]  c #C37F21",
"[  c #CA892A",
"{  c #C48128",
"}  c #D0882D",
"|  c #DD962D",
" . c #C78731",
".. c #CC9035",
"X. c #DD9834",
"o. c #DD9D3C",
"O. c #D79631",
"+. c #E4972A",
"@. c #E29D36",
"#. c #E2A13C",
"$. c #EEA73C",
"%. c #F8AF3D",
"&. c #ECAA44",
"*. c #ECAC4B",
"=. c #F3AE44",
"-. c #F6B145",
";. c #FAB144",
":. c #FCBC54",
">. c #FFBE59",
",. c #FFC35C",
"<. c #FFCA62",
"1. c #417897",
"2. c #6D6F81",
"3. c #6E7182",
"4. c #7B7D8D",
"5. c #578999",
"6. c #4681A1",
"7. c #5F96A3",
"8. c #5E9DB2",
"9. c #548CA7",
"0. c #6299A8",
"q. c #64A1B2",
"w. c #7AAABB",
"e. c #5AA2C3",
"r. c #74BACE",
"t. c #68B7DF",
"y. c #76BCD1",
"u. c #69B9E1",
"i. c #76C2DB",
"p. c #7AC9EC",
"a. c #7ECDF9",
"s. c #8A8488",
"d. c #918B8C",
"f. c #838493",
"g. c #94939C",
"h. c #82AFBD",
"j. c #81B2BE",
"k. c #AEA9AC",
"l. c #B7AEAB",
"z. c #ACABB3",
"x. c #B0AEB6",
"c. c #BBB4B3",
"v. c #BCB8B5",
"b. c #C2B9B5",
"n. c #84B6C2",
"m. c #B6B7C2",
"M. c #9BC1CE",
"N. c #BFC8D5",
"B. c #A4E1F5",
"V. c #AEE8FB",
"C. c #C7C3C8",
"Z. c #D3CECF",
"A. c #D3D2D4",
"S. c #D3D3DE",
"D. c #E4E1DF",
"F. c #CED6E1",
"G. c #D6D8E4",
"H. c #E2DEE3",
"J. c #E3E2E0",
"K. c #EAE4E5",
"L. c #ECEBEF",
"P. c #F5EEED",
"I. c #F6F1EF",
"U. c #E6EBF5",
"Y. c #EEEDF5",
"T. c #F0EEF5",
"R. c #F4F2F3",
"E. c #F3F3FA",
"W. c #FBF7FB",
"Q. c #FCFAFD",
"!. c None",
/* pixels */
"!.!.!.!.!.!.!.!.!.!.!.!.!.!.!.!.!.!.!.!.!.!.!.!.!.!.!.!.!.!.!.!.!.!.!.!.!.!.!.!.!.!.",
"!.!.!.!.!.!.!.!.!.!.!.!.!.!.!.!.!.!.!.!.d.!.!.!.!.!.!.!.!.!.!.!.!.!.!.!.!.!.!.!.!.!.",
"!.!.!.!.!.!.!.!.!.!.!.!.!.!.!.!.!.!.!.m.J.v.!.!.!.!.!.!.!.!.!.!.!.!.!.!.!.!.!.!.!.!.",
"!.!.!.!.!.!.!.!.!.!.!.!.!.!.!.!.!.!.!.G.Q.D.!.!.!.!.!.!.!.!.!.!.!.!.!.!.!.!.!.!.!.!.",
"!.!.!.!.!.!.!.!.!.!.!.!.!.!.!.!.!.!.!.G.E.K.!.!.!.!.!.!.!.!.!.!.!.!.!.!.!.!.!.!.!.!.",
"!.!.!.!.!.!.!.!.!.!.!.!.!.!.!.!.!.!.!.F.T.J.!.!.!.!.!.!.!.!.!.!.!.!.!.!.!.!.!.!.!.!.",
"!.!.!.!.!.!.!.!.!.!.!.!.!.!.!.!.!.!.!.C.U.A.!.!.!.!.!.!.!.!.!.!.!.!.!.!.!.!.!.!.!.!.",
"!.!.!.!.!.!.!.!.!.!.!.!.!.!.!.9.8.8.8.w.M.w.q.q.q.0.!.!.!.!.!.!.!.!.!.!.!.!.!.!.!.!.",
"!.!.!.!.!.!.!.!.!.!.!.!.!.!.!.6.e.t.a.p.V.B.i.y.n.0.!.!.!.!.!.!.!.!.!.!.!.!.!.!.!.!.",
"!.!.!.!.!.!.!.!.!.!.!.!.!.!.!.1.e.t.a.p.V.B.i.r.j.5.!.!.!.!.!.!.!.!.!.!.!.!.!.!.!.!.",
"!.!.!.!.!.!.!.!.!.!.!.!.!.!.w 6 = q N N C V l q = , Z !.!.!.!.!.!.!.!.!.!.!.!.!.!.!.",
"!.!.!.!.!.!.!.!.!.!.!.!.!.w w e 9 t j p i i y y i r , , !.!.!.!.!.!.!.!.!.!.!.!.!.!.",
"!.!.!.!.!.!.!.!.!.!.!.w > w e t h j i k k z k k y y t e a Z !.!.!.!.!.!.!.!.!.!.!.!.",
"!.!.!.!.!.!.!.!.!.!.w > w t t h i k x B b b v z k y y t r r M !.!.!.!.!.!.!.!.!.!.!.",
"!.!.!.!.!.!.!.!.!.!.< e t t t j k v B A D S Z b x z y y e w , !.!.!.!.!.!.!.!.!.!.!.",
"!.!.!.!.!.!.!.!.!.< r e e t h j v B H L T I J Z b z d y y e w , !.!.!.!.!.!.!.!.!.!.",
"!.!.!.!.!.!.!.!.!.> r t t h j b B C K T 2.W P S D v z y y e w = !.!.!.!.!.!.!.!.!.!.",
"!.!.!.!.!.!.!.!.> w r t h j 2.H.K.T J T 2.T P x.I.C.z k d y e 7 r !.!.!.!.!.!.!.!.!.",
"!.!.!.!.!.!.!.!.& w r y h k m.E.Q.c.G L I P I Y.W.P.d.d z f r w : !.!.!.!.!.!.!.!.!.",
"!.!.!.!.!.!.!.!.% > e y h A G.E.W.Z.S J K K 4.E.W.I.b.d c g a w = !.!.!.!.!.!.!.!.!.",
"!.!.!.!.!.!.!.!.# 7 w t j K G.Y.Q.A.F K P I f.E.Q.I.b.z c m f e - !.!.!.!.!.!.!.!.!.",
"!.!.!.!.!.!.!.!.# 6 8 9 j C G.Y.Q.C.G L T 2.4.T.Q.I.l.z c m s < - !.!.!.!.!.!.!.!.!.",
"!.!.!.!.!.!.!.!.+ 6 7 9 j n m.U.L.g.G L W 2.2.S.R.K.s.i d f a < ; !.!.!.!.!.!.!.!.!.",
"!.!.!.!.!.!.!.!.+ 6 6 8 9 n I m.z.C A J I T I f.Z.k.z y y u , > $ !.!.!.!.!.!.!.!.!.",
"!.!.!.!.!.!.!.!.+ @ 6 6 8 9 j n v N B B Z H D B x z i r e e = = ; !.!.!.!.!.!.!.!.!.",
"!.!.!.!.!.!.!.!.+ @ 6 6 8 8 8 j h k k x B B x x z y y e 7 = = - ; !.!.!.!.!.!.!.!.!.",
"!.!.!.!.!.!.!.!.!.+ @ % 6 6 0 9 9 t h i i i k i y r q 7 = = - X !.!.!.!.!.!.!.!.!.!.",
"!.!.!.!.!.!.!.!.!.+ + @ 6 6 0 0 7 8 t e t y t t 7 7 = = = - X - !.!.!.!.!.!.!.!.!.!.",
"!.!.!.!.!.!.!.!.!.!.@ @ # % & 6 0 7 7 7 7 7 w 7 7 = = = - X X !.!.!.!.!.!.!.!.!.!.!.",
"!.!.!.!.!.!.!.!.!.!.!.@ @ # & & = % % 0 7 = & & & & - - X @ !.!.!.!.!.!.!.!.!.!.!.!.",
"!.!.!.!.!.!.!.!.!.!.!.!.  O ; > > & & % & % % = ; : : $ X !.!.!.!.!.!.!.!.!.!.!.!.!.",
"!.!.!.!.!.!.!.!.!.!.!.!.!.2 * ; : ; $ % # # $ ; : ; * 2 ~ !.!.!.!.!.!.!.!.!.!.!.!.!.",
"!.!.!.!.!.!.!.!.!.!.!.!.) ( 1 * o o $ @ @ @ o o X * 1 ` ' !.!.!.!.!.!.!.!.!.!.!.!.!.",
"!.!.!.!.!.!.!.!.!.!.!.!.) ( 5 !.!.O . . @ o O . !.!.4 ` ' !.!.!.!.!.!.!.!.!.!.!.!.!.",
"!.!.!.!.!.!.!.!.!.!.!.!.~ ~ 4 !.!.!.!.!.!.!.!.!.!.!.4 Q / !.!.!.!.!.!.!.!.!.!.!.!.!.",
"!.!.!.!.!.!.!.!.!.!. .X.o.#. .Q !.!.!.!.!.!.!.!.!.~ ..#.#.| !.!.!.!.!.!.!.!.!.!.!.!.",
"!.!.!.!.!.!.!.!.!.!.| -.>.,.:.O.^ !.!.!.!.!.!.!./ o.:.,.:.%.+.!.!.!.!.!.!.!.!.!.!.!.",
"!.!.!.!.!.!.!.!.!._ +.-.,.<.,.$.{ !.!.!.!.!.!.!.[ $.,.<.,.-.+.!.!.!.!.!.!.!.!.!.!.!.",
"!.!.!.!.!.!.!.!.!._ X.*.>.>.:.$.{ !.!.!.!.!.!.!.[ &.:.,.,.;.+.!.!.!.!.!.!.!.!.!.!.!.",
"!.!.!.!.!.!.!.!.!.!. .o.&.*.*.X.' !.!.!.!.!.!.!.{ o.*.*.*.#.[ !.!.!.!.!.!.!.!.!.!.!.",
"!.!.!.!.!.!.!.!.!.!.!.!.!.!.!.!.!.!.!.!.!.!.!.!.!.!.!.!.!.!.!.!.!.!.!.!.!.!.!.!.!.!.",
"!.!.!.!.!.!.!.!.!.!.!.!.!.!.!.!.!.!.!.!.!.!.!.!.!.!.!.!.!.!.!.!.!.!.!.!.!.!.!.!.!.!."
};
