/* XPM */
static char *_fcb7e9ff9314abaf10fac483def2d51rL5Zc61BO3PsJIs2[] = {
/* columns rows colors chars-per-pixel */
"42 42 176 2 ",
"   c #58391C",
".  c #5A3A1F",
"X  c #4E3229",
"o  c #523527",
"O  c #744B14",
"+  c #714D19",
"@  c #93621F",
"#  c #9A6620",
"$  c #9F6D22",
"%  c #9B6B29",
"&  c #A77024",
"*  c #A5772E",
"=  c #AF7A31",
"-  c #C37F21",
";  c #C88829",
":  c #CC8A2A",
">  c #DD972D",
",  c #C78B31",
"<  c #CC9035",
"1  c #D59430",
"2  c #D99731",
"3  c #DD9831",
"4  c #DC9D38",
"5  c #DF9F3E",
"6  c #E3962A",
"7  c #E6992A",
"8  c #E49931",
"9  c #E3A03A",
"0  c #E1A13D",
"q  c #EDA73B",
"w  c #EFA73C",
"e  c #F8AF3D",
"r  c #B18044",
"t  c #B68A56",
"y  c #EEAB41",
"u  c #F3AE44",
"i  c #F5B043",
"p  c #F7B246",
"a  c #FBB243",
"s  c #F9B045",
"d  c #FFA95B",
"f  c #F8B851",
"g  c #F9B953",
"h  c #FEBB55",
"j  c #FEBC55",
"k  c #FFBE58",
"l  c #C69A67",
"z  c #D3A66C",
"x  c #D6A86E",
"c  c #DAAC6F",
"v  c #DFAE71",
"b  c #E3B266",
"n  c #E5B46B",
"m  c #EAB568",
"M  c #EEBB6E",
"N  c #F1BD6E",
"B  c #EFBD71",
"V  c #FFC35A",
"C  c #FEC25B",
"Z  c #FFC15D",
"A  c #FFCA62",
"S  c #5888A4",
"D  c #5D91AD",
"F  c #6B97A5",
"G  c #76A5B0",
"H  c #7BAFBE",
"J  c #59A0C1",
"K  c #5BA4C5",
"L  c #7AAEC0",
"P  c #7FB2C2",
"I  c #74BACE",
"U  c #68B7DF",
"Y  c #76BCD1",
"T  c #69B9E1",
"R  c #75C1DA",
"E  c #79C8EB",
"W  c #7ACAED",
"Q  c #7ECEFA",
"!  c #94939C",
"~  c #BBA99E",
"^  c #82AFBF",
"/  c #81B2BE",
"(  c #ACA8A8",
")  c #AEA9AC",
"_  c #B7AEAB",
"`  c #ACABB3",
"'  c #BCB3B0",
"]  c #B9B4B6",
"[  c #D4B386",
"{  c #CCAD93",
"}  c #C4AB9E",
"|  c #C2AF9F",
" . c #D5B690",
".. c #DBB893",
"X. c #DDBA93",
"o. c #E1BE93",
"O. c #E1BE94",
"+. c #C2B9B5",
"@. c #C6B9B6",
"#. c #D8C1AE",
"$. c #DAC5B5",
"%. c #EBCEAD",
"&. c #E4D2BF",
"*. c #E9D3BC",
"=. c #82B4C1",
"-. c #84B6C2",
";. c #8AB4C1",
":. c #88B5C7",
">. c #90BAC7",
",. c #B3B4C4",
"<. c #B9B8C3",
"1. c #9BC1CE",
"2. c #ACC9D1",
"3. c #A3E0F4",
"4. c #A5E2F6",
"5. c #ADE7FA",
"6. c #AFE9FB",
"7. c #C4C1C5",
"8. c #CBC4C3",
"9. c #C2C0C9",
"0. c #C3C3CB",
"q. c #CAC7CE",
"w. c #D5CAC8",
"e. c #D3CECF",
"r. c #D8CECF",
"t. c #DDD2CD",
"y. c #D6D4D2",
"u. c #D6D2D4",
"i. c #D5D5DA",
"p. c #D3D3DE",
"a. c #DCDADA",
"s. c #EEE1D6",
"d. c #F4E5D7",
"f. c #F0E4DA",
"g. c #D3D5E4",
"h. c #D8D7E2",
"j. c #DFDDE0",
"k. c #DCDDE2",
"l. c #D8DEE5",
"z. c #DADAE8",
"x. c #E2DEE3",
"c. c gray88",
"v. c #E3E4E5",
"b. c #E8E3E4",
"n. c #ECE5E6",
"m. c #E1E6ED",
"M. c #E6E8EE",
"N. c #EDEDEB",
"B. c #ECEBEF",
"V. c #EFEEEC",
"C. c #F0E8E3",
"Z. c #F3EDED",
"A. c #F7EFED",
"S. c #F7F1EF",
"D. c #E6E8F6",
"F. c #E6EEF4",
"G. c #EDEBF1",
"H. c #EFEFF9",
"J. c #F0EEF5",
"K. c #F0F1F2",
"L. c #F6F0F0",
"P. c #F2F3F5",
"I. c #F5F6F7",
"U. c #FAF5F0",
"Y. c #F0F1FA",
"T. c #F6F6F8",
"R. c #F7F7F9",
"E. c #F1F3FE",
"W. c #F4F4FC",
"Q. c #FCF7F9",
"!. c #FAF7FC",
"~. c #F8F8F9",
"^. c #FDFAFA",
"/. c #FAF9FD",
"(. c #FDFAFC",
"). c white",
/* pixels */
").).).).).).).).).).).).).).).).).).).).).).).).).).).).).).).).).).).).).).).).).).",
").).).).).).).).).).).).).).).).).).).j.( a.).).).).).).).).).).).).).).).).).).).).",
").).).).).).).).).).).).).).).).).).).i.c.y.).).).).).).).).).).).).).).).).).).).).",
").).).).).).).).).).).).).).).).).).).M.T.V.).).).).).).).).).).).).).).).).).).).).",
").).).).).).).).).).).).).).).).).).).M.I.V.).).).).).).).).).).).).).).).).).).).).",
").).).).).).).).).).).).).).).).).).).m.K.N.).).).).).).).).).).).).).).).).).).).).",
").).).).).).).).).).).).).).).).).).).l.F.v.).).).).).).).).).).).).).).).).).).).).",
").).).).).).).).).).).).).).).>.:.P L ^ 1.;.H =.>.2.).).).).).).).).).).).).).).).).",
").).).).).).).).).).).).).).).D K T Q W 6.4.R Y -.G ).).).).).).).).).).).).).).).).",
").).).).).).).).).).).).).).).S J U Q E 5.3.R I / F ).).).).).).).).).).).).).).).).",
").).).).).).).).).).).).).d d d d d d d d d d d d d d d ).).).).).).).).).).).).).).",
").).).).).).).).).).).).d d d d d d d d d d d d d d d d d ).).).).).).).).).).).).).",
").).).).).).).).).).).d d d d d d d d d d d d d d d d d d d ).).).).).).).).).).).).",
").).).).).).).).).).d d d d d d d d d d d d d d d d d d d d d ).).).).).).).).).).).",
").).).).).).).).).d d d d d d d d d d d d d d d d d d d d d d d ).).).).).).).).).).",
").).).).).).).).T.d d d d d d d d d d d d d d d d d d d d d d d ~.).).).).).).).).).",
").).).).).).).).d d d d d d d d d d d d d d d d d d d d d d d d d ).).).).).).).).).",
").).).).).).).).d d d d d d d x.b.d d d d d d ` A.8.d d d d d d d ).).).).).).).).).",
").).).).).).).d d d d d d d 9.H.(.] d d d d d B.^.S.d d d d d d d d ).).).).).).).).",
").).).).).).).d d d d d d d h.H.!.e.d d d d d W.Q.L.' d d d d d d d ).).).).).).).).",
").).).).).).).d d d d d d d z.H./.u.d d d d d W.(.A.+.d d d d d d d ).).).).).).).).",
").).).).).).).d d d d d d d g.E./.7.d d d d d Y.).Z._ d d d d d d d ).).).).).).).).",
").).).).).).).d d d d d d d ,.D.G.! d d d d d p.T.n.d d d d d d d d ).).).).).).).).",
").).).).).).).d d d d d d d d <.` d d d d d d d q.) d d d d d d d d ).).).).).).).).",
").).).).).).).P.d d d d d d d d d d d d d d d d d d d d d d d d d T.).).).).).).).).",
").).).).).).).).d d d d d d d d d d d d d d d d d d d d d d d d d ).).).).).).).).).",
").).).).).).).).d d d d d d d d d d d d d d d d d d d d d d d d d ).).).).).).).).).",
").).).).).).).).).d d d d d d d d d d d d d d d d d d d d d d d d ).).).).).).).).).",
").).).).).).).).).j.d d d d d d d d d d d d d d d d d d d d d d ).).).).).).).).).).",
").).).).).).).).).).d d d d d d d d d d d d d d d d d d d d d ).).).).).).).).).).).",
").).).).).).).).).).).d d d d d d d d d d d d d d d d d d d ).).).).).).).).).).).).",
").).).).).).).).).).).).} X d d d d d d d d d d d d d o { ).).).).).).).).).).).).).",
").).).).).).).).).).).). .* . d d d d d d d d d d d . = O.).).).).).).).).).).).).).",
").).).).).).).).).).).).[ * + r.9.d d d d d d d 9.@.+ = O.).).).).).).).).).).).).).",
").).).).).).).).).)./.&.t @ O w.).).).).).).).).).~ O @ l f.).).).).).).).).).).).).",
").).).).).).).).).).x 2 0 5 , % t.).).).).).).).| $ < 0 8 > %.).).).).).).).).).).).",
").).).).).).).).).*.> u j V g 1 r ^.).).).).).N.& 4 g V V e 8 U.).).).).).).).).).).",
").).).).).).).).).X.6 u V A V q ; T.).).).).).$.; y V A V s 7 d.).).).).).).).).).).",
").).).).).).).).)...2 u h V k q ; J.).).).).).#.; y h V k s 6 f.).).).).).).).).).).",
").).).).).).).).).s.v n B B B n v ).).).).).).C.x b M N N m v U.).).).).).).).).).).",
").).).).).).).).).).).).).).).).).).).).).).).).).).).).).).).).).).).).).).).).).).",
").).).).).).).).).).).).).).).).).).).).).).).).).).).).).).).).).).).).).).).).).)."
};
