/* XPM */
static char *result[] = {
/* columns rows colors chars-per-pixel */
"42 42 238 2 ",
"   c #3D2C27",
".  c #5E391F",
"X  c #493636",
"o  c #583930",
"O  c #644515",
"+  c #63461D",
"@  c #734C1B",
"#  c #704F1D",
"$  c #765218",
"%  c #76531D",
"&  c #795A29",
"*  c #776043",
"=  c #885215",
"-  c #855E1E",
";  c #8B611F",
":  c #92611A",
">  c #B46C1C",
",  c #AC721F",
"<  c #B0701F",
"1  c #814A2A",
"2  c #875826",
"3  c #895A2D",
"4  c #896020",
"5  c #8B6220",
"6  c #896325",
"7  c #8A6528",
"8  c #906622",
"9  c #926722",
"0  c #9F6720",
"q  c #936C24",
"w  c #996B24",
"e  c #986C24",
"r  c #9E6E25",
"t  c #996F29",
"y  c #9A7025",
"u  c #9F7326",
"i  c #85683F",
"p  c #A07126",
"a  c #A17227",
"s  c #A57326",
"d  c #A47427",
"f  c #A67626",
"g  c #A87627",
"h  c #A97727",
"j  c #A0752B",
"k  c #A47828",
"l  c #A77929",
"z  c #A77A29",
"x  c #A87828",
"c  c #A87928",
"v  c #A87929",
"b  c #AA7928",
"n  c #AA7A29",
"m  c #A97B2A",
"M  c #AC7A29",
"N  c #AE7B29",
"B  c #A87C2A",
"V  c #A97C2A",
"C  c #AB7D2A",
"Z  c #AB7E2B",
"A  c #AD7C29",
"S  c #AC7D2A",
"D  c #AD7D2A",
"F  c #AE7D2A",
"G  c #AC7E2A",
"H  c #AD7E2B",
"J  c #AE7E2B",
"K  c #AF7F2B",
"L  c #AB7C2E",
"P  c #AC7D2D",
"I  c #AF7F2C",
"U  c #B17722",
"Y  c #B87B25",
"T  c #B17D2A",
"R  c #B07F2B",
"E  c #AC7E33",
"W  c #C47A25",
"Q  c #846C4B",
"!  c #AE802B",
"~  c #AE812B",
"^  c #AF802C",
"/  c #BF8427",
"(  c #B0802C",
")  c #B0812C",
"_  c #B1812C",
"`  c #B3802C",
"'  c #B2812D",
"]  c #B2822D",
"[  c #B3822D",
"{  c #B4832D",
"}  c #B4842D",
"|  c #B7862C",
" . c #B7872D",
".. c #B8872D",
"X. c #B9872F",
"o. c #B8882D",
"O. c #AE8237",
"+. c #AD813B",
"@. c #B28333",
"#. c #B48337",
"$. c #BE8C30",
"%. c #C58024",
"&. c #CE8A27",
"*. c #C28129",
"=. c #D08526",
"-. c #D28626",
";. c #D48427",
":. c #D78427",
">. c #D38827",
",. c #D48926",
"<. c #D58E27",
"1. c #D78E27",
"2. c #D3862E",
"3. c #D38828",
"4. c #D48C28",
"5. c #D98C2A",
"6. c #D8912A",
"7. c #D9942B",
"8. c #DB942B",
"9. c #DC932E",
"0. c #DB942C",
"q. c #DE972D",
"w. c #DE982C",
"e. c #C58A31",
"r. c #C98835",
"t. c #D08A32",
"y. c #D08F33",
"u. c #DE9F39",
"i. c #E1962C",
"p. c #E59C2F",
"a. c #E09830",
"s. c #E09C31",
"d. c #E7A136",
"f. c #ECA53C",
"g. c #EDA83D",
"h. c #F2AB3C",
"j. c #F2AC3F",
"k. c #97805E",
"l. c #A1804F",
"z. c #B28948",
"x. c #B9914C",
"c. c #B68F53",
"v. c #B89052",
"b. c #B5925B",
"n. c #BB9559",
"m. c #D29D47",
"M. c #DD9B48",
"N. c #CE9450",
"B. c #C1995A",
"V. c #D29750",
"C. c #E49F4A",
"Z. c #DCA348",
"A. c #EFAD44",
"S. c #E6A849",
"D. c #F2AC41",
"F. c #F7B042",
"G. c #F2B047",
"H. c #F4B249",
"J. c #F0B34F",
"K. c #F1B44F",
"L. c #FEBE56",
"P. c #F4B858",
"I. c #F8BA58",
"U. c #C8AA7C",
"Y. c #E1AF64",
"T. c #FEC159",
"R. c #FFC75B",
"E. c #FFC65D",
"W. c #FFC85D",
"Q. c #FFF75B",
"!. c #5B9BB6",
"~. c #6492A1",
"^. c #6C9AA9",
"/. c #61A2BE",
"(. c #76ABBC",
"). c #79ADBD",
"_. c #79ADBE",
"`. c #5DA6C2",
"'. c #5FA9C4",
"]. c #7AAEC0",
"[. c #63B1D1",
"{. c #64B3D3",
"}. c #6ABBDE",
"|. c #70B9D7",
" X c #71BBD9",
".X c #6BBDE0",
"XX c #77C3E2",
"oX c #79C5E4",
"OX c #9594A1",
"+X c #9997A1",
"@X c #A5A5B0",
"#X c #B7B3BA",
"$X c #CBAE82",
"%X c #CEB084",
"&X c #E0CEB2",
"*X c #80B1C1",
"=X c #81B3C5",
"-X c #91B8C7",
";X c #95B9C5",
":X c #91BCCC",
">X c #97BECD",
",X c #BBB8C0",
"<X c #C1BDC4",
"1X c #C2BFC7",
"2X c #C1BFC8",
"3X c #83D0F4",
"4X c #84D2F5",
"5X c #8AD2F2",
"6X c #8CD5F4",
"7X c #BEF8FF",
"8X c #C2C8C9",
"9X c #C6CDCD",
"0X c #D9CFC6",
"qX c #DDD5CE",
"wX c #C5CCD3",
"eX c #CFCFDA",
"rX c #D1CDD2",
"tX c #D5D4DF",
"yX c #E1D2C0",
"uX c #E2D4C1",
"iX c #E0DEE8",
"pX c #DFE6E8",
"aX c #DCE5EF",
"sX c #C1FAFF",
"dX c #E3E2EA",
"fX c #E5E2E9",
"gX c #E4E2EA",
"hX c #E3EAEE",
"jX c #EFEFF6",
"kX c #F0EDF1",
"lX c #EFF0F2",
"zX c #F5F3F3",
"xX c #F0F1F5",
"cX c #F7F5FA",
"vX c #F6F5FB",
"bX c #FEFEFE",
"nX c white",
"mX c None",
/* pixels */
"mXmXmXmXmXmXmXmXmXmXmXmXmXmXmXmXmXmXmXmXmXmXmXmXmXmXmXmXmXmXmXmXmXmXmXmXmXmXmXmXmXmX",
"mXmXmXmXmXmXmXmXmXmXmXmXmXmXmXmXmXmXmXmXmXmXmXmXmXmXmXmXmXmXmXmXmXmXmXmXmXmXmXmXmXmX",
"mXmXmXmXmXmXmXmXmXmXmXmXmXmXmXmXmXmXmXmXmXmXmXmXmXmXmXmXmXmXmXmXmXmXmXmXmXmXmXmXmXmX",
"mXmXmXmXmXmXmXmXmXmXmXmXmXmXmXmXmXmXmXmXmXmXmXmXmXmXmXmXmXmXmXmXmXmXmXmXmXmXmXmXmXmX",
"mXmXmXmXmXmXmXmXmXmXmXmXmXmXmXmXmXmXmXmXmXmXmXmXmXmXmXmXmXmXmXmXmXmXmXmXmXmXmXmXmXmX",
"mXmXmXmXmXmXmXmXmXmXmXmXmXmXmXmXmXmXmXmXmXmXmXmXmXmXmXmXmXmXmXmXmXmXmXmXmXmXmXmXmXmX",
"mXmXmXmXmXmXmXmXmXmXmXmXmXmXmXmXmXmXnXnXnXnXlXwXaXxXnXnXnXmXmXmXmXmXmXmXmXmXmXmXmXmX",
"mXmXmXmXmXmXmXmXmXmXmXmXmXmXmXmXmXmXpX;X*X).(.-X>X_.].=X:XhXmXmXmXmXmXmXmXmXmXmXmXmX",
"mXmXmXmXmXmXmXmXmXmXmXmXmXmXmXmXmXmX9X^.'. XoX6XsX4X.X{./.mXmXmXmXmXmXmXmXmXmXmXmXmX",
"mXmXmXmXmXmXmXmXmXmXmXmXmXmXmXmXmXnX8X~.`.|.XX5X7X3X}.[.!.mXmXmXmXmXmXmXmXmXmXmXmXmX",
"mXmXmXmXmXmXmXmXmXmXmXmXmXmXmXmXmXQ.Q.Q.Q.Q.Q.Q.Q.Q.Q.Q.Q.Q.mXmXmXmXmXmXmXmXmXmXmXmX",
"mXmXmXmXmX%XB.mXmXmXmXmXmXmXmXmXQ.Q.Q.Q.Q.Q.Q.Q.Q.Q.Q.Q.Q.Q.Q.Q.mXmXmXmXmXmXmXmXmXmX",
"mXmXmXmX@.] [ X...mXmXmXmXmXmXQ.Q.Q.Q.Q.Q.Q.Q.Q.Q.Q.Q.Q.Q.Q.Q.Q.Q.mXmXmXmXmXmXmXmXmX",
"mXmXmXn._ y b.' $.j mXmXmXQ.Q.Q.Q.Q.Q.Q.Q.Q.Q.Q.Q.Q.Q.Q.Q.Q.Q.Q.Q.Q.mXmXmXmXmXmXmXmX",
"mXmXmXJ z * bX$X{ ~ mXmXmXQ.Q.Q.Q.Q.Q.Q.Q.Q.Q.Q.Q.Q.Q.Q.Q.Q.Q.Q.Q.Q.Q.mXmXmXmXmXmXmX",
"mXmXmXJ Z k.nX&X]  .mXmXQ.Q.Q.Q.Q.Q.Q.Q.Q.Q.Q.Q.Q.Q.Q.Q.Q.Q.Q.Q.Q.Q.Q.Q.mXmXmXmXmXmX",
"mXmXmXO.} 6 qXU.( o.i mXQ.Q.Q.Q.Q.Q.Q.Q.Q.Q.Q.Q.Q.Q.Q.Q.Q.Q.Q.Q.Q.Q.Q.Q.mXmXmXmXmXmX",
"mXmXmXmXK R c F A | $ Q.Q.Q.Q.Q.Q.Q.Q.Q.Q.Q.Q.Q.Q.Q.Q.Q.Q.Q.Q.kXrXQ.Q.Q.Q.mXmXmXmXmX",
"mXmXmXmXP K b g h M f Q.Q.Q.Q.Q.Q.Q.Q.Q.Q.Q.Q.Q.Q.Q.Q.Q.Q.Q.1XcXfXQ.Q.Q.Q.mXmXmXmXmX",
"mXmXmXmXz.x s N T ` t Q.Q.Q.Q.Q.Q.Q.Q.Q.Q.Q.Q.Q.Q.Q.Q.Q.Q.Q.2XvXgX#XQ.Q.Q.Q.mXmXmXmX",
"mXmXmXmXz.p w d n D 7 Q.Q.Q.Q.Q.Q.Q.Q.Q.Q.Q.Q.Q.Q.Q.Q.Q.Q.Q.@XvXdX<XQ.Q.Q.Q.mXmXmXmX",
"mXmXmXmXE v ; 4 8 9 % Q.Q.Q.Q.Q.Q.Q.Q.Q.Q.Q.Q.Q.Q.Q.Q.Q.Q.Q.Q.jXiX,XQ.Q.Q.Q.mXmXmXmX",
"mXmXmXmXJ S l e 5 - O Q.Q.Q.Q.Q.Q.Q.Q.Q.Q.Q.Q.Q.Q.Q.Q.Q.Q.Q.Q.eXtX+XQ.Q.Q.mXmXmXmXmX",
"mXmXmXv.C # 0Xc.m G + Q.Q.Q.Q.Q.Q.Q.Q.Q.Q.Q.Q.Q.Q.Q.Q.Q.Q.Q.Q.Q.OXQ.Q.Q.Q.mXmXmXmXmX",
"mXmXmXL k Q nXyXH ! mXQ.Q.Q.Q.Q.Q.Q.Q.Q.Q.Q.Q.Q.Q.Q.Q.Q.Q.Q.Q.Q.Q.Q.Q.Q.Q.mXmXmXmXmX",
"mXmXmX+.mX& zXuX) B mXmXQ.Q.Q.Q.Q.Q.Q.Q.Q.Q.Q.Q.Q.Q.Q.Q.Q.Q.Q.Q.Q.Q.Q.Q.mXmXmXmXmXmX",
"mXmXmXmXI u l.x.] q mXmXQ.Q.Q.Q.Q.Q.Q.Q.Q.Q.Q.Q.Q.Q.Q.Q.Q.Q.Q.Q.Q.Q.Q.Q.mXmXmXmXmXmX",
"mXmXmXmXmXJ K ^ V mXmXmXmXQ.Q.Q.Q.Q.Q.Q.Q.Q.Q.Q.Q.Q.Q.Q.Q.Q.Q.Q.Q.Q.Q.mXmXmXmXmXmXmX",
"mXmXmXmXmXmXmXmXmXmXmXmXmXmXQ.Q.Q.Q.Q.Q.Q.Q.Q.Q.Q.Q.Q.Q.Q.Q.Q.Q.Q.Q.mXmXmXmXmXmXmXmX",
"mXmXmXmXmXmXmXmXmXmXmXmXmXmXmXQ.Q.Q.Q.Q.Q.Q.Q.Q.Q.Q.Q.Q.Q.Q.Q.Q.Q.mXmXmXmXmXmXmXmXmX",
"mXmXmXmXmXmXmXmXmXmXmXmXmXmXmXmXQ.Q.Q.Q.Q.Q.Q.Q.Q.Q.Q.Q.Q.Q.Q.Q.mXmXmXmXmXmXmXmXmXmX",
"mXmXmXmXmXmXmXmXmXmXmXmXmXmXmXmXQ.1 o Q.Q.Q.Q.Q.Q.Q.Q.Q.Q.Q.Q.mXmXmXmXmXmXmXmXmXmXmX",
"mXmXmXmXmXmXmXmXmXmXmXmXmXmXmXmXmXmXC.3 Q.Q.Q.Q.Q.Q.Q.Q.Q.mXmXmXmXmXmXmXmXmXmXmXmXmX",
"mXmXmXmXmXmXmXmXmXmXmXmXmXmXmXmXmXmXK.mXmXQ.Q.Q.Q.  X mXmXmXmXmXmXmXmXmXmXmXmXmXmXmX",
"mXmXmXmXmXmXmXmXmXmXmXmXmXmXmXmXmXmXJ.mXmXmXmXmXmX@ . mXmXmXa / mXmXmXmXmXmXmXmXmXmX",
"mXmXmXmXmXmXmXmXmXmXmXmXmXmXmXmXmX2.M.2 mXmXmXU , 0 = : r #.m.u.7.mXmXmXmXmXmXmXmXmX",
"mXmXmXmXmXmXmXmXmXmXmXmXmXmXmXmXmX4.W > <.d.H.G.s.&.< Y e.Z.P.A.q.V.mXmXmXmXmXmXmXmX",
"mXmXmXmXmXmXmXmXmXmXmXmXmXmXmXmX1.i.:.,.p.F.W.R.h.w.%.*.y.S.I.A.0.N.mXmXmXmXmXmXmXmX",
"mXmXmXmXmXmXmXmXmXmXmXmXmXmXmXmX-.5.;.>.a.D.E.E.j.8.r.mXmXY.mXmXmXmXmXmXmXmXmXmXmXmX",
"mXmXmXmXmXmXmXmXmXmXmXmXmXmXmXmXmXt.=.3.9.f.L.T.g.6.mXmXmXmXmXmXmXmXmXmXmXmXmXmXmXmX",
"mXmXmXmXmXmXmXmXmXmXmXmXmXmXmXmXmXmXmXmXmXmXmXmXmXmXmXmXmXmXmXmXmXmXmXmXmXmXmXmXmXmX",
"mXmXmXmXmXmXmXmXmXmXmXmXmXmXmXmXmXmXmXmXmXmXmXmXmXmXmXmXmXmXmXmXmXmXmXmXmXmXmXmXmXmX"
};
