/* XPM */
static char *_d0812cfa0ca400dbff5b96c028a711biNGBA4VoiNydIWkl[] = {
/* columns rows colors chars-per-pixel */
"42 42 150 2 ",
"   c None",
".  c #3D2C27",
"X  c #5E391F",
"o  c #493636",
"O  c #583930",
"+  c #664513",
"@  c #63461D",
"#  c #724E1C",
"$  c #76531B",
"%  c #7E571B",
"&  c #795A29",
"*  c #705133",
"=  c #776043",
"-  c #895416",
";  c #855E1E",
":  c #8B611F",
">  c #92611A",
",  c #B46C1C",
"<  c #AC721F",
"1  c #B0701F",
"2  c #814A2A",
"3  c #875826",
"4  c #895A2D",
"5  c #8A6222",
"6  c #8A6528",
"7  c #916722",
"8  c #9F6720",
"9  c #9A6C24",
"0  c #996F29",
"q  c #936C24",
"w  c #9D7226",
"e  c #85683F",
"r  c #A37326",
"t  c #A97727",
"y  c #A67929",
"u  c #AC7C2A",
"i  c #A0752B",
"p  c #B17722",
"a  c #B17E2B",
"s  c #B87B25",
"d  c #A77936",
"f  c #A77E39",
"g  c #AC7E33",
"h  c #B07D36",
"j  c #C47A25",
"k  c #826A4A",
"l  c #907650",
"z  c #AE802B",
"x  c #BF8427",
"c  c #B3822D",
"v  c #B9872E",
"b  c #B8882D",
"n  c #AE8237",
"m  c #AE823B",
"M  c #B38335",
"N  c #BE8C30",
"B  c #B8823B",
"V  c #CE8A27",
"C  c #C78228",
"Z  c #D38527",
"A  c #D58B27",
"S  c #D48A28",
"D  c #D6892C",
"F  c #D7942F",
"G  c #DB942C",
"H  c #DE982C",
"J  c #C78933",
"K  c #D08D33",
"L  c #DE9F39",
"P  c #E3992E",
"I  c #E09A31",
"U  c #E7A136",
"Y  c #EDA73D",
"T  c #F2AC3E",
"R  c #97805E",
"E  c #A1804F",
"W  c #B28948",
"Q  c #B9914C",
"!  c #AF8B54",
"~  c #B68F53",
"^  c #B89052",
"/  c #B8945A",
"(  c #AA9472",
")  c #D89C48",
"_  c #CE9450",
"`  c #C2975C",
"'  c #D29750",
"]  c #E49F4A",
"[  c #DCA348",
"{  c #EFAD44",
"}  c #E6A849",
"|  c #F2AC41",
" . c #F5B045",
".. c #F2B34D",
"X. c #FFA95B",
"o. c #FEBE56",
"O. c #F4B858",
"+. c #F8BA58",
"@. c #D5A061",
"#. c #C6A97C",
"$. c #E1AF64",
"%. c #EBB96E",
"&. c #FFC55C",
"*. c #FFC85D",
"=. c #5B9BB6",
"-. c #6896A5",
";. c #61A2BE",
":. c #79ADBE",
">. c #76ABBC",
",. c #5EA8C3",
"<. c #7AAEC0",
"1. c #64B2D2",
"2. c #6ABBDE",
"3. c #70B9D7",
"4. c #71BBD9",
"5. c #6BBDE0",
"6. c #78C4E3",
"7. c #96949D",
"8. c #9997A1",
"9. c #9998A3",
"0. c #A5A5B0",
"q. c #B7B3BA",
"w. c #CBAE82",
"e. c #CEB084",
"r. c #E3CEB4",
"t. c #81B2C3",
"y. c #93B9C6",
"u. c #94BDCD",
"i. c #BBB8C0",
"p. c #C2BEC6",
"a. c #C1BFC8",
"s. c #84D1F5",
"d. c #8BD4F3",
"f. c #BEF8FF",
"g. c #C4CBCB",
"h. c #D9CFC6",
"j. c #DDD5CE",
"k. c #CFCFDA",
"l. c #D1CDD2",
"z. c #D5D4DF",
"x. c #E2D3C1",
"c. c #F0E4DC",
"v. c #E0DEE8",
"b. c #C1FAFF",
"n. c #E4E2EA",
"m. c #EFEFF6",
"M. c #F0EDF1",
"N. c #F5F4F5",
"B. c #F6F5FB",
"V. c #FEFEFE",
/* pixels */
"                                                                                    ",
"                                                                                    ",
"                                                                                    ",
"                                                                                    ",
"                                                                                    ",
"                                                                                    ",
"                                                                                    ",
"                                      y.t.:.>.y.u.:.<.t.u.                          ",
"                                    g.-.,.4.6.d.b.s.5.1.;.                          ",
"                                  V.g.-.,.3.6.d.b.s.2.1.=.                          ",
"                                B.X.X.X.X.X.X.X.X.X.X.X.X.X.X.                      ",
"          e.`               V.X.X.X.X.X.X.X.X.X.X.X.X.X.X.X.X.X.                    ",
"        M c c c b         V.X.X.X.X.X.X.X.X.X.X.X.X.X.X.X.X.X.X.X.X.                ",
"      / c w / c N i       X.X.X.X.X.X.X.X.X.X.X.X.X.X.X.X.X.X.X.X.X.X.              ",
"      u y = V.w.c z     B.X.X.X.X.X.X.X.X.X.X.X.X.X.X.X.X.X.X.X.X.X.X.              ",
"      u u R V.r.c b (   X.X.X.X.X.X.X.X.X.X.X.X.X.X.X.X.X.X.X.X.X.X.X.X.            ",
"      n M 6 x.#.u b e   X.X.X.X.X.X.X.X.X.X.X.X.X.X.X.X.X.X.X.X.X.X.X.X.            ",
"        a u u u u b $ X.X.X.X.X.X.X.X.X.X.X.X.X.X.X.X.X.X.X.9.N.l.X.X.X.X.          ",
"        u z t t t u t X.X.X.X.X.X.X.X.X.X.X.X.X.X.X.X.X.X.X.g.N.n.7.X.X.X.X.        ",
"        W t r u a c 0 X.X.X.X.X.X.X.X.X.X.X.X.X.X.X.X.X.X.X.p.B.n.q.X.X.X.X.        ",
"        W w 9 t u u 6 X.X.X.X.X.X.X.X.X.X.X.X.X.X.X.X.X.X.X.0.B.n.i.X.X.X.X.        ",
"        n y : ; > 7 $ X.X.X.X.X.X.X.X.X.X.X.X.X.X.X.X.X.X.X.X.m.v.i.X.X.X.X.        ",
"        u u y q : 3 + X.X.X.X.X.X.X.X.X.X.X.X.X.X.X.X.X.X.X.X.k.z.8.X.X.X.          ",
"      ^ z # h.~ z u @ X.X.X.X.X.X.X.X.X.X.X.X.X.X.X.X.X.X.X.X.X.8.X.X.X.X.          ",
"      u i k V.x.u z k X.X.X.X.X.X.X.X.X.X.X.X.X.X.X.X.X.X.X.X.X.X.X.X.X.X.          ",
"      m u & N.x.z y     X.X.X.X.X.X.X.X.X.X.X.X.X.X.X.X.X.X.X.X.X.X.X.X.            ",
"      #.u r E Q c q     X.X.X.X.X.X.X.X.X.X.X.X.X.X.X.X.X.X.X.X.X.X.X.X.            ",
"        m z u c u l     X.X.X.X.X.X.X.X.X.X.X.X.X.X.X.X.X.X.X.X.X.X.X.              ",
"            m !           X.X.X.X.X.X.X.X.X.X.X.X.X.X.X.X.X.X.X.X.X.                ",
"                            X.X.X.X.X.X.X.X.X.X.X.X.X.X.X.X.X.X.X.                  ",
"                              X.X.X.X.X.X.X.X.X.X.X.X.X.X.X.X.X.                    ",
"                              V.X.2 O X.X.X.X.X.X.X.X.X.X.X.X.                      ",
"                                V.Z ] 4 X.X.X.X.X.X.X.X.X.X.                        ",
"                                V.F ..h   X.X.X.X.. o                               ",
"                                V.F ..d V.V.V.  - # X * + % r x                     ",
"                                  D ) 3   ` B p t 8 - > 9 n [ L G                   ",
"                                  A j , A U  . .P V 1 s J [ O.{ H '                 ",
"                                A P Z A I  .*.&.T H j C K } +.{ G _                 ",
"                                Z D Z S I  .&.&.T G J     $.%.                      ",
"                                @.K Z S G Y o.&.Y G                                 ",
"                                    c.r.                                            ",
"                                                                                    "
};
