/* XPM */
static char *result[] = {
/* columns rows colors chars-per-pixel */
"42 42 184 2 ",
"   c #653C0C",
".  c #412926",
"X  c #44302A",
"o  c #5D3D24",
"O  c #553D39",
"+  c #78420E",
"@  c #6E4A1F",
"#  c #694326",
"$  c #6D4C23",
"%  c #785027",
"&  c #7F5327",
"*  c #765238",
"=  c #894C11",
"-  c #825619",
";  c #935616",
":  c #975516",
">  c #945E16",
",  c #A15E15",
"<  c #99651E",
"1  c #A4661D",
"2  c #B06818",
"3  c #B66B1E",
"4  c #BB6F1E",
"5  c #B4741E",
"6  c #844F2B",
"7  c #875C21",
"8  c #8A5B25",
"9  c #8E6221",
"0  c #8D622C",
"q  c #926420",
"w  c #906623",
"e  c #9C6027",
"r  c #9D6B21",
"t  c #9C6C22",
"y  c #986B24",
"u  c #96672E",
"i  c #A1622C",
"p  c #A57023",
"a  c #A47427",
"s  c #AE7421",
"d  c #AC7624",
"f  c #B17721",
"g  c #B57E28",
"h  c #A27337",
"j  c #A97933",
"k  c #BF7A32",
"l  c #C56F1B",
"z  c #C06B1C",
"x  c #D27C1F",
"c  c #C67821",
"v  c #C67B21",
"b  c #C77C22",
"n  c #C87C22",
"m  c #8C6544",
"M  c #A07542",
"N  c #AA7E4B",
"B  c #976F68",
"V  c #B3862B",
"C  c #BB8328",
"Z  c #BD832A",
"A  c #B8852B",
"S  c #BF8629",
"D  c #B48235",
"F  c #B3823A",
"G  c #B3823B",
"H  c #B58338",
"J  c #C18022",
"K  c #CF8320",
"L  c #CC8124",
"P  c #C18A2C",
"I  c #D28524",
"U  c #D58727",
"Y  c #D08B27",
"T  c #DC892C",
"R  c #D99329",
"E  c #DE922C",
"W  c #CF8534",
"Q  c #CD8F32",
"!  c #C18E3D",
"~  c #C79732",
"^  c #CF9C32",
"/  c #CE9F34",
"(  c #CD9C3C",
")  c #D09730",
"_  c #E19127",
"`  c #E19226",
"'  c #E4982D",
"]  c #E59A2E",
"[  c #E69938",
"{  c #CBA138",
"}  c #D0A034",
"|  c #D0A636",
" . c #D2A636",
".. c #DEA335",
"X. c #D3A837",
"o. c #E8A136",
"O. c #EFA634",
"+. c #E5A13E",
"@. c #EDA538",
"#. c #F0A736",
"$. c #F3A83B",
"%. c #F1AA3F",
"&. c #EEB03A",
"*. c #F1B43B",
"=. c #FEBF3D",
"-. c #FDC13F",
";. c #FEC03E",
":. c #FFC33F",
">. c #FFC43F",
",. c #B78749",
"<. c #B98A4D",
"1. c #B88A4E",
"2. c #C98940",
"3. c #EB9C42",
"4. c #CCA341",
"5. c #E0A141",
"6. c #E6A342",
"7. c #E3A346",
"8. c #E8A247",
"9. c #ECAC44",
"0. c #F5AE43",
"q. c #EFB04B",
"w. c #F7B44D",
"e. c #F9B64D",
"r. c #F9B74D",
"t. c #FEB949",
"y. c #FEBA48",
"u. c #FDBB52",
"i. c #EBB56D",
"p. c #F0BE73",
"a. c #FFC440",
"s. c #FFCC43",
"d. c #FFD446",
"f. c #FFD647",
"g. c #FFC057",
"h. c #FFC257",
"j. c #FFC65B",
"k. c #FFC75B",
"l. c #FFC65D",
"z. c #FFC85E",
"x. c #FEE956",
"c. c #FFF75B",
"v. c #59888E",
"b. c #5595AC",
"n. c #659AA1",
"m. c #5FA3B4",
"M. c #7AA7AE",
"N. c #66A7B5",
"B. c #64A6B7",
"V. c #68A7B8",
"C. c #68A9B8",
"Z. c #7CABB5",
"A. c #73ADBC",
"S. c #72ACBE",
"D. c #78ACB8",
"F. c #6EB1BF",
"G. c #60A7C1",
"H. c #67B1C4",
"J. c #69B3C5",
"K. c #6FBCCE",
"L. c #76BDCC",
"P. c #7FC0CF",
"I. c #87B8BF",
"U. c #A2A5A4",
"Y. c #B1B4B2",
"T. c gray71",
"R. c #B8BBB8",
"E. c #CBB0A0",
"W. c #8CB9C3",
"Q. c #8EB1CC",
"!. c #98C3CD",
"~. c #85C8D7",
"^. c #8ACADB",
"/. c #9FD0DB",
"(. c #9CC4E1",
"). c #90D1E2",
"_. c #A5D7E2",
"`. c #BCECF7",
"'. c #C7D0D6",
"]. c #D3DCE0",
"[. c #DBDBE0",
"{. c #C6F6FD",
"}. c white",
"|. c None",
/* pixels */
"|.|.|.|.|.|.|.|.|.|.|.|.|.|.|.|.|.|.|.|.|.|.|.|.|.|.|.|.|.|.|.|.|.|.|.|.|.|.|.|.|.|.",
"|.|.|.|.|.|.|.|.|.|.|.|.|.|.|.|.|.|.|.|.|.|.|.|.|.|.|.|.|.|.|.|.|.|.|.|.|.|.|.|.|.|.",
"|.|.|.|.|.|.|.|.|.|.|.|.|.|.|.|.|.|.|.|.|.x.|.|.|.|.|.|.|.|.|.|.|.|.|.|.|.|.|.|.|.|.",
"|.|.|.|.|.|.|.|.|.|.|.|.|.|.|.|.|.|.|.|.|.B [.|.|.|.|.|.|.|.|.|.|.|.|.|.|.|.|.|.|.|.",
"|.|.|.|.|.|.|.|.|.|.|.|.|.|.|.|.|.|.|.|.|.U.|.|.|.|.|.|.|.|.|.|.|.|.|.|.|.|.|.|.|.|.",
"|.|.|.|.|.|.|.|.|.|.|.|.|.|.|.|.|.|.|.|.|.Y.|.|.|.|.|.|.|.|.|.|.|.|.|.|.|.|.|.|.|.|.",
"|.|.|.|.|.|.|.|.|.|.|.|.|.|.|.|.|.|.|.|.T.R.|.|.|.|.|.|.|.|.|.|.|.|.|.|.|.|.|.|.|.|.",
"|.|.|.|.|.|.|.|.|.|.|.|.|.|.|.|.Z.D.N.C.W.!.A.B.V.S.|.|.|.|.|.|.|.|.|.|.|.|.|.|.|.|.",
"|.|.|.|.|.|.|.|.|.|.|.|.|.|.|.].n.I.L.~._.{.).K.H.G.(.|.|.|.|.|.|.|.|.|.|.|.|.|.|.|.",
"|.|.|.|.|.|.|.|.|.|.|.|.|.|.|.'.v.M.F.P./.`.^.J.m.b.Q.}.|.|.|.|.|.|.|.|.|.|.|.|.|.|.",
"|.|.|.|.|.|.|.|.|.|.|.|.|.|.c.c.c.c.c.c.c.c.c.c.c.c.c.c.c.|.|.|.|.|.|.|.|.|.|.|.|.|.",
"|.|.|.|.|.|.|.|.|.|.|.|.c.c.c.c.c.c.c.c.c.c.c.c.c.c.c.c.c.c.|.|.|.|.|.|.|.|.|.|.|.|.",
"|.|.|.|.|.|.|.|.|.|.|.c.c.c.c.c.c.c.c.c.c.c.c.c.c.c.c.c.c.c.|.|.|.|.|.|.|.|.|.|.|.|.",
"|.|.|.|.|.|.|.|.|.|.c.c.c.c.c.c.c.c.c.c.c.c.c.c.c.c.c.c.c.c.c.|.|.|.|.|.|.|.|.|.|.|.",
"|.|.|.|.|.|.|.|.|.|.c.c.c.c.c.c.c.c.c.m Z h c.c.c.c.c.c.c.c.c.c.|.|.|.|.|.|.|.|.|.|.",
"|.|.|.|.|.|.|.|.|.c.c.c.c.c.c.c.c.c.c.N &.! c.c.c.c.c.c.c.c.c.c.c.|.|.|.|.|.|.|.|.|.",
"|.|.|.|.|.|.|.|.|.c.c.c.c.c.c.c.c.c.c.1.d.4.c.c.c.c.c.c.c.c.c.c.c.|.|.|.|.|.|.|.|.|.",
"|.|.|.|.|.|.|.|.c.c.c.c.c.c.c.c.c.c.c.<.a.( c.c.c.c.c.c.c.c.c.c.c.c.|.|.|.|.|.|.|.|.",
"|.|.|.|.|.|.|.|.c.c.c.c.c.c.c.c.c.c.c.,.-.{ c.c.c.c.c.c.c.c.c.c.c.c.|.|.|.|.|.|.|.|.",
"|.|.|.|.|.|.|.|.c.c.c.c.c.c.c.c.c.c.c.M ..A c.c.c.c.c.c.c.c.c.c.c.c.|.|.|.|.|.|.|.|.",
"|.|.|.|.|.|.|.|.c.c.c.c.c.c.c.c.c.c.c.u g t c.c.c.c.c.c.c.c.c.c.c.c.c.|.|.|.|.|.|.|.",
"|.|.|.|.|.|.|.|.c.c.c.c.c.c.c.c.c.c.* < p q 9 c.c.c.c.c.c.c.c.c.c.c.c.|.|.|.|.|.|.|.",
"|.|.|.|.|.|.|.|.c.c.c.c.c.c.c.c.c.c.8 d ) V y c.c.c.c.c.c.c.c.c.c.c.c.|.|.|.|.|.|.|.",
"|.|.|.|.|.|.|.|.c.c.c.c.c.c.c.c.c.c.& S =.X.w c.c.c.c.c.c.c.c.c.c.c.|.|.|.|.|.|.|.|.",
"|.|.|.|.|.|.|.|.c.c.c.c.c.c.c.c.c.c.O C ;. .$ c.c.c.c.c.c.c.c.c.c.c.|.|.|.|.|.|.|.|.",
"|.|.|.|.|.|.|.|.c.c.c.c.c.c.c.c.c.c.c.D f.| c.c.c.c.c.c.c.c.c.c.c.c.|.|.|.|.|.|.|.|.",
"|.|.|.|.|.|.|.|.|.c.c.c.c.c.c.c.c.c.c.G s./ c.c.c.c.c.c.c.c.c.c.c.|.|.|.|.|.|.|.|.|.",
"|.|.|.|.|.|.|.|.|.|.c.c.c.c.c.c.c.c.c.F >.^ c.c.c.c.c.c.c.c.c.c.|.|.|.|.|.|.|.|.|.|.",
"|.|.|.|.|.|.|.|.|.|.|.c.c.c.c.c.c.c.c.H :.} c.c.c.c.c.c.c.c.c.c.|.|.|.|.|.|.|.|.|.|.",
"|.|.|.|.|.|.|.|.|.|.|.c.c.c.c.c.c.c.c.j *.~ c.c.c.c.c.c.c.c.c.|.|.|.|.|.|.|.|.|.|.|.",
"|.|.|.|.|.|.|.|.|.|.|.|.c.c.c.c.c.c.c.0 P a c.c.c.c.c.c.c.c.|.|.|.|.|.|.|.|.|.|.|.|.",
"|.|.|.|.|.|.|.|.|.|.|.|.|.e X c.c.c.c.% r 7 c.c.c.c.c.c.6 |.|.|.|.|.|.|.|.|.|.|.|.|.",
"|.|.|.|.|.|.|.|.|.|.|.|.|.E 7.# c.c.c.o - @ c.c.c.c.. 2.[ |.|.|.|.|.|.|.|.|.|.|.|.|.",
"|.|.|.|.|.|.|.|.|.|.|.|.|.' w.|.|.c.c.c.c.c.c.c.c.c.E.6.%.|.|.|.|.|.|.|.|.|.|.|.|.|.",
"|.|.|.|.|.|.|.|.|.|.|.|.|.] e.s |.|.|.|.|.|.|.|.|.|.|.+.0.5 |.|.|.|.|.|.|.|.|.|.|.|.",
"|.|.|.|.|.|.|.|.|.|.|.U 4 T 8.1   |.|.|.|.|.|.|.|.|.+ W 3.3 L |.|.|.|.|.|.|.|.|.|.|.",
"|.|.|.|.|.|.|.|.|.|.|.x K @.q.Q > ; |.|.|.|.|.|.|.= f 5.9.R n I |.|.|.|.|.|.|.|.|.|.",
"|.|.|.|.|.|.|.|.|.|.|.l ` y.z.r.J : |.|.|.|.|.|.|., o.h.k.O.b c |.|.|.|.|.|.|.|.|.|.",
"|.|.|.|.|.|.|.|.|.|.|.z _ t.l.u.Y i |.|.|.|.|.|.|.2 $.g.j.#.v k |.|.|.|.|.|.|.|.|.|.",
"|.|.|.|.|.|.|.|.|.|.|.|.|.p.|.|.|.|.|.|.|.|.|.|.|.|.i.|.|.|.|.|.|.|.|.|.|.|.|.|.|.|.",
"|.|.|.|.|.|.|.|.|.|.|.|.|.|.|.|.|.|.|.|.|.|.|.|.|.|.|.|.|.|.|.|.|.|.|.|.|.|.|.|.|.|.",
"|.|.|.|.|.|.|.|.|.|.|.|.|.|.|.|.|.|.|.|.|.|.|.|.|.|.|.|.|.|.|.|.|.|.|.|.|.|.|.|.|.|."
};
