/* XPM */
static char *bec80420946e4819f4e4aea7d826cdbeSRSGyDnh5YN2Jfoh[] = {
/* columns rows colors chars-per-pixel */
"42 42 160 2 ",
"   c #382826",
".  c #5E391F",
"X  c #493636",
"o  c #664513",
"O  c #63461D",
"+  c #724E1C",
"@  c #76531B",
"#  c #7E571B",
"$  c #795A29",
"%  c #705133",
"&  c #776043",
"*  c #6A6875",
"=  c #74707B",
"-  c #ED1C24",
";  c #895416",
":  c #8B611F",
">  c #92611A",
",  c #B46C1C",
"<  c #B0701F",
"1  c #88592A",
"2  c #8A6222",
"3  c #8A6528",
"4  c #916722",
"5  c #996B24",
"6  c #9A6C24",
"7  c #9D7226",
"8  c #85683F",
"9  c #A37326",
"0  c #A97727",
"q  c #A0752B",
"w  c #A67929",
"e  c #AC7C2A",
"r  c #B57924",
"t  c #B17E2B",
"y  c #A97C36",
"u  c #B07D36",
"i  c #C47A25",
"p  c #826A4A",
"a  c #907650",
"s  c #AE802B",
"d  c #B3822D",
"f  c #BC862A",
"g  c #B9872E",
"h  c #AE8237",
"j  c #AE823B",
"k  c #B78535",
"l  c #C98428",
"z  c #D38527",
"x  c #D58B27",
"c  c #D48A28",
"v  c #D6892C",
"b  c #D7942F",
"n  c #DB942C",
"m  c #DE982C",
"M  c #C88B36",
"N  c #D08D33",
"B  c #DE9F39",
"V  c #E3992E",
"C  c #EBA53A",
"Z  c #F2AC3E",
"A  c #97805E",
"S  c #A1804F",
"D  c #B28948",
"F  c #B9914C",
"G  c #AF8B54",
"H  c #B68F53",
"J  c #B89257",
"K  c #99817B",
"L  c #BE9F6F",
"P  c #A79378",
"I  c #B19476",
"U  c #D89C48",
"Y  c #C69658",
"T  c #D19957",
"R  c #E49F4A",
"E  c #DCA348",
"W  c #EFAD44",
"Q  c #E6A849",
"!  c #F5B045",
"~  c #F2B34D",
"^  c #F9BB57",
"/  c #C3A06A",
"(  c #D6A361",
")  c #D9A86B",
"_  c #C6A97C",
"`  c #D6AA72",
"'  c #E1AF64",
"]  c #EBB96E",
"[  c #E6B975",
"{  c #FFC55C",
"}  c #FFC85D",
"|  c #5B9BB6",
" . c #6896A5",
".. c #61A2BE",
"X. c #76ABBC",
"o. c #5EA8C3",
"O. c #7AAEC0",
"+. c #66B5D6",
"@. c #71BAD8",
"#. c #78C4E3",
"$. c #958A8C",
"%. c #AB9584",
"&. c #BAA790",
"*. c #9997A2",
"=. c #A5A3AD",
"-. c #BBAFAE",
";. c #B7B5BD",
":. c #CAAD82",
">. c #CEB084",
",. c #CFB496",
"<. c #D3BB99",
"1. c #E0B785",
"2. c #C9BAA4",
"3. c #D0BBA3",
"4. c #E9C796",
"5. c #D3C1B4",
"6. c #DFD1BF",
"7. c #E3CEB4",
"8. c #93B9C6",
"9. c #94BDCD",
"0. c #BBBBC2",
"q. c #BCBDC8",
"w. c #C2BEC6",
"e. c #C1BFC8",
"r. c #84D1F5",
"t. c #8BD4F3",
"y. c #C5C5CA",
"u. c #C4CBCB",
"i. c #D9CFC6",
"p. c #DDD5CE",
"a. c #C6CBD2",
"s. c #CDCED6",
"d. c #D1CDD2",
"f. c #C7D1D7",
"g. c #CED6DB",
"h. c #D4D4DC",
"j. c #D8D9DC",
"k. c #E2D3C1",
"l. c #E7D1CB",
"z. c #ECDED2",
"x. c #EEE6DC",
"c. c #F0E4DC",
"v. c #DCDDE2",
"b. c #E0DEE8",
"n. c #DEE6EC",
"m. c #C1FAFF",
"M. c #E1E1E6",
"N. c #E4E2EA",
"B. c #E4E9EE",
"V. c #EEEAEA",
"C. c #F4EBE5",
"Z. c #F5EFEB",
"A. c #F3F0EE",
"S. c #EDEFF3",
"D. c #F0EDF1",
"F. c #EFF0F2",
"G. c #F4F3F5",
"H. c #F9F4F1",
"J. c #F6F6FA",
"K. c #FFFFFF",
/* pixels */
"K.K.K.K.K.K.K.K.K.K.K.K.K.K.K.K.K.K.K.K.K.K.K.K.K.K.K.K.K.K.K.K.K.K.K.K.K.K.K.K.K.K.",
"K.K.K.K.K.K.K.K.K.K.K.K.K.K.K.K.K.K.K.G.y.l.K.K.K.K.K.K.K.K.K.K.K.K.K.K.K.K.K.K.K.K.",
"K.K.K.K.K.K.K.K.K.K.K.K.K.K.K.K.K.K.J.n.s.K K.K.K.K.K.K.K.K.K.K.K.K.K.K.K.K.K.K.K.K.",
"K.K.K.K.K.K.K.K.K.K.K.K.K.K.K.K.K.J.G.G.0.j.K.K.K.K.K.K.K.K.K.K.K.K.K.K.K.K.K.K.K.K.",
"K.K.K.K.K.K.K.K.K.K.K.K.K.K.K.K.K.V.G.g.G.K.K.K.K.K.K.K.K.K.K.K.K.K.K.K.K.K.K.K.K.K.",
"K.K.K.K.K.K.K.K.K.K.K.K.K.K.K.K.K.B.S.j.K.K.K.K.K.K.K.K.K.K.K.K.K.K.K.K.K.K.K.K.K.K.",
"K.K.K.K.K.K.K.K.K.K.K.K.K.K.K.K.F.n.a.S.K.K.K.K.K.K.K.K.K.K.K.K.K.K.K.K.K.K.K.K.K.K.",
"K.K.K.K.K.K.K.K.K.K.K.K.B.9.O.O.O.9.9.X.X.O.8.N.K.K.K.K.K.K.K.K.K.K.K.K.K.K.K.K.K.K.",
"K.K.K.K.K.K.K.K.K.K.K.K.g...+.@.r.m.t.#.@.o. .u.K.K.K.K.K.K.K.K.K.K.K.K.K.K.K.K.K.K.",
"K.K.K.K.K.K.K.K.K.K.K.K.f.| +.+.r.m.t.#.@.o. .y.K.K.K.K.K.K.K.K.K.K.K.K.K.K.K.K.K.K.",
"K.K.K.K.K.K.K.K.K.K.K.- - - - - - - - - - - - - - J.K.K.K.K.K.K.K.K.K.K.K.K.K.K.K.K.",
"K.K.K.K.K.K.K.K.K.v.- - - - - - - - - - - - - - - - j.K.K.K.K.K.K.6./ Y >.x.K.K.K.K.",
"K.K.K.K.K.K.K.K.h.- - - - - - - - - - - - - - - - - - a.K.K.K.K.3.g g d d h z.K.K.K.",
"K.K.K.K.K.K.K.M.- - - - - - - - - - - - - - - - - - - - h.K.K.A.q g d J 7 d J K.K.K.",
"K.K.K.K.K.K.J.- - - - - - - - - - - - - - - - - - - - - - G.K.2.s d :.K.& w e Z.K.K.",
"K.K.K.K.K.K.- - - - - - - - - - - - - - - - - - - - - - - - K.P g d 7.K.A e e x.K.K.",
"K.K.K.K.K.V.- - - - - - - - - - - - - - - - - - - - - - - - F.8 f e _ p.2 d h J.K.K.",
"K.K.K.K.J.- - - - d.D.*.- - - - - - - - - - - - - - - - - - $.@ f e e e e d :.K.K.K.",
"K.K.K.K.V.- - - *.b.J.w.- - - - - - - - - - - - - - - - - - - 0 e 0 0 w d e C.K.K.K.",
"K.K.K.K.- - - - ;.b.J.e.- - - - - - - - - - - - - - - - - - - 7 t t e 0 0 D K.K.K.K.",
"K.K.K.K.- - - - w.b.J.=.- - - - - - - - - - - - - - - - - - - 3 s w 9 5 9 D K.K.K.K.",
"K.K.K.K.- - - - w.b.G.- - - - - - - - - - - - - - - - - - - - @ 4 2 : : 0 y G.K.K.K.",
"K.K.K.K.b.- - - *.h.s.- - - - - - - - - - - - - - - - - - - - o : : 5 w e e <.K.K.K.",
"K.K.K.K.K.- - - - *.- - - - - - - - - - - - - - - - - - - - - O e e H i.+ e H K.K.K.",
"K.K.K.K.K.- - - - - - - - - - - - - - - - - - - - - - - - - - & s s i.K.p w e K.K.K.",
"K.K.K.K.K.y.- - - - - - - - - - - - - - - - - - - - - - - - ;.%.e s k.H.$ s j K.K.K.",
"K.K.K.K.K.K.- - - - - - - - - - - - - - - - - - - - - - - - J.u.4 d F S 7 s _ K.K.K.",
"K.K.K.K.K.K.q.- - - - - - - - - - - - - - - - - - - - - - - K.K.a e s s s j C.K.K.K.",
"K.K.K.K.K.K.K.- - - - - - - - - - - - - - - - - - - - - - K.K.K.G.&.G y L x.K.K.K.K.",
"K.K.K.K.K.K.K.J.- - - - - - - - - - - - - - - - - - - - H.K.K.K.K.K.K.K.K.K.K.K.K.K.",
"K.K.K.K.K.K.K.K.D.- - - - - - - - - - - - - - - - - - V.K.K.K.K.K.K.K.K.K.K.K.K.K.K.",
"K.K.K.K.K.K.K.K.K.K.- - - - - - - - - - - - - - $ - K.K.K.K.K.K.K.K.K.K.K.K.K.K.K.K.",
"K.K.K.K.K.K.K.K.K.K.K.n.= - - - - - - - - - 1 R z K.K.K.K.K.K.K.K.K.K.K.K.K.K.K.K.K.",
"K.K.K.K.K.K.K.K.K.H.,.I %.-.=.X     - - * =.u ~ N K.K.K.K.K.K.K.K.K.K.K.K.K.K.K.K.K.",
"K.K.K.K.K.K.K.K.C.M l 7 # o % . @ ; 5.K.K.K.y ~ b K.K.K.K.K.K.K.K.K.K.K.K.K.K.K.K.K.",
"K.K.K.K.K.K.K.K.1.n B U k 6 > ; > 0 r k Y 3.1 U z K.K.K.K.K.K.K.K.K.K.K.K.K.K.K.K.K.",
"K.K.K.K.K.K.K.K.T n W ^ E M r < z m ~ ! C x , i c ) K.K.K.K.K.K.K.K.K.K.K.K.K.K.K.K.",
"K.K.K.K.K.K.K.K.T n W ^ Q N l l m Z } } Z V x z V x C.K.K.K.K.K.K.K.K.K.K.K.K.K.K.K.",
"K.K.K.K.K.K.K.K.z.[ [ ] ' ( ` M n Z } } ! V z z v z z.K.K.K.K.K.K.K.K.K.K.K.K.K.K.K.",
"K.K.K.K.K.K.K.K.K.K.K.K.K.K.K.Y n C { ^ C n z z N ( Z.K.K.K.K.K.K.K.K.K.K.K.K.K.K.K.",
"K.K.K.K.K.K.K.K.K.K.K.K.K.K.K.G.7.4.4.4.4.4.7.c.K.K.K.K.K.K.K.K.K.K.K.K.K.K.K.K.K.K.",
"K.K.K.K.K.K.K.K.K.K.K.K.K.K.K.K.K.K.K.K.K.K.K.K.K.K.K.K.K.K.K.K.K.K.K.K.K.K.K.K.K.K."
};
