/* XPM */
static char *result[] = {
/* columns rows colors chars-per-pixel */
"42 42 184 2 ",
"   c #13162B",
".  c #16182E",
"X  c #1A192D",
"o  c #171626",
"O  c #151A34",
"+  c #1C1D34",
"@  c #161C3B",
"#  c #191F3D",
"$  c #221E2C",
"%  c #211E33",
"&  c #1D213D",
"*  c #2F272F",
"=  c #382725",
"-  c #242033",
";  c #23243B",
":  c #2B2739",
">  c #332D3C",
",  c #3A2F31",
"<  c #3B323B",
"1  c #542D11",
"2  c #5B3C19",
"3  c #4F3B2E",
"4  c #443639",
"5  c #583930",
"6  c #5F4218",
"7  c #664718",
"8  c #79541B",
"9  c #734C1B",
"0  c #654321",
"q  c #725222",
"w  c #7C592A",
"e  c #181F40",
"r  c #1C2344",
"t  c #1E2749",
"y  c #1F2849",
"u  c #1D2C46",
"i  c #212542",
"p  c #262945",
"a  c #2A2B44",
"s  c #252C4B",
"d  c #292E4C",
"f  c #202748",
"g  c #29304F",
"h  c #21364F",
"j  c #353144",
"k  c #3A3545",
"l  c #262E51",
"z  c #292F50",
"x  c #2C3352",
"c  c #2F3859",
"v  c #233C55",
"b  c #313654",
"n  c #333956",
"m  c #353B59",
"M  c #393E5B",
"N  c #433944",
"B  c #3C415D",
"V  c #3D4056",
"C  c #28425C",
"Z  c #3D4461",
"A  c #364F64",
"S  c #2C4861",
"D  c #48495E",
"F  c #414762",
"G  c #454A64",
"H  c #464E6B",
"J  c #494F6A",
"K  c #4C526C",
"L  c #53576B",
"P  c #4D5573",
"I  c #515772",
"U  c #545A72",
"Y  c #585F7A",
"T  c #5A5F74",
"R  c #5B627D",
"E  c #5E6276",
"W  c #626579",
"Q  c #68697B",
"!  c #885719",
"~  c #8B611F",
"^  c #92611A",
"/  c #AC721F",
"(  c #B0701F",
")  c #B46C1C",
"_  c #825220",
"`  c #895A2D",
"'  c #814929",
"]  c #8A6122",
"[  c #896325",
"{  c #916722",
"}  c #9A6C24",
"|  c #996B24",
" . c #9F732C",
".. c #9D7226",
"X. c #A37326",
"o. c #A97727",
"O. c #A5762D",
"+. c #A67929",
"@. c #AC7C2B",
"#. c #AF7128",
"$. c #B17E2C",
"%. c #B47825",
"&. c #A37631",
"*. c #AA7B32",
"=. c #B07F37",
"-. c #C37D2A",
";. c #C57D26",
":. c #8B7069",
">. c #AE802B",
",. c #B3822D",
"<. c #B9872E",
"1. c #BC862A",
"2. c #B98834",
"3. c #CA832B",
"4. c #C88327",
"5. c #D38527",
"6. c #D58B27",
"7. c #D48A28",
"8. c #D6892B",
"9. c #DB942C",
"0. c #D9942C",
"q. c #C58531",
"w. c #C98932",
"e. c #D08F33",
"r. c #DD9E3C",
"t. c #D69537",
"y. c #E3992E",
"u. c #E09A31",
"i. c #EBA53A",
"p. c #F2AC3E",
"a. c #D99C46",
"s. c #E49F4A",
"d. c #DCA348",
"f. c #E6A84A",
"g. c #E8A844",
"h. c #F2AC41",
"j. c #F5B045",
"k. c #F2B34D",
"l. c #F9BB57",
"z. c #FFC55C",
"x. c #FFC85D",
"c. c #5F6782",
"v. c #646C86",
"b. c #6D6F81",
"n. c #6B718A",
"m. c #7B7C8A",
"M. c #6F7690",
"N. c #5C9BAF",
"B. c #5D9DB5",
"V. c #6797A7",
"C. c #63A1B9",
"Z. c #5EA8C3",
"A. c #66B5D6",
"S. c #71BAD8",
"D. c #6BBDE0",
"F. c #78C4E3",
"G. c #8D8E97",
"H. c #97949B",
"J. c #9997A2",
"K. c #A5A5B0",
"L. c #AEB1B8",
"P. c #B8B2B9",
"I. c #C5BBBE",
"U. c #94BBCA",
"Y. c #BBB8C0",
"T. c #C2BDC4",
"R. c #C1BFC8",
"E. c #87D2F4",
"W. c #BEF8FF",
"Q. c #C0C0CA",
"!. c #CACED5",
"~. c #D1CDD2",
"^. c #DDDADE",
"/. c #D6D4DE",
"(. c #E1DEE7",
"). c #DCE5EF",
"_. c #C1FAFF",
"`. c #E3E3EA",
"'. c #ECEFF5",
"]. c #F0EDF1",
"[. c #EFF0F3",
"{. c #F6F6FA",
"}. c #F4F6F7",
"|. c None",
/* pixels */
"|.|.|.|.|.|.|.|.|.|.|.|.|.|.|.|.|.|.|.|.|.|.|.|.|.|.|.|.|.|.|.|.|.|.|.|.|.|.|.|.|.|.",
"|.|.|.|.|.|.|.|.|.|.|.|.|.|.|.|.|.|.|.|.H.|.|.|.|.|.|.|.|.|.|.|.|.|.|.|.|.|.|.|.|.|.",
"|.|.|.|.|.|.|.|.|.|.|.|.|.|.|.|.|.|.|.^.!.:.|.|.|.|.|.|.|.|.|.|.|.|.|.|.|.|.|.|.|.|.",
"|.|.|.|.|.|.|.|.|.|.|.|.|.|.|.|.|.|.[.{.L.|.|.|.|.|.|.|.|.|.|.|.|.|.|.|.|.|.|.|.|.|.",
"|.|.|.|.|.|.|.|.|.|.|.|.|.|.|.|.|.`.}.!.|.|.|.|.|.|.|.|.|.|.|.|.|.|.|.|.|.|.|.|.|.|.",
"|.|.|.|.|.|.|.|.|.|.|.|.|.|.|.|.|.`.'.|.|.|.|.|.|.|.|.|.|.|.|.|.|.|.|.|.|.|.|.|.|.|.",
"|.|.|.|.|.|.|.|.|.|.|.|.|.|.|.|.|.).!.|.|.|.|.|.|.|.|.|.|.|.|.|.|.|.|.|.|.|.|.|.|.|.",
"|.|.|.|.|.|.|.|.|.|.|.|.|.B.B.B.C.U.U.N.N.N.V.|.|.|.|.|.|.|.|.|.|.|.|.|.|.|.|.|.|.|.",
"|.|.|.|.|.|.|.|.|.|.|.|.|.C.A.D.E._.E.F.S.Z.V.|.|.|.|.|.|.|.|.|.|.|.|.|.|.|.|.|.|.|.",
"|.|.|.|.|.|.|.|.|.|.|.|.|.B.A.A.E._.E.F.S.Z.V.|.|.|.|.|.|.|.|.|.|.|.|.|.|.|.|.|.|.|.",
"|.|.|.|.|.|.|.|.|.|.|.|.; r y h C A S C h u & & |.|.|.|.|.|.|.|.|.|.|.|.|.|.|.|.|.|.",
"|.|.|.|.|.|.|.|.|.|.p p s s s z l l g g d d p p ; & |.|.|.|.|.|.|.|.*.,.,.|.|.|.|.|.",
"|.|.|.|.|.|.|.|.|.a a s s s z z x x x x g g d a d ; & |.|.|.|.|.|.<.<.,.,.,.|.|.|.|.",
"|.|.|.|.|.|.|.|.j a s s z x c n M M M M n g g d d d : & |.|.|.|. .2.,.&...,.*.|.|.|.",
"|.|.|.|.|.|.|.N j s s s z b n M F G G B M b g g s d a : : |.|.|.>.,.=.|.2 +.>.|.|.|.",
"|.|.|.|.|.|.|.k d s s l x c M G U E T L F M b g h p s j > > |.w <.,.|.|.q @.@.|.|.|.",
"|.|.|.|.|.|.H.g d n Q x b m Z K W Q Q E G M b x g d s a k 4 |.q 1.>.*.|.] ,.@.|.|.|.",
"|.|.|.|.|.^.G.z G ~.].J.b M F P W Q W U G B n x g d a a j 4 4 9 1.@.@.o.,.>.&.|.|.|.",
"|.|.|.|.|.(.L d H.(.{.R.n M F K U E U K D B m b x d d p a N 3 o.@.o.o.o.@.@.|.|.|.|.",
"|.|.|.|.I.^.a p I.(.{.R.m B F K P U K G F F m b x j d p a 4 <  .,.$.@.X.o.@.|.|.|.|.",
"|.|.|.|.T.R.p p T.(.{.K.m Z H I R E P J Z B V n x g s p ; < 4 [ >.+.X.| X.O.|.|.|.|.",
"|.|.|.|.P.K.i i Y.(.{.m.c Z P c.n.v.E K G B B n b s p r i > 4 8 { ] ~ ~ +.O.|.|.|.|.",
"|.|.|.|.|.m.i i J./.!.M c Z P c.M.M.R J Z B B M g s r r & > , 7 ~ ~ } +.$.@.|.|.|.|.",
"|.|.|.|.|.> & r M J.b.l c S H R c.R P G B m x x s y r & & : * 2 >.@.O.|.9 @.*.|.|.|.",
"|.|.|.|.|.: ; # r t t t l c Z H K J Z B m x x s f u r @ @ $ $ 6 >.>.|.|.0 +.@.|.|.|.",
"|.|.|.|.|.|.+ # e r r t l l c m B B B b x l s f r r & @ O   |.0 @.>.|.|.q >.O.|.|.|.",
"|.|.|.|.|.|.O @ @ e e t t t l l h x x l s s f r r r @ @ O . |.|.| >.,.[ ..,.&.|.|.|.",
"|.|.|.|.|.|.|.  @ @ e e t t y s s s s f y r i e # # O     |.|.|.q @.@.@.>.+.|.|.|.|.",
"|.|.|.|.|.|.|.@ O @ @ @ e e r e r r i r r e e @ @ O O     |.|.|.|.w  .&.&.|.|.|.|.|.",
"|.|.|.|.|.|.|.|.O @ O @ # e e e r r i i e # # @ O O     |.|.|.|.|.|.|.|.|.|.|.|.|.|.",
"|.|.|.|.|.|.|.|.|.O O O O # @ # % i : ; % % & O O . . |.|.|.|.|.|.|.|.|.|.|.|.|.|.|.",
"|.|.|.|.|.|.|.|.|.|.|.% % O O # # % % % + $ * 5 ' X |.|.|.|.|.|.|.|.|.|.|.|.|.|.|.|.",
"|.|.|.|.|.|.|.|.|.|.|.|.- % % + + X . o   o ` s.;.|.|.|.|.|.|.|.|.|.|.|.|.|.|.|.|.|.",
"|.|.|.|.|.|.|.|.|.|.|._ 7 |.|.= = = X o o |.*.k.9.|.|.|.|.|.|.|.|.|.|.|.|.|.|.|.|.|.",
"|.|.|.|.|.|.|.|.|.4.1...! 7 2 1 8 ! |.|.|.|.O.k.9.|.|.|.|.|.|.|.|.|.|.|.|.|.|.|.|.|.",
"|.|.|.|.|.|.|.|.w.9.r.a.$.} ^ ! ^ / %.%.#.|._ s.8.|.|.|.|.|.|.|.|.|.|.|.|.|.|.|.|.|.",
"|.|.|.|.|.|.|.|.4.u.h.l.a.w.%.( 7.r.j.j.i.6.) ;.7.q.|.|.|.|.|.|.|.|.|.|.|.|.|.|.|.|.",
"|.|.|.|.|.|.|.|.;.9.f.l.f.e.4.4.9.p.z.x.j.y.7.5.y.6.|.|.|.|.|.|.|.|.|.|.|.|.|.|.|.|.",
"|.|.|.|.|.|.|.|.|.q.r.f.a.w.q.;.9.p.z.z.p.u.5.5.8.5.|.|.|.|.|.|.|.|.|.|.|.|.|.|.|.|.",
"|.|.|.|.|.|.|.|.|.|.|.|.|.|.|.-.9.i.z.l.i.9.7.5.3.3.|.|.|.|.|.|.|.|.|.|.|.|.|.|.|.|.",
"|.|.|.|.|.|.|.|.|.|.|.|.|.|.|.|.|.|.f.g.e.|.|.|.|.|.|.|.|.|.|.|.|.|.|.|.|.|.|.|.|.|.",
"|.|.|.|.|.|.|.|.|.|.|.|.|.|.|.|.|.|.|.|.|.|.|.|.|.|.|.|.|.|.|.|.|.|.|.|.|.|.|.|.|.|."
};
