/* XPM */
static char *result[] = {
/* columns rows colors chars-per-pixel */
"42 42 187 2 ",
"   c #653C0C",
".  c #412926",
"X  c #44302A",
"o  c #5D3D24",
"O  c #553D39",
"+  c #78420E",
"@  c #6E4A1F",
"#  c #694326",
"$  c #6D4C23",
"%  c #785027",
"&  c #7F5327",
"*  c #765238",
"=  c #564949",
"-  c #5D4C4E",
";  c #665146",
":  c #65524B",
">  c #6B5249",
",  c #ED1C24",
"<  c #894C11",
"1  c #825619",
"2  c #935616",
"3  c #975516",
"4  c #945E16",
"5  c #A15E15",
"6  c #99651E",
"7  c #A4661D",
"8  c #B06818",
"9  c #B66B1E",
"0  c #BB6F1E",
"q  c #844F2B",
"w  c #875C21",
"e  c #8A5B25",
"r  c #8E6221",
"t  c #8D622C",
"y  c #926420",
"u  c #906623",
"i  c #9C6027",
"p  c #9D6B21",
"a  c #9C6C22",
"s  c #986B24",
"d  c #96672E",
"f  c #A57023",
"g  c #A47427",
"h  c #AE7421",
"j  c #AC7624",
"k  c #B17721",
"l  c #B57E28",
"z  c #A27337",
"x  c #A97933",
"c  c #C56F1B",
"v  c #C06B1C",
"b  c #D27C1F",
"n  c #C67821",
"m  c #C67B21",
"M  c #C77C22",
"N  c #C87C22",
"B  c #8C6544",
"V  c #A07542",
"C  c #AA7E4B",
"Z  c #976F68",
"A  c #B3862B",
"S  c #BB8328",
"D  c #BD832A",
"F  c #B8852B",
"G  c #BF8629",
"H  c #B48235",
"J  c #B3823A",
"K  c #B3823B",
"L  c #B58338",
"P  c #C18022",
"I  c #CF8320",
"U  c #CC8124",
"Y  c #C18A2C",
"T  c #D28524",
"R  c #D58727",
"E  c #D08B27",
"W  c #DC892C",
"Q  c #D99329",
"!  c #DE922C",
"~  c #CF8534",
"^  c #CD8F32",
"/  c #C18E3D",
"(  c #C79732",
")  c #CF9C32",
"_  c #CE9F34",
"`  c #CD9C3C",
"'  c #D09730",
"]  c #E19127",
"[  c #E19226",
"{  c #E4982D",
"}  c #E59A2E",
"|  c #E69938",
" . c #CBA138",
".. c #D0A034",
"X. c #D0A636",
"o. c #D2A636",
"O. c #DEA335",
"+. c #D3A837",
"@. c #E8A136",
"#. c #EFA634",
"$. c #E5A13E",
"%. c #EDA538",
"&. c #F0A736",
"*. c #F3A83B",
"=. c #F1AA3F",
"-. c #EEB03A",
";. c #F1B43B",
":. c #FEBF3D",
">. c #FDC13F",
",. c #FEC03E",
"<. c #FFC33F",
"1. c #FFC43F",
"2. c #B78749",
"3. c #B98A4D",
"4. c #B88A4E",
"5. c #C98940",
"6. c #EB9C42",
"7. c #CCA341",
"8. c #E0A141",
"9. c #E6A342",
"0. c #E3A346",
"q. c #E8A247",
"w. c #ECAC44",
"e. c #F5AE43",
"r. c #EFB04B",
"t. c #F7B44D",
"y. c #F9B64D",
"u. c #F9B74D",
"i. c #FEB949",
"p. c #FEBA48",
"a. c #FDBB52",
"s. c #FFC440",
"d. c #FFCC43",
"f. c #FFD446",
"g. c #FFD647",
"h. c #FFC057",
"j. c #FFC257",
"k. c #FFC65B",
"l. c #FFC75B",
"z. c #FFC65D",
"x. c #FFC85E",
"c. c #FEE956",
"v. c #59888E",
"b. c #5595AC",
"n. c #659AA1",
"m. c #5FA3B4",
"M. c #7AA7AE",
"N. c #66A7B5",
"B. c #64A6B7",
"V. c #68A7B8",
"C. c #68A9B8",
"Z. c #7CABB5",
"A. c #73ADBC",
"S. c #72ACBE",
"D. c #78ACB8",
"F. c #6EB1BF",
"G. c #60A7C1",
"H. c #67B1C4",
"J. c #69B3C5",
"K. c #6FBCCE",
"L. c #76BDCC",
"P. c #7FC0CF",
"I. c #87B8BF",
"U. c #A2A5A4",
"Y. c #B0AFAE",
"T. c #B1B4B2",
"R. c gray71",
"E. c #B8BBB8",
"W. c #8CB9C3",
"Q. c #8EB1CC",
"!. c #98C3CD",
"~. c #85C8D7",
"^. c #8ACADB",
"/. c #9FD0DB",
"(. c #9CC4E1",
"). c #90D1E2",
"_. c #A5D7E2",
"`. c #BCECF7",
"'. c #C7D0D6",
"]. c #D4D6DB",
"[. c #D3DCE0",
"{. c #DADAE0",
"}. c #C6F6FD",
"|. c #F1F2F4",
" X c #FEFEFF",
".X c white",
"XX c None",
/* pixels */
"XXXXXXXXXXXXXXXXXXXXXXXXXXXXXXXXXXXXXXXXXXXXXXXXXXXXXXXXXXXXXXXXXXXXXXXXXXXXXXXXXXXX",
"XXXXXXXXXXXXXXXXXXXXXXXXXXXXXXXXXXXXXXXXXXXXXXXXXXXXXXXXXXXXXXXXXXXXXXXXXXXXXXXXXXXX",
"XXXXXXXXXXXXXXXXXXXXXXXXXXXXXXXXXXXXXXXXXXc.XXXXXXXXXXXXXXXXXXXXXXXXXXXXXXXXXXXXXXXX",
"XXXXXXXXXXXXXXXXXXXXXXXXXXXXXXXXXXXXXXXXXXZ XXXXXXXXXXXXXXXXXXXXXXXXXXXXXXXXXXXXXXXX",
"XXXXXXXXXXXXXXXXXXXXXXXXXXXXXXXXXXXXXXXXXXU.XXXXXXXXXXXXXXXXXXXXXXXXXXXXXXXXXXXXXXXX",
"XXXXXXXXXXXXXXXXXXXXXXXXXXXXXXXXXXXXXXXXY.T.XXXXXXXXXXXXXXXXXXXXXXXXXXXXXXXXXXXXXXXX",
"XXXXXXXXXXXXXXXXXXXXXXXXXXXXXXXX.X.X XXXR.E.XXXXXXXXXXXXXXXXXXXXXXXXXXXXXXXXXXXXXXXX",
"XXXXXXXXXXXXXXXXXXXXXXXXXXXXXXXXZ.D.N.C.W.!.A.B.V.S.XXXXXXXXXXXXXXXXXXXXXXXXXXXXXXXX",
"XXXXXXXXXXXXXXXXXXXXXXXXXXXXXX[.n.I.L.~._.}.).K.H.G.(.XXXXXXXXXXXXXXXXXXXXXXXXXXXXXX",
"XXXXXXXXXXXXXXXXXXXXXXXXXXXXXX'.v.M.F.P./.`.^.J.m.b.Q.XXXXXXXXXXXXXXXXXXXXXXXXXXXXXX",
"XXXXXXXXXXXXXXXXXXXXXXXXXXXX, , , , , , , , , , , , , , {.XXXXXXXXXXXXXXXXXXXXXXXXXX",
"XXXXXXXXXXXXXXXXXXXXXXXXXX, , , , , , , , , , , , , , , , , XXXXXXXXXXXXXXXXXXXXXXXX",
"XXXXXXXXXXXXXXXXXXXXXXXX, , , , , , , , , , , , , , , , , , , XXXXXXXXXXXXXXXXXXXXXX",
"XXXXXXXXXXXXXXXXXXXXXX, , , , , , , , , > - , , , , , , , , , , XXXXXXXXXXXXXXXXXXXX",
"XXXXXXXXXXXXXXXXXXXX, , , , , , , , , B D z , , , , , , , , , , XXXXXXXXXXXXXXXXXXXX",
"XXXXXXXXXXXXXXXXXXXX, , , , , , , , , C -./ , , , , , , , , , , , XXXXXXXXXXXXXXXXXX",
"XXXXXXXXXXXXXXXXXX, , , , , , , , , , 4.f.7., , , , , , , , , , , XXXXXXXXXXXXXXXXXX",
"XXXXXXXXXXXXXXXXXX, , , , , , , , , , 3.s.` , , , , , , , , , , , , XXXXXXXXXXXXXXXX",
"XXXXXXXXXXXXXXXX, , , , , , , , , , , 2.>. ., , , , , , , , , , , , XXXXXXXXXXXXXXXX",
"XXXXXXXXXXXXXXXX, , , , , , , , , , , V O.F , , , , , , , , , , , , XXXXXXXXXXXXXXXX",
"XXXXXXXXXXXXXXXX, , , , , , , , , , , d l a ; , , , , , , , , , , , , XXXXXXXXXXXXXX",
"XXXXXXXXXXXXXXXX, , , , , , , , , , * 6 f y r , , , , , , , , , , , , XXXXXXXXXXXXXX",
"XXXXXXXXXXXXXXXX, , , , , , , , , , e j ' A s : , , , , , , , , , , XXXXXXXXXXXXXXXX",
"XXXXXXXXXXXXXXXX, , , , , , , , , , & G :.+.u = , , , , , , , , , , XXXXXXXXXXXXXXXX",
"XXXXXXXXXXXXXXXX, , , , , , , , , , O S ,.o.$ , , , , , , , , , , , XXXXXXXXXXXXXXXX",
"XXXXXXXXXXXXXXXXXX, , , , , , , , , , H g.X., , , , , , , , , , , , XXXXXXXXXXXXXXXX",
"XXXXXXXXXXXXXXXXXX, , , , , , , , , , K d._ , , , , , , , , , , , XXXXXXXXXXXXXXXXXX",
"XXXXXXXXXXXXXXXXXXXX, , , , , , , , , J 1.) , , , , , , , , , , , XXXXXXXXXXXXXXXXXX",
"XXXXXXXXXXXXXXXXXXXX, , , , , , , , , L <..., , , , , , , , , , |.XXXXXXXXXXXXXXXXXX",
"XXXXXXXXXXXXXXXXXXXXXX, , , , , , , , x ;.( , , , , , , , , , ].XXXXXXXXXXXXXXXXXXXX",
"XXXXXXXXXXXXXXXXXXXXXXXX, , , , , , , t Y g , , , , , , , , XXXXXXXXXXXXXXXXXXXXXXXX",
"XXXXXXXXXXXXXXXXXXXXXXXXXXi X , , , , % p w , , , , , , q XXXXXXXXXXXXXXXXXXXXXXXXXX",
"XXXXXXXXXXXXXXXXXXXXXXXXXX! 0.# , , , o 1 @ , , , , . 5.| XXXXXXXXXXXXXXXXXXXXXXXXXX",
"XXXXXXXXXXXXXXXXXXXXXXXXXX{ t.XXXX, , , , , , , , XXXX9.=.XXXXXXXXXXXXXXXXXXXXXXXXXX",
"XXXXXXXXXXXXXXXXXXXXXXXXXX} y.h XXXXXXXXXXXXXXXXXXXXXX$.e.XXXXXXXXXXXXXXXXXXXXXXXXXX",
"XXXXXXXXXXXXXXXXXXXXXXR 0 W q.7   XXXXXXXXXXXXXXXXXX+ ~ 6.9 U XXXXXXXXXXXXXXXXXXXXXX",
"XXXXXXXXXXXXXXXXXXXXXXb I %.r.^ 4 2 XXXXXXXXXXXXXX< k 8.w.Q N T XXXXXXXXXXXXXXXXXXXX",
"XXXXXXXXXXXXXXXXXXXXXXc [ p.x.u.P 3 XXXXXXXXXXXXXX5 @.j.l.#.M n XXXXXXXXXXXXXXXXXXXX",
"XXXXXXXXXXXXXXXXXXXXXXv ] i.z.a.E XXXXXXXXXXXXXXXX8 *.h.k.&.m XXXXXXXXXXXXXXXXXXXXXX",
"XXXXXXXXXXXXXXXXXXXXXXXXXXXXXXXXXXXXXXXXXXXXXXXXXXXXXXXXXXXXXXXXXXXXXXXXXXXXXXXXXXXX",
"XXXXXXXXXXXXXXXXXXXXXXXXXXXXXXXXXXXXXXXXXXXXXXXXXXXXXXXXXXXXXXXXXXXXXXXXXXXXXXXXXXXX",
"XXXXXXXXXXXXXXXXXXXXXXXXXXXXXXXXXXXXXXXXXXXXXXXXXXXXXXXXXXXXXXXXXXXXXXXXXXXXXXXXXXXX"
};
