/* XPM */
static char *result[] = {
/* columns rows colors chars-per-pixel */
"32 32 171 2 ",
"   c #201715",
".  c #22313B",
"X  c #5D3905",
"o  c #583A0A",
"O  c #492712",
"+  c #643E06",
"@  c #683E03",
"#  c #4C4418",
"$  c #5A451D",
"%  c #6B4206",
"&  c #64460A",
"*  c #7D4B03",
"=  c #755609",
"-  c #6A5E19",
";  c #695517",
":  c #766716",
">  c #7D6D11",
",  c #5B4926",
"<  c #444133",
"1  c #564D3C",
"2  c #524538",
"3  c #535334",
"4  c #644E22",
"5  c #6A5223",
"6  c #795E2A",
"7  c #6E5B39",
"8  c #7F622A",
"9  c #7B6232",
"0  c #263A48",
"q  c #34536A",
"w  c #3B5B71",
"e  c #4C5155",
"r  c #575656",
"t  c #5F735C",
"y  c #68745A",
"u  c #6A6A6D",
"i  c #657864",
"p  c #717173",
"a  c #824F05",
"s  c #8F5501",
"d  c #8E5F07",
"f  c #965B03",
"g  c #9B5B00",
"h  c #9B6A06",
"j  c #84651A",
"k  c #867414",
"l  c #887614",
"z  c #927A12",
"x  c #A36502",
"c  c #AC6600",
"v  c #AE6900",
"b  c #B26B01",
"n  c #B77402",
"m  c #83652B",
"M  c #8E6C2B",
"N  c #926F29",
"B  c #8E7822",
"V  c #97742D",
"C  c #9B772E",
"Z  c #8C6E34",
"A  c #877934",
"S  c #9A7630",
"D  c #9C7933",
"F  c #91733A",
"G  c #A57D2F",
"H  c #A27C31",
"J  c #C87A01",
"K  c #D47F00",
"L  c #827F72",
"P  c #99830F",
"I  c #9C8716",
"U  c #9D8811",
"Y  c #A98E0F",
"T  c #AD950E",
"R  c #BF9B07",
"E  c #A0871F",
"W  c #AC961E",
"Q  c #B39B19",
"!  c #BFA40E",
"~  c #BCA312",
"^  c #9B8626",
"/  c #A08D21",
"(  c #B18D28",
")  c #AC8333",
"_  c #AA853C",
"`  c #B08633",
"'  c #B58B33",
"]  c #BB8E35",
"[  c #B48C3B",
"{  c #B88D39",
"}  c #BE9138",
"|  c #BFA722",
" . c #C58202",
".. c #D58501",
"X. c #DE8700",
"o. c #D98C01",
"O. c #C29307",
"+. c #DC9901",
"@. c #DB9104",
"#. c #EA9200",
"$. c #E89601",
"%. c #FB9B00",
"&. c #F09800",
"*. c #C4A60F",
"=. c #CEB10E",
"-. c #D1B30B",
";. c #D7B80C",
":. c #DCBC0A",
">. c #D7B506",
",. c #C5AA13",
"<. c #CBAE12",
"1. c #CCB013",
"2. c #CBB11D",
"3. c #DBBC13",
"4. c #D4B814",
"5. c #F2A301",
"6. c #FAA100",
"7. c #FEAC02",
"8. c #F7A800",
"9. c #FFB303",
"0. c #FFBA05",
"q. c #C29333",
"w. c #C9B429",
"e. c #E3C206",
"r. c #EDCA04",
"t. c #E4C309",
"y. c #ECCA09",
"u. c #E8C606",
"i. c #F2CE04",
"p. c #F2CF0A",
"a. c #F6D103",
"s. c #FBD601",
"d. c #FED800",
"f. c #E1C211",
"g. c #988B47",
"h. c #9B9054",
"j. c #AE9F4A",
"k. c #AEAA42",
"l. c #B2A34E",
"z. c #B1A45A",
"x. c #89867E",
"c. c #B9B564",
"v. c #BDB273",
"b. c #C39D4B",
"n. c #C1AE46",
"m. c #C1B058",
"M. c #3A6482",
"N. c #4F7D9D",
"B. c #7A878D",
"V. c #779282",
"C. c #5083A6",
"Z. c #7CA5C3",
"A. c #98968B",
"S. c #949496",
"D. c #898889",
"F. c #A7A185",
"G. c #B2B2B3",
"H. c #A6A6A5",
"J. c #9AC0BE",
"K. c #B9CDAC",
"L. c #C6C1A7",
"P. c #81AFC6",
"I. c #92C8E1",
"U. c #C8C8C7",
"Y. c #D5D2C4",
"T. c #DAD9D9",
"R. c #DEDEE1",
"E. c #C5E0EC",
"W. c #CEF1F7",
"Q. c #D2F1F6",
"!. c None",
/* pixels */
"!.!.!.!.!.!.!.!.!.!.!.!.!.!.!.!.!.!.!.!.!.!.!.!.!.!.!.!.!.!.!.!.",
"!.!.!.!.!.!.!.!.!.!.O   !.!.!.!.!.!.!.!.!.!.!.!.!.!.!.!.!.!.!.!.",
"!.!.!.!.!.!.!.!.!.!.2 D.!.!.!.!.!.!.!.!.!.!.!.!.!.!.!.!.!.!.!.!.",
"!.!.!.!.!.!.!.!.!.!.r T.S.!.!.!.!.!.!.!.!.!.!.!.!.!.!.!.!.!.!.!.",
"!.!.!.!.!.!.!.!.!.!.!.H.U.e !.0 . !.!.!.!.!.!.!.!.!.!.!.!.!.!.!.",
"!.!.!.!.!.!.!.!.!.!.!.B.E.Z.N.M.q !.!.!.!.!.!.!.!.!.!.!.!.!.!.!.",
"!.!.!.!.!.!.!.!.!.w P.W.W.J.V.i y 3 # !.!.!.!.!.!.!.!.!.!.!.!.!.",
"!.!.!.!.!.!.!.!.!.C.I.K.c.w.4.3.t.;.! T > !.!.!.!.!.!.!.!.!.!.!.",
"!.!.!.!.!.!.!.!.!.t k.3.p.s.d.d.d.p.4.e.-.l < !.!.!.!.!.!.!.!.!.",
"!.!.!.!.!.!.!.!.U *.i.d.d.d.d.d.a.k.L.z.=.;.h.u !.!.!.!.!.!.!.!.",
"!.!.!.!.!.!.!.!.e.d.d.d.d.d.d.s.a.m.R.G.g.u.2.A.r !.!.!.!.!.!.!.",
"!.!.!.!.!.!.!.*.a.d.d.d.d.d.s.s.d.w.Y.U.x.! r.l.p !.!.!.!.!.!.!.",
"!.!.!.!.!.!.!.:.d.d.d.d.d.d.d.d.d.:.v.U.S.^ a.1.L !.!.!.!.!.!.!.",
"!., V ) Z !.j :.d.d.d.d.d.d.d.d.d.i.2.F.D./ a.e.A !.!.!.!.!.!.!.",
"!.C ] ] b.m : y.d.d.d.d.d.d.d.d.d.s.t.Q ^ ;.a.a.*.# !.!.!.!.!.!.",
"4 ` D 8 { g.B u.d.d.d.d.s.s.d.s.d.a.d.a.a.s.s.a.:.- !.!.!.* !.!.",
"5 ` Z 1 G ` / :.d.d.d.s.s.d.d.d.d.s.a.d.s.s.s.s.:.- !.h $.&.v o ",
"4 ` _ 6 G q.( :.s.d.d.d.s.s.d.d.s.s.d.d.d.d.a.i.4.: !.+.0.5.c X ",
"!.M q.] q.q.' <.a.d.d.s.a.d.d.d.d.d.d.d.s.s.i.y.,.!.!.5.9.@.g !.",
"!.!.M ] ] { H / u.a.a.d.d.d.d.d.d.d.d.a.s.s.a.p.,.= @ &.6.J * !.",
"!.!.!.) ` D V j ,.a.s.s.d.d.d.d.d.d.d.a.s.a.p.3.R n ..%.#.c X !.",
"!.!.!.G ' ` ' j z :.i.a.a.s.d.d.d.a.a.s.a.s.f.W = f #.%.K s !.!.",
"!.!.4 ) D 6 ) N ; U =.r.a.a.s.s.a.a.a.a.a.t.Q j.!.!.a K b % !.!.",
"!.!.5 ` Z 1 D H , !.k Y >.r.a.s.d.a.i.:.1.I !.!.!.!.!.% % !.!.!.",
"!.!.!.) [ m G _ 7 !.!.h +.O.>.e.:.=.~ I k !.!.!.!.!.!.!.!.!.!.!.",
"!.!.!.m } ] ' F 2 !.& K b & > > l k !.!.!.!.!.!.!.!.!.!.!.!.!.!.",
"!.!.!.!.8 S m , o  .@...h % !.!.!.!.!.!.!.!.!.!.!.!.!.!.!.!.!.!.",
"!.!.!.!.!.!.!.!.h 7.6.$.8.X.s !.!.!.!.!.!.!.!.!.!.!.!.!.!.!.!.!.",
"!.!.!.!.!.!.!.!.d 8.7.9.0.#.b @ !.!.!.!.!.!.!.!.!.!.!.!.!.!.!.!.",
"!.!.!.!.!.!.!.!.!.o.7.9.7.X.c a !.!.!.!.!.!.!.!.!.!.!.!.!.!.!.!.",
"!.!.!.!.!.!.!.!.!.% x n b f * + !.!.!.!.!.!.!.!.!.!.!.!.!.!.!.!.",
"!.!.!.!.!.!.!.!.!.!.!.!.!.!.!.!.!.!.!.!.!.!.!.!.!.!.!.!.!.!.!.!."
};
