/* XPM */
static char *result[] = {
/* columns rows colors chars-per-pixel */
"32 32 198 2 ",
"   c #3E2E2A",
".  c #48220C",
"X  c #653A00",
"o  c #7A3D00",
"O  c #774402",
"+  c #634818",
"@  c #7B5819",
"#  c #6A5C18",
"$  c #7C6C15",
"%  c #41403E",
"&  c #6D562A",
"*  c #755A24",
"=  c #745727",
"-  c #7B5C38",
";  c #7C6028",
":  c #79703E",
">  c #786C34",
",  c #143A58",
"<  c gray26",
"1  c #595851",
"2  c #6B5B45",
"3  c #715E49",
"4  c #6C6656",
"5  c #796C51",
"6  c #7C6C45",
"7  c #526961",
"8  c #5F7469",
"9  c #6E7079",
"0  c #6C6F6D",
"q  c #884B00",
"w  c #8D5606",
"e  c #945500",
"r  c #A65900",
"t  c #8B740F",
"y  c #907C0B",
"u  c #996B19",
"i  c #817017",
"p  c #927F19",
"a  c #906816",
"s  c #AC6400",
"d  c #B46500",
"f  c #BB6D00",
"g  c #B26C03",
"h  c #BC7700",
"j  c #866424",
"k  c #946D22",
"l  c #8A7823",
"z  c #94722E",
"x  c #967324",
"c  c #8B6D32",
"v  c #9D7935",
"b  c #A87F2E",
"n  c #A77C28",
"m  c #C97800",
"M  c #8A7C44",
"N  c #867247",
"B  c #877457",
"V  c #827B79",
"C  c #877A61",
"Z  c #958219",
"A  c #A48C09",
"S  c #B59501",
"D  c #BA9E03",
"F  c #B29A15",
"G  c #BEA206",
"H  c #9A8322",
"J  c #AE8528",
"K  c #B4862B",
"L  c #B7882C",
"P  c #A99420",
"I  c #AB8330",
"U  c #A4803D",
"Y  c #B48A34",
"T  c #B68A38",
"R  c #BE9137",
"E  c #B4A632",
"W  c #C28E01",
"Q  c #D58501",
"!  c #D88801",
"~  c #E48900",
"^  c #E68502",
"/  c #E39404",
"(  c #EE9B00",
")  c #EB9202",
"_  c #FD9D02",
"`  c #F39802",
"'  c #C1A301",
"]  c #CDAE00",
"[  c #CAA90A",
"{  c #D5B401",
"}  c #DDBB02",
"|  c #D6B70A",
" . c #DBBB06",
".. c #CAAE11",
"X. c #C5AD1B",
"o. c #EBA200",
"O. c #FDA304",
"+. c #FEAC01",
"@. c #F5AF0B",
"#. c #E1BE03",
"$. c #FFB603",
"%. c #FEBC07",
"&. c #C49433",
"*. c #C39439",
"=. c #CB9A39",
"-. c #D0B831",
";. c #DFC014",
":. c #E6C300",
">. c #EFCC04",
",. c #E7C60B",
"<. c #EDCB08",
"1. c #EAC709",
"2. c #F3CF03",
"3. c #F9CD0B",
"4. c #F6D103",
"5. c #FBD602",
"6. c #FED901",
"7. c #F4D00A",
"8. c #FFE004",
"9. c #9D804C",
"0. c #998657",
"q. c #A39756",
"w. c #B18C44",
"e. c #B6AB5B",
"r. c #B8A747",
"t. c #8D816B",
"y. c #8D8677",
"u. c #938774",
"i. c #978870",
"p. c #999263",
"a. c #A09868",
"s. c #BBB072",
"d. c #B2A76E",
"f. c #C09845",
"g. c #D7AE53",
"h. c #2E5F83",
"j. c #3C7098",
"k. c #3975A2",
"l. c #6F7F8B",
"z. c #717B81",
"x. c #7C8286",
"c. c #7F829A",
"v. c #759289",
"b. c #75A6BF",
"n. c #77A5C7",
"m. c #838382",
"M. c #8C8B8C",
"N. c #88878A",
"B. c #918C84",
"V. c #989389",
"C. c #8E919A",
"Z. c #A99980",
"A. c #A49F9A",
"S. c #A5A199",
"D. c #B1AE94",
"F. c #BDB891",
"G. c #B2AC87",
"H. c #9BA1A5",
"J. c #A9A6A3",
"K. c #A8A7A4",
"L. c #BDB5AE",
"P. c #AEAEB3",
"I. c #AFB1BE",
"U. c #BDBDBD",
"Y. c #B7B9BB",
"T. c #C4BA86",
"R. c #B7CCB1",
"E. c #CDC38E",
"W. c #D6CEA2",
"Q. c #C5C2B1",
"!. c #CAC4A2",
"~. c #BCBEC2",
"^. c #96C3CE",
"/. c #9ADCFF",
"(. c #C4C4C3",
"). c #CCCCCB",
"_. c #C6C8CB",
"`. c #CCCFD3",
"'. c #CFD1D7",
"]. c #D3D5D5",
"[. c #D2D4D8",
"{. c #DCDBDB",
"}. c #E5E3D4",
"|. c #D8DCE2",
" X c #CFD9E6",
".X c #DCE3EF",
"XX c #CFECF7",
"oX c #DEE3F4",
"OX c #D3F9FF",
"+X c #E2E5E7",
"@X c #E9EAEC",
"#X c #F1EFEF",
"$X c #E8ECF6",
"%X c #EFF1F7",
"&X c #E5FEFD",
"*X c #F7FAFC",
"=X c #FFFFFF",
"-X c #F6F7FA",
/* pixels */
"=X=X=X=X=X=X=X=X=X=X+X*X=X=X=X=X=X=X=X=X=X=X=X=X=X=X=X=X=X=X=X=X",
"=X=X=X=X=X=X=X=X=XL.. 1 =X=X=X=X=X=X=X=X=X=X=X=X=X=X=X=X=X=X=X=X",
"=X=X=X=X=X=X=X*X=XV   9 M.=X*X=X=X=X=X=X=X=X=X=X=X=X=X=X=X=X=X=X",
"=X=X=X=X=X=X=X=X=X*Xy.#XN.(.=X*X=X=X=X=X=X=X=X=X=X=X=X=X=X=X=X=X",
"=X=X=X=X=X=X=X=X=X=X{.K.{.0 H.z.x.@X=X=X=X=X=X=X=X=X=X=X=X=X=X=X",
"=X=X=X=X=X=X=X=X=X*XU.x.XXn.j.h., C.=X=X=X=X=X=X=X=X=X=X=X=X=X=X",
"=X=X=X=X=X=X=X=X#Xl.b.&XOX^.v.8 8 1 t.Q.-X=X*X*X=X=X=X=X=X=X=X=X",
"=X=X=X=X=X=X=X=XK.k./.R.e.X.| :.>.#.G A M _.=X=X=X=X=X=X=X=X=X=X",
"=X=X=X=X=X=X=X=X[.7 E | 4.6.8.6.6.2.| 2.} $ x.).=X=X=X=X=X=X=X=X",
"=X=X=X=X=X=X=X=Xs.' 5.6.6.6.6.5.4.r.U.q.| #.G.9 ).=X=X=X=X=X=X=X",
"=X=X=X*X*X*X=XW.} 8.6.6.6.6.6.5.4.e.$XI.M 2.-.P.0 =X=X=X=X=X=X=X",
"=X=X=X=X=X=X%XE 6.6.6.6.6.6.5.5.6.X.].).m.G 4.T.9 U.=X*X=X=X=X=X",
"=X*X(.K._.=X!.{ 6.6.6.6.6.6.6.5.6.} d.{.C.l 6.-.m.H.=X*X=X=X=X=X",
"*Xu.j I ; M.a.:.6.6.6.6.6.6.6.5.6.5.F S.c.Z 6.7.> N.=X=X*X*X*X=X",
"J.a =.=.g.& # 5.6.6.6.6.5.5.5.6.5.5.4.F l :.4.5.' 4 =X=X=X=X=X=X",
"C K v = *.w.j <.6.6.6.6.5.5.6.6.5.5.5.6.6.5.5.5.:.: *X|.Z.0.i.].",
"B L c % I T l 1.5.6.6.5.6.5.5.6.6.5.4.5.5.5.5.5.#.6 oXz ) _ r 3 ",
"t.L w.* Y &.J ,.6.6.6.6.5.5.6.6.6.5.5.6.6.6.4.4.{ p.K.! 3.@.d B ",
"~.; =.&.&.&.Y ..5.5.6.5.5.5.6.6.6.6.6.6.5.5.7.7.G F.d.) @./ q A.",
"=XV.j R Y Y v H >.5.5.5.6.5.6.6.6.6.6.5.5.5.4.7.[ M 3 ` O.m w |.",
"*X=XB.n T z z @ ..5.5.5.5.6.6.6.6.5.5.5.4.4.7.;.W f ! O.` r C =X",
"*X=XK.u R Y *.@ t ,.2.4.5.4.5.6.5.5.4.4.4.5.,.P N w ` O.! q ~.=X",
"*X=Xt.J v & T x + y | 4.4.4.5.5.5.5.4.4.5.<.A E.=X X- m d - *X=X",
"*X*Xt.K c < v I 2 D.$ A | 2.5.5.5.5.7.,.{ p Q.=X*X=X`.= X Y.=X=X",
"*X=XV.n f.* I T 5 *X].a o.S { :.} ] S Z q.}.=X=X=X=X=X$X{.=X=X=X",
"*X=X].* =.=.*.j B.'.u.Q r 5 G.0.q.d.F.}.=X=X=X=X=X=X=X=X=X=X=X=X",
"=X=X=XJ.= k * 4 u.h ~ ! e 6 ~.=X=X*X=X=X=X=X=X=X=X=X=X=X=X=X=X=X",
"=X=X*X=X[.A.Y.$X9.$.O.~ +.) o y.*X*X*X=X=X=X=X=X=X=X=X=X=X=X=X=X",
"=X=X=X=X=X=X=X=XM +.+.$.%.` f + @X=X=X=X=X=X=X=X=X=X=X=X=X=X=X=X",
"=X=X=X=X=X*X-X=XS.m %.%.%.^ d O Q.=X=X=X=X=X=X=X=X=X=X=X=X=X=X=X",
"=X=X=X=X=X=X=X=X*Xi.u g s w O & {.=X=X=X=X=X=X=X=X=X=X=X=X=X=X=X",
"=X=X=X=X=X=X=X=X=X*X.X_.Y.~.`.%X=X=X=X=X=X=X=X=X=X=X=X=X=X=X=X=X"
};
