/* XPM */
static char *result[] = {
/* columns rows colors chars-per-pixel */
"32 32 202 2 ",
"   c #3E2E2A",
".  c #720F1B",
"X  c #53331E",
"o  c #48220C",
"O  c #6F3B00",
"+  c #531C24",
"@  c #781623",
"#  c #762025",
"$  c #7C352D",
"%  c #7B2733",
"&  c #65242B",
"*  c #774402",
"=  c #7C441F",
"-  c #7B5618",
";  c #654115",
":  c #41403E",
">  c #6D5929",
",  c #755A24",
"<  c #755827",
"1  c #7B5C38",
"2  c #183E56",
"3  c #533A45",
"4  c #733A46",
"5  c #33617F",
"6  c gray26",
"7  c #5E424A",
"8  c #5E575B",
"9  c #68494F",
"0  c #685D47",
"q  c #725F49",
"w  c #67585C",
"e  c #796647",
"r  c #776652",
"t  c #6E6656",
"y  c #445269",
"u  c #6B5062",
"i  c #7E666E",
"p  c #767876",
"a  c #6A6867",
"s  c #8A111D",
"d  c #96151A",
"f  c #9A0E1A",
"g  c #B5121E",
"h  c #A70F1B",
"j  c #891623",
"k  c #9C1824",
"l  c #AC1D2B",
"z  c #AA1B25",
"x  c #B51624",
"c  c #BD1C24",
"v  c #B61D2C",
"b  c #B41C27",
"n  c #A21F30",
"m  c #82212D",
"M  c #9D2635",
"N  c #873539",
"B  c #872E37",
"V  c #B6212F",
"C  c #B92A36",
"Z  c #CD111C",
"A  c #D30E18",
"S  c #C81B28",
"D  c #D51C24",
"F  c #DD1D26",
"G  c #D61E29",
"H  c #DC1B24",
"J  c #E41D25",
"K  c #EA1D25",
"L  c #CD222D",
"P  c #DB212A",
"I  c #C82431",
"U  c #DE2831",
"Y  c #E4212A",
"T  c #E9212B",
"R  c #E92027",
"E  c #884B00",
"W  c #904D0C",
"Q  c #8D5300",
"!  c #925806",
"~  c #985013",
"^  c #A65900",
"/  c #996B19",
"(  c #8C671D",
")  c #AC6400",
"_  c #B46500",
"`  c #BA6D00",
"'  c #B26C03",
"]  c #BC7700",
"[  c #824432",
"{  c #866424",
"}  c #936E29",
"|  c #977328",
" . c #8B6D32",
".. c #9D6233",
"X. c #9B7B33",
"o. c #9E7B38",
"O. c #A87E2E",
"+. c #A77C28",
"@. c #A87E34",
"#. c #C97800",
"$. c #E5650A",
"%. c #8E3B55",
"&. c #934852",
"*. c #A54150",
"=. c #BB4B57",
"-. c #877457",
";. c #A75868",
":. c #87666D",
">. c #936970",
",. c #827879",
"<. c #8F7B6F",
"1. c #AF8125",
"2. c #B4862B",
"3. c #B7882C",
"4. c #A98237",
"5. c #B58A34",
"6. c #B58A36",
"7. c #BE9137",
"8. c #B6923A",
"9. c #D58B01",
"0. c #D88402",
"q. c #E48900",
"w. c #E68502",
"e. c #E39404",
"r. c #ED9A00",
"t. c #EB9202",
"y. c #F79A02",
"u. c #FDA304",
"i. c #FEAC01",
"p. c #F5AF0B",
"a. c #FFB603",
"s. c #FEBC07",
"d. c #C39439",
"f. c #C99937",
"g. c #FFCA0A",
"h. c #9D804C",
"j. c #9E835C",
"k. c #AC8E43",
"l. c #B69143",
"z. c #8D816B",
"x. c #8E8576",
"c. c #938774",
"v. c #978870",
"b. c #C09845",
"n. c #D7AC54",
"m. c #3E7496",
"M. c #3A78A1",
"N. c #6E7E8B",
"B. c #707B82",
"V. c #796C88",
"C. c #9D7C80",
"Z. c #7B8186",
"A. c #74A6BF",
"S. c #77A7C7",
"D. c #898887",
"F. c #95938A",
"G. c #958991",
"H. c #8E9498",
"J. c #969396",
"K. c #918C84",
"L. c #A4848F",
"P. c #A29480",
"I. c #A49F9A",
"U. c #B4A380",
"Y. c #A5A19D",
"T. c #9696A4",
"R. c #A09EA1",
"E. c #9AA0A5",
"W. c #A8A4A3",
"Q. c #ACA9A3",
"!. c #A6A5A5",
"~. c #BDB5AE",
"^. c #BDBDBD",
"/. c #B7B9BA",
"(. c #AFADB1",
"). c #C19FA1",
"_. c #C6B0B1",
"`. c #C6AAAC",
"'. c #BCBEC1",
"]. c #91B4D6",
"[. c #BAC3C3",
"{. c #9CDBFF",
"}. c #C4C3C4",
"|. c #C7C9CB",
" X c #CCCFD3",
".X c #CFD1D9",
"XX c #D4D4D8",
"oX c #DBDCDC",
"OX c #D5D6D7",
"+X c #E1DEDE",
"@X c #D8DCE2",
"#X c #CFD7E6",
"$X c #DEE2EB",
"%X c #D3F2FC",
"&X c #E9E8E9",
"*X c #F1EFEF",
"=X c #E5EDF5",
"-X c #EBF8FB",
";X c #F4F6F6",
":X c #F7FAFC",
">X c #FFFFFF",
",X c #F4F7FD",
/* pixels */
">X>X>X>X>X>X>X>X>X>X>X>X>X>X>X>X>X>X>X>X:X&X>X>X>X>X>X>X>X>X>X>X",
">X>X>X>X>X>X>X>X>X>X>X>X>X>X>X>X>X>X>X>X8 o ~.>X>X>X>X>X>X>X>X>X",
">X>X>X>X>X>X>X>X>X>X>X>X>X>X>X>X>X:X>XD.,.  ,.>X:X>X>X>X>X>X>X>X",
">X>X>X>X>X>X>X>X>X>X>X>X>X>X>X>X>X>X}.D.;Xp ;X>X>X>X>X>X>X>X>X>X",
">X>X>X>X>X>X>X>X>X>X>X>X:X>X=XZ.B.E.a +XW.oX>X>X>X>X>X>X>X>X>X>X",
">X>X>X>X>X>X>X>X>X>X>X>X>X>XH.2 5 m.S.%XB.^.:X>X>X>X>X>X>X>X>X>X",
">X>X>X>X>X>X>X>X:X>X>X>X[.p 3 u u V.].%X-XS.N.*X>X>X>X>X>X>X>X>X",
">X>X>X>X>X>X>X>X>X>X|.9 . h v l c l M ;.(.{.M.Q.>X>X>X>X>X>X>X>X",
">X>X>X>X>X>X>X>X|.x.@ x S M l L Y P J D x %.y OX>X>X>X>X>X>X>X>X",
">X>X>X>X>X>X>X|.p G.x c :.~.*.S F P J K T J k C.>X:X>X>X>X>X>X>X",
">X>X>X>X>X>X>Xa /.&.A %./.&X=.H K K J K K K T f (.>X>X>X:X>X>X>X",
">X>X>X>X:X>X}.p H.f S <.|.OXV K K K K K K K T H N ;X>X>X>X>X>X>X",
">X>X>X>X>X>XR.D.4 S M J.oXL.Z K K K K K T K K T g `.>X}.Q.}.:X>X",
">X>X>X>X:X>XD.3 n D m H.H.M K K K K K K K K K Y x >.F.1 O.( x.>X",
">X>X>X>X>X>X8 j P J b m k J R K K K K K K K J J I + > n.f.f.( W.",
"XXv.j.v.&X:X3 b F H F J Y Y K K K K K K K K K J L $ k.7.< o.3.-.",
"q ^ y.t. .=X9 c J J J J J K K K K K K K K K K K S [ 8.O.:  .2.-.",
"-._ p.g.9.Q.:.z Y J J F J J J J K K K K K K K K S ..f.2., l.2.z.",
"I.E e.s.r.U.T.j T Y F H J J J K K K K K K K R K n @.f.d.d.f., [.",
"#XW #.u.r.e 0 $ U J J J J J K J K K K K K K J D N X.5.5.d.{ F.>X",
">X-.^ y.y.0.#.W I Y J J J J J J K K K K J J P b [ |  .5.+.K.>X>X",
">X'.E 0.y.y.! q N P Y J K J J J K K K J H P V # - d.5.7./ Q.>X:X",
">X,Xq _ #. .#X>XQ.j I P J J J J J H H P P b . X | 3.> o.1.z.>X>X",
">X>X/.O <  X>X:X:X_.% k G Y J G D D S g d & E.0 1.4.6 } 1.z.>X>X",
">X>X>X@X=X>X>X>X>X>X+X:.# s f j s . d $.~ .X:Xr 4.1., l.1.F.>X>X",
">X>X>X>X>X>X>X>X>X>X>X>X+XR.,.w w G.r ) 9.c..XK. .7.f.f., OX>X>X",
">X>X>X>X>X>X>X>X>X>X>X>X>X>X>X>X:X}.e ! 9.q.] x.t - } , W.>X>X>X",
">X>X>X>X>X>X>X>X>X>X>X>X>X>X:X>Xc.O w.i.e.u.a.4.=X/.R.OX>X>X>X>X",
">X>X>X>X>X>X>X>X>X>X>X>X>X>X>X&X; ` t.s.a.i.i.h.:X>X>X>X:X>X>X>X",
">X>X>X>X>X>X>X>X>X>X>X>X>X>X>X'.* _ w.s.a.a.#.Y.>X:X>X>X>X>X>X>X",
">X>X>X>X>X>X>X>X>X>X>X>X>X>X>XoX> * ! ) ' / v.,X>X>X>X>X>X>X>X>X",
">X>X>X>X>X>X>X>X>X>X>X>X>X>X>X>X-X X'.'.|.$X>X>X>X>X>X>X>X>X>X>X"
};
