/* XPM */
static char *_c563e55b0f44f678cb9550fca63bc6ecL6foPwt8Tozv1IY[] = {
/* columns rows colors chars-per-pixel */
"32 32 255 2 ",
"   c #449D47",
".  c #49A94D",
"X  c #459F48",
"o  c #4BAD4F",
"O  c #47A34A",
"+  c #4CAF50",
"@  c #58B45B",
"#  c #5EB761",
"$  c #5CB65F",
"%  c #4EB052",
"&  c #52B256",
"*  c #49A84C",
"=  c #4AAA4D",
"-  c #4CAE50",
";  c #4AAB4E",
":  c #4DAF51",
">  c #56B45A",
",  c #55B358",
"<  c #50AE54",
"1  c #4EA751",
"2  c #53A955",
"3  c #56B159",
"4  c #48A64B",
"5  c #46A34A",
"6  c #4DAC50",
"7  c #4DA750",
"8  c #48A74C",
"9  c #4DA650",
"0  c #58AD5A",
"q  c #4EAF52",
"w  c #58B55C",
"e  c #56B059",
"r  c #47A44A",
"t  c #53B256",
"y  c #53B257",
"u  c #57B45B",
"i  c #50B154",
"p  c #49AA4D",
"a  c #48A44B",
"s  c #52A955",
"d  c #56B15A",
"f  c #58B55B",
"g  c #51AE54",
"h  c #4CA64F",
"j  c #47A34B",
"k  c #449F47",
"l  c #4BA54E",
"z  c #4FA251",
"x  c #56A858",
"c  c #4DAE51",
"v  c #52AE55",
"b  c #4FA752",
"n  c #4AA94E",
"m  c #51B055",
"M  c #5AB55D",
"N  c #4CAC50",
"B  c #4BAC4F",
"V  c #5BB45E",
"C  c #5CB45F",
"Z  c #5BB55E",
"A  c #5AB55E",
"S  c #51B155",
"D  c #4FB053",
"F  c #4CAB50",
"G  c #4AA34D",
"H  c #4FAF53",
"J  c #55AC58",
"K  c #57A859",
"L  c #55A957",
"P  c #49A64C",
"I  c #46A049",
"U  c #54AD57",
"Y  c #48A54C",
"T  c #46A149",
"R  c #54AE57",
"E  c #469E49",
"W  c #4A984D",
"Q  c #479C4A",
"!  c #4DA850",
"~  c #56A859",
"^  c #4CA24F",
"/  c #49A64D",
"(  c #52B155",
")  c #66BB6A",
"_  c #61B864",
"`  c #60B763",
"'  c #69BA6C",
"]  c #6ABC6D",
"[  c #62B865",
"{  c #57B25B",
"}  c #56B259",
"|  c #55B159",
" . c #4DAA51",
".. c #459E48",
"X. c #48A04B",
"o. c #4B9E4D",
"O. c #50A352",
"+. c #4CA550",
"@. c #4AA74D",
"#. c #52B156",
"$. c #4FAC53",
"%. c #4FA652",
"&. c #57B35A",
"*. c #53AA56",
"=. c #55AD58",
"-. c #64BA67",
";. c #68BB6B",
":. c #61B664",
">. c #4EAD52",
",. c #4AAA4E",
"<. c #4CA34F",
"1. c #4EA151",
"2. c #58AD5B",
"3. c #4EAF51",
"4. c #4BAE4F",
"5. c #54AB57",
"6. c #5BAF5D",
"7. c #5AAF5C",
"8. c #4BA34E",
"9. c #53AC56",
"0. c #5DB760",
"q. c #5FB762",
"w. c #5DB460",
"e. c #4EA651",
"r. c #59B35C",
"t. c #5BB55F",
"y. c #50B053",
"u. c #48A24B",
"i. c #54AE58",
"p. c #5BB25E",
"a. c #58A95A",
"s. c #5AB05C",
"d. c #56B35A",
"f. c #4EB051",
"g. c #4BA94E",
"h. c #4CA54F",
"j. c #4BAA4F",
"k. c #51B255",
"l. c #5DB560",
"z. c #4FA852",
"x. c #47A04A",
"c. c #52B255",
"v. c #4DB051",
"b. c #4DAB51",
"n. c #4EA251",
"m. c #48A34B",
"M. c #419443",
"N. c #4CA44F",
"B. c #5DB660",
"V. c #54B358",
"C. c #56B359",
"Z. c #58B15B",
"A. c #4FB052",
"S. c #4CA850",
"D. c #50A753",
"F. c #57B45A",
"G. c #429945",
"H. c #439C46",
"J. c #4DAA50",
"K. c #54B257",
"L. c #5BB65E",
"P. c #48A54B",
"I. c #47A54B",
"U. c #55AE58",
"Y. c #439945",
"T. c #429645",
"R. c #4BAC4E",
"E. c #4CB050",
"W. c #4DA250",
"Q. c #53A656",
"!. c #57B35B",
"~. c #59B55C",
"^. c #62B966",
"/. c #52AF56",
"(. c #4AA64E",
"). c #469F49",
"_. c #57AD5A",
"`. c #4EA851",
"'. c #47A14A",
"]. c #48964A",
"[. c #4B9F4D",
"{. c #4DA350",
"}. c #4DA04F",
"|. c #4AA84D",
" X c #4CA84F",
".X c #63B966",
"XX c #59A95B",
"oX c #67B96A",
"OX c #48A44C",
"+X c #49964A",
"@X c #4FA151",
"#X c #4A9A4C",
"$X c #49A74D",
"%X c #49A84D",
"&X c #449947",
"*X c #4BA04E",
"=X c #56A959",
"-X c #59B15C",
";X c #71B673",
":X c #77C17A",
">X c #5FB362",
",X c #419643",
"<X c #429644",
"1X c #409442",
"2X c #459748",
"3X c #54A757",
"4X c #51B054",
"5X c #5FB662",
"6X c #59B45C",
"7X c #439B46",
"8X c #47A24A",
"9X c #4FB152",
"0X c #429544",
"qX c #55A858",
"wX c #5CB35F",
"eX c #47A44B",
"rX c #46A349",
"tX c #49A74C",
"yX c #449A46",
"uX c #4DA050",
"iX c #5AB65D",
"pX c #52B056",
"aX c #4DA950",
"sX c #4BA84E",
"dX c #4AA14D",
"fX c #5AB25D",
"gX c #51AF54",
"hX c #58AF5B",
"jX c #4FAC52",
"kX c #4AA94D",
"lX c #46A24A",
"zX c #54A756",
"xX c #48A84C",
"cX c #4B9F4E",
"vX c #529A55",
"bX c #48A24C",
"nX c #58B45C",
"mX c #4BAA4E",
"MX c #4B9A4E",
"NX c #518D53",
"BX c #469B49",
"VX c #4DA450",
"CX c #4A914C",
"ZX c #459B48",
"AX c #449E47",
"SX c #56B25A",
"DX c #4BA94F",
"FX c #51A554",
"GX c #4C994F",
"HX c #48A64C",
"JX c #4EAB52",
"KX c #45A048",
"LX c #4DAF50",
"PX c #51AB54",
"IX c white",
/* pixels */
"  . . X o O O + + @ # $ % + + + + O O + + + & $ % + & $ % @ @ + ",
"* o o = - ; ; : > , < 1 2 3 @ > : ; 4 5 O ; 6 7 - 8 9 0 q w e r ",
"t % o = - + % y u i p a s d f u y t g h j ; * k o l z x c v b   ",
"$ y n X ; o m M c : : o N B - i V C Z A S D F G H J K L c P I X ",
"% u U   X X Y c T R R E W Q ! V ~ ^ / ( ) _ ` ' ] [ { c + } | o ",
"+ i  ...8 . ; - . X.o.O.+.@.N #.$.%.2 &.*.%.=.-.-.;.:.s a >.i + ",
"+ i  .X o ; . ,.S <.1.2.3.+ + 4.. 5.6.7.^ 8.9.0.@ q.w.s e.g i + ",
"+ > U X o r ..G r.$ t.r.y.: : c u.i.p.a.a.s.V r.% + : i M $ d.+ ",
"+ f.g.X o O h.r.y.% j.G r.k.S $ V #.y l.l.z.x.u.o + c.M i % v.+ ",
"O ; b.n.m.8 g $ % 8   M.N.N & B.V.C.M # # Z.b X o + A.& : + + + ",
"O 8 S.D...r >.F.y g.X G.H.J.F.$ % K.@ w 0.L.v P.4.; 4 r o + o . ",
"+ I.I.o T ..m.c V #.+ o T U.# M c o 4.% M c.+ + + r Y.T.R.E..   ",
"+ 4.4.+ o D.W.x.Q.$.+ + o !.~.c T X I.+ % : + + + 5 N.Z.q + .   ",
"^.$ y f.F./.(.)._.`.5 '.].[.{.}.|.T O + + * O a D. Xg 0.w i o . ",
".X$ y v.> i $.XXoX9.OXN.+X@XO.#X$X    %X.   &X*X=X< & # # & % t ",
"o - : % % + -X;X:XB.y $ % _ >XX X ,X<Xx.  1X2X3XV 4X4X$ $ S S $ ",
"X . c.$ $ c.g.{.5X# B.$ % ~.6Xo o ; < Z.x.7X8Xc % P.P.% % : : % ",
". o t B.V.9Xr 0XqXwX# 0.~.$ @ + + E.6 h...eX; v.> l rX: > i + + ",
". o t t.j.o tXyXuXU iX0.~.@ pX. %X. 8 5 O ; + v.> aXsXy u >.; + ",
"X . & r.x.%X+ ; T . & M % 4.%X).x.).I.+ % - 4.+ + + & $ % I.r o ",
"o - : c X . = T ; - : % + I.dXqXfXgXo % M 7 eX+ + + t $ % 4.* X ",
"+ tXtX- = o %XX o tX8 + + v hXp.K.% + v.c.N ; + + + % k.v.+ o * ",
"+ tXI.%X. o ; I.o 8 8 : c.> f > : ; %X. 4.+ + + + ; j.jXn o % t ",
"% v.. X X kX+ + % : + % M c.: % + I.X T o + + + o lXdXzXx.xXm $ ",
"$ c.4.o o - + % M ( + + % + ( M % 4.o o + + + o T   j c o r Y % ",
"& % + f.F.i + : ( g.cXvXbX5 sX( : + + + + K.nXd.mX. ; + + ; ; + ",
"+ ; ; v.> i + + + xXMXNXBXT * + + + o . - K.nXF.% ; 6 c.v.+ + + ",
"o lXO + + 4.o o + v.VXCXZX8 o o c + . T c : + + o r 9 fXc - - o ",
"X AXO + + I.X T o > SXDXX ..X x.FXjX4.c M c.+ o T * +.GXE = = X ",
"%X%X; o I.HX. = - i i o X eX. n JXc + : c.% + o X KX9 qXE T P.%X",
"+ + % m Y ; o = - + + 4.P.; o = - + % c.LX+ + 4.P.l PXC.P X O + ",
"+ + & $ % + . X o + + + + + . X o + & $ % + + + + @ @ + + O O + "
};
