/* XPM */
static char *result[] = {
/* columns rows colors chars-per-pixel */
"32 32 181 2 ",
"   c black",
".  c gray1",
"X  c #020305",
"o  c #040404",
"O  c #040506",
"+  c #1B1702",
"@  c #1A1603",
"#  c #181206",
"$  c #191307",
"%  c #1A1307",
"&  c #1A1604",
"*  c #1A1704",
"=  c #1A1406",
"-  c #1C1903",
";  c #1C1C00",
":  c #1C1804",
">  c #1D1904",
",  c #1E1A04",
"<  c #1D170B",
"1  c #1E170C",
"2  c #1E180C",
"3  c #1F180C",
"4  c #1D1D1D",
"5  c #1D1D1F",
"6  c #1E1E1E",
"7  c #1E1E1F",
"8  c gray12",
"9  c #332F03",
"0  c #31250C",
"q  c #352B0A",
"w  c #333003",
"e  c #363303",
"r  c #363600",
"t  c #363304",
"y  c #363307",
"u  c #362911",
"i  c #39351F",
"p  c gray14",
"a  c #393520",
"s  c #3A3A37",
"d  c #A97D2C",
"f  c #AA7D2C",
"g  c #AA7E2D",
"h  c #BE8C31",
"j  c #BD8C32",
"k  c #BE8C32",
"l  c #BE8D32",
"z  c #BF8D32",
"x  c #BF8E32",
"c  c #C3AA19",
"v  c #C4AB19",
"b  c #D7B81E",
"n  c #DABE1B",
"m  c #DABE1C",
"M  c #DCBF1C",
"N  c #C3942F",
"B  c #C08F32",
"V  c #C49530",
"C  c #C59530",
"Z  c #C69630",
"A  c #C69730",
"S  c #C79731",
"D  c #DDA736",
"F  c #DDA836",
"G  c #DEA836",
"H  c #DFA936",
"J  c #DCA338",
"K  c #E1AE32",
"L  c #C3C300",
"P  c #DADB00",
"I  c #DEDA02",
"U  c #DEDB03",
"Y  c #DFDC03",
"T  c #DFDC04",
"R  c #DCC01C",
"E  c #DDC01D",
"W  c #DEC21C",
"Q  c #DEDE1C",
"!  c #F5D51F",
"~  c #F5D61F",
"^  c #F8D71E",
"/  c #F5DC18",
"(  c #F5DC19",
")  c #F5D91C",
"_  c #F8DB19",
"`  c #F8DB1B",
"'  c #F8DF19",
"]  c #F8DC1A",
"[  c #F8DC1B",
"{  c #FADD1B",
"}  c #F8DB1D",
"|  c #FAD91E",
" . c #FADA1F",
".. c #F8DC1C",
"X. c #F8DD1C",
"o. c #F9DD1C",
"O. c #F8DC1D",
"+. c #FADD1C",
"@. c #FADD1D",
"#. c #FADE1C",
"$. c #F8DC1E",
"%. c #F8F402",
"&. c #F8F403",
"*. c #FAF602",
"=. c #F8F105",
"-. c #FAF205",
";. c #F8F107",
":. c #F8F404",
">. c #FAF604",
",. c #F8F903",
"<. c #F8F109",
"1. c #F9F208",
"2. c #FBF308",
"3. c #F9F51D",
"4. c #F9F61C",
"5. c #F9F61E",
"6. c #FAF71F",
"7. c #F9F91B",
"8. c #FAFB1B",
"9. c #F9F91E",
"0. c #DEC220",
"q. c #DFC635",
"w. c #EEC925",
"e. c #F1CF22",
"r. c #F1CB26",
"t. c #F4D123",
"y. c #F5D123",
"u. c #F5D223",
"i. c #F6D323",
"p. c #FADA20",
"a. c #FCDB21",
"s. c #FCDC20",
"d. c #F9DF34",
"f. c #F9DD37",
"g. c #F5D939",
"h. c #F9DD3A",
"j. c #F9DC3B",
"k. c #F9DD3B",
"l. c #F9DD3D",
"z. c #FBDE3D",
"x. c #F9F521",
"c. c #F9F622",
"v. c #F9E034",
"b. c #F9E039",
"n. c #FBE239",
"m. c #F9FA36",
"M. c #F6DE52",
"N. c #FAE156",
"B. c #C9C9CA",
"V. c #CACACA",
"C. c #E5E1CC",
"Z. c #E4E2CD",
"A. c #FEFEC7",
"S. c #FAF7CB",
"D. c #FAF7CC",
"F. c #FDFDC8",
"G. c #FEFECB",
"H. c #FEFACC",
"J. c #E4E1D0",
"K. c #E4E2D0",
"L. c #E5E2D0",
"P. c #FEF9D0",
"I. c #FFF9D0",
"U. c #E1E1E2",
"Y. c #E1E1E3",
"T. c #E2E2E2",
"R. c #E2E3E4",
"E. c #FEFEE2",
"W. c #FEFEE3",
"Q. c #FEFBE7",
"!. c #FFFBE7",
"~. c #FEFEE4",
"^. c #FFFCE7",
"/. c #FFFDE7",
"(. c #FEFBE9",
"). c #FFFCE8",
"_. c #FFFEE9",
"`. c #FFFDEB",
"'. c #FFFDEC",
"]. c #FFFFFE",
"[. c None",
/* pixels */
"[.[.[.[.[.[.[.[.[.[.[.[.                [.[.[.[.[.[.[.[.[.[.[.[.",
"[.[.[.[.[.[.[.[.[.[.[.[.6 8 8 8 8 8 8 6 [.[.[.[.[.[.[.[.[.[.[.[.",
"[.[.[.[.[.[.[.[.      7 B.R.U.U.U.U.R.B.7       [.[.[.[.[.[.[.[.",
"[.[.[.[.[.[.[.[.6 8 4 s K._././././._.Z.a + = $ [.[.[.[.[.[.[.[.",
"[.[.[.[.[.[.o p V.T.Y.J.M.k.k.h.h.k.l.g.0.b N f $   [.[.[.[.[.[.",
"[.[.[.[.[.[.. p T.].'.P.v.} f.k.k.f.$.`  .i.H z %   [.[.[.[.[.[.",
"[.[.[.[.[.[.  8 U.`.N.d.;.3.H.(.(.H.6.-.O.t.F k %   [.[.[.[.[.[.",
"[.[.[.[.[.[.4 s J.I.d.' 4.m.G.~.).S.Q I ( ! K V 0 # [.[.[.[.[.[.",
"[.[.[.[.  6 B.L.M.v.<.5.F.G.m.x.n.q.y r U 1.~ w.Z d $   [.[.[.[.",
"[.[.[.[.  8 U.^.j._ %.9.E.E.9.%.{ n : ; P >.X.u.H z %   [.[.[.[.",
"[.[.[.[.  8 U./.l.] %.9.E.E.9.%.#.m : ; P >...t.G h %   [.[.[.[.",
"[.[.[.[.  8 U./.l.] %.9.E.E.9.%.#.m : ; P >...t.G h %   [.[.[.[.",
"[.[.[.[.  8 U./.l.] %.9.E.E.9.%.#.m : ; P >...t.G h %   [.[.[.[.",
"[.[.[.[.  8 U./.l.] %.9.E.E.9.%.#.m : ; P >...t.G h %   [.[.[.[.",
"[.[.[.[.  8 U./.l.] %.9.E.E.9.%.#.m : ; P >...t.G h %   [.[.[.[.",
"[.[.[.[.  8 U./.l.] %.9.E.E.9.%.#.m : ; P >...t.G h %   [.[.[.[.",
"[.[.[.[.  8 U./.l.] %.9.E.E.9.%.#.m : ; P >...t.G h %   [.[.[.[.",
"[.[.[.[.  8 U./.l.] %.9.E.E.9.%.#.m : ; P >...t.G h %   [.[.[.[.",
"[.[.[.[.  8 U./.l.] %.9.E.E.9.%.#.m : ; P >...t.G h %   [.[.[.[.",
"[.[.[.[.  8 U./.l.] %.9.E.W.c.=.@.m : ; P >...t.G h %   [.[.[.[.",
"[.[.[.[.  8 U./.l.] %.9.E.Q.b.` p.m : ; P >...t.G h %   [.[.[.[.",
"[.[.[.[.  8 U./.l.] %.9.E.Q.l.^ p.m : ; P >...t.G h %   [.[.[.[.",
"[.[.[.[.  8 U./.l.] %.9.E.!.z.| a.R : ; P >.X.u.H z %   [.[.[.[.",
"[.[.[.[.  6 B.C.g.[ %.7.A.D.q.n M v 9 r U 1.~ w.S g $   [.[.[.[.",
"[.[.[.[.[.[.5 i 0.+.:.,.8.Q y @ * w L Y / ~ K C u < [.[.[.[.[.[.",
"[.[.[.[.[.[.  , m @.;.&.*.I e * & t T 2.~ r.D l 1 X [.[.[.[.[.[.",
"[.[.[.[.[.[.  , R s.@.+.o.) W m m W ) ~ K D J B 3 O [.[.[.[.[.[.",
"[.[.[.[.[.[.  > c M m E e.y.i.i.i.i.u.w.V j x g 2 O [.[.[.[.[.[.",
"[.[.[.[.[.[.[.[.> , - q A H G G G G H Z 0 # % $ [.[.[.[.[.[.[.[.",
"[.[.[.[.[.[.[.[.      $ f z h h h h z f $       [.[.[.[.[.[.[.[.",
"[.[.[.[.[.[.[.[.[.[.[.[.$ % % % % % % $ [.[.[.[.[.[.[.[.[.[.[.[.",
"[.[.[.[.[.[.[.[.[.[.[.[.                [.[.[.[.[.[.[.[.[.[.[.[."
};
