/* XPM */
static char *_1297b23bde540d8a514a0b1acc2276ciBd8UIs3xsXE59Zu[] = {
/* columns rows colors chars-per-pixel */
"32 32 226 2 ",
"   c #F3F3F3",
".  c gray95",
"X  c #F5F4F5",
"o  c #F7F4F7",
"O  c #EDEFED",
"+  c #D5E2D5",
"@  c #B3D1B3",
"#  c #8DBD8D",
"$  c #70AD70",
"%  c #559D55",
"&  c #449344",
"*  c #3B8D3C",
"=  c #368A37",
"-  c #3B8F3B",
";  c #439643",
":  c #54A054",
">  c #6FAE6F",
",  c #8EBE8E",
"<  c #B5D1B5",
"1  c #D7E3D7",
"2  c #EFF0EF",
"3  c #F7F5F7",
"4  c #F4F3F4",
"5  c #CDDECD",
"6  c #8DBE8D",
"7  c #4E9F4F",
"8  c #248524",
"9  c #0E710E",
"0  c #036303",
"q  c #005B00",
"w  c #005600",
"e  c #005300",
"r  c #005200",
"t  c #005400",
"y  c #005D00",
"u  c #006700",
"i  c #007100",
"p  c #007900",
"a  c #037F03",
"s  c #0E850E",
"d  c #268E26",
"f  c #57A457",
"g  c #9BC59B",
"h  c #DCE6DC",
"j  c #D6E3D6",
"k  c #6DAF6D",
"l  c #1C891C",
"z  c #007300",
"x  c #005E00",
"c  c #004F00",
"v  c #004E00",
"b  c #005800",
"n  c #007C00",
"m  c #008500",
"M  c #008D00",
"N  c #008F00",
"B  c #027E02",
"V  c #309230",
"C  c #9EC89E",
"Z  c #F0F1F0",
"A  c #CADDCA",
"S  c #379637",
"D  c #007200",
"F  c #005500",
"G  c #005100",
"H  c #006200",
"J  c #009800",
"K  c #009C00",
"L  c #008900",
"P  c #007B00",
"I  c #0C820C",
"U  c #96C496",
"Y  c #65AC65",
"T  c #007E00",
"R  c #006500",
"E  c #006E00",
"W  c #008600",
"Q  c #009E00",
"!  c #007D00",
"~  c #3D993D",
"^  c #E9EDE9",
"/  c #50A250",
"(  c #005F00",
")  c #009000",
"_  c #009400",
"`  c #008200",
"'  c #388D38",
"]  c #E7EBE7",
"[  c #70BA70",
"{  c #007400",
"}  c #006100",
"|  c #005000",
" . c #006D00",
".. c #007F00",
"X. c #006A00",
"o. c #4C864C",
"O. c #EFEFEF",
"+. c #90CE90",
"@. c #008000",
"#. c #007800",
"$. c #006F00",
"%. c #006000",
"&. c #005C00",
"*. c #005A00",
"=. c #005900",
"-. c #639063",
";. c #F6F4F6",
":. c #ADD9AD",
">. c #069606",
",. c #008A00",
"<. c #008100",
"1. c #007A00",
"2. c #007500",
"3. c #006600",
"4. c #004D00",
"5. c #7BA17B",
"6. c #F6F5F6",
"7. c #F5F3F5",
"8. c #C8E3C8",
"9. c #139C13",
"0. c #008B00",
"q. c #008400",
"w. c #007600",
"e. c #006B00",
"r. c #006900",
"t. c #006800",
"y. c DarkGreen",
"u. c #005700",
"i. c #93B193",
"p. c #DCEADC",
"a. c #25A425",
"s. c #008C00",
"d. c #006C00",
"f. c #045104",
"g. c #A9BFA9",
"h. c #EAEFEA",
"j. c #3DAD3D",
"k. c #0C570C",
"l. c #BDCEBE",
"z. c #F3F2F3",
"x. c #60B860",
"c. c #286929",
"v. c #DBE2DB",
"b. c #F4F4F4",
"n. c #9ACD9A",
"m. c #039003",
"M. c #008700",
"N. c #789E78",
"B. c #E7EDE7",
"V. c #5FB35F",
"C. c #008800",
"Z. c #006300",
"A. c #5A8A5A",
"S. c #E3E7E3",
"D. c #E0E9E0",
"F. c #42A442",
"G. c #0A540A",
"H. c #BACBBA",
"J. c #F7F6F7",
"K. c #7DC77D",
"L. c #145C14",
"P. c #CAD7CA",
"I. c #97D197",
"U. c #009200",
"Y. c #1F631F",
"T. c #D7DFD7",
"R. c #B1DBB1",
"E. c #079607",
"W. c #2D6C2D",
"Q. c #E1E6E1",
"!. c #3D773D",
"~. c #EAECEA",
"^. c #DAEADA",
"/. c #23A223",
"(. c #004C00",
"). c #4F834F",
"_. c gray94",
"`. c #E7EFE7",
"'. c #37AB37",
"]. c #618F61",
"[. c #F0F2F0",
"{. c #50B550",
"}. c #008300",
"|. c #769D76",
" X c #6BC06B",
".X c #89AA89",
"XX c #88CB88",
"oX c #014F01",
"OX c #9DB79D",
"+X c #A8D4A8",
"@X c #059205",
"#X c #0D570D",
"$X c #BCCDBC",
"%X c #D0E3D0",
"&X c #1A9A1B",
"*X c #377237",
"=X c #E4E8E4",
"-X c #6BB96B",
";X c #0A550A",
":X c #A0BAA0",
">X c #DAE7DA",
",X c #3CA03C",
"<X c #055205",
"1X c #D4E3D4",
"2X c #55A455",
"3X c #047904",
"4X c #1B601B",
"5X c #8FAE8F",
"6X c #ECEEEC",
"7X c #E7ECE7",
"8X c #9FC59F",
"9X c #4D964D",
"0X c #187318",
"qX c #086208",
"wX c #025702",
"eX c #2E6D2E",
"rX c #769C76",
"tX c #C7D3C7",
"yX c #EBEEEB",
"uX c #C4D6C4",
"iX c #A4C0A4",
"pX c #8AAD8A",
"aX c #7FA37F",
"sX c #99B499",
"dX c #B5C7B5",
"fX c white",
/* pixels */
"  .     .   X o O + @ # $ % & * = - ; : > , < 1 2 3 4 . . .   . ",
"  . . . 4 . 5 6 7 8 9 0 q w e r t y u i p a s d f g h X   .   . ",
".   . X j k l z x e c v v v c c c b u i n m M N m B V C Z   .   ",
". . X A S n D F v c c c c c c c c G H D n m N J K L P I U 4     ",
"    . Y P T R v c c c c c c c c c c F E n W N J Q N ! P ~ ^   . ",
"    Z / P T D F v c c c c c c c c c c ( n W ) J _ ` ! n ' ]   . ",
"    X [ T ! T { } F | v v v v v v v v |  .m L W ..T ! X.o.O.  . ",
".   o +.M @.! ! ! #.$.u %.&.*.b =.q y H $.! T ! P i %.v -.4     ",
".   ;.:.>.,.<.P p 1.n ! ! n n P P n n n 1.2.E 3.*.G v 4.5.6..   ",
"  . 7.8.9.0.q.! w.i  .e.r.t.u 3.y.} x &.u.e | v v c c v i.3   . ",
"  . 4 p.a.s.q.T #.i d.3.} q w | v v v v v c c c c c c f.g.6.  . ",
".     h.j.s.m ..#.D d.u H &.u.G c c c c c c c c c c c k.l.6..   ",
".     z.x.M W ..p z  .u H &.u.G c c c c c c c c c c 4.c.v.b..   ",
"  . . ;.n.m.M.@.1.z  .u H y u.r c c c c c c c c c c v N.      . ",
"  .     B.V.C.<.1.{ E t.Z.y b r c c c c c c c c c v A.S.4 .   . ",
"  .   . 4 D.F.<.P { E t.Z.y b r c c c c c c c c v G.H.J.. .   . ",
".   . . . o K.0.T D  .r.y.x b r c c c c c v v v 4.L.P.X     .   ",
".   . . . o I.U.M.#.3.&.q b F G v v v v v v v c v Y.T.b.    .   ",
"  .       ;.R.E.C.@.w.u b | c v v c c c c c c c 4.W.Q.4 . .   . ",
"  .       7.8.9.L @.#.i t.y t | c c c c c c c c 4.!.~.  . .   . ",
".   . . . 4 ^./.,.<.p i r.Z.q e c c c c c c c c (.)._.      .   ",
".   . . .   `.'.0.` 1.D X.Z.&.t c c c c c c c c (.].        .   ",
"  .         [.{.s.}.P D X.Z.&.t c c c c c c c c 4.|.6.  . .   . ",
"  .         7. XM q.P z e.y.&.F c c c c c c c c v .X3 . . .   . ",
".   . . . . ;.XX) m n z e.y.&.F c c c c c c c c oXOX3       .   ",
".   . . . . ;.+X@XW ! { d.y.y F c c c c c c c v #X$X6.      .   ",
".   . . . . 7.%X&XM.T 2. .R y F c c c c c c c 4.*X=X        .   ",
"  .           Z -XC...w. .R x w | c c c c c v ;X:XX   . . .   . ",
"  .         . 4 >X,XT w.E 3.x w | c c c c v <X|.2   . . . .   . ",
".   . . . . . . 4 1X2X3Xd.R x w | c c 4.4.4X5X6X  .         .   ",
".   . . . . . . . X 7X8X9X0XqXwX| <X#XeXrXtX4   .           .   ",
"  .             . .   3 yXuXiXpXaXsXdXv.X 6.  . . . . . . .   . "
};
