/* XPM */
static char *result[] = {
/* columns rows colors chars-per-pixel */
"25 25 171 2 ",
"   c #FB5F12",
".  c #FB5E13",
"X  c #FB5F13",
"o  c #FA5B17",
"O  c #FB5D14",
"+  c #FB5D15",
"@  c #FB5E14",
"#  c #FA5C16",
"$  c #FB5C16",
"%  c #F9571C",
"&  c #F9561D",
"*  c #F9551E",
"=  c #F9561E",
"-  c #FA5A19",
";  c #F9581B",
":  c #FA591A",
">  c #FA581B",
",  c #FE6707",
"<  c #FE6B03",
"1  c #FF6C01",
"2  c #FF6D01",
"3  c #FF6E00",
"4  c #FF6F00",
"5  c #FF6E01",
"6  c #FE6A04",
"7  c #FE6806",
"8  c #FE6807",
"9  c #FD6708",
"0  c #FD6609",
"q  c #FD650A",
"w  c #FD640B",
"e  c #FD650B",
"r  c #FC630D",
"t  c #FC610F",
"y  c #FC620E",
"u  c #FC620F",
"i  c #FD640C",
"p  c #FF7000",
"a  c #FF7100",
"s  c #FF7200",
"d  c #FF7300",
"f  c #FF7400",
"g  c #FF7500",
"h  c #FF7600",
"j  c #FF7700",
"k  c #FF7800",
"l  c #FF7900",
"z  c #FF7A00",
"x  c #FF7B00",
"c  c #FF7D00",
"v  c #FF7E00",
"b  c #FF7F00",
"n  c #FC6110",
"m  c #FC6011",
"M  c #F74F26",
"N  c #F74F27",
"B  c #F74E28",
"V  c #F64C2B",
"C  c #F64A2D",
"Z  c #F5482F",
"A  c #F6492E",
"S  c #F75025",
"D  c #F85223",
"F  c #F85420",
"G  c #F54632",
"H  c #F44335",
"J  c #F44336",
"K  c #F44434",
"L  c #F44435",
"P  c #FF8000",
"I  c #FF8100",
"U  c #FF8200",
"Y  c #FF8300",
"T  c #FF8400",
"R  c #FF8500",
"E  c #FF8600",
"W  c #FF8700",
"Q  c #FF8800",
"!  c #FF8900",
"~  c #FF8A00",
"^  c #FF8D00",
"/  c #FF8E00",
"(  c #FF8E02",
")  c #FF9000",
"_  c #FF9200",
"`  c #FF9400",
"'  c #FF9A04",
"]  c #FF9B0A",
"[  c #FF8312",
"{  c #FF8815",
"}  c #FF9F10",
"|  c #FF941C",
" . c #FFA519",
".. c #FF8F22",
"X. c #FF9234",
"o. c #FF9335",
"O. c #FF9D3B",
"+. c #FFAC26",
"@. c #FFA52A",
"#. c #FFAE2A",
"$. c #FFA33D",
"%. c #FFB331",
"&. c #FFB333",
"*. c #FFBB43",
"=. c #FFB248",
"-. c #FFB54D",
";. c #FFB74D",
":. c #FFA554",
">. c #FFA859",
",. c #FFBF5B",
"<. c #FFC055",
"1. c #FFC358",
"2. c #FFCC5D",
"3. c #FFCA60",
"4. c #FFC76C",
"5. c #FFCE69",
"6. c #FFCF69",
"7. c #FFD063",
"8. c #FFDF6A",
"9. c #FFDB70",
"0. c #FFD47E",
"q. c #FFD87E",
"w. c #FFE06A",
"e. c #FFE971",
"r. c #FFEB72",
"t. c #FFEF75",
"y. c #FFF176",
"u. c #FFF178",
"i. c #FFF27A",
"p. c #FFF27C",
"a. c #FFF27F",
"s. c #FFDB84",
"d. c #FFDA89",
"f. c #FFDB8D",
"g. c #FFEA86",
"h. c #FFE38D",
"j. c #FFE08F",
"k. c #FFF080",
"l. c #FFF382",
"z. c #FFF387",
"x. c #FFF389",
"c. c #FFF38A",
"v. c #FFF48F",
"b. c #FFE191",
"n. c #FFE69D",
"m. c #FFF491",
"M. c #FFF492",
"N. c #FFF597",
"B. c #FFF59A",
"V. c #FFF59C",
"C. c #FFF59D",
"Z. c #FFEEAF",
"A. c #FFF6A2",
"S. c #FFF4A5",
"D. c #FFF6A5",
"F. c #FFF6A7",
"G. c #FFF3AB",
"H. c #FFF6A8",
"J. c #FFF7AB",
"K. c #FFF7AC",
"L. c #FFF7B1",
"P. c #FFF7B3",
"I. c #FFF2B4",
"U. c #FFF8B3",
"Y. c #FFF8B7",
"T. c #FFF4B8",
"R. c #FFF8B8",
"E. c #FFF8BA",
"W. c #FFF8BD",
"Q. c #FFF8BE",
"!. c None",
/* pixels */
"!.!.!.!.!.!.!.!.!.!.!.!.!.!.!.!.!.!.!.!.!.!.!.!.!.",
"!.!.!.!.!.!.!.!.!.!.J J J J !.!.!.!.!.!.!.!.!.!.!.",
"!.!.!.!.!.!.!.!.!.!.!.K K L H !.!.!.!.!.!.!.!.!.!.",
"!.!.!.!.!.!.!.!.!.!.!.C C A Z G !.!.!.!.!.!.!.!.!.",
"!.!.!.!.!.!.!.!.!.!.!.S S M B V C !.!.!.!.!.!.!.!.",
"!.!.!.!.!.!.!.!.!.!.!.= & * F D N !.!.!.!.!.!.!.!.",
"!.!.!.!.!.!.!.!.!.!.$ $ $ o - % F !.!.!.!.!.!.!.!.",
"!.!.!.!.!.!.!.!.!.!.n y y t m + - !.!.!.!.!.!.!.!.",
"!.!.!.!.!.!.: !.!.w 9 8 7 , q r   !.!.!.!.!.!.!.!.",
"!.!.!.!.!.> @ !., 6 2 3 5 1.X.7 e !.!.!.!.!.!.!.!.",
"!.!.!.!.; + r !.1 p s d 2.e.a 5 6 !.!.!.!.!.!.!.!.",
"!.!.!.!.o u 8 3 s g j ;.y.8.h d 4 !.!.!.!.!.!.!.!.",
"!.!.!.!.  0 2 s h z [ r.y.w.x k f !.!.u o !.!.!.!.",
"!.!.!.O r < a h x b =.u.y.t.{ c k d 2 0 . !.!.!.!.",
"!.!.!.n 9 4 g x P T 7.p.i.i.<.U c j a 6 y # !.!.!.",
"!.!.!.i < s l b R ! 9.l.a.a.k.$.I x g 2 q X !.!.!.",
"!.!.!., 5 g c Y O.| 6.x.z.z.c.g...b k a 7 u !.!.!.",
"!.!.!.!.a k P W d.4.-.m.v.v.M.N.0.U x d < w !.!.!.",
"!.!.!.!.d x Y ~ G.S.h.V.B.B.C.A.H.o.v h 5 !.!.!.!.",
"!.!.!.!.!.v E ( E.L.J.F.D.D.H.K.U.>.P k p !.!.!.!.",
"!.!.!.!.!.P Q ) Z.W.Y.P.L.L.U.R.W.:.U z !.!.!.!.!.",
"!.!.!.!.!.!.~ _ ,.n.T.Q.Q.Q.Q.I.f.^ T !.!.!.!.!.!.",
"!.!.!.!.!.!.!.` ] *.5.s.b.j.q.3.@./ !.!.!.!.!.!.!.",
"!.!.!.!.!.!.!.!.!.'  .#.&.%.+.} !.!.!.!.!.!.!.!.!.",
"!.!.!.!.!.!.!.!.!.!.!.!.!.!.!.!.!.!.!.!.!.!.!.!.!."
};
