/* XPM */
static char *result[] = {
/* columns rows colors chars-per-pixel */
"25 25 171 2 ",
"   c #FB5F12",
".  c #FB5E13",
"X  c #FB5F13",
"o  c #FA5B17",
"O  c #FB5D14",
"+  c #FB5D15",
"@  c #FB5E14",
"#  c #FA5C16",
"$  c #FB5C16",
"%  c #F9571C",
"&  c #F9561D",
"*  c #F9551E",
"=  c #F9561E",
"-  c #FA5A19",
";  c #F9581B",
":  c #FA591A",
">  c #FA581B",
",  c #FE6707",
"<  c #FE6B03",
"1  c #FF6C01",
"2  c #FF6D01",
"3  c #FF6E00",
"4  c #FF6F00",
"5  c #FF6E01",
"6  c #FE6A04",
"7  c #FE6806",
"8  c #FE6807",
"9  c #FD6708",
"0  c #FD6609",
"q  c #FD650A",
"w  c #FD640B",
"e  c #FD650B",
"r  c #FC630D",
"t  c #FC610F",
"y  c #FC620E",
"u  c #FC620F",
"i  c #FD640C",
"p  c #FF7000",
"a  c #FF7100",
"s  c #FF7200",
"d  c #FF7300",
"f  c #FF7400",
"g  c #FF7500",
"h  c #FF7600",
"j  c #FF7700",
"k  c #FF7800",
"l  c #FF7900",
"z  c #FF7A00",
"x  c #FF7B00",
"c  c #FF7D00",
"v  c #FF7E00",
"b  c #FF7F00",
"n  c #FC6110",
"m  c #FC6011",
"M  c #F74F26",
"N  c #F74F27",
"B  c #F74E28",
"V  c #F64C2B",
"C  c #F64A2D",
"Z  c #F5482F",
"A  c #F6492E",
"S  c #F75025",
"D  c #F85223",
"F  c #F85420",
"G  c #F54632",
"H  c #F44335",
"J  c #F44336",
"K  c #F44434",
"L  c #F44435",
"P  c #FF8000",
"I  c #FF8100",
"U  c #FF8200",
"Y  c #FF8300",
"T  c #FF8400",
"R  c #FF8500",
"E  c #FF8600",
"W  c #FF8700",
"Q  c #FF8800",
"!  c #FF8900",
"~  c #FF8A00",
"^  c #FF8D00",
"/  c #FF8E00",
"(  c #FF8E02",
")  c #FF9000",
"_  c #FF9200",
"`  c #FF9400",
"'  c #FF9A04",
"]  c #FF9B0A",
"[  c #FF8312",
"{  c #FF8815",
"}  c #FF9F10",
"|  c #FF941C",
" . c #FFA519",
".. c #FF8F22",
"X. c #FF9234",
"o. c #FF9335",
"O. c #FF9D3B",
"+. c #FFAC26",
"@. c #FFA52A",
"#. c #FFAE2A",
"$. c #FFA33D",
"%. c #FFB331",
"&. c #FFB333",
"*. c #FFBB43",
"=. c #FFB248",
"-. c #FFB54D",
";. c #FFB74D",
":. c #FFA554",
">. c #FFA859",
",. c #FFBF5B",
"<. c #FFC055",
"1. c #FFC358",
"2. c #FFCC5D",
"3. c #FFCA60",
"4. c #FFC76C",
"5. c #FFCE69",
"6. c #FFCF69",
"7. c #FFD063",
"8. c #FFDF6A",
"9. c #FFDB70",
"0. c #FFD47E",
"q. c #FFD87E",
"w. c #FFE06A",
"e. c #FFE971",
"r. c #FFEB72",
"t. c #FFEF75",
"y. c #FFF176",
"u. c #FFF178",
"i. c #FFF27A",
"p. c #FFF27C",
"a. c #FFF27F",
"s. c #FFDB84",
"d. c #FFDA89",
"f. c #FFDB8D",
"g. c #FFEA86",
"h. c #FFE38D",
"j. c #FFE08F",
"k. c #FFF080",
"l. c #FFF382",
"z. c #FFF387",
"x. c #FFF389",
"c. c #FFF38A",
"v. c #FFF48F",
"b. c #FFE191",
"n. c #FFE69D",
"m. c #FFF491",
"M. c #FFF492",
"N. c #FFF597",
"B. c #FFF59A",
"V. c #FFF59C",
"C. c #FFF59D",
"Z. c #FFEEAF",
"A. c #FFF6A2",
"S. c #FFF4A5",
"D. c #FFF6A5",
"F. c #FFF6A7",
"G. c #FFF3AB",
"H. c #FFF6A8",
"J. c #FFF7AB",
"K. c #FFF7AC",
"L. c #FFF7B1",
"P. c #FFF7B3",
"I. c #FFF2B4",
"U. c #FFF8B3",
"Y. c #FFF8B7",
"T. c #FFF4B8",
"R. c #FFF8B8",
"E. c #FFF8BA",
"W. c #FFF8BD",
"Q. c #FFF8BE",
"!. c None",
/* pixels */
"!.!.!.!.!.!.!.!.!.!.!.!.!.!.!.!.!.!.!.!.!.!.!.!.!.",
"!.!.!.!.!.!.!.!.!.!.!.J J J J !.!.!.!.!.!.!.!.!.!.",
"!.!.!.!.!.!.!.!.!.!.H L K K !.!.!.!.!.!.!.!.!.!.!.",
"!.!.!.!.!.!.!.!.!.G Z A C C !.!.!.!.!.!.!.!.!.!.!.",
"!.!.!.!.!.!.!.!.C V B M S S !.!.!.!.!.!.!.!.!.!.!.",
"!.!.!.!.!.!.!.!.N D F * & = !.!.!.!.!.!.!.!.!.!.!.",
"!.!.!.!.!.!.!.!.F % - o $ $ $ !.!.!.!.!.!.!.!.!.!.",
"!.!.!.!.!.!.!.!.- + m t y y n !.!.!.!.!.!.!.!.!.!.",
"!.!.!.!.!.!.!.!.  r q , 7 8 9 w !.!.: !.!.!.!.!.!.",
"!.!.!.!.!.!.!.!.e 7 X.1.5 3 2 6 , !.@ > !.!.!.!.!.",
"!.!.!.!.!.!.!.!.6 5 a e.2.d s p 1 !.r + ; !.!.!.!.",
"!.!.!.!.!.!.!.!.4 d h 8.y.;.j g s 3 8 u o !.!.!.!.",
"!.!.!.!.o u !.!.f k x w.y.r.[ z h s 2 0   !.!.!.!.",
"!.!.!.!.. 0 2 d k c { t.y.u.=.b x h a < r O !.!.!.",
"!.!.!.# y 6 a j c U <.i.i.p.7.T P x g 4 9 n !.!.!.",
"!.!.!.X q 2 g x I $.k.a.a.l.9.! R b l s < i !.!.!.",
"!.!.!.u 7 a k b ..g.c.z.z.x.6.| O.Y c g 5 , !.!.!.",
"!.!.!.w < d x U 0.N.M.v.v.m.-.4.d.W P k a !.!.!.!.",
"!.!.!.!.5 h v o.H.A.C.B.B.V.h.S.G.~ Y x d !.!.!.!.",
"!.!.!.!.p k P >.U.K.H.D.D.F.J.L.E.( E v !.!.!.!.!.",
"!.!.!.!.!.z U :.W.R.U.L.L.P.Y.W.Z.) Q P !.!.!.!.!.",
"!.!.!.!.!.!.T ^ f.I.Q.Q.Q.Q.T.n.,._ ~ !.!.!.!.!.!.",
"!.!.!.!.!.!.!./ @.3.q.j.b.s.5.*.] ` !.!.!.!.!.!.!.",
"!.!.!.!.!.!.!.!.!.} +.%.&.#. .' !.!.!.!.!.!.!.!.!.",
"!.!.!.!.!.!.!.!.!.!.!.!.!.!.!.!.!.!.!.!.!.!.!.!.!."
};
