/* XPM */
static char *result[] = {
/* columns rows colors chars-per-pixel */
"25 25 57 1 ",
"  c #F1491F",
". c #F24E1E",
"X c #F24F1E",
"o c #F3571B",
"O c #F2521C",
"+ c #F2531C",
"@ c #F35A1A",
"# c #F35C1A",
"$ c #F45F19",
"% c #F56917",
"& c #F56B17",
"* c #F56C17",
"= c #F46418",
"- c #F46618",
"; c #F67614",
": c #F67913",
"> c #F77B13",
", c #F77D12",
"< c #F9910C",
"1 c #FA990B",
"2 c #FB9E0A",
"3 c #F88211",
"4 c #F88711",
"5 c #FCA607",
"6 c #FCAA06",
"7 c #FDAB06",
"8 c #FDAE06",
"9 c #FBA209",
"0 c #FDB205",
"q c #FDB006",
"w c #FDB405",
"e c #FEB505",
"r c #FEBC03",
"t c #FFBF03",
"y c #FEBA04",
"u c #FEBF19",
"i c #FFC003",
"p c #FFC103",
"a c #FED123",
"s c #FED62D",
"d c #FED731",
"f c #FED935",
"g c #FEDF41",
"h c #FBD958",
"j c #FDE34B",
"k c #FDEC5C",
"l c #FDEF64",
"z c #FDF56F",
"x c #FAE073",
"c c #FBED7A",
"v c #FCF774",
"b c #FCFA7A",
"n c #FCFB7C",
"m c #FCFD7F",
"M c #FCFE82",
"N c #FCFF84",
"B c None",
/* pixels */
"BBBBBBBBBBBBBBBBBBBBBBBBB",
"BBBBBBBBBBBBBBBBBBBBBBBBB",
"BBBBBBBBBBBB BBBBBBBBBBBB",
"BBBBBBBBBBB  BBBBBBBBBBBB",
"BBBBBBBBBB   BBBBBBBBBBBB",
"BBBBBBBBBB    BBBBBBBBBBB",
"BBBBBBBBB     BBBBBBBBBBB",
"BBBBBBBB        BBBBBBBBB",
"BBBBB BB   *X    BBBBBBBB",
"BBBBBBBB   6q+   BBBBBBBB",
"BBBBBBB    ep2    BBBBBBB",
"BBBBBBB   @ppp->.  BBBBBB",
"BBBBB     ,pppyy=9+ BBBBB",
"BBBBB     9ppppp&@O BBBBB",
"BBBBB   O$tppppp>    BBBB",
"BBBBB  ><5pppppp3=   BBBB",
"BBBBB  qppppuhpp70   BBBB",
"BBBB  oppppfbmappp#  BBBB",
"BBBB  %pppdMNNngpp*  BBBB",
"BBBBB -pppvNNNNMfp: BBBBB",
"BBBBB OipsNNNNNNkp& BBBBB",
"BBBBBB 8pgNNNNNNlw BBBBBB",
"BBBBBBB;idNNNNNNj;BBBBBBB",
"BBBBBBBB1rzNNNNx4BBBBBBBB",
"BBBBBBBBBBBBccBBBBBBBBBBB"
};
