/* XPM */
static char *result[] = {
/* columns rows colors chars-per-pixel */
"32 32 226 2 ",
"   c #FB5F12",
".  c #FB5E13",
"X  c #FA5B17",
"o  c #FB5D14",
"O  c #FB5D15",
"+  c #FB5E14",
"@  c #FA5C16",
"#  c #FB5C16",
"$  c #FA5C17",
"%  c #F9571C",
"&  c #F9561D",
"*  c #F9571D",
"=  c #F9551F",
"-  c #FA5B18",
";  c #F9581B",
":  c #FA591A",
">  c #FA581B",
",  c #F9581C",
"<  c #FF6B02",
"1  c #FE6A03",
"2  c #FE6B03",
"3  c #FF6B03",
"4  c #FF6C01",
"5  c #FF6D01",
"6  c #FF6E00",
"7  c #FF6F00",
"8  c #FF6E01",
"9  c #FF6C02",
"0  c #FE6905",
"q  c #FE6A04",
"w  c #FE6A05",
"e  c #FE6806",
"r  c #FE6807",
"t  c #FD6608",
"y  c #FD6708",
"u  c #FD6609",
"i  c #FD650A",
"p  c #FD640B",
"a  c #FC630C",
"s  c #FC630D",
"d  c #FC610F",
"f  c #FC620E",
"g  c #FC620F",
"h  c #FD640C",
"j  c #FF7000",
"k  c #FF7100",
"l  c #FF7200",
"z  c #FF7300",
"x  c #FF7400",
"c  c #FF7500",
"v  c #FF7600",
"b  c #FF7700",
"n  c #FF7800",
"m  c #FF7900",
"M  c #FF7A00",
"N  c #FF7B00",
"B  c #FF7C00",
"V  c #FF7D00",
"C  c #FF7E00",
"Z  c #FF7F00",
"A  c #FB6011",
"S  c #FC6010",
"D  c #FC6110",
"F  c #FC6011",
"G  c #FF7D1E",
"H  c #F74F27",
"J  c #F64B2B",
"K  c #F74D29",
"L  c #F74E28",
"P  c #F64C2B",
"I  c #F64A2D",
"U  c #F5482F",
"Y  c #F6492E",
"T  c #F75026",
"R  c #F85321",
"E  c #F85322",
"W  c #F85223",
"Q  c #F95420",
"!  c #F85421",
"~  c #F54731",
"^  c #F54533",
"/  c #F54633",
"(  c #F44336",
")  c #F44534",
"_  c #F44435",
"`  c #FF8000",
"'  c #FF8100",
"]  c #FF8200",
"[  c #FF8300",
"{  c #FF8400",
"}  c #FF8500",
"|  c #FF8600",
" . c #FF8700",
".. c #FF8800",
"X. c #FF8900",
"o. c #FF8A00",
"O. c #FF8B00",
"+. c DarkOrange",
"@. c #FF8D00",
"#. c #FF8E00",
"$. c #FF8A0C",
"%. c #FF9000",
"&. c #FF9100",
"*. c #FF9200",
"=. c #FF9300",
"-. c #FF9500",
";. c #FF9800",
":. c #FF9902",
">. c #FF9A03",
",. c #FF9C07",
"<. c #FF8916",
"1. c #FF8E1D",
"2. c #FF8F1F",
"3. c #FF9B1C",
"4. c #FFA110",
"5. c #FFA211",
"6. c #FFA015",
"7. c #FFA415",
"8. c #FFA416",
"9. c #FFA518",
"0. c #FFA81F",
"q. c #FF8E22",
"w. c #FF8B25",
"e. c #FE852A",
"r. c #FE872C",
"t. c #FF9429",
"y. c #FF9D3B",
"u. c #FF9F3B",
"i. c #FFA734",
"p. c #FFA138",
"a. c #FFA83F",
"s. c #FFB536",
"d. c #FFB737",
"f. c #FFB338",
"g. c #FFB146",
"h. c #FFBE53",
"j. c #FFB55F",
"k. c #FFBC69",
"l. c #FFC049",
"z. c #FFC04A",
"x. c #FFC155",
"c. c #FFC655",
"v. c #FFC859",
"b. c #FFC95E",
"n. c #FFCD5D",
"m. c #FFCE5E",
"M. c #FFD05F",
"N. c #FFCB61",
"B. c #FFC56F",
"V. c #FFCE69",
"C. c #FFDA66",
"Z. c #FFD96A",
"A. c #FFDE69",
"S. c #FFC970",
"D. c #FFDA7C",
"F. c #FFD97E",
"G. c #FFD87F",
"H. c #FFE377",
"J. c #FFEB72",
"K. c #FFEC72",
"L. c #FFEE74",
"P. c #FFEE75",
"I. c #FFE279",
"U. c #FFEF7E",
"Y. c #FFF076",
"T. c #FFF176",
"R. c #FFF177",
"E. c #FFF179",
"W. c #FFF27A",
"Q. c #FFF27C",
"!. c #FFF27D",
"~. c #FFF27E",
"^. c #FFCE80",
"/. c #FFD980",
"(. c #FFDB82",
"). c #FFDA90",
"_. c #FFE980",
"`. c #FFF280",
"'. c #FFF383",
"]. c #FFF384",
"[. c #FFF386",
"{. c #FFF389",
"}. c #FFF38A",
"|. c #FFF48C",
" X c #FFF48F",
".X c #FFE496",
"XX c #FFE596",
"oX c #FFE497",
"OX c #FFED9B",
"+X c #FFF490",
"@X c #FFF492",
"#X c #FFF596",
"$X c #FFF598",
"%X c #FFF599",
"&X c #FFF59B",
"*X c #FFF59C",
"=X c #FFF69F",
"-X c #FFEAA4",
";X c #FFE8A7",
":X c #FFECA8",
">X c #FFECA9",
",X c #FFEDAA",
"<X c #FFE8AD",
"1X c #FFF4A0",
"2X c #FFF6A1",
"3X c #FFF6A3",
"4X c #FFF6A7",
"5X c #FFF7A9",
"6X c #FFF7AA",
"7X c #FFF7AB",
"8X c #FFF7AC",
"9X c #FFF7AF",
"0X c #FFF7B1",
"qX c #FFF7B2",
"wX c #FFF2B7",
"eX c #FFF8B3",
"rX c #FFF8B4",
"tX c #FFF8B6",
"yX c #FFF5BB",
"uX c #FFF6BC",
"iX c #FFF8B9",
"pX c #FFF8BA",
"aX c #FFF8BD",
"sX c #FFF8BE",
"dX c #FFF8BF",
"fX c None",
/* pixels */
"fXfXfXfXfXfXfXfXfXfXfXfXfXfXfXfXfXfXfXfXfXfXfXfXfXfXfXfXfXfXfXfX",
"fXfXfXfXfXfXfXfXfXfXfXfXfX( ( ( fXfXfXfXfXfXfXfXfXfXfXfXfXfXfXfX",
"fXfXfXfXfXfXfXfXfXfXfXfXfXfX( ( ( ( ( fXfXfXfXfXfXfXfXfXfXfXfXfX",
"fXfXfXfXfXfXfXfXfXfXfXfXfXfX^ / ^ ) _ ( fXfXfXfXfXfXfXfXfXfXfXfX",
"fXfXfXfXfXfXfXfXfXfXfXfXfXfXI I I Y U ~ / fXfXfXfXfXfXfXfXfXfXfX",
"fXfXfXfXfXfXfXfXfXfXfXfXfXfXH H H L K J Y fXfXfXfXfXfXfXfXfXfXfX",
"fXfXfXfXfXfXfXfXfXfXfXfXfXfXR ! R E W T L P fXfXfXfXfXfXfXfXfXfX",
"fXfXfXfXfXfXfXfXfXfXfXfXfXfX; > > % & Q W T fXfXfXfXfXfXfXfXfXfX",
"fXfXfXfXfXfXfXfXfXfXfXfXfX# O O O # - : * ! fXfXfXfXfXfXfXfXfXfX",
"fXfXfXfXfXfXfXfXfXfXfXfXF S d g d D   o X > fXfXfXfXfXfXfXfXfXfX",
"fXfXfXfXfXfXfX= , fXfXf a i u u u i h f   # fXfXfXfXfXfXfXfXfXfX",
"fXfXfXfXfXfXfX; $ fXfXu e q 2 3 2 e.r.u h S fXfXfXfXfXfXfXfXfXfX",
"fXfXfXfXfXfX% @ F fXr q 4 6 7 7 y.K.G 2 r i fXfXfXfXfXfXfXfXfXfX",
"fXfXfXfXfX* - A h fX9 6 k l z u.L.A.k 7 4 w fXfXfXfXfXfXfXfXfXfX",
"fXfXfXfXfX: . s r fXj l c b w.J.T.m.c z j 6 fXfXfXfXfXfXfXfXfXfX",
"fXfXfXfXfX# g y 9 j z v m N M.T.T.n.m b x k fXfXf o fXfXfXfXfXfX",
"fXfXfXfXX   i 1 7 z b M V q.Y.T.T.C.V N n x j < u S X fXfXfXfXfX",
"fXfXfXfXo f e 8 l b N C ' h.E.R.T.P.<.Z N n z 7 0 h + fXfXfXfXfX",
"fXfXfXfXF i < k v M C ] } Z.Q.W.W.W.x.[ Z N v l 4 t F X fXfXfXfX",
"fXfXfXfXf e 6 x m C ] | X.H.`.~.!.~.U.p.[ C M c 7 0 s o fXfXfXfX",
"fXfXfXfXi 2 k v B ' } X.@.I.[.].'.].[._.2.] V b l 9 i   fXfXfXfX",
"fXfXfXfXfX5 z m Z { 1.S.&.V.|.}.{.}.|. XD.} Z M x 6 r g fXfXfXfX",
"fXfXfXfXfX7 c N '  .k.1Xa.g.@X+X+X+X@X#X*Xj.] B v j q p fXfXfXfX",
"fXfXfXfXfXk n C { X.).5XOXG.&X%X$X%X&X=X3XXX} Z n l 9 fXfXfXfXfX",
"fXfXfXfXfXfXm ` | +.;X0X7X4X3X2X2X2X3X4X7XqX$.' M x 5 fXfXfXfXfX",
"fXfXfXfXfXfXN ' ..#.<XpXrX9X8X6X5X6X8X9XrXpXt.] B c fXfXfXfXfXfX",
"fXfXfXfXfXfXfX[ o.%.^.yXsXiXtXrXeXrXtXiXsXwXo.{ V b fXfXfXfXfXfX",
"fXfXfXfXfXfXfXfXO.*.i.(.,XuXdXsXaXsXdXuX>XB.+.} Z fXfXfXfXfXfXfX",
"fXfXfXfXfXfXfXfXfX=.;.f.N./.oX-X:X-X.XF.b.3.@. .fXfXfXfXfXfXfXfX",
"fXfXfXfXfXfXfXfXfXfX;.:.0.d.z.c.v.c.l.s.6.-.fXfXfXfXfXfXfXfXfXfX",
"fXfXfXfXfXfXfXfXfXfXfXfXfX,.5.8.9.7.4.>.fXfXfXfXfXfXfXfXfXfXfXfX",
"fXfXfXfXfXfXfXfXfXfXfXfXfXfXfXfXfXfXfXfXfXfXfXfXfXfXfXfXfXfXfXfX"
};
