/* XPM */
static char *result[] = {
/* columns rows colors chars-per-pixel */
"50 50 112 2 ",
"   c #953524",
".  c #A23C28",
"X  c #FC1D57",
"o  c #FD1D57",
"O  c #FE1D57",
"+  c #FD1E57",
"@  c #FE1E57",
"#  c #FD1E58",
"$  c #FD1F58",
"%  c #FD1F59",
"&  c #FE1E58",
"*  c #FE1E59",
"=  c #FE1F59",
"-  c #FE1F5A",
";  c #E22B5A",
":  c #FC2158",
">  c #FD2159",
",  c #FC2259",
"<  c #FD2259",
"1  c #FD215B",
"2  c #FE205A",
"3  c #FE205B",
"4  c #FE225B",
"5  c #FC2459",
"6  c #FC245A",
"7  c #FC275B",
"8  c #FD235C",
"9  c #FE225C",
"0  c #FE225D",
"q  c #FE235D",
"w  c #FE235E",
"e  c #FD255E",
"r  c #FE255E",
"t  c #FE265F",
"y  c #FD2A5D",
"u  c #FB2E5E",
"i  c #FC2C5E",
"p  c #FD2E5F",
"a  c #FD2660",
"s  c #FD2761",
"d  c #FE2660",
"f  c #FE2760",
"g  c #FE2761",
"h  c #FE2862",
"j  c #FE2963",
"k  c #FE2A65",
"l  c #FE2B65",
"z  c #FD2C67",
"x  c #FE2C66",
"c  c #FF2C66",
"v  c #FE2D67",
"b  c #FF2D67",
"n  c #FD2E67",
"m  c #FE2D68",
"M  c #FF2D68",
"N  c #FD2E69",
"B  c #FE2E68",
"V  c #FF2E68",
"C  c #FF2E69",
"Z  c #FE2F69",
"A  c #FB3061",
"S  c #FB3260",
"D  c #FB3362",
"F  c #FC3161",
"G  c #F83167",
"H  c #FB3565",
"J  c #FB3764",
"K  c #FB3864",
"L  c #FB3865",
"P  c #FB3B66",
"I  c #FB3C66",
"U  c #FB3168",
"Y  c #FE316A",
"T  c #FD326B",
"R  c #FD336B",
"E  c #FC366C",
"W  c #F93F68",
"Q  c #FB3E68",
"!  c #FA3C6B",
"~  c #FD386C",
"^  c #FC386D",
"/  c #A24C4C",
"(  c #B7604F",
")  c #B96150",
"_  c #BA6150",
"`  c #BA6250",
"'  c #B06558",
"]  c #FB4167",
"[  c #FC4266",
"{  c #FA4069",
"}  c #FA436B",
"|  c #FB406C",
" . c #FB426C",
".. c #FB436F",
"X. c #FA496F",
"o. c #FB4A6E",
"O. c #FA4B6F",
"+. c #FC486D",
"@. c #FC4174",
"#. c #FC4274",
"$. c #FB4674",
"%. c #F84970",
"&. c #F94970",
"*. c #FB4E71",
"=. c #FD4874",
"-. c #FC4B74",
";. c #FC4B77",
":. c #FB4C77",
">. c #FD4E75",
",. c #FD5179",
"<. c #FE527A",
"1. c None",
/* pixels */
"1.1.1.1.1.1.1.1.1.1.1.1.1.1.1.1.1.1.1.1.1.1.1.1.1.1.1.1.1.1.1.1.1.1.1.1.1.1.1.1.1.1.1.1.1.1.1.1.1.1.",
"1.1.1.1.1.1.1.1.1.1.1.1.1.1.1.1.1.1.1.1.1.1.1.1.1.1.1.1.1.1.1.1.1.1.1.1.1.1.1.1.1.1.1.1.1.1.1.1.1.1.",
"1.1.1.1.1.1.1.1.1.1.1.1.1.1.1.1.1.1.1.1.1.1.1.1.1.1.1.1.1.1.1.1.1.1.1.1.1.1.1.1.1.1.1.1.1.1.1.1.1.1.",
"1.1.1.1.1.1.1.1.1.1.1.1.1.1.1.1.1.1.1.1.1.1.1.1.1.1.1.1.1.1.1.1.1.1.1.1.1.1.1.1.1.1.1.1.1.1.1.1.1.1.",
"1.1.1.1.1.1.1.1.1.1.1.1.1.1.1.1.1.1.1.1.1.1.1.1.1.1.1.1.1.1.1.1.1.1.1.1.1.1.1.1.1.1.1.1.1.1.1.1.1.1.",
"1.1.1.1.1.1.1.1.1.1.1.1.1.1.1.1.1.1.1.1.1.1.1.1.1.1.1.1.1.1.1.1.1.1.1.1.1.1.1.1.1.1.1.1.1.1.1.1.1.1.",
"1.1.1.1.1.1.1.1.1.1.1.1.1.1.1.1.1.1.1.1.1.1.1.1.1.1.1.1.1.1.1.1.1.1.1.1.1.1.1.1.1.1.1.1.1.1.1.1.1.1.",
"1.1.1.1.1.1.1.1.1.1.1.1.1.1.1.1.1.1.1.1.1.:.#.^ T N B B R ~ ;.1.1.1.1.1.1.1.1.1.1.1.1.1.1.1.1.1.1.1.",
"1.1.1.1.1.1.1.1.1.1.1.1.1.1.1.1.1.} L 7 % & 2 w l V V V V V V Y $.1.1.1.1.1.1.1.1.1.1.1.1.1.1.1.1.1.",
"1.1.1.1.1.n U | ] ! -...J +.A 5 + O O O O O O O & h V V V V V V V E 1.1.1.1.1.1.1.1.1.1.1.1.1.1.1.1.",
"1.1.1.1.1.B s O O O O O O O O O O O O O O O O O O & x V V V V b g 9 1  .1.1.1.1.1.1.1.1.1.1.1.1.1.1.",
"1.1.1.1.1.m 2 O O O O O O O O O O O O O O O O O O O d V V V M q O O O o P 1.1.1.1.1.1.1.1.1.1.1.1.1.",
"1.1.1.1.1.b & O O O O O O O O O O O O O O O O O O O 9 V V V h O O O O O O u 1.1.1.1.1.1.1.1.1.1.1.1.",
"1.1.1.1.1.v & O O O O O O O O O O O O O O O O O O O 3 V V C d O O O O O O O X Q 1.1.1.1.1.1.1.1.1.1.",
"1.1.1.1.1.v & O O O O O O O O O O O O O O O O O O O 4 V V V j O O O O O O O O O O y D *.1.1.1.1.1.1.",
"1.1.1.1.1.B - O O O O O O O O O O O O O O O O O O O t V V V b = O O O O O O O O O O O , %.1.1.1.1.1.",
"1.1.1.1.1.B 0 O O O O O O O O O O O O O O O O O O # x V V V V h O O O O O O O O @ o S 1.1.1.1.1.1.1.",
"1.1.1.1.1.V f O O O O O O O O O O O O O O O O O @ a V V V V V v 3 O O O O O O o i &.1.1.1.1.1.1.1.1.",
"1.1.1.1.1.C l O O O O O O O O O O O O O O O @ @ 8 z V V V V V V l $ O O O O K X.1.1.1.1.1.1.1.1.1.1.",
"1.1.1.1.1.V V 2 O O O O O O O O O O O O > Q o.1.1.1.1.1.1.@.=.,.<.>.[ H 1.1.1.1.1.1.1.1.1.1.1.1.1.1.",
"1.1.1.1.1.V V r O O O O O O O O O O : { 1.1.1.1.1.1.1.1.1.1.1.1.1.1.1.1.1.1.1.1.1.1.1.1.1.1.1.1.1.1.",
"1.1.1.1.1.V V c * O O O O O O o < I 1.1.1.1.1.1.1.1.1.1.1.1.1.1.1.1.1.1.1.1.1.1.1.1.1.1.1.1.1.1.1.1.",
"1.1.1.1.1.B V V j & O O O O 6 W 1.1.1.1.1.1.1.1.1.1.1.1.1.1.1.1.1.1.1.1.1.1.1.1.1.1.1.1.1.1.1.1.1.1.",
"1.1.1.1.1.; G Z b k e p F O.1.1.1.1.1.1.1.1.1.1.1.1.1.1.1.1.1.1.1.1.1.1.1.1.1.1.1.1.1.1.1.1.1.1.1.1.",
"1.1.1.1.1.  / 1.1.1.1.1.1.1.1.1.1.1.1.1.1.1.1.1.1.1.1.1.1.1.1.1.1.1.1.1.1.1.1.1.1.1.1.1.1.1.1.1.1.1.",
"1.1.1.1.1.. ( 1.1.1.1.1.1.1.1.1.1.1.1.1.1.1.1.1.1.1.1.1.1.1.1.1.1.1.1.1.1.1.1.1.1.1.1.1.1.1.1.1.1.1.",
"1.1.1.1.1.. _ 1.1.1.1.1.1.1.1.1.1.1.1.1.1.1.1.1.1.1.1.1.1.1.1.1.1.1.1.1.1.1.1.1.1.1.1.1.1.1.1.1.1.1.",
"1.1.1.1.1.. _ 1.1.1.1.1.1.1.1.1.1.1.1.1.1.1.1.1.1.1.1.1.1.1.1.1.1.1.1.1.1.1.1.1.1.1.1.1.1.1.1.1.1.1.",
"1.1.1.1.1.. _ 1.1.1.1.1.1.1.1.1.1.1.1.1.1.1.1.1.1.1.1.1.1.1.1.1.1.1.1.1.1.1.1.1.1.1.1.1.1.1.1.1.1.1.",
"1.1.1.1.1.. _ 1.1.1.1.1.1.1.1.1.1.1.1.1.1.1.1.1.1.1.1.1.1.1.1.1.1.1.1.1.1.1.1.1.1.1.1.1.1.1.1.1.1.1.",
"1.1.1.1.1.. _ 1.1.1.1.1.1.1.1.1.1.1.1.1.1.1.1.1.1.1.1.1.1.1.1.1.1.1.1.1.1.1.1.1.1.1.1.1.1.1.1.1.1.1.",
"1.1.1.1.1.. _ 1.1.1.1.1.1.1.1.1.1.1.1.1.1.1.1.1.1.1.1.1.1.1.1.1.1.1.1.1.1.1.1.1.1.1.1.1.1.1.1.1.1.1.",
"1.1.1.1.1.. _ 1.1.1.1.1.1.1.1.1.1.1.1.1.1.1.1.1.1.1.1.1.1.1.1.1.1.1.1.1.1.1.1.1.1.1.1.1.1.1.1.1.1.1.",
"1.1.1.1.1.. _ 1.1.1.1.1.1.1.1.1.1.1.1.1.1.1.1.1.1.1.1.1.1.1.1.1.1.1.1.1.1.1.1.1.1.1.1.1.1.1.1.1.1.1.",
"1.1.1.1.1.. _ 1.1.1.1.1.1.1.1.1.1.1.1.1.1.1.1.1.1.1.1.1.1.1.1.1.1.1.1.1.1.1.1.1.1.1.1.1.1.1.1.1.1.1.",
"1.1.1.1.1.. _ 1.1.1.1.1.1.1.1.1.1.1.1.1.1.1.1.1.1.1.1.1.1.1.1.1.1.1.1.1.1.1.1.1.1.1.1.1.1.1.1.1.1.1.",
"1.1.1.1.1.. _ 1.1.1.1.1.1.1.1.1.1.1.1.1.1.1.1.1.1.1.1.1.1.1.1.1.1.1.1.1.1.1.1.1.1.1.1.1.1.1.1.1.1.1.",
"1.1.1.1.1.. _ 1.1.1.1.1.1.1.1.1.1.1.1.1.1.1.1.1.1.1.1.1.1.1.1.1.1.1.1.1.1.1.1.1.1.1.1.1.1.1.1.1.1.1.",
"1.1.1.1.1.. _ 1.1.1.1.1.1.1.1.1.1.1.1.1.1.1.1.1.1.1.1.1.1.1.1.1.1.1.1.1.1.1.1.1.1.1.1.1.1.1.1.1.1.1.",
"1.1.1.1.1.. _ 1.1.1.1.1.1.1.1.1.1.1.1.1.1.1.1.1.1.1.1.1.1.1.1.1.1.1.1.1.1.1.1.1.1.1.1.1.1.1.1.1.1.1.",
"1.1.1.1.1.. _ 1.1.1.1.1.1.1.1.1.1.1.1.1.1.1.1.1.1.1.1.1.1.1.1.1.1.1.1.1.1.1.1.1.1.1.1.1.1.1.1.1.1.1.",
"1.1.1.1.1.. _ 1.1.1.1.1.1.1.1.1.1.1.1.1.1.1.1.1.1.1.1.1.1.1.1.1.1.1.1.1.1.1.1.1.1.1.1.1.1.1.1.1.1.1.",
"1.1.1.1.1.. _ 1.1.1.1.1.1.1.1.1.1.1.1.1.1.1.1.1.1.1.1.1.1.1.1.1.1.1.1.1.1.1.1.1.1.1.1.1.1.1.1.1.1.1.",
"1.1.1.1.1.. _ 1.1.1.1.1.1.1.1.1.1.1.1.1.1.1.1.1.1.1.1.1.1.1.1.1.1.1.1.1.1.1.1.1.1.1.1.1.1.1.1.1.1.1.",
"1.1.1.1.1.. ` 1.1.1.1.1.1.1.1.1.1.1.1.1.1.1.1.1.1.1.1.1.1.1.1.1.1.1.1.1.1.1.1.1.1.1.1.1.1.1.1.1.1.1.",
"1.1.1.1.1.. ) 1.1.1.1.1.1.1.1.1.1.1.1.1.1.1.1.1.1.1.1.1.1.1.1.1.1.1.1.1.1.1.1.1.1.1.1.1.1.1.1.1.1.1.",
"1.1.1.1.1.' 1.1.1.1.1.1.1.1.1.1.1.1.1.1.1.1.1.1.1.1.1.1.1.1.1.1.1.1.1.1.1.1.1.1.1.1.1.1.1.1.1.1.1.1.",
"1.1.1.1.1.1.1.1.1.1.1.1.1.1.1.1.1.1.1.1.1.1.1.1.1.1.1.1.1.1.1.1.1.1.1.1.1.1.1.1.1.1.1.1.1.1.1.1.1.1.",
"1.1.1.1.1.1.1.1.1.1.1.1.1.1.1.1.1.1.1.1.1.1.1.1.1.1.1.1.1.1.1.1.1.1.1.1.1.1.1.1.1.1.1.1.1.1.1.1.1.1.",
"1.1.1.1.1.1.1.1.1.1.1.1.1.1.1.1.1.1.1.1.1.1.1.1.1.1.1.1.1.1.1.1.1.1.1.1.1.1.1.1.1.1.1.1.1.1.1.1.1.1."
};
