/* XPM */
static char *result[] = {
/* columns rows colors chars-per-pixel */
"50 50 132 2 ",
"   c #A33F2B",
".  c #A32B36",
"X  c #A9412D",
"o  c #A9422D",
"O  c #AA422E",
"+  c #FC1D57",
"@  c #FD1D57",
"#  c #FE1D57",
"$  c #FD1E57",
"%  c #FD1F57",
"&  c #FD1E58",
"*  c #FC1F58",
"=  c #FD1F58",
"-  c #FD1F59",
";  c #FE1E58",
":  c #FE1E59",
">  c #FE1F59",
",  c #FE1F5A",
"<  c #FB2159",
"1  c #FD2058",
"2  c #FD2059",
"3  c #FD2159",
"4  c #FD2358",
"5  c #FD215B",
"6  c #FE205A",
"7  c #FE215A",
"8  c #FE215B",
"9  c #FB265B",
"0  c #FC265B",
"q  c #FE225C",
"w  c #FE235C",
"e  c #FE225D",
"r  c #FE235D",
"t  c #FE235E",
"y  c #FE245D",
"u  c #FD275D",
"i  c #FE255E",
"p  c #FF255E",
"a  c #FE255F",
"s  c #FD295C",
"d  c #FC2D5E",
"f  c #FD2E5E",
"g  c #FC2E5F",
"h  c #FD2761",
"j  c #FE2660",
"k  c #FE2661",
"l  c #FE2762",
"z  c #FE2861",
"x  c #FD2B60",
"c  c #FE2862",
"v  c #FE2963",
"b  c #FD2A63",
"n  c #FC2D63",
"m  c #FE2B64",
"M  c #FE2B65",
"N  c #FB2D66",
"B  c #FE2C65",
"V  c #FE2C66",
"C  c #FF2C66",
"Z  c #FE2C67",
"A  c #FE2D67",
"S  c #FF2D67",
"D  c #FE2E67",
"F  c #FF2D68",
"G  c #FE2E68",
"H  c #FF2E68",
"J  c #FE2F68",
"K  c #FB3061",
"L  c #FB3161",
"P  c #FC3261",
"I  c #FC3362",
"U  c #FB3764",
"Y  c #FC3764",
"T  c #F93D67",
"R  c #FC3D64",
"E  c #FE3169",
"W  c #FD306A",
"Q  c #FC376D",
"!  c #FB3A68",
"~  c #FB3F68",
"^  c #FA3F69",
"/  c #FA3F6A",
"(  c #FB3E71",
")  c #FD3C70",
"_  c #FC3D70",
"`  c #FC3D71",
"'  c #FC3E72",
"]  c #9F615B",
"[  c #A3625B",
"{  c #A4625B",
"}  c #A4635B",
"|  c #DF5F71",
" . c #E54468",
".. c #FA426A",
"X. c #FA446A",
"o. c #FB446B",
"O. c #FA436C",
"+. c #FB486F",
"@. c #FA496F",
"#. c #FB496F",
"$. c #FD4B6E",
"%. c #FD4071",
"&. c #FC4072",
"*. c #FD4172",
"=. c #FC4471",
"-. c #FC4473",
";. c #FA4576",
":. c #FC4474",
">. c #F94A70",
",. c #FC4C71",
"<. c #FB4975",
"1. c #FC4C76",
"2. c #FB4F78",
"3. c #FD4E79",
"4. c #F35D72",
"5. c #F45D73",
"6. c #F55C74",
"7. c #F65C75",
"8. c #F75D75",
"9. c #F85D76",
"0. c #F95C77",
"q. c #F85D77",
"w. c #FA5C77",
"e. c #FD5078",
"r. c #FC537B",
"t. c #FC527E",
"y. c #FD547C",
"u. c #FC557C",
"i. c #FD547D",
"p. c #FD557D",
"a. c #FA607B",
"s. c None",
/* pixels */
"s.s.s.s.s.s.s.s.s.s.s.s.s.s.s.s.s.s.s.s.s.s.s.s.s.s.s.s.s.s.s.s.s.s.s.s.s.s.s.s.s.s.s.s.s.s.s.s.s.s.",
"s.s.s.s.s.s.s.s.s.s.s.s.s.s.s.s.s.s.s.s.s.s.s.s.s.s.s.s.s.s.s.s.s.s.s.s.s.s.s.s.s.s.s.s.s.s.s.s.s.s.",
"s.s.s.s.s.s.s.s.s.s.s.s.s.s.s.s.s.s.s.s.s.s.s.s.s.s.s.s.s.s.s.s.s.s.s.s.s.s.s.s.s.s.s.s.s.s.s.s.s.s.",
"s.s.s.s.s.s.s.s.s.s.s.s.s.s.s.s.s.s.s.s.s.s.s.s.s.s.s.s.s.s.s.s.s.s.s.s.s.s.s.s.s.s.s.s.s.s.s.s.s.s.",
"s.s.s.s.s.s.s.s.s.s.s.s.s.s.s.s.s.s.s.s.s.s.s.s.s.s.s.s.s.s.s.s.s.s.s.s.s.s.s.s.s.s.s.s.s.s.s.s.s.s.",
"s.s.s.s.s.s.s.s.s.s.s.s.s.s.s.s.s.s.s.s.s.s.s.s.s.s.s.s.s.s.s.s.s.s.s.s.s.s.s.s.s.s.s.s.s.s.s.s.s.s.",
"s.s.s.s.s.s.s.s.s.s.s.s.s.s.s.s.s.s.s.s.s.s.s.s.s.s.s.s.s.s.s.s.s.s.s.s.s.s.s.s.s.s.s.s.s.s.s.s.s.s.",
"s.s.s.s.s.s.s.s.s.s.s.s.s.s.s.s.s.s.s.s.s.s.s.s.s.s.s.s.s.s.s.s.s.s.s.s.s.s.s.s.s.s.s.s.s.s.s.s.s.s.",
"s.s.s.s.s.s.s.;.1.p.y.i.u.<.s.s.s.s.s.s.s.s.s.s.s.s.s.s.s.s.s.s.s.s.s.s.s.s.s.s.s.s.s.s.s.s.s.s.s.s.",
"s.s.s.s.a.b H H H H H H H H B r s U +.s.s.s.s.s.s.s.s.s.s.s.s.s.s.s.s.s.s.s.s.s.s.s.s.s.s.s.s.s.s.s.",
"s.s.s.s.w.i H H H H H H H M > # # # @ 3 Y s.s.s.s.s.s.s.s.s.s.o.g x V H H E &.s.s.s.s.s.s.s.s.s.s.s.",
"s.s.s.s.w.5 H H H H H H S 8 # # # # # # # $ P @.s.s.s.s.#.I % @ # # 6 C H H G J -.s.s.s.s.s.s.s.s.s.",
"s.s.s.s.0.- S H H H H H i # # # # # # # # # # # % 4 4 = # # # # # # # a H H H H G Q s.s.s.s.s.s.s.s.",
"s.s.s.s.q.; B H H H H M $ # # # # # # # # # # # # # # # # # # # # # # 6 D H H H v j n s.s.s.s.s.s.s.",
"s.s.s.s.9.# v H H H H p # # # # # # # # # # # # # # # # # # # # # # # 6 F H H M # # # + O.s.s.s.s.s.",
"s.s.s.s.9.@ j H H H H 8 # # # # # # # # # # # # # # # # # # # # # # # w H H H c # # # # @ / s.s.s.s.",
"s.s.s.s.8.# t H H H H 6 # # # # # # # # # # # # # # # # # # # # # # # z G H H v # # # # @ @ >.s.s.s.",
"s.s.s.s.7.# 8 H H H G q # # # # # # # # # # # # # # # # # # # # # # u %.r.( ( 2.,.K f & # @ < s.s.s.",
"s.s.s.s.7.# , S H H H h # # # # # # # # # # # # # # # # # # # # 1 T s.s.s.s.s.s.s.s.s.s.s.^ d 9 s.s.",
"s.s.s.s.6.# 6 H H H H Z : # # # # # # # # # # # # # # # # # @ L s.s.s.s.s.s.s.s.s.s.s.s.s.s.s.s.s.s.",
"s.s.s.s.6.# y H H H H H k # # # # # # # # # # # # # # # # * X.s.s.s.s.s.s.s.s.s.s.s.s.s.s.s.s.s.s.s.",
"s.s.s.s.5.& m H H H H H F q # # # # # # # # # # # # # @ d s.s.s.s.s.s.s.s.s.s.s.s.s.s.s.s.s.s.s.s.s.",
"s.s.s.s.4.j H H H H H H H V 7 # # # # # # # # # # # @ ~ s.s.s.s.s.s.s.s.s.s.s.s.s.s.s.s.s.s.s.s.s.s.",
"s.s.s.s.| N H H H H H H H H A e # # # # # # # # # 0 s.s.s.s.s.s.s.s.s.s.s.s.s.s.s.s.s.s.s.s.s.s.s.s.",
"s.s.s.s.] .  ._ W G H H H H H H l > # # # # # 2 ..s.s.s.s.s.s.s.s.s.s.s.s.s.s.s.s.s.s.s.s.s.s.s.s.s.",
"s.s.s.s.}   s.s.s.s.t.*.e.3.:.` ) ' =.$.R ! s.s.s.s.s.s.s.s.s.s.s.s.s.s.s.s.s.s.s.s.s.s.s.s.s.s.s.s.",
"s.s.s.s.{ O s.s.s.s.s.s.s.s.s.s.s.s.s.s.s.s.s.s.s.s.s.s.s.s.s.s.s.s.s.s.s.s.s.s.s.s.s.s.s.s.s.s.s.s.",
"s.s.s.s.} o s.s.s.s.s.s.s.s.s.s.s.s.s.s.s.s.s.s.s.s.s.s.s.s.s.s.s.s.s.s.s.s.s.s.s.s.s.s.s.s.s.s.s.s.",
"s.s.s.s.} o s.s.s.s.s.s.s.s.s.s.s.s.s.s.s.s.s.s.s.s.s.s.s.s.s.s.s.s.s.s.s.s.s.s.s.s.s.s.s.s.s.s.s.s.",
"s.s.s.s.} o s.s.s.s.s.s.s.s.s.s.s.s.s.s.s.s.s.s.s.s.s.s.s.s.s.s.s.s.s.s.s.s.s.s.s.s.s.s.s.s.s.s.s.s.",
"s.s.s.s.} o s.s.s.s.s.s.s.s.s.s.s.s.s.s.s.s.s.s.s.s.s.s.s.s.s.s.s.s.s.s.s.s.s.s.s.s.s.s.s.s.s.s.s.s.",
"s.s.s.s.} o s.s.s.s.s.s.s.s.s.s.s.s.s.s.s.s.s.s.s.s.s.s.s.s.s.s.s.s.s.s.s.s.s.s.s.s.s.s.s.s.s.s.s.s.",
"s.s.s.s.} o s.s.s.s.s.s.s.s.s.s.s.s.s.s.s.s.s.s.s.s.s.s.s.s.s.s.s.s.s.s.s.s.s.s.s.s.s.s.s.s.s.s.s.s.",
"s.s.s.s.} o s.s.s.s.s.s.s.s.s.s.s.s.s.s.s.s.s.s.s.s.s.s.s.s.s.s.s.s.s.s.s.s.s.s.s.s.s.s.s.s.s.s.s.s.",
"s.s.s.s.} o s.s.s.s.s.s.s.s.s.s.s.s.s.s.s.s.s.s.s.s.s.s.s.s.s.s.s.s.s.s.s.s.s.s.s.s.s.s.s.s.s.s.s.s.",
"s.s.s.s.} o s.s.s.s.s.s.s.s.s.s.s.s.s.s.s.s.s.s.s.s.s.s.s.s.s.s.s.s.s.s.s.s.s.s.s.s.s.s.s.s.s.s.s.s.",
"s.s.s.s.} o s.s.s.s.s.s.s.s.s.s.s.s.s.s.s.s.s.s.s.s.s.s.s.s.s.s.s.s.s.s.s.s.s.s.s.s.s.s.s.s.s.s.s.s.",
"s.s.s.s.} o s.s.s.s.s.s.s.s.s.s.s.s.s.s.s.s.s.s.s.s.s.s.s.s.s.s.s.s.s.s.s.s.s.s.s.s.s.s.s.s.s.s.s.s.",
"s.s.s.s.} o s.s.s.s.s.s.s.s.s.s.s.s.s.s.s.s.s.s.s.s.s.s.s.s.s.s.s.s.s.s.s.s.s.s.s.s.s.s.s.s.s.s.s.s.",
"s.s.s.s.} o s.s.s.s.s.s.s.s.s.s.s.s.s.s.s.s.s.s.s.s.s.s.s.s.s.s.s.s.s.s.s.s.s.s.s.s.s.s.s.s.s.s.s.s.",
"s.s.s.s.} o s.s.s.s.s.s.s.s.s.s.s.s.s.s.s.s.s.s.s.s.s.s.s.s.s.s.s.s.s.s.s.s.s.s.s.s.s.s.s.s.s.s.s.s.",
"s.s.s.s.} o s.s.s.s.s.s.s.s.s.s.s.s.s.s.s.s.s.s.s.s.s.s.s.s.s.s.s.s.s.s.s.s.s.s.s.s.s.s.s.s.s.s.s.s.",
"s.s.s.s.} o s.s.s.s.s.s.s.s.s.s.s.s.s.s.s.s.s.s.s.s.s.s.s.s.s.s.s.s.s.s.s.s.s.s.s.s.s.s.s.s.s.s.s.s.",
"s.s.s.s.} o s.s.s.s.s.s.s.s.s.s.s.s.s.s.s.s.s.s.s.s.s.s.s.s.s.s.s.s.s.s.s.s.s.s.s.s.s.s.s.s.s.s.s.s.",
"s.s.s.s.} o s.s.s.s.s.s.s.s.s.s.s.s.s.s.s.s.s.s.s.s.s.s.s.s.s.s.s.s.s.s.s.s.s.s.s.s.s.s.s.s.s.s.s.s.",
"s.s.s.s.} o s.s.s.s.s.s.s.s.s.s.s.s.s.s.s.s.s.s.s.s.s.s.s.s.s.s.s.s.s.s.s.s.s.s.s.s.s.s.s.s.s.s.s.s.",
"s.s.s.s.[ X s.s.s.s.s.s.s.s.s.s.s.s.s.s.s.s.s.s.s.s.s.s.s.s.s.s.s.s.s.s.s.s.s.s.s.s.s.s.s.s.s.s.s.s.",
"s.s.s.s.s.s.s.s.s.s.s.s.s.s.s.s.s.s.s.s.s.s.s.s.s.s.s.s.s.s.s.s.s.s.s.s.s.s.s.s.s.s.s.s.s.s.s.s.s.s.",
"s.s.s.s.s.s.s.s.s.s.s.s.s.s.s.s.s.s.s.s.s.s.s.s.s.s.s.s.s.s.s.s.s.s.s.s.s.s.s.s.s.s.s.s.s.s.s.s.s.s.",
"s.s.s.s.s.s.s.s.s.s.s.s.s.s.s.s.s.s.s.s.s.s.s.s.s.s.s.s.s.s.s.s.s.s.s.s.s.s.s.s.s.s.s.s.s.s.s.s.s.s."
};
