/* XPM */
static char *_2780cfdad1e4180a8b3a86aa59a6664TqMyjY00bONmwq5k[] = {
/* columns rows colors chars-per-pixel */
"50 50 182 2 ",
"   c None",
".  c #812521",
"X  c #902627",
"o  c #8A3421",
"O  c #8F3521",
"+  c #913321",
"@  c #903421",
"#  c #913422",
"$  c #903522",
"%  c #913423",
"&  c #903526",
"*  c #A94430",
"=  c #AA4430",
"-  c #AB4431",
";  c #A94532",
":  c #F91E57",
">  c #FA1E57",
",  c #FB1E57",
"<  c #FA1F57",
"1  c #FC1D56",
"2  c #FD1D56",
"3  c #FC1D57",
"4  c #FD1D57",
"5  c #FE1C56",
"6  c #FE1D56",
"7  c #FE1C57",
"8  c #FE1D57",
"9  c #FD1E57",
"0  c #F71F59",
"q  c #FB1D58",
"w  c #F81E58",
"e  c #F81F58",
"r  c #F91F58",
"t  c #FA1E58",
"y  c #FB1E59",
"u  c #FB1F59",
"i  c #F91F5A",
"p  c #FC1D58",
"a  c #FD1D58",
"s  c #FD1C59",
"d  c #FE1D58",
"f  c #FC1E58",
"g  c #FD1E58",
"h  c #FD1F58",
"j  c #FD1E59",
"k  c #FC1F59",
"l  c #FD1F59",
"z  c #FE1E58",
"x  c #FE1E59",
"c  c #FC1F5A",
"v  c #FE1F5A",
"b  c #CD2A4E",
"n  c #D82149",
"m  c #E22655",
"M  c #EF2359",
"N  c #EF235A",
"B  c #EF2458",
"V  c #EE2459",
"C  c #EE2559",
"Z  c #EF2559",
"A  c #ED2658",
"S  c #ED2759",
"D  c #EE2659",
"F  c #ED255A",
"G  c #EC255B",
"H  c #EF255B",
"J  c #EF265A",
"K  c #EB275D",
"L  c #EB285B",
"P  c #EC285A",
"I  c #F02358",
"U  c #F12259",
"Y  c #F22258",
"T  c #F32259",
"R  c #F0235A",
"E  c #F0235B",
"W  c #F2225A",
"Q  c #F52058",
"!  c #F52159",
"~  c #F72158",
"^  c #F62059",
"/  c #F72059",
"(  c #F62159",
")  c #F72159",
"_  c #F4225A",
"`  c #F7225B",
"'  c #F0245B",
"]  c #F4275E",
"[  c #FA225B",
"{  c #FC205A",
"}  c #FD205B",
"|  c #FC215B",
" . c #FB225C",
".. c #FC215C",
"X. c #FD225D",
"o. c #FD235D",
"O. c #FC245D",
"+. c #FD245E",
"@. c #FC255E",
"#. c #FD245F",
"$. c #FC255F",
"%. c #FD265F",
"&. c #EF2C62",
"*. c #FB2660",
"=. c #FD2660",
"-. c #F52B62",
";. c #F72B62",
":. c #F72A63",
">. c #F52B64",
",. c #F52F67",
"<. c #FA2862",
"1. c #FB2862",
"2. c #F92A63",
"3. c #FD2863",
"4. c #FE2963",
"5. c #FD2A64",
"6. c #FD2B64",
"7. c #FD2B65",
"8. c #FE2A64",
"9. c #FE2A65",
"0. c #FE2B65",
"q. c #F92C64",
"w. c #FA2D66",
"e. c #FA2E67",
"r. c #FB2F67",
"t. c #FD2C65",
"y. c #FC2C67",
"u. c #FE2C66",
"i. c #FE2D67",
"p. c #FF2D67",
"a. c #FC2E67",
"s. c #F92F68",
"d. c #F82F69",
"f. c #FA2E68",
"g. c #FB2E68",
"h. c #FA2F68",
"j. c #FB2F68",
"k. c #FB2F69",
"l. c #FB2D6A",
"z. c #FD2D68",
"x. c #FE2D68",
"c. c #FD2E68",
"v. c #FC2F68",
"b. c #FD2F68",
"n. c #FC2E69",
"m. c #FD2F69",
"M. c #FE2E68",
"N. c #FF2E68",
"B. c #FE2E69",
"V. c #FF2E69",
"C. c #EF3068",
"Z. c #EE356A",
"A. c #EF366A",
"S. c #EE366C",
"D. c #EE376D",
"F. c #E53B6B",
"G. c #EB396D",
"H. c #EB3A6E",
"J. c #EB3B6E",
"K. c #EC396D",
"L. c #EC386F",
"P. c #E93D6F",
"I. c #F23067",
"U. c #F33368",
"Y. c #F33269",
"T. c #F2336A",
"R. c #F2336B",
"E. c #F63069",
"W. c #F4316A",
"Q. c #F5316A",
"!. c #F6316A",
"~. c #F5326B",
"^. c #F0356B",
"/. c #F3346A",
"(. c #F5346B",
"). c #F2326C",
"_. c #F4326C",
"`. c #F2366E",
"'. c #F83069",
"]. c #F93069",
"[. c #F83169",
"{. c #FA3068",
/* pixels */
"                                                                                                    ",
"                                                                                                    ",
"                        G.K.K.P.                                                                    ",
"            &.-.-.w.w.p.M.{.{.M.{.[.(.`.G.                                                          ",
"      G ( < a 4 4 a X.+.0.M.M.M.M.M.M.M.k._.D.                                          D.A.F.      ",
"      I 4 a a 4 4 4 4 5 X.0.M.M.M.M.M.M.M.M.k._.K.                                  U.!.!.          ",
"      I 4 a 4 4 4 4 4 4 5 +.p.{.M.M.M.M.M.M.M.M.y.,.C.                          !.,.M._.            ",
"      Y 4 a 4 4 4 4 4 4 a a p.p.M.M.M.M.M.M.0.O.+.a X.( I                   U.!.k.k.,.              ",
"      I 4 a 4 4 4 4 4 4 4 a p.p.M.M.M.M.M.4.a 4 5 5 4 4 4 a w ( [ 0 0 Q ( ( 1.p.k.U.                ",
"      I 4 a 4 4 4 4 4 4 4 4 4.p.M.M.M.M.M.+.a 4 4 a 4 4 4 4 a a 4 4 4 4 4 4 [ 4.k.                  ",
"      Z 4 a 4 4 4 4 4 4 4 4 4.M.M.M.M.M.4.a 4 4 4 4 4 4 4 4 4 4 4 4 4 4 4 4 4 4.^.                  ",
"      Z 4 a 4 4 4 4 4 4 4 a 4.M.M.M.M.M.@.4 4 4 4 4 4 4 4 4 4 4 4 4 4 4 4 4 4 4.                    ",
"      Z 4 a 4 4 4 4 4 4 4 a p.p.M.M.M.p.X.5 5 4 4 4 4 4 4 4 4 4 4 4 4 4 4 4 a >.                    ",
"      Z 4 a 4 4 4 4 4 4 4 X.p.M.M.M.M.p.+.4 4 4 4 4 4 4 4 4 4 4 4 4 4 4 4 a [                       ",
"      Z 4 a 4 4 4 4 4 4 4 @.p.M.M.M.M.M.@.4 4 4 4 4 4 4 4 4 4 4 4 4 4 4 a 4 Z                       ",
"      Z 4 a 4 4 4 4 4 4 X.4.M.M.M.M.M.M.0.a 4 4 4 4 4 4 4 4 4 4 4 4 4 a w Y                         ",
"      P 4 a 4 4 4 4 4 a 4.M.{.k.k.k.p.M.p.*.4 4 4 4 4 4 4 4 4 4 4 4 4 < N                           ",
"      P 4 a 4 4 4 4 [ 2.U.A.        U.[.k.p.@.4 4 4 4 4 4 a a 4 4 4 [ F                             ",
"      L 4 a a 4 [ ] U.                  ^.!.k.*.a a 4 4 4 4 4 4 ~ (                                 ",
"      I 4 w Y I                               U.-.[ < < < < 0 ( P                                   ",
"      m n b                                           Z N K                                         ",
"      X .                                                                                           ",
"      o &                                                                                           ",
"      & *                                                                                           ",
"      + *                                                                                           ",
"      + *                                                                                           ",
"      + *                                                                                           ",
"      + -                                                                                           ",
"      + *                                                                                           ",
"      + -                                                                                           ",
"      + *                                                                                           ",
"      + -                                                                                           ",
"      + =                                                                                           ",
"      + -                                                                                           ",
"      + =                                                                                           ",
"      + -                                                                                           ",
"      + -                                                                                           ",
"      + -                                                                                           ",
"      + =                                                                                           ",
"      + =                                                                                           ",
"      $ -                                                                                           ",
"      + =                                                                                           ",
"      $ =                                                                                           ",
"      $ -                                                                                           ",
"      + -                                                                                           ",
"      $ -                                                                                           ",
"      + -                                                                                           ",
"      O -                                                                                           ",
"                                                                                                    ",
"                                                                                                    "
};
