/* XPM */
static char *result[] = {
/* columns rows colors chars-per-pixel */
"50 50 111 2 ",
"   c #7F362D",
".  c #8E3433",
"X  c #913F32",
"o  c #973F30",
"O  c #9B4031",
"+  c #9C4031",
"@  c #9C4131",
"#  c #9C4032",
"$  c #B3513D",
"%  c #B3513E",
"&  c #B4513D",
"*  c #FB1F57",
"=  c #FD1D57",
"-  c #FE1C56",
";  c #FE1D56",
":  c #FE1D57",
">  c #FD1E57",
",  c #FD1F58",
"<  c #FE1E58",
"1  c #FE1E59",
"2  c #FE1F59",
"3  c #FE1F5A",
"4  c #F12253",
"5  c #FC2359",
"6  c #FD215A",
"7  c #FD215B",
"8  c #FE205A",
"9  c #FB275B",
"0  c #FC245A",
"q  c #FC255A",
"w  c #FC265B",
"e  c #FD215C",
"r  c #FD235D",
"t  c #FE225C",
"y  c #FE235C",
"u  c #FE235D",
"i  c #FE235E",
"p  c #FD245D",
"a  c #FC275C",
"s  c #FE245E",
"d  c #FE255E",
"f  c #FE245F",
"g  c #FE255F",
"h  c #FB2B5E",
"j  c #FC295D",
"k  c #FC2A5D",
"l  c #F1305B",
"z  c #F7305D",
"x  c #F8305D",
"c  c #F8305E",
"v  c #F9305E",
"b  c #F9305F",
"n  c #FA305F",
"m  c #FC305F",
"M  c #FE2660",
"N  c #FE2761",
"B  c #FE2762",
"V  c #FE2862",
"C  c #FE2962",
"Z  c #FE2963",
"A  c #FD2B65",
"S  c #FE2A64",
"D  c #FE2B65",
"F  c #FE2C66",
"G  c #FE2C67",
"H  c #FE2D67",
"J  c #FF2D67",
"K  c #FE2E67",
"L  c #FF2E67",
"P  c #FF2D68",
"I  c #FE2E68",
"U  c #FF2E68",
"Y  c #FE2F69",
"T  c #FA3060",
"R  c #FB3060",
"E  c #FB3260",
"W  c #FC3161",
"Q  c #FB3966",
"!  c #FC3966",
"~  c #FB3D66",
"^  c #FA3D67",
"/  c #FE3169",
"(  c #FD326A",
")  c #FD336A",
"_  c #FE326A",
"`  c #FE336A",
"'  c #FD346C",
"]  c #FC366D",
"[  c #FD396D",
"{  c #FD3B6D",
"}  c #FD3B6F",
"|  c #FC3C6E",
" . c #FC3F71",
".. c #FC4169",
"X. c #F9456B",
"o. c #FA466C",
"O. c #FB4A6F",
"+. c #FB4671",
"@. c #FB4573",
"#. c #FA4575",
"$. c #FC4675",
"%. c #FA4A70",
"&. c #FD4873",
"*. c #FA4C70",
"=. c #FA4978",
"-. c #FB4A79",
";. c #FB5273",
":. c #FC5574",
">. c #FC507A",
",. c #FB547C",
"<. c None",
/* pixels */
"<.<.<.<.<.<.<.<.<.<.<.<.<.<.<.<.<.<.<.<.<.<.<.<.<.<.<.<.<.<.<.<.<.<.<.<.<.<.<.<.<.<.<.<.<.<.<.<.<.<.",
"<.<.<.<.<.<.<.<.<.<.<.<.<.<.<.<.<.<.<.<.<.<.<.<.<.<.<.<.<.<.<.<.<.<.<.<.<.<.<.<.<.<.<.<.<.<.<.<.<.<.",
"<.<.<.<.<.<.<.<.<.<.<.<.<.<.<.<.<.<.<.<.<.<.<.<.<.<.<.<.<.<.<.<.<.<.<.<.<.<.<.<.<.<.<.<.<.<.<.<.<.<.",
"<.<.<.<.<.<.<.<.<.<.<.<.<.<.<.<.<.<.<.<.<.<.<.<.<.<.<.<.<.<.<.<.<.<.<.<.<.<.<.<.<.<.<.<.<.<.<.<.<.<.",
"<.<.<.<.<.<.<.<.<.<.<.<.<.<.<.<.<.<.<.<.<.<.<.<.<.<.<.<.<.<.<.<.<.<.<.<.<.<.<.<.<.<.<.<.<.<.<.<.<.<.",
"<.<.<.<.<.<.<.<.<.<.<.<.<.<.<.<.<.<.<.<.<.<.<.<.<.<.<.<.<.<.<.<.<.<.<.<.<.<.<.<.<.<.<.<.<.<.<.<.<.<.",
"<.<.<.<.<.<.<.<.<.<.<.<.<.<.<.<.<.<.<.<.<.<.<.<.<.<.<.<.<.<.<.<.<.<.<.<.<.<.<.<.<.<.<.<.<.<.<.<.<.<.",
"<.<.<.<.<.<.<.<.<.<.<.<.<.<.<.<.<.<.<.<.<.<.<.<.<.<.<.<.<.<.<.<.<.<.<.<.<.<.<.<.<.<.<.<.<.<.<.<.<.<.",
"<.<.<.<.<.<.<.<.<.<.<.<.<.<.<.<.<.<.<.<.<.<.<.<.<.<.<.<.<.<.<.<.<.<.<.<.<.<.<.<.<.<.<.<.<.<.<.<.<.<.",
"<.<.<.<.&. .` _ Y I I P U I / ) $.<.<.<.<.<.<.<.<.<.<.<.<.<.<.<.<.<.<.<.<.<.<.<.<.<.<.<.<.<.<.<.<.<.",
"<.<.<.W < d P U U U U U U U U B 8 < j ..<.<.<.<.<.<.<.<.<.<.<.<.<.<.<.<.<.<.<.<.<.<.<.<.<.<.<.<.<.<.",
"<.<.<.R : : i L U U U U U U N : : : : : = h o.<.<.<.<.<.<.<.<.<.<.<.<.<.<.<.<.<.<.<.<.<.<.<.<.<.<.<.",
"<.<.<.T : : : g U U U U U G < : : : : : : : : : w ~ %.<.<.<.;.Q ! 6 - : : ; e { @.<.<.<.<.<.<.<.<.<.",
"<.<.<.T : : : : S U U U U C : : : : : : : : : : : : = = : : = : : : : : : : : 1 F I [ <.<.<.<.<.<.<.",
"<.<.<.n : : : : y U U U U f : : : : : : : : : : : : : : : : : : : : : : : : = 7 H Y ' ] =.<.<.<.<.<.",
"<.<.<.b : : : : 3 U U U U r : : : : : : : : : : : : : : : : : : : : : : = m O.<.<.<.<.<.<.<.<.<.<.<.",
"<.<.<.b : : : : 1 J U U U u : : : : : : : : : : : : : : : : : : : : * ^ <.<.<.<.<.<.<.<.<.<.<.<.<.<.",
"<.<.<.v : : : : 8 K U U U M : : : : : : : : : : : : : : : : : : = 9 <.<.<.<.<.<.<.<.<.<.<.<.<.<.<.<.",
"<.<.<.v : : : : s U U U U Z : : : : : : : : : : : : : : : : : = h <.<.<.<.<.<.<.<.<.<.<.<.<.<.<.<.<.",
"<.<.<.c : : : : V U U U U G < : : : : : : : : : : : : : : : = a <.<.<.<.<.<.<.<.<.<.<.<.<.<.<.<.<.<.",
"<.<.<.c : : : 2 J U U U U U s : : : : : : : : : : : : : : = 0 <.<.<.<.<.<.<.<.<.<.<.<.<.<.<.<.<.<.<.",
"<.<.<.x : : : N U U U U U U F 2 : : : : : : : : : : : : : 5 <.<.<.<.<.<.<.<.<.<.<.<.<.<.<.<.<.<.<.<.",
"<.<.<.z : : t H U U U U U U U D , : : : : : : : : : : = q <.<.<.<.<.<.<.<.<.<.<.<.<.<.<.<.<.<.<.<.<.",
"<.<.<.l 4 X.+.-.<.<.<.<.#.>.} ( A 2 : : : : : : : : = E <.<.<.<.<.<.<.<.<.<.<.<.<.<.<.<.<.<.<.<.<.<.",
"<.<.<..   <.<.<.<.<.<.<.<.<.<.<.,.| p > : : : : = k *.<.<.<.<.<.<.<.<.<.<.<.<.<.<.<.<.<.<.<.<.<.<.<.",
"<.<.<.o X <.<.<.<.<.<.<.<.<.<.<.<.<.<.<.<.:.:.<.<.<.<.<.<.<.<.<.<.<.<.<.<.<.<.<.<.<.<.<.<.<.<.<.<.<.",
"<.<.<.O $ <.<.<.<.<.<.<.<.<.<.<.<.<.<.<.<.<.<.<.<.<.<.<.<.<.<.<.<.<.<.<.<.<.<.<.<.<.<.<.<.<.<.<.<.<.",
"<.<.<.O & <.<.<.<.<.<.<.<.<.<.<.<.<.<.<.<.<.<.<.<.<.<.<.<.<.<.<.<.<.<.<.<.<.<.<.<.<.<.<.<.<.<.<.<.<.",
"<.<.<.+ & <.<.<.<.<.<.<.<.<.<.<.<.<.<.<.<.<.<.<.<.<.<.<.<.<.<.<.<.<.<.<.<.<.<.<.<.<.<.<.<.<.<.<.<.<.",
"<.<.<.+ & <.<.<.<.<.<.<.<.<.<.<.<.<.<.<.<.<.<.<.<.<.<.<.<.<.<.<.<.<.<.<.<.<.<.<.<.<.<.<.<.<.<.<.<.<.",
"<.<.<.@ & <.<.<.<.<.<.<.<.<.<.<.<.<.<.<.<.<.<.<.<.<.<.<.<.<.<.<.<.<.<.<.<.<.<.<.<.<.<.<.<.<.<.<.<.<.",
"<.<.<.@ & <.<.<.<.<.<.<.<.<.<.<.<.<.<.<.<.<.<.<.<.<.<.<.<.<.<.<.<.<.<.<.<.<.<.<.<.<.<.<.<.<.<.<.<.<.",
"<.<.<.@ & <.<.<.<.<.<.<.<.<.<.<.<.<.<.<.<.<.<.<.<.<.<.<.<.<.<.<.<.<.<.<.<.<.<.<.<.<.<.<.<.<.<.<.<.<.",
"<.<.<.@ & <.<.<.<.<.<.<.<.<.<.<.<.<.<.<.<.<.<.<.<.<.<.<.<.<.<.<.<.<.<.<.<.<.<.<.<.<.<.<.<.<.<.<.<.<.",
"<.<.<.@ & <.<.<.<.<.<.<.<.<.<.<.<.<.<.<.<.<.<.<.<.<.<.<.<.<.<.<.<.<.<.<.<.<.<.<.<.<.<.<.<.<.<.<.<.<.",
"<.<.<.@ & <.<.<.<.<.<.<.<.<.<.<.<.<.<.<.<.<.<.<.<.<.<.<.<.<.<.<.<.<.<.<.<.<.<.<.<.<.<.<.<.<.<.<.<.<.",
"<.<.<.@ & <.<.<.<.<.<.<.<.<.<.<.<.<.<.<.<.<.<.<.<.<.<.<.<.<.<.<.<.<.<.<.<.<.<.<.<.<.<.<.<.<.<.<.<.<.",
"<.<.<.@ & <.<.<.<.<.<.<.<.<.<.<.<.<.<.<.<.<.<.<.<.<.<.<.<.<.<.<.<.<.<.<.<.<.<.<.<.<.<.<.<.<.<.<.<.<.",
"<.<.<.@ & <.<.<.<.<.<.<.<.<.<.<.<.<.<.<.<.<.<.<.<.<.<.<.<.<.<.<.<.<.<.<.<.<.<.<.<.<.<.<.<.<.<.<.<.<.",
"<.<.<.@ & <.<.<.<.<.<.<.<.<.<.<.<.<.<.<.<.<.<.<.<.<.<.<.<.<.<.<.<.<.<.<.<.<.<.<.<.<.<.<.<.<.<.<.<.<.",
"<.<.<.@ & <.<.<.<.<.<.<.<.<.<.<.<.<.<.<.<.<.<.<.<.<.<.<.<.<.<.<.<.<.<.<.<.<.<.<.<.<.<.<.<.<.<.<.<.<.",
"<.<.<.@ & <.<.<.<.<.<.<.<.<.<.<.<.<.<.<.<.<.<.<.<.<.<.<.<.<.<.<.<.<.<.<.<.<.<.<.<.<.<.<.<.<.<.<.<.<.",
"<.<.<.@ & <.<.<.<.<.<.<.<.<.<.<.<.<.<.<.<.<.<.<.<.<.<.<.<.<.<.<.<.<.<.<.<.<.<.<.<.<.<.<.<.<.<.<.<.<.",
"<.<.<.@ & <.<.<.<.<.<.<.<.<.<.<.<.<.<.<.<.<.<.<.<.<.<.<.<.<.<.<.<.<.<.<.<.<.<.<.<.<.<.<.<.<.<.<.<.<.",
"<.<.<.@ & <.<.<.<.<.<.<.<.<.<.<.<.<.<.<.<.<.<.<.<.<.<.<.<.<.<.<.<.<.<.<.<.<.<.<.<.<.<.<.<.<.<.<.<.<.",
"<.<.<.@ & <.<.<.<.<.<.<.<.<.<.<.<.<.<.<.<.<.<.<.<.<.<.<.<.<.<.<.<.<.<.<.<.<.<.<.<.<.<.<.<.<.<.<.<.<.",
"<.<.<.# % <.<.<.<.<.<.<.<.<.<.<.<.<.<.<.<.<.<.<.<.<.<.<.<.<.<.<.<.<.<.<.<.<.<.<.<.<.<.<.<.<.<.<.<.<.",
"<.<.<.<.<.<.<.<.<.<.<.<.<.<.<.<.<.<.<.<.<.<.<.<.<.<.<.<.<.<.<.<.<.<.<.<.<.<.<.<.<.<.<.<.<.<.<.<.<.<.",
"<.<.<.<.<.<.<.<.<.<.<.<.<.<.<.<.<.<.<.<.<.<.<.<.<.<.<.<.<.<.<.<.<.<.<.<.<.<.<.<.<.<.<.<.<.<.<.<.<.<.",
"<.<.<.<.<.<.<.<.<.<.<.<.<.<.<.<.<.<.<.<.<.<.<.<.<.<.<.<.<.<.<.<.<.<.<.<.<.<.<.<.<.<.<.<.<.<.<.<.<.<."
};
