/* XPM */
static char *fc2f3bf005be4cc7ffcd9ccd50f2d61ehdCJL0rjrEvbSOfz[] = {
/* columns rows colors chars-per-pixel */
"50 50 186 2 ",
"   c None",
".  c #87311F",
"X  c #912D26",
"o  c #8C3322",
"O  c #8C3422",
"+  c #8C3522",
"@  c #8C3423",
"#  c #8D3423",
"$  c #8C3424",
"%  c #8D3424",
"&  c #A13F2B",
"*  c #A3412E",
"=  c #A5402D",
"-  c #A5402E",
";  c #B12E41",
":  c #AB3744",
">  c #F71E56",
",  c #FB1D57",
"<  c #F91F56",
"1  c #F91E57",
"2  c #F81F57",
"3  c #F91F57",
"4  c #FD1C56",
"5  c #FC1D56",
"6  c #FD1D56",
"7  c #FD1C57",
"8  c #FC1D57",
"9  c #FD1D57",
"0  c #FE1D56",
"q  c #FE1C57",
"w  c #FE1D57",
"e  c #FC1E56",
"r  c #FD1E56",
"t  c #FC1E57",
"y  c #FD1E57",
"u  c #F71E58",
"i  c #FB1D58",
"p  c #F91E58",
"a  c #F81F58",
"s  c #F91F59",
"d  c #FA1E58",
"f  c #FB1E58",
"g  c #FA1E59",
"h  c #F81F5A",
"j  c #FD1C58",
"k  c #FC1D58",
"l  c #FD1D58",
"z  c #FE1D58",
"x  c #FC1E58",
"c  c #FD1E58",
"v  c #FC1F58",
"b  c #FC1E59",
"n  c #FD1E59",
"m  c #FC1F59",
"M  c #FD1F59",
"N  c #FE1F59",
"B  c #D72D55",
"V  c #EF235A",
"C  c #EE235B",
"Z  c #E8275B",
"A  c #ED245B",
"S  c #ED255B",
"D  c #EF245A",
"F  c #EF245B",
"G  c #EC275A",
"H  c #EB285D",
"J  c #F52057",
"K  c #F42157",
"L  c #F72057",
"P  c #F32059",
"I  c #F02359",
"U  c #F12359",
"Y  c #F22258",
"T  c #F22259",
"R  c #F32259",
"E  c #F0235B",
"W  c #F3225A",
"Q  c #F3235B",
"!  c #F52058",
"~  c #F42158",
"^  c #F52158",
"/  c #F42059",
"(  c #F52059",
")  c #F42159",
"_  c #F62058",
"`  c #F72058",
"'  c #F72059",
"]  c #F4215A",
"[  c #F4225B",
"{  c #F1235D",
"}  c #F3265E",
"|  c #F5245E",
" . c #F82059",
".. c #F8215A",
"X. c #F8225B",
"o. c #FC205A",
"O. c #FC205B",
"+. c #FD205B",
"@. c #FD215B",
"#. c #FC215C",
"$. c #FD215C",
"%. c #FD225D",
"&. c #FA245E",
"*. c #FD245E",
"=. c #FC255F",
"-. c #FD255F",
";. c #FA2760",
":. c #FC2560",
">. c #FC2660",
",. c #FD2660",
"<. c #FC2761",
"1. c #FD2762",
"2. c #F62D65",
"3. c #FB2963",
"4. c #F82A63",
"5. c #FB2A63",
"6. c #FC2862",
"7. c #FD2862",
"8. c #FD2963",
"9. c #FE2862",
"0. c #FC2A63",
"q. c #FD2864",
"w. c #FE2964",
"e. c #FD2A64",
"r. c #FD2B64",
"t. c #FD2B65",
"y. c #FE2B65",
"u. c #F92C65",
"i. c #FB2D67",
"p. c #FC2C65",
"a. c #FD2C66",
"s. c #FC2D66",
"d. c #FC2D67",
"f. c #FE2C67",
"g. c #FE2D67",
"h. c #FC2F67",
"j. c #FE2E67",
"k. c #F92F68",
"l. c #FB2F68",
"z. c #FB2F69",
"x. c #FB2E6A",
"c. c #FE2D68",
"v. c #FF2D69",
"b. c #FD2E68",
"n. c #FC2F68",
"m. c #FC2F69",
"M. c #FE2E68",
"N. c #FF2E68",
"B. c #FE2E69",
"V. c #FF2E69",
"C. c #E63763",
"Z. c #E63967",
"A. c #E63A66",
"S. c #E73A67",
"D. c #E93967",
"F. c #E83A67",
"G. c #EB376B",
"H. c #EF356B",
"J. c #EC376A",
"K. c #EA3969",
"L. c #EB386A",
"P. c #EA396B",
"I. c #EC386A",
"U. c #EC396A",
"Y. c #EA396C",
"T. c #EA3A6C",
"R. c #EE396E",
"E. c #EC3B6E",
"W. c #F23166",
"Q. c #F63067",
"!. c #F23369",
"~. c #F3336B",
"^. c #F63169",
"/. c #F53269",
"(. c #F53369",
"). c #F63269",
"_. c #F6326A",
"`. c #F2356A",
"'. c #F6326C",
"]. c #F1356C",
"[. c #F3366C",
"{. c #F83069",
"}. c #FA3069",
"|. c #F8306A",
" X c #F8316A",
".X c #F9306B",
/* pixels */
"                                                                                                    ",
"                                                                                                    ",
"                                              ].~.'.k.^.}.}.'.[.E.                                  ",
"                                        Q | &.&.r.r.B.B.B.B.B.B.}.(.R.                              ",
"        C.                      F W ^ u n 7 7 7 n @.9.B.B.B.d.}.B.d.}.(.                            ",
"      P.k.u...^ Q ^ Q W W ^ L > e e w n n w w w w w f 9.B.d.B.d.d.B.d.d.2.                          ",
"      T.d.%.w w w w w w w w w w w w w w w w w w w w w %.d.}.d.}.d.d.<...n ..F                       ",
"      T.r.n w w w w w w w w w w w w w w w w w w w w w n 9.d.B.d.B.*.w w w w > W                     ",
"      T.5.w w w w w w w w w w w w w w w w w w w w w w w <.B.B.d.r.n w w w w w e ^                   ",
"      U.5.n w w w w w w w w w w w w w w w w w w w w w w *.B.B.B.<.n w w w w w w w u F               ",
"      U.5.n w w w w w w w w w w w w w w w w w w w w w w *.B.d.}.r.n w w w w w w w e e u W H         ",
"      J.9.f w w w w w w w w w w w w w w w w w w w w w w 9.B.d.B.r.@.w w w w w w f e w n n f u ^ G   ",
"      J.d.w w w w w w w w w w w w w w w w w w w w w w @.d.d.B.B.B.<.w w w w w w w w w n w w f F     ",
"      P.u.@.w w w w w w w w w w w w w w w 7 w w w w w *.d.}.}.d.d.d.n w w w w w w w w 7 ..L G       ",
"      P.h.*.w w w w w w w w w w w w w w n n n w w w @.9.d.B.B.d.d.B.<.n w w i 7 w w e > F           ",
"      D.h.9.w w w w w w w w w w w w w w e w w e L u 5.}.}.}.}.B.d.B.d.&.f e e f e W F               ",
"      D.B.r.n w w w w w w w w w w w w w n e u F             H.!.^.^.^.Q.Q Q Q                       ",
"      D.d.d.%.7 w w w w w w w w n 7 7 e ^                                                           ",
"      D.h.B.<.n w w w w w w w e n e u                                                               ",
"      A.h.B.B.%.e w w w w w w > u F                                                                 ",
"      A.B.B.B.r.m n n 7 f f Y                                                                       ",
"      ; B W.^.k.k.:.X.^ F                                                                           ",
"      o X :                                                                                         ",
"      + &                                                                                           ",
"      # -                                                                                           ",
"      % -                                                                                           ",
"      # -                                                                                           ",
"      # -                                                                                           ",
"      o -                                                                                           ",
"      + -                                                                                           ",
"      # -                                                                                           ",
"      o -                                                                                           ",
"      o -                                                                                           ",
"      # -                                                                                           ",
"      # -                                                                                           ",
"      + -                                                                                           ",
"      # -                                                                                           ",
"      # -                                                                                           ",
"      # -                                                                                           ",
"      % -                                                                                           ",
"      # -                                                                                           ",
"      # -                                                                                           ",
"      # -                                                                                           ",
"      # -                                                                                           ",
"      # -                                                                                           ",
"      # -                                                                                           ",
"      # -                                                                                           ",
"      % *                                                                                           ",
"                                                                                                    ",
"                                                                                                    "
};
