/* XPM */
static char *result[] = {
/* columns rows colors chars-per-pixel */
"50 50 93 2 ",
"   c #943320",
".  c #9C3724",
"X  c #9D3724",
"o  c #C4203E",
"O  c #FD1C55",
"+  c #FC1C56",
"@  c #FD1D57",
"#  c #FE1D57",
"$  c #FD1E57",
"%  c #FE1E57",
"&  c #FD1E59",
"*  c #FE1E58",
"=  c #FE1F58",
"-  c #FE1F59",
";  c #FB2259",
":  c #FD2059",
">  c #FD215B",
",  c #FE205A",
"<  c #FE215B",
"1  c #FC245B",
"2  c #FC265A",
"3  c #FD235C",
"4  c #FE225C",
"5  c #FD255C",
"6  c #FE245D",
"7  c #FE245E",
"8  c #FE265E",
"9  c #FC2A5D",
"0  c #FC2C5F",
"q  c #FE2660",
"w  c #FE2761",
"e  c #FC2A61",
"r  c #FE2862",
"t  c #FE2963",
"y  c #FC2D62",
"u  c #FE2A64",
"i  c #FE2B64",
"p  c #FE2B65",
"a  c #FE2B66",
"s  c #FE2C66",
"d  c #FF2C66",
"f  c #FF2D67",
"g  c #FF2E67",
"h  c #FD2E68",
"j  c #FE2E68",
"k  c #FF2E68",
"l  c #FE2E69",
"z  c #FE2F69",
"x  c #FC3161",
"c  c #FD3664",
"v  c #FA3B66",
"b  c #FB3A67",
"n  c #FC3864",
"m  c #FD3864",
"M  c #FB3E67",
"N  c #FE316A",
"B  c #FD326A",
"V  c #FD376B",
"C  c #FD356C",
"Z  c #FE356C",
"A  c #FD366C",
"S  c #FC376D",
"D  c #FE366C",
"F  c #FE376D",
"G  c #FE386C",
"H  c #FD386E",
"J  c #FD3B6E",
"K  c #FD3D6F",
"L  c #FC3D70",
"P  c #9A5146",
"I  c #A8474B",
"U  c #B85F4F",
"Y  c #B95F4F",
"T  c #B9604F",
"R  c #B96050",
"E  c #B96151",
"W  c #FC436B",
"Q  c #FB4071",
"!  c #FB4273",
"~  c #FC4071",
"^  c #FD4071",
"/  c #FC4172",
"(  c #FC4373",
")  c #FD4670",
"_  c #FC4774",
"`  c #FB4870",
"'  c #FB4975",
"]  c #FB4A75",
"[  c #FB4B77",
"{  c #FC4876",
"}  c #FD4976",
"|  c #FB4E7A",
" . c None",
/* pixels */
" . . . . . . . . . . . . . . . . . . . . . . . . . . . . . . . . . . . . . . . . . . . . . . . . . .",
" . . . . . . . . . . . . . . . . . . . . . . . . . . . . . . . . . . . . . . . . . . . . . . . . . .",
" . . . . . . . . . . . . . . . . . . . . . . . . . . . . . . . . . . . . . . . . . . . . . . . . . .",
" . . . . . . . . . . . . . . . . . . . . . . . . . . . . . . . . . . . . . . . . . . . . . . . . . .",
" . . . . . . . . . . . . . . . . . . . . . . . . . . . . . . . . . . . . . . . . . . . . . . . . . .",
" . . . . . . . . . . . . . . . . . . . . . . . . . . . . . . . . . . . . . . . . . . . . . . . . . .",
" . . . . . . . . . . . . . . . . . . . . . . . . . . . . . . . . . . . . . . . . . . . . . . . . . .",
" . . . . . . . . . . . . . . . . . . . . . . . . . . . . . . . . . . . . . . . . . . . . . . . . . .",
" . . . . . . . . . . . . . . . . . . . . . . . . . . . . . . . . . . . . . . . . . . . . . . . . . .",
" . . . . . . . . . . . . . . . . . . . . . . . . . . . . . . . . . . . . . . . . . . . . . . . . . .",
" . . . . . . . . . . . . . . . . . . . . . . . . . . . . . . . . . . . . . . . . . . . . . . . . . .",
" . . . . . . . . . . . . . . . . . . . . . . . . . . . . . . . . . . . . . . . . . . . . . . . . . .",
" . . . . . . . . . . . . .] ) J V F Z D G H }  . . . . . . . . . . . . . . . . . . . . . . . . . . .",
" . . . . . . . . . . .2 @ # # # - q k k k k k k N {  . . . . . . . . . . . . . . .! L  . . . . . . .",
" . . . . . . . . . . .O # # # # # # q k k k k k k j B [  . . . . . . . . . . .J h Q  . . . . . . . .",
" . . . . . . . . . . .O # # # # # # - k k k k k k p 6 > 5 n  . . . . . . .^ h j '  . . . . . . . . .",
" . . . . . . . . . . .O # # # # # # * d k k k k i * # # # # % $ 0 m c 1 & p k /  . . . . . . . . . .",
" . . . . . . . . . . .O # # # # # # # a k k k k 4 # # # # # # # # # # # # 7 l  . . . . . . . . . . .",
" . . . . . . . . . . .O # # # # # # # s k k k p # # # # # # # # # # # # # < (  . . . . . . . . . . .",
" . . . . . . . . . . .O # # # # # # * f k k k w # # # # # # # # # # # # # 8  . . . . . . . . . . . .",
" . . . . . . . . . . .O # # # # # # 3 k k k k t # # # # # # # # # # # # # `  . . . . . . . . . . . .",
" . . . . . . . . . . .O # # # # # # u k k k k g , # # # # # # # # # # # b  . . . . . . . . . . . . .",
" . . . . . . . . . . .O # # # # - r A K C ~ z k p - # # # # # # # # $ v  . . . . . . . . . . . . . .",
" . . . . . . . . . . .O # # # y '  . . . . . .| S p : # # # # # @ 9  . . . . . . . . . . . . . . . .",
" . . . . . . . . . . .+ ; M  . . . . . . . . . . . ._ e = % = x W  . . . . . . . . . . . . . . . . .",
" . . . . . . . . . . .o I  . . . . . . . . . . . . . . . . . . . . . . . . . . . . . . . . . . . . .",
" . . . . . . . . . . .  P  . . . . . . . . . . . . . . . . . . . . . . . . . . . . . . . . . . . . .",
" . . . . . . . . . . .. R  . . . . . . . . . . . . . . . . . . . . . . . . . . . . . . . . . . . . .",
" . . . . . . . . . . .X U  . . . . . . . . . . . . . . . . . . . . . . . . . . . . . . . . . . . . .",
" . . . . . . . . . . .X U  . . . . . . . . . . . . . . . . . . . . . . . . . . . . . . . . . . . . .",
" . . . . . . . . . . .X U  . . . . . . . . . . . . . . . . . . . . . . . . . . . . . . . . . . . . .",
" . . . . . . . . . . .X U  . . . . . . . . . . . . . . . . . . . . . . . . . . . . . . . . . . . . .",
" . . . . . . . . . . .X U  . . . . . . . . . . . . . . . . . . . . . . . . . . . . . . . . . . . . .",
" . . . . . . . . . . .X U  . . . . . . . . . . . . . . . . . . . . . . . . . . . . . . . . . . . . .",
" . . . . . . . . . . .X U  . . . . . . . . . . . . . . . . . . . . . . . . . . . . . . . . . . . . .",
" . . . . . . . . . . .X U  . . . . . . . . . . . . . . . . . . . . . . . . . . . . . . . . . . . . .",
" . . . . . . . . . . .X U  . . . . . . . . . . . . . . . . . . . . . . . . . . . . . . . . . . . . .",
" . . . . . . . . . . .X Y  . . . . . . . . . . . . . . . . . . . . . . . . . . . . . . . . . . . . .",
" . . . . . . . . . . .X Y  . . . . . . . . . . . . . . . . . . . . . . . . . . . . . . . . . . . . .",
" . . . . . . . . . . .X Y  . . . . . . . . . . . . . . . . . . . . . . . . . . . . . . . . . . . . .",
" . . . . . . . . . . .X Y  . . . . . . . . . . . . . . . . . . . . . . . . . . . . . . . . . . . . .",
" . . . . . . . . . . .X Y  . . . . . . . . . . . . . . . . . . . . . . . . . . . . . . . . . . . . .",
" . . . . . . . . . . .X T  . . . . . . . . . . . . . . . . . . . . . . . . . . . . . . . . . . . . .",
" . . . . . . . . . . .X R  . . . . . . . . . . . . . . . . . . . . . . . . . . . . . . . . . . . . .",
" . . . . . . . . . . .X E  . . . . . . . . . . . . . . . . . . . . . . . . . . . . . . . . . . . . .",
" . . . . . . . . . . . . . . . . . . . . . . . . . . . . . . . . . . . . . . . . . . . . . . . . . .",
" . . . . . . . . . . . . . . . . . . . . . . . . . . . . . . . . . . . . . . . . . . . . . . . . . .",
" . . . . . . . . . . . . . . . . . . . . . . . . . . . . . . . . . . . . . . . . . . . . . . . . . .",
" . . . . . . . . . . . . . . . . . . . . . . . . . . . . . . . . . . . . . . . . . . . . . . . . . .",
" . . . . . . . . . . . . . . . . . . . . . . . . . . . . . . . . . . . . . . . . . . . . . . . . . ."
};
