/* XPM */
static char *result[] = {
/* columns rows colors chars-per-pixel */
"50 50 101 2 ",
"   c #853122",
".  c #AB4530",
"X  c #AC4530",
"o  c #AC4531",
"O  c #AD4531",
"+  c #FD1D56",
"@  c #FD1D57",
"#  c #FE1D57",
"$  c #FD1E57",
"%  c #FE1E57",
"&  c #FD1D58",
"*  c #FE1D58",
"=  c #FD1E58",
"-  c #FD1F59",
";  c #FE1E58",
":  c #FE1F59",
">  c #DA2149",
",  c #FD2159",
"<  c #FE205A",
"1  c #FE205B",
"2  c #FE215B",
"3  c #FD235A",
"4  c #FD255B",
"5  c #FC265B",
"6  c #FE215C",
"7  c #FE225C",
"8  c #FE245D",
"9  c #FD275C",
"0  c #FD255F",
"q  c #FE245E",
"w  c #FE255E",
"e  c #FE255F",
"r  c #FC2A5D",
"t  c #FC2B5E",
"y  c #FC315F",
"u  c #FE2760",
"i  c #FE2761",
"p  c #FE2863",
"a  c #FE2963",
"s  c #FE2B64",
"d  c #FE2B65",
"f  c #FE2C66",
"g  c #FE2D67",
"h  c #FF2D67",
"j  c #FF2E67",
"k  c #FD2D68",
"l  c #FF2D68",
"z  c #FD2E68",
"x  c #FD2E69",
"c  c #FE2E68",
"v  c #FF2E68",
"b  c #FC3362",
"n  c #FA3663",
"m  c #FA3764",
"M  c #FC3767",
"N  c #FB3A65",
"B  c #FC3A64",
"V  c #FC3C67",
"C  c #FE3169",
"Z  c #FD3368",
"A  c #FE326A",
"S  c #FD376E",
"D  c #FE386D",
"F  c #FD3D6F",
"G  c #FC3F70",
"H  c #9B5850",
"J  c #9F5951",
"K  c #A05951",
"L  c #A05A52",
"P  c #B8675A",
"I  c #D55363",
"U  c #FB436B",
"Y  c #FA416F",
"T  c #FA466E",
"R  c #FA476E",
"E  c #F14D6C",
"W  c #FB4D6E",
"Q  c #F4526C",
"!  c #F6526D",
"~  c #F7526E",
"^  c #F7526F",
"/  c #F8526E",
"(  c #F9526F",
")  c #F8536F",
"_  c #FC4071",
"`  c #FD4071",
"'  c #FD4172",
"]  c #FD4372",
"[  c #FB4677",
"{  c #FC4674",
"}  c #FA4A70",
"|  c #FB4875",
" . c #FB4E79",
".. c #FB4E7A",
"X. c #FB4F7A",
"o. c #FB4F7C",
"O. c #FA5170",
"+. c #F95270",
"@. c #FA5270",
"#. c #FB517A",
"$. c None",
/* pixels */
"$.$.$.$.$.$.$.$.$.$.$.$.$.$.$.$.$.$.$.$.$.$.$.$.$.$.$.$.$.$.$.$.$.$.$.$.$.$.$.$.$.$.$.$.$.$.$.$.$.$.",
"$.$.$.$.$.$.$.$.$.$.$.$.$.$.$.$.$.$.$.$.$.$.$.$.$.$.$.$.$.$.$.$.$.$.$.$.$.$.$.$.$.$.$.$.$.$.$.$.$.$.",
"$.$.$.$.$.$.$.$.$.$.$.$.$.$.$.$.$.$.$.$.$.$.$.$.$.$.$.$.$.$.$.$.$.$.$.$.$.$.$.$.$.$.$.$.$.$.$.$.$.$.",
"$.$.$.$.$.$.$.$.$.$.$.$.$.$.$.$.$.$.$.$.$.$.$.$.$.$.$.$.$.$.$.$.$.$.$.$.$.$.$.$.$.$.$.$.$.$.$.$.$.$.",
"$.$.$.$.$.$.$.$.$.$.$.$.$.$.$.$.$.$.$.$.$.$.$.$.$.$.$.$.$.$.$.$.$.$.$.$.$.$.$.$.$.$.$.$.$.$.$.$.$.$.",
"$.$.$.$.$.$.$.$.$.$.$.$.$.$.$.$.$.$.$.$.$.$.$.$.$.$.$.$.$.$.$.$.$.$.$.$.$.$.$.$.$.$.$.$.$.$.$.$.$.$.",
"$.$.$.$.$.$.$.$.$.$.$.$.$.$.$.$.$.$.$.$.$.$.$.$.$.$.$.$.$.$.$.$.$.$.$.$.$.$.$.$.$.$.$.$.$.$.$.$.$.$.",
"$.$.$.$.$.$.$.$.$.$.$.$.$.$.$.$.$.$.$.$.$.$.$.$.$.$.$.$.$.$.$.$.$.$.$.$.$.$.$.$.$.$.$.$.$.$.$.$.$.$.",
"$.$.$.$.$.$.$.$.$.$.$.$.$.$.$.X.] S k c v v x _ ..$.$.$.$.$.$.$.$.$.$.$.$.$.$.$.$.$.$.$.$.$.$.$.$.$.",
"$.$.$.$.$.$.$.$.$.$.R V y 3 ; - 7 a v v v v v v v C G $.$.$.$.$.$.$.$.$.$.$.$.$.$.$.$.$.$.$.$.$.$.$.",
"$.$.$.$.$.O.+ + # # # # # # # # # % u v v v v v v f 8 2 m $.$.$.$.$.$.$.$.$.$.$.| $.$.$.$.$.$.$.$.$.",
"$.$.$.$.$.@.# # # # # # # # # # # # ; d v v v v h < # # # 9 $.$.$.$.$.$.$.$.$.{ D $.$.$.$.$.$.$.$.$.",
"$.$.$.$.$.@.# # # # # # # # # # # # # w v v v v i @ # # # # @ N $.$.$.$.$.U Z c ' $.$.$.$.$.$.$.$.$.",
"$.$.$.$.$.+.# # # # # # # # # # # # # 1 l v v v 2 # # # # # # # $ 4 9 , # # 7 z $.$.$.$.$.$.$.$.$.$.",
"$.$.$.$.$.( # # # # # # # # # # # # # : h v v v < # # # # # # # # # # # # # 2 F $.$.$.$.$.$.$.$.$.$.",
"$.$.$.$.$.( # # # # # # # # # # # # # : h v v v < # # # # # # # # # # # # # 0 $.$.$.$.$.$.$.$.$.$.$.",
"$.$.$.$.$.) # # # # # # # # # # # # # 6 v v v v q # # # # # # # # # # # # * Y $.$.$.$.$.$.$.$.$.$.$.",
"$.$.$.$.$.^ # # # # # # # # # # # # # u v v v v d * # # # # # # # # # # # B $.$.$.$.$.$.$.$.$.$.$.$.",
"$.$.$.$.$./ # # # # # # # # # # # @ = f c v v v v e # # # # # # # # # $ N $.$.$.$.$.$.$.$.$.$.$.$.$.",
"$.$.$.$.$.~ # # # # # # # # # & b } $.$.#.' A v v j i : # # # # # @ r $.$.$.$.$.$.$.$.$.$.$.$.$.$.$.",
"$.$.$.$.$.! # # # # # # # @ n $.$.$.$.$.$.$.$.$. .` c g s p u e M $.$.$.$.$.$.$.$.$.$.$.$.$.$.$.$.$.",
"$.$.$.$.$.! # # # # # # 5 } $.$.$.$.$.$.$.$.$.$.$.$.$.$.o.[ $.$.$.$.$.$.$.$.$.$.$.$.$.$.$.$.$.$.$.$.",
"$.$.$.$.$.Q # # # # t T $.$.$.$.$.$.$.$.$.$.$.$.$.$.$.$.$.$.$.$.$.$.$.$.$.$.$.$.$.$.$.$.$.$.$.$.$.$.",
"$.$.$.$.$.I > E W $.$.$.$.$.$.$.$.$.$.$.$.$.$.$.$.$.$.$.$.$.$.$.$.$.$.$.$.$.$.$.$.$.$.$.$.$.$.$.$.$.",
"$.$.$.$.$.H   $.$.$.$.$.$.$.$.$.$.$.$.$.$.$.$.$.$.$.$.$.$.$.$.$.$.$.$.$.$.$.$.$.$.$.$.$.$.$.$.$.$.$.",
"$.$.$.$.$.J . $.$.$.$.$.$.$.$.$.$.$.$.$.$.$.$.$.$.$.$.$.$.$.$.$.$.$.$.$.$.$.$.$.$.$.$.$.$.$.$.$.$.$.",
"$.$.$.$.$.K X $.$.$.$.$.$.$.$.$.$.$.$.$.$.$.$.$.$.$.$.$.$.$.$.$.$.$.$.$.$.$.$.$.$.$.$.$.$.$.$.$.$.$.",
"$.$.$.$.$.K o $.$.$.$.$.$.$.$.$.$.$.$.$.$.$.$.$.$.$.$.$.$.$.$.$.$.$.$.$.$.$.$.$.$.$.$.$.$.$.$.$.$.$.",
"$.$.$.$.$.K o $.$.$.$.$.$.$.$.$.$.$.$.$.$.$.$.$.$.$.$.$.$.$.$.$.$.$.$.$.$.$.$.$.$.$.$.$.$.$.$.$.$.$.",
"$.$.$.$.$.K o $.$.$.$.$.$.$.$.$.$.$.$.$.$.$.$.$.$.$.$.$.$.$.$.$.$.$.$.$.$.$.$.$.$.$.$.$.$.$.$.$.$.$.",
"$.$.$.$.$.K O $.$.$.$.$.$.$.$.$.$.$.$.$.$.$.$.$.$.$.$.$.$.$.$.$.$.$.$.$.$.$.$.$.$.$.$.$.$.$.$.$.$.$.",
"$.$.$.$.$.K O $.$.$.$.$.$.$.$.$.$.$.$.$.$.$.$.$.$.$.$.$.$.$.$.$.$.$.$.$.$.$.$.$.$.$.$.$.$.$.$.$.$.$.",
"$.$.$.$.$.K O $.$.$.$.$.$.$.$.$.$.$.$.$.$.$.$.$.$.$.$.$.$.$.$.$.$.$.$.$.$.$.$.$.$.$.$.$.$.$.$.$.$.$.",
"$.$.$.$.$.K O $.$.$.$.$.$.$.$.$.$.$.$.$.$.$.$.$.$.$.$.$.$.$.$.$.$.$.$.$.$.$.$.$.$.$.$.$.$.$.$.$.$.$.",
"$.$.$.$.$.K O $.$.$.$.$.$.$.$.$.$.$.$.$.$.$.$.$.$.$.$.$.$.$.$.$.$.$.$.$.$.$.$.$.$.$.$.$.$.$.$.$.$.$.",
"$.$.$.$.$.K O $.$.$.$.$.$.$.$.$.$.$.$.$.$.$.$.$.$.$.$.$.$.$.$.$.$.$.$.$.$.$.$.$.$.$.$.$.$.$.$.$.$.$.",
"$.$.$.$.$.K O $.$.$.$.$.$.$.$.$.$.$.$.$.$.$.$.$.$.$.$.$.$.$.$.$.$.$.$.$.$.$.$.$.$.$.$.$.$.$.$.$.$.$.",
"$.$.$.$.$.K O $.$.$.$.$.$.$.$.$.$.$.$.$.$.$.$.$.$.$.$.$.$.$.$.$.$.$.$.$.$.$.$.$.$.$.$.$.$.$.$.$.$.$.",
"$.$.$.$.$.L O $.$.$.$.$.$.$.$.$.$.$.$.$.$.$.$.$.$.$.$.$.$.$.$.$.$.$.$.$.$.$.$.$.$.$.$.$.$.$.$.$.$.$.",
"$.$.$.$.$.K O $.$.$.$.$.$.$.$.$.$.$.$.$.$.$.$.$.$.$.$.$.$.$.$.$.$.$.$.$.$.$.$.$.$.$.$.$.$.$.$.$.$.$.",
"$.$.$.$.$.K O $.$.$.$.$.$.$.$.$.$.$.$.$.$.$.$.$.$.$.$.$.$.$.$.$.$.$.$.$.$.$.$.$.$.$.$.$.$.$.$.$.$.$.",
"$.$.$.$.$.K O $.$.$.$.$.$.$.$.$.$.$.$.$.$.$.$.$.$.$.$.$.$.$.$.$.$.$.$.$.$.$.$.$.$.$.$.$.$.$.$.$.$.$.",
"$.$.$.$.$.K O $.$.$.$.$.$.$.$.$.$.$.$.$.$.$.$.$.$.$.$.$.$.$.$.$.$.$.$.$.$.$.$.$.$.$.$.$.$.$.$.$.$.$.",
"$.$.$.$.$.K O $.$.$.$.$.$.$.$.$.$.$.$.$.$.$.$.$.$.$.$.$.$.$.$.$.$.$.$.$.$.$.$.$.$.$.$.$.$.$.$.$.$.$.",
"$.$.$.$.$.K X $.$.$.$.$.$.$.$.$.$.$.$.$.$.$.$.$.$.$.$.$.$.$.$.$.$.$.$.$.$.$.$.$.$.$.$.$.$.$.$.$.$.$.",
"$.$.$.$.$.$.P $.$.$.$.$.$.$.$.$.$.$.$.$.$.$.$.$.$.$.$.$.$.$.$.$.$.$.$.$.$.$.$.$.$.$.$.$.$.$.$.$.$.$.",
"$.$.$.$.$.$.$.$.$.$.$.$.$.$.$.$.$.$.$.$.$.$.$.$.$.$.$.$.$.$.$.$.$.$.$.$.$.$.$.$.$.$.$.$.$.$.$.$.$.$.",
"$.$.$.$.$.$.$.$.$.$.$.$.$.$.$.$.$.$.$.$.$.$.$.$.$.$.$.$.$.$.$.$.$.$.$.$.$.$.$.$.$.$.$.$.$.$.$.$.$.$.",
"$.$.$.$.$.$.$.$.$.$.$.$.$.$.$.$.$.$.$.$.$.$.$.$.$.$.$.$.$.$.$.$.$.$.$.$.$.$.$.$.$.$.$.$.$.$.$.$.$.$.",
"$.$.$.$.$.$.$.$.$.$.$.$.$.$.$.$.$.$.$.$.$.$.$.$.$.$.$.$.$.$.$.$.$.$.$.$.$.$.$.$.$.$.$.$.$.$.$.$.$.$."
};
