/* XPM */
static char *_9b6945c15504ac69247603333445920iEdrMrJcyvsoIWz4[] = {
/* columns rows colors chars-per-pixel */
"50 50 91 1 ",
"  c None",
". c #932D1C",
"X c #932E1C",
"o c #932E1D",
"O c #942E1D",
"+ c #952923",
"@ c #9D3C29",
"# c #AB422E",
"$ c #AB432F",
"% c #AC432E",
"& c #BD2C42",
"* c #FD1B56",
"= c #FB1C56",
"- c #FB1D56",
"; c #FA1C57",
": c #FB1C57",
"> c #FB1D57",
", c #FA1E57",
"< c #FB1E57",
"1 c #FC1C56",
"2 c #FD1C56",
"3 c #FC1D56",
"4 c #FD1D56",
"5 c #FC1C57",
"6 c #FD1C57",
"7 c #FC1D57",
"8 c #FD1D57",
"9 c #FE1C56",
"0 c #FE1D56",
"q c #FE1C57",
"w c #FE1D57",
"e c #FB1D58",
"r c #F91F58",
"t c #FA1E58",
"y c #FC1D58",
"u c #FD1E58",
"i c #FD1F59",
"p c #FE1E58",
"a c #E42A59",
"s c #FD2059",
"d c #FD205A",
"f c #FD215B",
"g c #FE205A",
"h c #FE215B",
"j c #FD215C",
"k c #FD225C",
"l c #FE235D",
"z c #FC255E",
"x c #FD255F",
"c c #FE245E",
"v c #EF2E61",
"b c #FB2761",
"n c #FE2560",
"m c #FD2660",
"M c #FD2661",
"N c #FE2761",
"B c #FE2662",
"V c #FE2762",
"C c #FE2863",
"Z c #FE2963",
"A c #FE2A63",
"S c #FA2B65",
"D c #FD2A65",
"F c #FC2B65",
"G c #FE2A64",
"H c #FE2B65",
"J c #FA2C65",
"K c #FB2C65",
"L c #FA2C66",
"P c #FB2C66",
"I c #FB2D67",
"U c #FC2C66",
"Y c #FD2C66",
"T c #FC2C67",
"R c #FD2C67",
"E c #FE2C66",
"W c #FF2C66",
"Q c #FE2C67",
"! c #FE2D67",
"~ c #FF2D67",
"^ c #F92F69",
"/ c #FB2F69",
"( c #FD2D68",
") c #FE2D68",
"_ c #FF2D68",
"` c #FC2E68",
"' c #FD2E68",
"] c #FE2E68",
"[ c #FF2E68",
"{ c #FE2F69",
"} c #FB306A",
/* pixels */
"                                                  ",
"                                                  ",
"                            '/}                   ",
"   T}'''G              bT'''''''T}                ",
"   T'''Tj=q:        0=0ejjG'''''[[[[              ",
"   T'''nqp000p0q0p:p0pqppppA''''[[[Tce            ",
"   T''Tg00qp0ppqpq00pq000p0pA'''}T'jp=;           ",
"   T''G0qp00p00q0ppq0ppqp0p0gT''T}np0pp5          ",
"   T''Gpppq0q0pp0qqpqpp00pq0pn''}Tgp0p0pe         ",
"   T''npq0qpp0q0pp0000qq0qp0qg''TTg0p0qp00e       ",
"   T''A00q0ppq0qq0pqpq0pppqq0pG''Tgp0p00p0p=      ",
"   T''n0pp0q0qppqp0qp0qpq00pppC'''cpp0pq0p0p=     ",
"   TTTA0q0pq0pq000pqpq00qpp0qpn'''Gpp00pp0p0pq=   ",
"   TT}Asqp0q0qp0pqp00qpq00qq0pG''''nqqp00pqp0p==0 ",
"   T[[Tg00ppppqqqpq00pqppqppp    'KTj=0pp00ep0=p=s",
"   T[[Tlpqq0q00p00qpqp00p=0                       ",
"   S'''nqpp0p00qppq0q0p0e:                        ",
"   S'''Gp0qqqqppq0qpp0q0=                         ",
"   K'''Gpp0p0pq00q0p0p=                           ",
"   T''''n=qp0qp0pp0q:e                            ",
"   a'''''j0pp0ppq:0                               ",
"   +&v'''Gjp00=;                                  ",
"   X@                                             ",
"   O%                                             ",
"   O$                                             ",
"   O$                                             ",
"   O$                                             ",
"   O$                                             ",
"   O$                                             ",
"   O$                                             ",
"   O$                                             ",
"   O$                                             ",
"   O$                                             ",
"   O$                                             ",
"   O$                                             ",
"   O$                                             ",
"   O$                                             ",
"   O$                                             ",
"   O$                                             ",
"   O$                                             ",
"   O$                                             ",
"   O$                                             ",
"   X$                                             ",
"   X$                                             ",
"   X$                                             ",
"   O$                                             ",
"   O$                                             ",
"   X$                                             ",
"                                                  ",
"                                                  "
};
