/* XPM */
static char *_6ddde0343b8493787fc8e36ff2e6a626aF3UCl9v1d9RwlA[] = {
/* columns rows colors chars-per-pixel */
"50 50 170 2 ",
"   c None",
".  c #7C3023",
"X  c #862E20",
"o  c #9B3A27",
"O  c #9C3926",
"+  c #9D3926",
"@  c #9D3A26",
"#  c #9D3A27",
"$  c #A62232",
"%  c #AE2739",
"&  c #A14734",
"*  c #AB4C37",
"=  c #AB4D37",
"-  c #AB4C38",
";  c #AB4D38",
":  c #AB4C39",
">  c #AB4D39",
",  c #AC4D39",
"<  c #F51F57",
"1  c #F71F57",
"2  c #FB1E55",
"3  c #FA1D56",
"4  c #FB1D56",
"5  c #F81E57",
"6  c #F91E57",
"7  c #F81F57",
"8  c #F91F57",
"9  c #FB1E56",
"0  c #FA1E57",
"q  c #FB1E57",
"w  c #FA1F57",
"e  c #FD1D56",
"r  c #FD1C57",
"t  c #FC1D57",
"y  c #FD1D57",
"u  c #FE1D56",
"i  c #FE1C57",
"p  c #FE1D57",
"a  c #FD1E56",
"s  c #FC1E57",
"d  c #FD1E57",
"f  c #F71F58",
"g  c #F71E59",
"h  c #FB1D58",
"j  c #F91E58",
"k  c #F81E59",
"l  c #F91F59",
"z  c #FA1E58",
"x  c #FB1F59",
"c  c #FC1D58",
"v  c #FD1D58",
"b  c #FE1D58",
"n  c #FD1E58",
"m  c #FC1F58",
"M  c #FD1F59",
"N  c #FE1E58",
"B  c #FC1F5A",
"V  c #EB2557",
"C  c #EE2259",
"Z  c #EF235B",
"A  c #ED2459",
"S  c #EF2458",
"D  c #ED265A",
"F  c #EF265A",
"G  c #EB275C",
"H  c #EE265D",
"J  c #F42156",
"K  c #F72056",
"L  c #F72057",
"P  c #F22159",
"I  c #F32159",
"U  c #F02259",
"Y  c #F0225A",
"T  c #F1225A",
"R  c #F1235A",
"E  c #F52058",
"W  c #F42158",
"Q  c #F52158",
"!  c #F52059",
"~  c #F62058",
"^  c #F72058",
"/  c #F62059",
"(  c #F72059",
")  c #F62159",
"_  c #F72159",
"`  c #F42259",
"'  c #F4205A",
"]  c #F7205A",
"[  c #F02459",
"{  c #F6245B",
"}  c #F6255D",
"|  c #F82058",
" . c #F9225B",
".. c #FC205A",
"X. c #FD205B",
"o. c #FD215B",
"O. c #FD225C",
"+. c #FD225D",
"@. c #FD235D",
"#. c #FD235E",
"$. c #F9255E",
"%. c #FB255E",
"&. c #FB255F",
"*. c #FD245E",
"=. c #FD255F",
"-. c #FD265F",
";. c #FB2761",
":. c #FC2560",
">. c #FC2661",
",. c #FD2761",
"<. c #FD2763",
"1. c #F02B61",
"2. c #F72A63",
"3. c #F52C63",
"4. c #F12F67",
"5. c #F32F66",
"6. c #FC2862",
"7. c #FC2962",
"8. c #FD2863",
"9. c #FD2963",
"0. c #FE2863",
"q. c #FD2A62",
"w. c #FE2A64",
"e. c #FE2A65",
"r. c #F92C65",
"t. c #F92F67",
"y. c #FB2E67",
"u. c #FC2C65",
"i. c #FE2C65",
"p. c #FE2C66",
"a. c #FE2C67",
"s. c #FE2D67",
"d. c #FC2E67",
"f. c #FD2E67",
"g. c #F92F68",
"h. c #FB2E68",
"j. c #FD2D68",
"k. c #FF2D68",
"l. c #FD2E68",
"z. c #FD2F68",
"x. c #FC2F69",
"c. c #FE2E68",
"v. c #FF2E68",
"b. c #EF346A",
"n. c #EE366B",
"m. c #EF376D",
"M. c #E13E6F",
"N. c #F33369",
"B. c #F1336A",
"V. c #F3336A",
"C. c #F3336B",
"Z. c #F63069",
"A. c #F73169",
"S. c #F5316A",
"D. c #F6316A",
"F. c #F7316A",
"G. c #F4326A",
"H. c #F4336A",
"J. c #F5326B",
"K. c #F13468",
"L. c #F0346B",
"P. c #F3346B",
"I. c #F3336C",
"U. c #F93068",
"Y. c #F83168",
"T. c #F83069",
"R. c #F93069",
"E. c #F83169",
"W. c #FA3069",
"Q. c #F8306A",
/* pixels */
"                                                                                                    ",
"                                                                                                    ",
"                                b.V.Q.Q.Q.Q.Q.Q.Q.P.m.                                              ",
"                        R R _ | &.9.v.v.v.v.a.v.v.v.v.Y.P.                                          ",
"        V S S S ` J _ t t t t t t B O.9.v.v.v.v.v.v.v.a.a.r.3.                                M.    ",
"        g t x B t t t B t t t t t t t o.a.v.v.v.v.v.v.a.>...2 x S                           P.      ",
"        ..t t t t t t t t t t t t t t t -.v.v.v.v.v.v.0.t t t B t _                       Z.V.      ",
"        2 t t t t t t t t t t t t t t t o.a.v.v.v.v.9.o.t t t t t t | R               1.Y.v.b.      ",
"        2 B t t t t t t t t t t t t t t t i.v.v.v.v.>.t t t t t t t t t | _ | | _ 2 2 t >.H.        ",
"        t t t t t t t t t t t t t t t t t 0.v.v.v.v.-.t t t t t t t t t t t t t B t B t >.I.        ",
"        | t t t t t t t t t t t t t t t t 0.v.v.v.v.&.t t t t t t t t t t t t t r t t t 2.          ",
"        2 t t t t t t t t t t t t t t t B 0.v.v.v.v.-.t t t t t t t t t t t t t t t r x V.          ",
"        | t t t t t t t t t t t t t t t t i.a.v.v.v.0...t t t t t t t t t t t t t t t |             ",
"        | t t t t t t t t t t t t t t t o.a.v.v.v.v.v.@.t t t t t t t t t t t t t t _               ",
"        | t t t t t t t t t t t t t t t -.a.v.a.v.v.v.0.t t t t t t t t t t t t 2 _                 ",
"        | t t t t t t t t t B t t x J _ 5.H.Y.v.Y.v.a.a.>.B t t t t t t t t 2 x R                   ",
"        2 t t t t t t t r B x 2 R               H.Q.t.a.v.9.-.B x r t t t 2 _ G                     ",
"        | t t t t r B x r 2 _                         P.H.t.a.9.0.>.&.&.} S                         ",
"        J t t t t t t 2 < C                                   P.H.V.V.                              ",
"        | t t t t t g R                                                                             ",
"        J x x _ x C                                                                                 ",
"        $ %                                                                                         ",
"        X .                                                                                         ",
"        # &                                                                                         ",
"        # ,                                                                                         ",
"        # ,                                                                                         ",
"        # ,                                                                                         ",
"        # =                                                                                         ",
"        # *                                                                                         ",
"        # *                                                                                         ",
"        # *                                                                                         ",
"        # =                                                                                         ",
"        # *                                                                                         ",
"        # *                                                                                         ",
"        # *                                                                                         ",
"        # =                                                                                         ",
"        # =                                                                                         ",
"        # =                                                                                         ",
"        # =                                                                                         ",
"        # =                                                                                         ",
"        # =                                                                                         ",
"        # =                                                                                         ",
"        # =                                                                                         ",
"        # =                                                                                         ",
"        # *                                                                                         ",
"        # -                                                                                         ",
"        # *                                                                                         ",
"        # ,                                                                                         ",
"                                                                                                    ",
"                                                                                                    "
};
