/* XPM */
static char *result[] = {
/* columns rows colors chars-per-pixel */
"50 50 87 1 ",
"  c #A33D2A",
". c #A53E2A",
"X c #A53E2B",
"o c #AA2D39",
"O c #FD1D57",
"+ c #FE1D57",
"@ c #FD1E57",
"# c #FE1E57",
"$ c #FC1E58",
"% c #FD1E58",
"& c #FD1F58",
"* c #FE1E58",
"= c #FE1F58",
"- c #FE1F5A",
"; c #FD2058",
": c #FE2159",
"> c #FD2359",
", c #FD205A",
"< c #FD215A",
"1 c #FD215B",
"2 c #FE205A",
"3 c #FE215B",
"4 c #FD245A",
"5 c #FD255A",
"6 c #FD275B",
"7 c #FE235C",
"8 c #FE235D",
"9 c #FD255C",
"0 c #FD265C",
"q c #FC275C",
"w c #FE265F",
"e c #FC2C5E",
"r c #FC2D5E",
"t c #FD305E",
"y c #FC305F",
"u c #FC315F",
"i c #FE2560",
"p c #FE2660",
"a c #FE2661",
"s c #FE2761",
"d c #FD2762",
"f c #FE2862",
"g c #FE2963",
"h c #FE2A63",
"j c #FE2964",
"k c #FE2A64",
"l c #FE2B65",
"z c #FB2E67",
"x c #FF2C66",
"c c #FE2D67",
"v c #FF2D67",
"b c #FD2F69",
"n c #FE2E68",
"m c #FF2E68",
"M c #EB3865",
"N c #FB3161",
"B c #FC3060",
"V c #FC3161",
"C c #FC3363",
"Z c #FB3563",
"A c #FB3B66",
"S c #FA3E67",
"D c #FE3069",
"F c #FE356D",
"G c #FD366C",
"H c #FE376C",
"J c #FA3F68",
"K c #FD3A6C",
"L c #FD396E",
"P c #FD3B6F",
"I c #FC3D70",
"U c #FD3F70",
"Y c #FA4169",
"T c #FB4369",
"R c #FB406A",
"E c #FA416A",
"W c #FB406B",
"Q c #FA446C",
"! c #FD4173",
"~ c #FD4374",
"^ c #FA4B70",
"/ c #FB4B76",
"( c #FC4875",
") c #FC4F79",
"_ c #F95175",
"` c #FC5079",
"' c None",
/* pixels */
"''''''''''''''''''''''''''''''''''''''''''''''''''",
"''''''''''''''''''''''''''''''''''''''''''''''''''",
"''''''''''''''''''''''''''''''''''''''''''''''''''",
"''''''''''''''''''''''''''''''''''''''''''''''''''",
"''''''''''''''''''''''''''''''''''''''''''''''''''",
"''''''''''''''''''''''''''''''''''''''''''''''''''",
"''''''''''''''''''''''''''''''''''''''''''''''''''",
"''''''''''''''''''''''''''''''''''''''''''''''''''",
"''''''''''''''''''''''''''''''''''''''''''''''''''",
"'''''''!F~)'''''''''''''/LGnnnmH('''''''''''''''''",
"'''''''mmmk%4BY'''''TV6#*3fmmmmmmDU'''''''''''''''",
"'''''''mmv<++++O=;*++++++++wmmmmmmfq''''''''''''''",
"'''''''mml#+++++++++++++++++hmmmmj++OW''''''''''''",
"'''''''mms++++++++++++++++++,cmmm3+++OZ'''''''''''",
"'''''''mmi+++++++++++++++++++fmmv%+++++5''''''''''",
"'''''''mma+++++++++++++++++++7mmm-++++++&S''''''''",
"'''''''mmf+++++++++++++++++++3mmmp+++++++Or'''''''",
"'''''''mmk+++++++++++++++++++7mmnc1++++++++@A'''''",
"'''''''mmx*++++++++++++++++>J'''`IK9+++++++0tC_'''",
"'''''''mmm2++++++++++++++ON'''''''''''''''''''''''",
"'''''''mmm8+++++++++++++@E''''''''''''''''''''''''",
"'''''''mmmg+++++++++++Oe''''''''''''''''''''''''''",
"'''''''mmmm3+++++++++4Q'''''''''''''''''''''''''''",
"'''''''zmmmk++++++:y^'''''''''''''''''''''''''''''",
"'''''''oMPbcd$quR'''''''''''''''''''''''''''''''''",
"''''''' ''''''''''''''''''''''''''''''''''''''''''",
"'''''''X''''''''''''''''''''''''''''''''''''''''''",
"'''''''X''''''''''''''''''''''''''''''''''''''''''",
"'''''''X''''''''''''''''''''''''''''''''''''''''''",
"'''''''X''''''''''''''''''''''''''''''''''''''''''",
"'''''''X''''''''''''''''''''''''''''''''''''''''''",
"'''''''X''''''''''''''''''''''''''''''''''''''''''",
"'''''''X''''''''''''''''''''''''''''''''''''''''''",
"'''''''X''''''''''''''''''''''''''''''''''''''''''",
"'''''''X''''''''''''''''''''''''''''''''''''''''''",
"'''''''X''''''''''''''''''''''''''''''''''''''''''",
"'''''''X''''''''''''''''''''''''''''''''''''''''''",
"'''''''X''''''''''''''''''''''''''''''''''''''''''",
"'''''''X''''''''''''''''''''''''''''''''''''''''''",
"'''''''X''''''''''''''''''''''''''''''''''''''''''",
"'''''''X''''''''''''''''''''''''''''''''''''''''''",
"'''''''X''''''''''''''''''''''''''''''''''''''''''",
"'''''''X''''''''''''''''''''''''''''''''''''''''''",
"'''''''X''''''''''''''''''''''''''''''''''''''''''",
"'''''''X''''''''''''''''''''''''''''''''''''''''''",
"'''''''.''''''''''''''''''''''''''''''''''''''''''",
"''''''''''''''''''''''''''''''''''''''''''''''''''",
"''''''''''''''''''''''''''''''''''''''''''''''''''",
"''''''''''''''''''''''''''''''''''''''''''''''''''",
"''''''''''''''''''''''''''''''''''''''''''''''''''"
};
