/* XPM */
static char *_f51975222064e69e69869754e1980bfLyGuurBHru2ADVkc[] = {
/* columns rows colors chars-per-pixel */
"50 50 153 2 ",
"   c None",
".  c #792A1B",
"X  c #802618",
"o  c #952F1D",
"O  c #972F1C",
"+  c #97301C",
"@  c #97301D",
"#  c #AC1D33",
"$  c #9D3D2A",
"%  c #A12430",
"&  c #AD432F",
"*  c #AC4430",
"=  c #AD4430",
"-  c #AC4431",
";  c #F31D55",
":  c #F21D56",
">  c #F41C55",
",  c #F51C55",
"<  c #F41D55",
"1  c #F51C56",
"2  c #F41D56",
"3  c #F51D56",
"4  c #F61C56",
"5  c #F61E57",
"6  c #F71F57",
"7  c #F91D55",
"8  c #F91C56",
"9  c #F91C57",
"0  c #F81D57",
"q  c #F91D57",
"w  c #FB1C56",
"e  c #FA1D56",
"r  c #FB1D56",
"t  c #FA1D57",
"y  c #FB1D57",
"u  c #F81E56",
"i  c #F81E57",
"p  c #F91E57",
"a  c #FA1E57",
"s  c #FB1E57",
"d  c #FC1C56",
"f  c #FC1D56",
"g  c #FD1D56",
"h  c #FD1C57",
"j  c #FC1D57",
"k  c #FD1D57",
"l  c #FE1D56",
"z  c #FE1C57",
"x  c #FF1C57",
"c  c #FE1D57",
"v  c #FC1E56",
"b  c #FC1E57",
"n  c #F21F59",
"m  c #F71D58",
"M  c #F71D59",
"N  c #F51F59",
"B  c #F61E58",
"V  c #F61F58",
"C  c #F71F58",
"Z  c #F61E59",
"A  c #F61F59",
"S  c #F91D58",
"D  c #F81E58",
"F  c #F91E59",
"G  c #F91F59",
"H  c #FA1E58",
"J  c #FA1F59",
"K  c #FB1F59",
"L  c #FC1D58",
"P  c #FD1D58",
"I  c #FE1D58",
"U  c #FC1E58",
"Y  c #FD1E58",
"T  c #FC1F58",
"R  c #FC1E59",
"E  c #FD1F59",
"W  c #FC1F5A",
"Q  c #FD1F5A",
"!  c #F72058",
"~  c #F6205B",
"^  c #F7245D",
"/  c #F9205A",
"(  c #F9225B",
")  c #FD205A",
"_  c #FD215C",
"`  c #FD225C",
"'  c #FD225D",
"]  c #FD235D",
"[  c #FD225E",
"{  c #FD235E",
"}  c #F8255E",
"|  c #FA255F",
" . c #FD255E",
".. c #FD255F",
"X. c #FE245E",
"o. c #F82762",
"O. c #FD2560",
"+. c #FC2660",
"@. c #FD2661",
"#. c #FD2763",
"$. c #FD2863",
"%. c #FD2963",
"&. c #FE2862",
"*. c #FE2863",
"=. c #FE2963",
"-. c #F82A65",
";. c #FB2A64",
":. c #FB2B67",
">. c #FE2965",
",. c #FC2A65",
"<. c #FE2A64",
"1. c #FE2A65",
"2. c #FE2B65",
"3. c #FA2C65",
"4. c #F92C67",
"5. c #FA2D67",
"6. c #FB2E67",
"7. c #FC2D66",
"8. c #FE2C66",
"9. c #FE2D67",
"0. c #FE2E67",
"q. c #F72E68",
"w. c #F72F6A",
"e. c #F82D69",
"r. c #FA2D69",
"t. c #F82F68",
"y. c #F92F68",
"u. c #F82E69",
"i. c #F92E69",
"p. c #F82F69",
"a. c #F92F69",
"s. c #FB2E68",
"d. c #FC2D68",
"f. c #FD2D68",
"g. c #FE2C68",
"h. c #FF2D68",
"j. c #FE2D69",
"k. c #FF2D69",
"l. c #FD2E68",
"z. c #FE2E68",
"x. c #FF2E68",
"c. c #FE2E69",
"v. c #F63066",
"b. c #F23269",
"n. c #F63069",
"m. c #F5316A",
"M. c #F6306A",
"N. c #F7306A",
"B. c #F7326A",
"V. c #F3346A",
"C. c #F83068",
"Z. c #F83069",
"A. c #F8306A",
/* pixels */
"                                                                                                    ",
"                                                                                                    ",
"            b.A.i.q.i.i.A.A.A.B.                                                                    ",
"    n | 3.z.z.z.z.z.z.z.z.z.z.z.z.;.|                                                               ",
"    4 c Q $.0.z.z.z.z.z.z.z.z.>._ K y K K N                                                         ",
"    4 c c Q $.z.z.z.z.z.z.z.z._ c c c c c y 4 4                                                     ",
"    4 c c c Q $.z.z.z.z.z.z.O.Q x c c c c c c c c K ! !               4 N ! K K Q K ^ -.B.          ",
"    4 c c c c ` z.z.z.z.z.z.` x c c c c c c c c c x y c y y y K y y K c c c c c c c c K 4.0.i.      ",
"    4 c c c c c $.0.z.z.z.0.Q c c c c c c c c c c c c c c c c c c c c c c c c c c c c y >.z.C.3.q.  ",
"    4 c c c c c ] 0.z.z.0.$.c c c c c c c c c c c c c c c c c c c c c c c c c c y y y _ 4.z.C.A.v.V.",
"    4 c c c c c _ 0.z.z.z.$.c c c c c c c c c c c c c c c c c c c c c c c y c c y N                 ",
"    4 c c c c c _ 0.z.z.0.$.c c c c c c c c c c c c c c c c c c c c c Q y y 4                       ",
"    4 c c c c c _ z.z.z.z.>.c c c c c c c c c c c c c c c c c c c c c y y 4                         ",
"    ; c c c c c O.z.z.z.z.>.` c c c c c c c c c c c c c c c c c c c c y !                           ",
"    4 c c c c c $.0.z.z.z.z.] c c c c c c c c c c c c c c c c c c c y N                             ",
"    4 c c c c ` 0.0.z.z.z.z.$.c c c c c c c c c c c c c c c c y y c 4                               ",
"    ; c c c Q ] z.z.z.z.z.z.0._ c c c c c c c c c c c c c c c y ! y                                 ",
"    ; c c c Q >.z.z.z.z.z.z.z.>.c c c c c c c c c c c c c c c y !                                   ",
"    ; y c c O.z.z.z.z.z.0.z.z.z.O.c c c c c c c c c c c c c y 4                                     ",
"    ; y 4 K i.i.q.B.B.q.i.i.i.z.3.| c c c c c c c c c c y c N                                       ",
"    # %                         A.3.+.K c c Q c c c c c y N                                         ",
"    X .                               ;.N y 4 y y N 4                                               ",
"    @ $                                                                                             ",
"    @ =                                                                                             ",
"    @ &                                                                                             ",
"    @ *                                                                                             ",
"    @ *                                                                                             ",
"    @ &                                                                                             ",
"    @ *                                                                                             ",
"    + *                                                                                             ",
"    + &                                                                                             ",
"    @ =                                                                                             ",
"    @ &                                                                                             ",
"    @ *                                                                                             ",
"    + &                                                                                             ",
"    + *                                                                                             ",
"    + *                                                                                             ",
"    + *                                                                                             ",
"    + *                                                                                             ",
"    + *                                                                                             ",
"    + *                                                                                             ",
"    + *                                                                                             ",
"    + *                                                                                             ",
"    + *                                                                                             ",
"    + *                                                                                             ",
"    + *                                                                                             ",
"    @ &                                                                                             ",
"    @ &                                                                                             ",
"                                                                                                    ",
"                                                                                                    "
};
