/* XPM */
static char *_8ab665fd87a4f51c4b7233b34a3df4fH4w7Rye7MiX7hLto[] = {
/* columns rows colors chars-per-pixel */
"32 32 194 2 ",
"   c #0B6894",
".  c #04689C",
"X  c #0B6C9D",
"o  c #056595",
"O  c #1B6997",
"+  c #1B6C99",
"@  c #16729C",
"#  c #1D739D",
"$  c #206E94",
"%  c #236D9A",
"&  c #24739C",
"*  c #2E769D",
"=  c #2C7A9E",
"-  c #337396",
";  c #327B9E",
":  c #026EA1",
">  c #2173A1",
",  c #2974A3",
"<  c #267CA5",
"1  c #2D7CA3",
"2  c #2B7DA9",
"3  c #327DA5",
"4  c #3A7DA4",
"5  c #327FA9",
"6  c #3A7EAA",
"7  c #3582A4",
"8  c #3C83A5",
"9  c #3E8BA5",
"0  c #3482AB",
"q  c #3B85AA",
"w  c #3C8BAD",
"e  c #3E85B1",
"r  c #3E8BB3",
"t  c #338BB3",
"y  c #4680A6",
"u  c #4486AD",
"i  c #438AAB",
"p  c #4B8BAD",
"a  c #508CA8",
"s  c #4590AE",
"d  c #4B90AD",
"f  c #4487B1",
"g  c #448CB3",
"h  c #498DB2",
"j  c #4491B3",
"k  c #4B94B5",
"l  c #4F99B6",
"z  c #4692B8",
"x  c #4C94BB",
"c  c #4D9ABB",
"v  c #5295B4",
"b  c #5895B2",
"n  c #539AB5",
"m  c #5E9AB6",
"M  c #549BBB",
"N  c #5B9EBC",
"B  c #56A3BE",
"V  c #5BA3BC",
"C  c #64A4BC",
"Z  c #6DA6BD",
"A  c #5097C1",
"S  c #529CC2",
"D  c #5A9FC2",
"F  c #55A1C3",
"G  c #5DA3C5",
"H  c #5DA9C5",
"J  c #5DA5C9",
"K  c #5DABCA",
"L  c #5EB0C6",
"P  c #5BB0CF",
"I  c #64A6C4",
"U  c #6BA4C3",
"Y  c #62AAC3",
"T  c #6AACC4",
"R  c #63ACCD",
"E  c #6AAECC",
"W  c #63B1CB",
"Q  c #6AB4CD",
"!  c #70B1C7",
"~  c #74B4CD",
"^  c #78B1CC",
"/  c #63AFD3",
"(  c #6CAFD2",
")  c #70AED3",
"_  c #6CB5D3",
"`  c #67B8D5",
"'  c #6CBAD6",
"]  c #6BB5D8",
"[  c #6DBCDB",
"{  c #72B6D1",
"}  c #7AB6D2",
"|  c #73BCD5",
" . c #7CBED4",
".. c #73BCDB",
"X. c #7ABEDB",
"o. c #76BEE2",
"O. c #7ABEE0",
"+. c #6FC0DE",
"@. c #75C0D7",
"#. c #7BC2D6",
"$. c #75C2DC",
"%. c #7BC3DC",
"&. c #7AC8DF",
"*. c #6FC2E4",
"=. c #6FCBE4",
"-. c #75C3E2",
";. c #7CC5E3",
":. c #7DCAE4",
">. c #7BC4EB",
",. c #75CAEC",
"<. c #7CCBEA",
"1. c #72C4E9",
"2. c #7ED0EA",
"3. c #76C9F1",
"4. c #7DCBF1",
"5. c #7BD6F1",
"6. c #81BCD4",
"7. c #80BDD9",
"8. c #81BBE0",
"9. c #89C5D0",
"0. c #84C4DC",
"q. c #8EC5D9",
"w. c #8DCBDF",
"e. c #85CDDC",
"r. c #92C5D8",
"t. c #83C5E2",
"y. c #8CC6E2",
"u. c #84CBE5",
"i. c #8BCCE5",
"p. c #85C7E9",
"a. c #84CDEB",
"s. c #8BCDEB",
"d. c #93CFE5",
"f. c #9ACCE7",
"g. c #93CEEB",
"h. c #9ACEEE",
"j. c #8CD1E6",
"k. c #84D2EC",
"l. c #8CD2EC",
"z. c #87D8EB",
"x. c #8CD9ED",
"c. c #93D2E5",
"v. c #99D3E4",
"b. c #99DBE7",
"n. c #94D3EC",
"m. c #9BD4EB",
"M. c #95D9EE",
"N. c #9BDBED",
"B. c #82CDF1",
"V. c #8BCFF1",
"C. c #92CEF2",
"Z. c #84D5F1",
"A. c #8BD3F1",
"S. c #8CDAF1",
"D. c #84DAF5",
"F. c #94D4F2",
"G. c #9AD5F2",
"H. c #93DBF3",
"J. c #9CDBF3",
"K. c #A1D5EC",
"L. c #A3DBED",
"P. c #A8DCED",
"I. c #B5DDE5",
"U. c #B8DEEC",
"Y. c #A0D6F0",
"T. c #A2DEF5",
"R. c #A2DDF3",
"E. c #ABDDF1",
"W. c #9EE2F3",
"Q. c #A6E2EF",
"!. c #ACE2EE",
"~. c #B2E0EF",
"^. c #B6EBEF",
"/. c #A4E3F5",
"(. c #ACE3F2",
"). c #A3E4F8",
"_. c #AFE7F8",
"`. c #B2E2F3",
"'. c #B2E7F7",
"]. c #BAE5F5",
"[. c #B4E8F3",
"{. c #BCEAF7",
"}. c #B7E7FB",
"|. c #BEE7F9",
" X c #BCEDFA",
".X c #BEF1F4",
"XX c #CBEEF4",
"oX c #C5EFFB",
"OX c #C4F4F6",
"+X c #CCF2F7",
"@X c #CCF4FA",
"#X c #D6F9F3",
"$X c #D5F4FE",
"%X c #DBF4F9",
/* pixels */
"i.U k q k b.Y.j.g.v.f.u (.oXj.Y.m.K.9.N n.<.l.s.j.0.c.8 l.k.m.E.",
"2.M W.k.o.q :.Z.n.u.Y Z %X+X<.F.L.L.I ~ /.<.m.u.i.C.! N n.s.v.OX",
"` D M.<.u.y.g Q R.$.k ' c c.H.u.i.} h _ {.,.<.s.s.g.i t.`.a.m.G.",
"1 H J.<.n.j.n.N B i W.m.i.h c F Q n f & %.k.a.k.E.| @ J.@Xs.;.M ",
"<.f ` N.k.G.{ * R 7 k.A.X.s H.H.m.k k.c < R l.j.v.= z 0 i.I 7 X.",
"k.-.w ;.u.G f l.(.%.w X.7 <.g.m.u.n Z.>._ * c | 3 @.(.K & _ S.v.",
",.n.i.0 j H k.u.V.d.t.& 1.k.-.s.R $.S.k.G.%.b < :.H.c.G.y <.k.G.",
"l.N.n.e r.[.-.>.l.(.g.7 M.a.<.u.u L.N.t.' m.p u.J.B.L.K.v $.G.n.",
"M.V.t.6 N H.<.j.L.(.n.; /.`.a...C +Xk.a.y.t.6 x.>.u.{.m.E ~  Xm.",
"k.s.V ..n $.B.-.h.G.F.y ..! z = 3 k.k.m.l.z T A.1.a.m.t.) n XXL.",
"l.;.h ).%.z S.:.l.u.8 ; k $.2.W.k.0 5.j.d.; p.Q.<.l.l.0.b . R T.",
"Q.j -.l.u.G | G._ ; 7.B / oXk.<.s.0.0 D.^ X x W ;.S.%.r i ;.= P ",
"B x k.k.m.s.8 H 7 c.OXj ` R.<.m.G.n.{ g I V ] R z > t $.k.k.X.> ",
": %.N.u.C.v.I w L.@XK.0 [ j.A.m.!.s.v.E o :.k.n.v.1 s.S.<.M.n.} ",
"I k H.l.g.n.3 b.P.s.g.3 u.<.<.<.K.J.m.G 9 S.V.h.m.0 %.S.a.J.j.G.",
"a.r -.A.A.t.i k.a.n.i.7 U.R.*.+.n.n.M.u Q l.a.n.m.M ' J.$.s.i.i.",
"+.1 g n ;.Q _ <.a.g.| = G l.,.-.s.n.i.; /.Q.v.d._ 6 _ k.<.u.L.m.",
"r :.p.X.v + Y.a.a...7 k.8 A.~.M.m.i.{ u e.^ r z W I W }.i.$.Y.v.",
"_ J.V.G.q.$ W E J > d.!.{ M $X@XL.] M   r r c W.(.;.3 l..Xt.p.{ ",
"c.v.i.s.{ V 9./ ( 7 Y M.d.1  .M 1 1 %.k.z.L.w q k.;.* c E H.s.2 ",
"<.=.k.i.D p.P.4.k.;.G v W > x | ' M Q.4.u.N.i.a > L @ T.~ g A : ",
"m.:.u.M.w k.=.k.m.u.C.X.+ l.D.s.;.9 Q.1.a.g.s.I $._ f H.k.-.7 : ",
"Q H.s.} c  X3.V.s.X.t.f.3 S.:.' g.& k.<.k.Y.n.l F.N.Y 0.k.a.s.x ",
"x F w v 0 (.k.p.<.!.[.m.w %.<.k.L.4 :.N.;.p.%.E x.F.^ %.H.p.P.c.",
"p.0 I.N.v E 5.u.a.{.oXm.i #.G.s.n.I R W.R.l.k L.A.n.t.W (.p.l.m.",
":.q ).k.t.7 D.p.i.j.h.E , W S.u.} i 0 2 r c w %XU.t.$.H (.k.Y.m.",
"-.c k.F.g.Y _ <.,.s._ 7 ..i n k V Z (.>.s.| q M D F W A Q W.F.P.",
"..Q 3.j.J.y.3 Z.z.X.- M.w.8  XR.R %.].Z.j.m.u ' ).#XM.s.] l | N.",
"r w.k.-.s.w.i q r 2 < %.A.* s.v l z (.B.j.( 0 K c c.l.l.p.A.{ i ",
"M D J.j.m.S R n. .:.$., { q W l.c.K l <.h Y H.A.w.G / c.Q I R o.",
";.w #.x.Z c S.s.a.j.h.8.# :.B.B.P.n.m # l.V.2.s.l.i.0.d S '.j.m.",
"p.| % 0 m '.i.k.m.L.E.} C N.a.m.y.c.d.a x.a.s.j.s.{ m.U 0.b.n.m."
};
