/* XPM */
static char *result[] = {
/* columns rows colors chars-per-pixel */
"32 32 253 2 ",
"   c #FB5F12",
".  c #FB5E13",
"X  c #FA5B17",
"o  c #FB5D14",
"O  c #FB5C15",
"+  c #FB5D15",
"@  c #FB5E14",
"#  c #FA5C16",
"$  c #FB5C16",
"%  c #F9571C",
"&  c #F9561D",
"*  c #F9561E",
"=  c #FA5919",
"-  c #FA5B18",
";  c #FA591A",
":  c #FA581B",
">  c #F9581C",
",  c #FE6707",
"<  c #FE6902",
"1  c #FE6A02",
"2  c #FE6B03",
"3  c #FF6C01",
"4  c #FF6D01",
"5  c #FF6E00",
"6  c #FF6F00",
"7  c #FF6E01",
"8  c #FF6C02",
"9  c #FE6C03",
"0  c #FE6905",
"q  c #FE6A04",
"w  c #FE6806",
"e  c #FE6807",
"r  c #FD630B",
"t  c #FD6508",
"y  c #FD6409",
"u  c #FD6608",
"i  c #FD6708",
"p  c #FD6609",
"a  c #FD650A",
"s  c #FD650B",
"d  c #FC630C",
"f  c #FD630C",
"g  c #FC630D",
"h  c #FC610F",
"j  c #FC620E",
"k  c #FC620F",
"l  c #FD640C",
"z  c #FF7000",
"x  c #FF7100",
"c  c #FF7200",
"v  c #FF7300",
"b  c #FF7400",
"n  c #FF7500",
"m  c #FF7600",
"M  c #FF7700",
"N  c #FF7605",
"B  c #FF7800",
"V  c #FF7900",
"C  c #FF7A00",
"Z  c #FF7B00",
"A  c #FF7C00",
"S  c #FF7D00",
"D  c #FF7E00",
"F  c #FF7F00",
"G  c #FF7C02",
"H  c #FB6011",
"J  c #FC6010",
"K  c #FC6110",
"L  c #FC6011",
"P  c #FE7B16",
"I  c #F74F27",
"U  c #F64B2B",
"Y  c #F74D29",
"T  c #F74E28",
"R  c #F64C2A",
"E  c #F64A2D",
"W  c #F5482F",
"Q  c #F6492E",
"!  c #F75025",
"~  c #F75026",
"^  c #F85321",
"/  c #F85322",
"(  c #F85223",
")  c #F85420",
"_  c #F95420",
"`  c #F85421",
"'  c #F54731",
"]  c #F54533",
"[  c #F54632",
"{  c #F54633",
"}  c #F44336",
"|  c #F44534",
" . c #F44435",
".. c #FF8000",
"X. c #FF8100",
"o. c #FF8200",
"O. c #FF8300",
"+. c #FF8003",
"@. c #FF8400",
"#. c #FF8500",
"$. c #FF8600",
"%. c #FF8700",
"&. c #FF8602",
"*. c #FF8800",
"=. c #FF8A00",
"-. c #FF8B00",
";. c #FF8A01",
":. c #FF8A02",
">. c DarkOrange",
",. c #FF8C01",
"<. c #FF8906",
"1. c #FF8907",
"2. c #FF8D06",
"3. c #FF9000",
"4. c #FF9100",
"5. c #FF9300",
"6. c #FF9102",
"7. c #FF9400",
"8. c #FF9700",
"9. c #FF9004",
"0. c #FF9007",
"q. c #FF9207",
"w. c #FF9902",
"e. c #FF9A04",
"r. c #FF9C06",
"t. c #FF9E09",
"y. c #FF8416",
"u. c #FF8C15",
"i. c #FE831A",
"p. c #FF9011",
"a. c #FF9412",
"s. c #FF9512",
"d. c #FF9413",
"f. c #FF9316",
"g. c #FF9D11",
"h. c #FF961A",
"j. c #FFA10F",
"k. c #FFA210",
"l. c #FFA311",
"z. c #FFA616",
"x. c #FFA717",
"c. c #FFA819",
"v. c #FFA81A",
"b. c #FF9B21",
"n. c #FF9A25",
"m. c #FF9826",
"M. c #FFA121",
"N. c #FFA820",
"B. c #FFAA24",
"V. c #FFAE26",
"C. c #FFB12C",
"Z. c #FFB42F",
"A. c #FFAF3B",
"S. c #FFB632",
"D. c #FFB437",
"F. c #FFB93C",
"G. c #FFB543",
"H. c #FFB841",
"J. c #FFBF45",
"K. c #FFC348",
"L. c #FFC349",
"P. c #FFC44B",
"I. c #FFC64A",
"U. c #FFC551",
"Y. c #FFC055",
"T. c #FFC655",
"R. c #FFC756",
"E. c #FFCE54",
"W. c #FFCF54",
"Q. c #FFCB5E",
"!. c #FFCD5F",
"~. c #FFD35A",
"^. c #FFD35B",
"/. c #FFC861",
"(. c #FFD467",
"). c #FFD863",
"_. c #FFDA65",
"`. c #FFD06F",
"'. c #FFDE6D",
"]. c #FFD97C",
"[. c #FFD97D",
"{. c #FFE065",
"}. c #FFE469",
"|. c #FFE76C",
" X c #FFE86D",
".X c #FFE874",
"XX c #FFF177",
"oX c #FFF277",
"OX c #FFF278",
"+X c #FFF378",
"@X c #FFF27A",
"#X c #FFF579",
"$X c #FFF27D",
"%X c #FFF27E",
"&X c #FFF37F",
"*X c #FFF47E",
"=X c #FFDE8A",
"-X c #FFDE8E",
";X c #FFE587",
":X c #FFF383",
">X c #FFF482",
",X c #FFF384",
"<X c #FFF487",
"1X c #FFF389",
"2X c #FFF38A",
"3X c #FFF588",
"4X c #FFF18D",
"5X c #FFF48C",
"6X c #FFF58D",
"7X c #FFF48F",
"8X c #FFE393",
"9X c #FFE494",
"0X c #FFED94",
"qX c #FFE59E",
"wX c #FFEC9F",
"eX c #FFF490",
"rX c #FFF491",
"tX c #FFF591",
"yX c #FFF492",
"uX c #FFF597",
"iX c #FFF398",
"pX c #FFF598",
"aX c #FFF599",
"sX c #FFF59B",
"dX c #FFF69F",
"fX c #FFE9A0",
"gX c #FFEBA4",
"hX c #FFECA6",
"jX c #FFF6A1",
"kX c #FFF6A3",
"lX c #FFF6A7",
"zX c #FFF8A6",
"xX c #FFF7A9",
"cX c #FFF7AA",
"vX c #FFF0AC",
"bX c #FFF7AC",
"nX c #FFF7AF",
"mX c #FFF8A9",
"MX c #FFF8AD",
"NX c #FFF9AE",
"BX c #FFF8B3",
"VX c #FFF8B4",
"CX c #FFF9B4",
"ZX c #FFF8B5",
"AX c #FFF8B6",
"SX c #FFF5B8",
"DX c #FFF5B9",
"FX c #FFF8BA",
"GX c #FFF8BE",
"HX c #FFF9BE",
"JX c #FFF9BF",
"KX c #FFFABE",
"LX c None",
/* pixels */
"LXLXLXLXLXLXLXLXLXLXLXLXLXLXLXLXLXLXLXLXLXLXLXLXLXLXLXLXLXLXLXLX",
"LXLXLXLXLXLXLXLXLXLXLXLXLX} } } LXLXLXLXLXLXLXLXLXLXLXLXLXLXLXLX",
"LXLXLXLXLXLXLXLXLXLXLXLXLXLX} } } } } LXLXLXLXLXLXLXLXLXLXLXLXLX",
"LXLXLXLXLXLXLXLXLXLXLXLXLXLX] { ] |  . .LXLXLXLXLXLXLXLXLXLXLXLX",
"LXLXLXLXLXLXLXLXLXLXLXLXLXLXE E E Q W ' [ LXLXLXLXLXLXLXLXLXLXLX",
"LXLXLXLXLXLXLXLXLXLXLXLXLXLXI I I T Y U Q LXLXLXLXLXLXLXLXLXLXLX",
"LXLXLXLXLXLXLXLXLXLXLXLXLXLX` ` ^ / ( ~ T R LXLXLXLXLXLXLXLXLXLX",
"LXLXLXLXLXLXLXLXLXLXLXLXLXLX: : : % & _ ( ! LXLXLXLXLXLXLXLXLXLX",
"LXLXLXLXLXLXLXLXLXLXLXLXLXO + + + $ - ; & ) LXLXLXLXLXLXLXLXLXLX",
"LXLXLXLXLXLXLXLXLXLXLXLXL J h k h K   o X : LXLXLXLXLXLXLXLXLXLX",
"LXLXLXLXLXLXLX* % LXLXg d a p p p y r j   O LXLXLXLXLXLXLXLXLXLX",
"LXLXLXLXLXLXLX: X LXLXp w q 2 2 1 i.P t l K LXLXLXLXLXLXLXLXLXLX",
"LXLXLXLXLXLX> #   LXw q 3 5 6 6 m.^.y.< e a LXLXLXLXLXLXLXLXLXLX",
"LXLXLXLXLX% - H d LX8 5 x c c n. X~.N 6 8 q LXLXLXLXLXLXLXLXLXLX",
"LXLXLXLXLX= . g e 4 6 c n n u.{.#XP.n v z 5 LXLXLXLXLXLXLXLXLXLX",
"LXLXLXLXLX$ k i 8 z v m V G K.+X+XL.V M b x LXLXj o LXLXLXLXLXLX",
"LXLXLXLXX   a q 6 v M C A f.|.oX+XW.+.Z B b x 8 p J X LXLXLXLXLX",
"LXLXLXLX@ j w 7 c M Z D F D.@XXXOX}.p.D Z B v 6 0 f @ LXLXLXLXLX",
"LXLXLXLXJ a 2 x m C D o.&.E.*X@X@X@XF.o.F Z m c 8 u L # LXLXLXLX",
"LXLXLXLXg w 7 b V D o.#.2._.>X%X$X&X.XM.X.D C b 6 0 g @ LXLXLXLX",
"LXLXLXLXp 2 x m A X.#.:.9.).3X,X:X,X<X'.d...S M c 8 a L LXLXLXLX",
"LXLXLXLXLX4 v V F O.a.H.6.I.6X2X1X2X5XtX!.<.F C b 7 , j LXLXLXLX",
"LXLXLXLXLX6 n Z X.#.G.0XB.V.4XrX7XeXyXuXiXA.X.A m z 0 s LXLXLXLX",
"LXLXLXLXLXc M D @.;.`.NX;X(.iXaXpXaXsXdXzX].1.D B c 9 LXLXLXLXLX",
"LXLXLXLXLXLXV ..$.0.=XCXMXmXkXjXjXjXkXlXMXwXh...C b 7 LXLXLXLXLX",
"LXLXLXLXLXLXA X.*.q.-XKXVXnXbXcXxXcXbXnXZXvXb.X.A n LXLXLXLXLXLX",
"LXLXLXLXLXLXLXO.=.3./.DXGXFXAXVXBXVXAXFXJXqXs.O.S M LXLXLXLXLXLX",
"LXLXLXLXLXLXLXLX-.4.N.].hXDXGXHXHXHXGXSXhXY.,.#.F LXLXLXLXLXLXLX",
"LXLXLXLXLXLXLXLXLX5.w.C.Q.[.9XfXgXfX8X[.T.g.>.%.LXLXLXLXLXLXLXLX",
"LXLXLXLXLXLXLXLXLXLX8.e.v.S.J.U.R.U.J.Z.j.7.LXLXLXLXLXLXLXLXLXLX",
"LXLXLXLXLXLXLXLXLXLXLXLXLXt.l.x.c.z.k.r.LXLXLXLXLXLXLXLXLXLXLXLX",
"LXLXLXLXLXLXLXLXLXLXLXLXLXLXLXLXLXLXLXLXLXLXLXLXLXLXLXLXLXLXLXLX"
};
