/* XPM */
static char *result[] = {
/* columns rows colors chars-per-pixel */
"32 32 161 2 ",
"   c #CF9A0E",
".  c #D19B0E",
"X  c #D29C0E",
"o  c #D59E0E",
"O  c #D8A10E",
"+  c #D9A10E",
"@  c #D9A10F",
"#  c #DBA30F",
"$  c #DCA40F",
"%  c #DDA40F",
"&  c #DEA50F",
"*  c #E1A70F",
"=  c #E4AA0F",
"-  c #F6B70E",
";  c #FAB90E",
":  c #FAB90F",
">  c #FEBC0D",
",  c #FEBC0E",
"<  c #FEBC0F",
"1  c #FEBD0F",
"2  c #FFBD0F",
"3  c #E8AC10",
"4  c #E9AD10",
"5  c #ECB010",
"6  c #F2B410",
"7  c #F3B510",
"8  c #F2B512",
"9  c #F2B513",
"0  c #F5B610",
"q  c #F5B710",
"w  c #F6B710",
"e  c #F6B812",
"r  c #F7BA17",
"t  c #F8B811",
"y  c #F8B911",
"u  c #F9B911",
"i  c #F9BA11",
"p  c #FABA11",
"a  c #FBBB11",
"s  c #FCBB12",
"d  c #FCBC11",
"f  c #FDBC11",
"g  c #FEBD10",
"h  c #FEBD11",
"j  c #FFBD11",
"k  c #FFBE11",
"l  c #FCBC13",
"z  c #FEBD12",
"x  c #FEBD13",
"c  c #FEBE13",
"v  c #FEBE14",
"b  c #FCBD17",
"n  c #FDBE17",
"m  c #FEBE16",
"M  c #F5BB1F",
"N  c #FEBF18",
"B  c #FEBF1A",
"V  c #F8BE23",
"C  c #FFC014",
"Z  c #FEC01B",
"A  c #FDC01D",
"S  c #FEC11E",
"D  c #FEC120",
"F  c #FEC121",
"G  c #FDC223",
"H  c #FEC222",
"J  c #FEC223",
"K  c #FEC224",
"L  c #FEC326",
"P  c #F8C029",
"I  c #FCC228",
"U  c #FEC328",
"Y  c #FEC42A",
"T  c #FFC52C",
"R  c #FEC52D",
"E  c #FCC42E",
"W  c #FEC630",
"Q  c #FFC733",
"!  c #FAC537",
"~  c #FEC735",
"^  c #FCC73B",
"/  c #FBC73D",
"(  c #FEC838",
")  c #FEC93B",
"_  c #FFCC45",
"`  c #FECE4D",
"'  c #FECE4E",
"]  c #FFCF4F",
"[  c #FECF51",
"{  c #FECF52",
"}  c #FED055",
"|  c #FED25C",
" . c #FFD563",
".. c #FED568",
"X. c #FFD76B",
"o. c #FED76E",
"O. c #F8D577",
"+. c #FEDA7B",
"@. c #033B85",
"#. c #093F88",
"$. c #13478D",
"%. c #164B93",
"&. c #194C90",
"*. c #1D5096",
"=. c #2B5A99",
"-. c #2B5B99",
";. c #3E69A2",
":. c #426EA8",
">. c #4770A6",
",. c #4C75AD",
"<. c #7090BA",
"1. c #7A97BF",
"2. c #7595C0",
"3. c #7E9BC3",
"4. c #DAC990",
"5. c #D0C498",
"6. c #EDD386",
"7. c #F4D683",
"8. c #FEDC81",
"9. c #E7D191",
"0. c #FFE08E",
"q. c #FFE295",
"w. c #FFE59E",
"e. c #FFE7A4",
"r. c #FFE9B1",
"t. c #FFECBB",
"y. c #B4C5DE",
"u. c #DFE2DF",
"i. c #FAEDC7",
"p. c #F8EECE",
"a. c #FFF0CB",
"s. c #FFF2CF",
"d. c #E3E3DC",
"f. c #FFF2D0",
"g. c #FFF2D1",
"h. c #FFF3D3",
"j. c #FFF3D5",
"k. c #FFF4D6",
"l. c #FFF7D9",
"z. c #FFF6DE",
"x. c #FFF8DD",
"c. c #CBD7E6",
"v. c #D5DFEB",
"b. c #DDE5EF",
"n. c #E1E8F1",
"m. c #E4EAF2",
"M. c #EBEFF5",
"N. c #E9EFF9",
"B. c #FFFDF6",
"V. c #FFFDF7",
"C. c #F3F6F9",
"Z. c #F7F8FB",
"A. c #FFFDF9",
"S. c #FFFFF9",
"D. c #FFFFFA",
"F. c #F8FAFD",
"G. c #F9FBFE",
"H. c #FFFEFC",
"J. c #FFFFFE",
"K. c white",
"L. c None",
/* pixels */
"L.L.L.L.L.L.L.L.L.L.L.L.L.L.L.L.L.L.L.L.L.L.L.L.L.L.L.L.L.L.L.L.",
"L.L.L.L.L.L.L.L.L.L.L.L.L.L./ ^ ^ / L.L.L.L.L.L.L.L.L.L.L.L.L.L.",
"L.L.L.L.L.L.L.L.L.L.! E G Z m v v m Z G E ! L.L.L.L.L.L.L.L.L.L.",
"L.L.L.L.L.L.L.L.L.I B h g g h h h h g g h B I L.L.L.L.L.L.L.L.L.",
"L.L.L.L.L.L.L.P A h g h h h h h h h h h h g h A P L.L.L.L.L.L.L.",
"L.L.L.L.L.L.V N g h h h h h h h h h h h h h h g N V L.L.L.L.L.L.",
"L.L.L.L.L.M n h h h h h h h h h h h h h h h h h h n M L.L.L.L.L.",
"L.L.L.L.L.b h h h h h h h h h h h h h h h h h h h h b L.L.L.L.L.",
"L.L.L.L.r z h h h h h g , > 1 h h h h h h h g > > 1 z r L.L.L.L.",
"L.L.L.L.l h h h h h < K ` { R g h h h h h < L ' [ Y g l L.L.L.L.",
"L.L.L.9 z h h h h 1 ` a.B.D.x.X.x h h h g } f.V.S.l. .z 8 L.L.L.",
"L.L.L.e h h h h < W k.K.K.n.y.u.] , h < ( z.K.K.b.y.d._ - L.L.L.",
"L.L.L.u h h h h > o.J.K.M.>.#.:.9.k h , +.K.K.m.;.#.,.6.: L.L.L.",
"L.L.L.i h h h h > 8.K.K.v.&.@.%.5.C h , 0.K.K.c.$.@.*.4.s L.L.L.",
"L.L.L.p h h h h > | A.K.Z.1.=.2.7.2 h > ..H.K.C.<.-.3.O.; L.L.L.",
"L.L.L.i h h h h g S r.K.K.G.N.p.Q < h g J t.K.K.F.N.i.T : L.L.L.",
"L.L.L.i h h h h h 1 U 0.s.j.e.) 1 h h h < R q.g.h.w.~ 1 p L.L.L.",
"L.L.L.i h h h h h h 1 h D H c < h h h h h 1 h F H z < h p L.L.L.",
"L.L.L.i h h h h h h h h g g h h h h h h h h h g g h h h p L.L.L.",
"L.L.L.i h h h h h h h h h h h h h h h h h h h h h h h h p L.L.L.",
"L.L.L.i h h h h h h h h h h h h h h h h h h h h h h h h p L.L.L.",
"L.L.L.i h h h h h h h h h h h h h h h h h h h h h h h h p L.L.L.",
"L.L.L.i h h h h h h h h h h h h h h h h h h h h h h h h p L.L.L.",
"L.L.L.i h h h h h h h h h h h h h h h h h h h h h h h h p L.L.L.",
"L.L.L.p h h h h h h h h h h h h h h h h h h h h h h h h p L.L.L.",
"L.L.L.p h h h h h h h h h h h h h h h h h h h h h h h h p L.L.L.",
"L.L.L.p h h h h h h h h h h h h h h h h h h h h h h h h p L.L.L.",
"L.L.L.u h h p = % 0 h h h h q & & 0 h h h h d 4 $ 7 h h i L.L.L.",
"L.L.L.y k u @ L.L.L.t j h y L.L.L.L.w j h h 3 L.L.L.7 k u L.L.L.",
"L.L.L.6 i # L.L.L.L.% p a * L.L.L.L.+ y f 5 L.L.L.L.L.w 0 L.L.L.",
"L.L.L.L.. L.L.L.L.L.L.X o L.L.L.L.L.L.  O L.L.L.L.L.L.L.X L.L.L.",
"L.L.L.L.L.L.L.L.L.L.L.L.L.L.L.L.L.L.L.L.L.L.L.L.L.L.L.L.L.L.L.L."
};
