/* XPM */
static char *result[] = {
/* columns rows colors chars-per-pixel */
"42 42 213 2 ",
"   c #3E3735",
".  c #7A5E2A",
"X  c #7D602A",
"o  c #385570",
"O  c #3E637D",
"+  c #7E6A56",
"@  c #40576F",
"#  c #726A6F",
"$  c #834901",
"%  c #8E5208",
"&  c #9D5902",
"*  c #9D5C0D",
"=  c #A35C03",
"-  c #996C1F",
";  c #AF6302",
":  c #B66702",
">  c #BA6B03",
",  c #AF6C1A",
"<  c #904820",
"1  c #88682B",
"2  c #946C28",
"3  c #9C752B",
"4  c #97722A",
"5  c #876A36",
"6  c #9E7732",
"7  c #9A6D36",
"8  c #A96D29",
"9  c #A5712B",
"0  c #A57B2B",
"q  c #A97D2C",
"w  c #AA7D31",
"e  c #A77E31",
"r  c #CC7302",
"t  c #D77B03",
"y  c #977B47",
"u  c #9B7E5E",
"i  c #8F7652",
"p  c #877D7C",
"a  c #896D62",
"s  c #AE812B",
"d  c #B7862A",
"f  c #AD8333",
"g  c #AD883C",
"h  c #B38C3B",
"j  c #E98603",
"k  c #F28B03",
"l  c #EB9209",
"z  c #FC9303",
"x  c #FD9B03",
"c  c #F99809",
"v  c #F09417",
"b  c #FEA103",
"n  c #FEAB0C",
"m  c #FEA708",
"M  c #F7A914",
"N  c #FEB113",
"B  c #C18F3C",
"V  c #DC8F30",
"C  c #DC902D",
"Z  c #E79A37",
"A  c #EEA135",
"S  c #F7A732",
"D  c #F9B03C",
"F  c #9A8243",
"G  c #AB8A43",
"H  c #B49345",
"J  c #BB9849",
"K  c #A28D69",
"L  c #CA8F40",
"P  c #CE9347",
"I  c #DEA04A",
"U  c #C3A34D",
"Y  c #F8B249",
"T  c #FAAC48",
"R  c #445E8B",
"E  c #475D83",
"W  c #44608F",
"Q  c #466292",
"!  c #4B6594",
"~  c #496998",
"^  c #526E9D",
"/  c #5E6F92",
"(  c #57719E",
")  c #5C739C",
"_  c #556C8A",
"`  c #737789",
"'  c #657698",
"]  c #656E88",
"[  c #4A73A4",
"{  c #5474A4",
"}  c #5878A6",
"|  c #4973AD",
" . c #627DAB",
".. c #4E82A1",
"X. c #568ABC",
"o. c #4B82B7",
"O. c #6681AE",
"+. c #6280A3",
"@. c #728DB7",
"#. c #6883B2",
"$. c #74A4BD",
"%. c #3D92D3",
"&. c #3CA8D4",
"*. c #5D8CC6",
"=. c #5987C3",
"-. c #4B92C7",
";. c #5896C6",
":. c #5D93C9",
">. c #5B9BCB",
",. c #5297C9",
"<. c #499BD1",
"1. c #599AD6",
"2. c #418CD5",
"3. c #6487C4",
"4. c #628BC6",
"5. c #638DC8",
"6. c #6B8EC6",
"7. c #6A94C4",
"8. c #6393CB",
"9. c #639BCD",
"0. c #6995CB",
"q. c #7998C8",
"w. c #6B9BD5",
"e. c #709AD8",
"r. c #5DA3CE",
"t. c #58A5CE",
"y. c #46A7D6",
"u. c #5DA7D1",
"i. c #5DACD1",
"p. c #56ACD8",
"a. c #5DB3D4",
"s. c #59B2D9",
"d. c #46A2C5",
"f. c #62A3CC",
"g. c #6CA4D3",
"h. c #61A9D3",
"j. c #6DACDB",
"k. c #62A6D3",
"l. c #77A7DD",
"z. c #63B3D6",
"x. c #65B5D9",
"c. c #6AB4DC",
"v. c #64BBDB",
"b. c #6BB7DB",
"n. c #73B2DC",
"m. c #7AA3CB",
"M. c #679AE0",
"N. c #55B7E3",
"B. c #78ACE5",
"V. c #6EB7E1",
"C. c #68BEE4",
"Z. c #71BDE4",
"A. c #79B8E8",
"S. c #68C0DF",
"D. c #58C7EC",
"F. c #6EC2E3",
"G. c #74C5E4",
"H. c #75CDEB",
"J. c #7BC4EC",
"K. c #7ED1F3",
"L. c #74CAED",
"P. c #60E3F4",
"I. c #8D8D8E",
"U. c #858E97",
"Y. c #8E9094",
"T. c #939392",
"R. c #98ABBE",
"E. c #ADADAD",
"W. c #A4A5A6",
"Q. c #BABAB9",
"!. c #AAAEB1",
"~. c #97AAC2",
"^. c #A9BAC7",
"/. c #8CBBE8",
"(. c #95BEF2",
"). c #85AFEB",
"_. c #ACC5DC",
"`. c #95C5EB",
"'. c #97D6EF",
"]. c #86C7F3",
"[. c #9AC9FB",
"{. c #88D8F7",
"}. c #93D8F9",
"|. c #8BD3E9",
" X c #A8CBE1",
".X c #B0D6E1",
"XX c #A8DAF9",
"oX c #A2C9F8",
"OX c #8FE1FA",
"+X c #99E5FE",
"@X c #97E6F8",
"#X c #9BF0FC",
"$X c #A4EAFC",
"%X c #B8EAFC",
"&X c #A5F5FE",
"*X c #ACF3FC",
"=X c #AAFCFE",
"-X c #BFF4FE",
";X c #B4FBFE",
":X c #BBFBFE",
">X c #B4F3FE",
",X c #C7C7C7",
"<X c #D2D6D9",
"1X c #CBDEED",
"2X c #CBEFFE",
"3X c #CDE3FA",
"4X c #D8EAF9",
"5X c #C7F6FE",
"6X c #DBFEFE",
"7X c #CBE8EE",
"8X c gray89",
"9X c #E8EAEB",
"0X c None",
/* pixels */
"0X0X0X0X0X0X0X0X0X0X0X0X0X0X0X0X0X0X0X0X0X0X0X0X0X0X0X0X0X0X0X0X0X0X0X0X0X0X0X0X0X0X",
"0X0X0X0X0X0X0X0X0X0X0X0X0X0X0X0X0X0X0X0X0X0X0X0X0X0X0X0X0X0X0X0X0X0X0X0X0X0X0X0X0X0X",
"0X0X0X0X0X0X0X0X0X0X0X0X0X0X0X0X0X0X0X0X0X0X0X0X0X0X0X0X0X0X0X0X0X0X0X0X0X0X0X0X0X0X",
"0X0X0X0X0X0X0X0X0X0X0X0X0X< 0X0X0X0X0X0X0X0X0X0X0X0X0X0X0X0X0X0X0X0X0X0X0X0X0X0X0X0X",
"0X0X0X0X0X0X0X0X0X0X0X0X0X  # 0X0X0X0X0X0X0X0X0X0X0X0X0X0X0X0X0X0X0X0X0X0X0X0X0X0X0X",
"0X0X0X0X0X0X0X0X0X0X0X0X0XK 9X,X0X0X0X0X0X0X0X0X0X0X0X0X0X0X0X0X0X0X0X0X0X0X0X0X0X0X",
"0X0X0X0X0X0X0X0X0X0X0X0X0X0X8X9X0X0X0X0X0X0X0X0X0X0X0X0X0X0X0X0X0X0X0X0X0X0X0X0X0X0X",
"0X0X0X0X0X0X0X0X0X0X0X0X0X0X0X9X!.0X..O o 0X0X0X0X0X0X0X0X0X0X0X0X0X0X0X0X0X0X0X0X0X",
"0X0X0X0X0X0X0X0X0X0X0X0X0X0X0X7X`.7.Q o o _ 0X( { ! R 0X0X0X0X0X0X0X0X0X0X0X0X0X0X0X",
"0X0X0X0X0X0X0X0X0X0X0X0X0X}.6X6X$Xm.+. .O.#.q.N.L.0.^ 0X0X0X0X0X0X0X0X0X0X0X0X0X0X0X",
"0X0X0X0X0X0X0X0X0X0X0X0X>.`. X^.@. .7.1.A.g.s.H.$XA.d.R 0X0X0X0X0X0X0X0X0X0X0X0X0X0X",
"0X0X0X0X0X0X0X0X0X0X0X} O.O.0.w.)./.C.v.G.{.].h.u. X^.' 0X0X0X0X0X0X0X0X0X0X0X0X0X0X",
"0X0X0X0X0X0X0X0XE } 3.e./.XX}.+X+XJ.h.g.9.F.A.A.j.1X<XW.0X0X0X0X0X0X0X0X0X0X0X0X0X0X",
"0X0X0X0X0X0X0X0X .(.OX+X$X5X:X&X}.].j._.~.`.Z.c.i._.8XE.T.0X0X0X0X0X0X0X0X0X0X0X0X0X",
"0X0X0X0X0X0X0X0XO.}.2X:X>X:X;X#X].}.B.9XQ.R.].B.V.z.9XQ.T.0X0X0X0X0X0X0X0X0X0X0X0X0X",
"0X0X0X0XU J H 0X/ P.-X5X:X;X=X&XXXK.w.4X<XW.$.x.j.5._.Q.T.0X0X0X0X0X0X0X0X0X0X0X0X0X",
"0X0X0XH q 0 U F ` n.{.5X4X:X:X=X=Xb.0.XX8XE.+.h.f.4.i.R.Y.0X0X0X0X0X0X0X0X0X0X0X0X0X",
"0X0X0Xq 0 0 9 J # q.[.oX%X;X@XOX&Xn.6.G.<XE.I.@.3.h.a.;.( R 0X0X0X0X0X0X0X0X0X0X0X0X",
"0X0Xh s 1 y q h i  .].(.$X:XG.%X:X|.0.j.`.!.U.:.>.z.i.t.| R 0X0X0X0X0X0X0X0X0X0X0X0X",
"0X0Xh 0 . 0Xq q 9 ' N.[.>X@X'.*X@Xg.4.n.K.7.f.>.4.3.4.i.%.! 0X0X0X0X0X0X0X0X0X0X0X0X",
"0X0XH s G 5 q q s p n.[.2X%X:X:XH.b.F.a.v.i.i.x.a.9.8.t.<.~ 0X0X0X0X0XY A V 0X0X0X0X",
"0X0X0Xq h q q d d u @.[.3X2X*X$Xx.b.c.H.v.a.i.a.i.r.f.>.-.^ R 0X0X0XD x x t 8 0X0X0X",
"0X0X0Xg 0 q s f q y  .l.l.].j.x.x.G.H.Z.H.z.i.a.u.8.a.a.t.o.R 0X0X0Xb m M > 8 0X0X0X",
"0X0X0X0XG q 0 9 2 1 ] B.XX{.Z.Z.z.OXG.r.>.4.:.u.r.>.*.>.;.%.~ 0X0XY b n M = q 0X0X0X",
"0X0X0X0X0Xf 0 1 . 1 # w.].}.*X#XC.Z.u.u.>.:.:.;.>.3.4.>.:.p.[ 0X0XT x x t & 0X0X0X0X",
"0X0X0X0X0Xh 0 0 0 0 + } 8.5.'.}.V.>.1.:.5.*.*.>.:.u.t.;.,.-.^ ` - Z z z ; - 0X0X0X0X",
"0X0X0X0X0Xe 3 1 0 0 5 ( =.9.B.V.e.0.:.*.5.u.*.8.>.;.-.<.&.[ Q a l k z j = w 0X0X0X0X",
"0X0X0X0X0X0 2 y 0X0 2 ] X.J.].c.w.k.:.*.>.:.<.y.&.[ ! ! W 0X0X6 C k k r * 0X0X0X0X0X",
"0X0X0X0X0X0 3 . 0X0 4 # =.p.A.A.A.1.1.%.-.} ^ ~ W 0X0X0X0X0X0X0X0XV t = 9 0X0X0X0X0X",
"0X0X0X0X0Xg H g 0 0 2 K  .>.w.D.<.} ^ ~ ! 0X0X0X0X0X0X0X0X0X0X0X0X0X8 % 0X0X0X0X0X0X",
"0X0X0X0X0X0X0 0 0 0 5 0X~ { } | ! Q 0X0X0X0X0X0X0X0X0X0X0X0X0X0X0X0X0X0X0X0X0X0X0X0X",
"0X0X0X0X0X0XG 0 0 5 y 0XP # p 0X0X0X0X0X0X0X0X0X0X0X0X0X0X0X0X0X0X0X0X0X0X0X0X0X0X0X",
"0X0X0X0X0X0X0X0X0X0X0XZ j & 0X0X0X0X0X0X0X0X0X0X0X0X0X0X0X0X0X0X0X0X0X0X0X0X0X0X0X0X",
"0X0X0X0X0X0X0X0X0XS z l > , I 0X0X0X0X0X0X0X0X0X0X0X0X0X0X0X0X0X0X0X0X0X0X0X0X0X0X0X",
"0X0X0X0X0X0X0X0X0Xx b l l x j : 7 0X0X0X0X0X0X0X0X0X0X0X0X0X0X0X0X0X0X0X0X0X0X0X0X0X",
"0X0X0X0X0X0X0X0X0Xm b x m N k : $ 0X0X0X0X0X0X0X0X0X0X0X0X0X0X0X0X0X0X0X0X0X0X0X0X0X",
"0X0X0X0X0X0X0X0X0XS b x n N j = $ G 0X0X0X0X0X0X0X0X0X0X0X0X0X0X0X0X0X0X0X0X0X0X0X0X",
"0X0X0X0X0X0X0X0X0X0Xv x x c r = $ 9 0X0X0X0X0X0X0X0X0X0X0X0X0X0X0X0X0X0X0X0X0X0X0X0X",
"0X0X0X0X0X0X0X0X0X0X0X0XL B 9 6 0X0X0X0X0X0X0X0X0X0X0X0X0X0X0X0X0X0X0X0X0X0X0X0X0X0X",
"0X0X0X0X0X0X0X0X0X0X0X0X0X0X0X0X0X0X0X0X0X0X0X0X0X0X0X0X0X0X0X0X0X0X0X0X0X0X0X0X0X0X",
"0X0X0X0X0X0X0X0X0X0X0X0X0X0X0X0X0X0X0X0X0X0X0X0X0X0X0X0X0X0X0X0X0X0X0X0X0X0X0X0X0X0X",
"0X0X0X0X0X0X0X0X0X0X0X0X0X0X0X0X0X0X0X0X0X0X0X0X0X0X0X0X0X0X0X0X0X0X0X0X0X0X0X0X0X0X"
};
