/* XPM */
static char *result[] = {
/* columns rows colors chars-per-pixel */
"42 42 213 2 ",
"   c #3E3735",
".  c #7A5E2A",
"X  c #7D602A",
"o  c #385570",
"O  c #3E637D",
"+  c #7E6A56",
"@  c #40576F",
"#  c #726A6F",
"$  c #834901",
"%  c #8E5208",
"&  c #9D5902",
"*  c #9D5C0D",
"=  c #A35C03",
"-  c #996C1F",
";  c #AF6302",
":  c #B66702",
">  c #BA6B03",
",  c #AF6C1A",
"<  c #904820",
"1  c #88682B",
"2  c #946C28",
"3  c #9C752B",
"4  c #97722A",
"5  c #876A36",
"6  c #9E7732",
"7  c #9A6D36",
"8  c #A96D29",
"9  c #A5712B",
"0  c #A57B2B",
"q  c #A97D2C",
"w  c #AA7D31",
"e  c #A77E31",
"r  c #CC7302",
"t  c #D77B03",
"y  c #977B47",
"u  c #9B7E5E",
"i  c #8F7652",
"p  c #877D7C",
"a  c #896D62",
"s  c #AE812B",
"d  c #B7862A",
"f  c #AD8333",
"g  c #AD883C",
"h  c #B38C3B",
"j  c #E98603",
"k  c #F28B03",
"l  c #EB9209",
"z  c #FC9303",
"x  c #FD9B03",
"c  c #F99809",
"v  c #F09417",
"b  c #FEA103",
"n  c #FEAB0C",
"m  c #FEA708",
"M  c #F7A914",
"N  c #FEB113",
"B  c #C18F3C",
"V  c #DC8F30",
"C  c #DC902D",
"Z  c #E79A37",
"A  c #EEA135",
"S  c #F7A732",
"D  c #F9B03C",
"F  c #9A8243",
"G  c #AB8A43",
"H  c #B49345",
"J  c #BB9849",
"K  c #A28D69",
"L  c #CA8F40",
"P  c #CE9347",
"I  c #DEA04A",
"U  c #C3A34D",
"Y  c #F8B249",
"T  c #FAAC48",
"R  c #445E8B",
"E  c #475D83",
"W  c #44608F",
"Q  c #466292",
"!  c #4B6594",
"~  c #496998",
"^  c #526E9D",
"/  c #5E6F92",
"(  c #57719E",
")  c #5C739C",
"_  c #556C8A",
"`  c #737789",
"'  c #657698",
"]  c #656E88",
"[  c #4A73A4",
"{  c #5474A4",
"}  c #5878A6",
"|  c #4973AD",
" . c #627DAB",
".. c #4E82A1",
"X. c #568ABC",
"o. c #4B82B7",
"O. c #6681AE",
"+. c #6280A3",
"@. c #728DB7",
"#. c #6883B2",
"$. c #74A4BD",
"%. c #3D92D3",
"&. c #3CA8D4",
"*. c #5D8CC6",
"=. c #5987C3",
"-. c #4B92C7",
";. c #5896C6",
":. c #5D93C9",
">. c #5B9BCB",
",. c #5297C9",
"<. c #499BD1",
"1. c #599AD6",
"2. c #418CD5",
"3. c #6487C4",
"4. c #628BC6",
"5. c #638DC8",
"6. c #6B8EC6",
"7. c #6A94C4",
"8. c #6393CB",
"9. c #639BCD",
"0. c #6995CB",
"q. c #7998C8",
"w. c #6B9BD5",
"e. c #709AD8",
"r. c #5DA3CE",
"t. c #58A5CE",
"y. c #46A7D6",
"u. c #5DA7D1",
"i. c #5DACD1",
"p. c #56ACD8",
"a. c #5DB3D4",
"s. c #59B2D9",
"d. c #46A2C5",
"f. c #62A3CC",
"g. c #6CA4D3",
"h. c #61A9D3",
"j. c #6DACDB",
"k. c #62A6D3",
"l. c #77A7DD",
"z. c #63B3D6",
"x. c #65B5D9",
"c. c #6AB4DC",
"v. c #64BBDB",
"b. c #6BB7DB",
"n. c #73B2DC",
"m. c #7AA3CB",
"M. c #679AE0",
"N. c #55B7E3",
"B. c #78ACE5",
"V. c #6EB7E1",
"C. c #68BEE4",
"Z. c #71BDE4",
"A. c #79B8E8",
"S. c #68C0DF",
"D. c #58C7EC",
"F. c #6EC2E3",
"G. c #74C5E4",
"H. c #75CDEB",
"J. c #7BC4EC",
"K. c #7ED1F3",
"L. c #74CAED",
"P. c #60E3F4",
"I. c #8D8D8E",
"U. c #858E97",
"Y. c #8E9094",
"T. c #939392",
"R. c #98ABBE",
"E. c #ADADAD",
"W. c #A4A5A6",
"Q. c #BABAB9",
"!. c #AAAEB1",
"~. c #97AAC2",
"^. c #A9BAC7",
"/. c #8CBBE8",
"(. c #95BEF2",
"). c #85AFEB",
"_. c #ACC5DC",
"`. c #95C5EB",
"'. c #97D6EF",
"]. c #86C7F3",
"[. c #9AC9FB",
"{. c #88D8F7",
"}. c #93D8F9",
"|. c #8BD3E9",
" X c #A8CBE1",
".X c #B0D6E1",
"XX c #A8DAF9",
"oX c #A2C9F8",
"OX c #8FE1FA",
"+X c #99E5FE",
"@X c #97E6F8",
"#X c #9BF0FC",
"$X c #A4EAFC",
"%X c #B8EAFC",
"&X c #A5F5FE",
"*X c #ACF3FC",
"=X c #AAFCFE",
"-X c #BFF4FE",
";X c #B4FBFE",
":X c #BBFBFE",
">X c #B4F3FE",
",X c #C7C7C7",
"<X c #D2D6D9",
"1X c #CBDEED",
"2X c #CBEFFE",
"3X c #CDE3FA",
"4X c #D8EAF9",
"5X c #C7F6FE",
"6X c #DBFEFE",
"7X c #CBE8EE",
"8X c gray89",
"9X c #E8EAEB",
"0X c None",
/* pixels */
"0X0X0X0X0X0X0X0X0X0X0X0X0X0X0X0X0X0X0X0X0X0X0X0X0X0X0X0X0X0X0X0X0X0X0X0X0X0X0X0X0X0X",
"0X0X0X0X0X0X0X0X0X0X0X0X0X0X0X0X0X0X0X0X0X0X0X0X0X0X0X0X0X0X0X0X0X0X0X0X0X0X0X0X0X0X",
"0X0X0X0X0X0X0X0X0X0X0X0X0X0X0X0X0X0X0X0X0X0X0X0X0X0X0X0X0X0X0X0X0X0X0X0X0X0X0X0X0X0X",
"0X0X0X0X0X0X0X0X0X0X0X0X0X0X0X0X0X0X0X0X0X0X0X0X0X0X0X0X< 0X0X0X0X0X0X0X0X0X0X0X0X0X",
"0X0X0X0X0X0X0X0X0X0X0X0X0X0X0X0X0X0X0X0X0X0X0X0X0X0X0Xp   0X0X0X0X0X0X0X0X0X0X0X0X0X",
"0X0X0X0X0X0X0X0X0X0X0X0X0X0X0X0X0X0X0X0X0X0X0X0X0X0X,X9Xp 0X0X0X0X0X0X0X0X0X0X0X0X0X",
"0X0X0X0X0X0X0X0X0X0X0X0X0X0X0X0X0X0X0X0X0X0X0X0X0X0X9X8X0X0X0X0X0X0X0X0X0X0X0X0X0X0X",
"0X0X0X0X0X0X0X0X0X0X0X0X0X0X0X0X0X0X0X0X0Xo O ..0XW.9X0X0X0X0X0X0X0X0X0X0X0X0X0X0X0X",
"0X0X0X0X0X0X0X0X0X0X0X0X0X0X0XR ~ ^ ^ 0X_ o o ~ 7.`.7X0X0X0X0X0X0X0X0X0X0X0X0X0X0X0X",
"0X0X0X0X0X0X0X0X0X0X0X0X0X0X0X^ 0.L.N.m.O.O.)  .m.$X6X6X}.0X0X0X0X0X0X0X0X0X0X0X0X0X",
"0X0X0X0X0X0X0X0X0X0X0X0X0X0XW d.J.$XH.s.g.A.1.3.#.@.^..X`.7.0X0X0X0X0X0X0X0X0X0X0X0X",
"0X0X0X0X0X0X0X0X0X0X0X0X0X0X/ ^. Xk.a.].{.G.C.C./.).w.6.O.O.} 0X0X0X0X0X0X0X0X0X0X0X",
"0X0X0X0X0X0X0X0X0X0X0X0X0X0XW.<X1Xl.A.A.v.9.g.k.J.+X+X}.XX/.e.3.} E 0X0X0X0X0X0X0X0X",
"0X0X0X0X0X0X0X0X0X0X0X0X0XI.E.8X Xk.j.Z.).~. Xl.].{.&X;X-X$X+XOX`. .0X0X0X0X0X0X0X0X",
"0X0X0X0X0X0X0X0X0X0X0X0X0XT.Q.9Xz.V.B.].^.,X9Xn.}.].#X;X:X>X5X2X}.O.0X0X0X0X0X0X0X0X",
"0X0X0X0X0X0X0X0X0X0X0X0X0XT.Q._.5.j.v.$.W.,X4Xw.{.}.&X=X:X:X:X-XP.( 0XH J U 0X0X0X0X",
"0X0X0X0X0X0X0X0X0X0X0X0X0XY.R.a.5.9.i.U.E.8XXX0.n.=X=X:X-X4X:X{.n.# G J e q J 0X0X0X",
"0X0X0X0X0X0X0X0X0X0X0X0XR ( ;.a.h.3.3.I.!.<XS.6.n.=X@X#X;X%XoX[.q.# J e 0 0 q 0X0X0X",
"0X0X0X0X0X0X0X0X0X0X0X0XR | a.t.a.8.:.U.!.`.j.8.|.:X%XG.:XXX[.(. .i h 0 y 1 0 H 0X0X",
"0X0X0X0X0X0X0X0X0X0X0X0X~ %.u.*.3.4.>.f.0.K.n.5.g.@X*X|.@X*X[.s.' 6 q e 0X. 0 h 0X0X",
"0X0X0X0XV A Y 0X0X0X0X0X~ y.t.8.9.a.a.a.i.z.v.S.b.H.:X;X>X2X[.b.p f q 0 5 G q H 0X0X",
"0X0X0X2 t x b D 0X0X0XR ~ X.,.f.f.i.a.i.a.S.H.c.b.x.$X>X2X3X(.@.u d d q s h s 0X0X0X",
"0X0X0X8 > n n b 0X0X0XR o.t.a.a.5.u.a.a.h.G.F.H.G.x.b.j.].l.). .y q s s 0 0 g 0X0X0X",
"0X0X0Xw & M n b Y 0X0X~ <.;.>.4.>.r.r.8.5.9.u.G.OXz.S.Z.{.oXB.] 1 4 3 0 0 G 0X0X0X0X",
"0X0X0X0X= t x x T 0X0X[ y.8.;.*.3.>.1.:.8.>.u.k.Z.F.$X*X}.].w.# 1 . 1 0 s 0X0X0X0X0X",
"0X0X0X0X- ; z z Z - ` ^ -.,.;.r.u.:.>.*.5.4.:.>.u.c.}.'.8.:. .+ 0 0 0 0 h 0X0X0X0X0X",
"0X0X0X0Xw & j z k l a Q { &.y.,.,.,.:.5.1.4.=.:.5.e.V.B.9.X.( i 0 0 1 3 e 0X0X0X0X0X",
"0X0X0X0X0X* r k k C 6 0X0XW Q ~ { &.&.,.;.>.:.8.k.e.j.{.].| ] 1 0 0Xi 2 0 0X0X0X0X0X",
"0X0X0X0X0X8 = t V 0X0X0X0X0X0X0X0XQ ! ^ } 2.2.<.u.A.A.B.p.=.# 4 0 0X. 3 e 0X0X0X0X0X",
"0X0X0X0X0X0X% 8 0X0X0X0X0X0X0X0X0X0X0X0X0X~ ~ { } <.D.w.>. .K 1 0 e g H g 0X0X0X0X0X",
"0X0X0X0X0X0X0X0X0X0X0X0X0X0X0X0X0X0X0X0X0X0X0X0XQ ~ | } ) ! 0X1 0 0 0 0 0X0X0X0X0X0X",
"0X0X0X0X0X0X0X0X0X0X0X0X0X0X0X0X0X0X0X0X0X0X0X0X0X0X0Xp # P 0XF 1 3 0 G 0X0X0X0X0X0X",
"0X0X0X0X0X0X0X0X0X0X0X0X0X0X0X0X0X0X0X0X0X0X0X0X0X0X0X0X% j Z 0X0X0X0X0X0X0X0X0X0X0X",
"0X0X0X0X0X0X0X0X0X0X0X0X0X0X0X0X0X0X0X0X0X0X0X0X0X0X0XI r > l c S 0X0X0X0X0X0X0X0X0X",
"0X0X0X0X0X0X0X0X0X0X0X0X0X0X0X0X0X0X0X0X0X0X0X0X0X7 > j x l j b b 0X0X0X0X0X0X0X0X0X",
"0X0X0X0X0X0X0X0X0X0X0X0X0X0X0X0X0X0X0X0X0X0X0X0X0X$ > k N n b b c 0X0X0X0X0X0X0X0X0X",
"0X0X0X0X0X0X0X0X0X0X0X0X0X0X0X0X0X0X0X0X0X0X0X0XG $ ; j M N b x S 0X0X0X0X0X0X0X0X0X",
"0X0X0X0X0X0X0X0X0X0X0X0X0X0X0X0X0X0X0X0X0X0X0X0X9 $ & r k x x v 0X0X0X0X0X0X0X0X0X0X",
"0X0X0X0X0X0X0X0X0X0X0X0X0X0X0X0X0X0X0X0X0X0X0X0X0X0Xe 9 L L 0X0X0X0X0X0X0X0X0X0X0X0X",
"0X0X0X0X0X0X0X0X0X0X0X0X0X0X0X0X0X0X0X0X0X0X0X0X0X0X0X0X0X0X0X0X0X0X0X0X0X0X0X0X0X0X",
"0X0X0X0X0X0X0X0X0X0X0X0X0X0X0X0X0X0X0X0X0X0X0X0X0X0X0X0X0X0X0X0X0X0X0X0X0X0X0X0X0X0X",
"0X0X0X0X0X0X0X0X0X0X0X0X0X0X0X0X0X0X0X0X0X0X0X0X0X0X0X0X0X0X0X0X0X0X0X0X0X0X0X0X0X0X"
};
