/* XPM */
static char *_0d754708e6c4057e6d85907bed991e0txlYEG7dnEXdSCxT[] = {
/* columns rows colors chars-per-pixel */
"32 40 204 2 ",
"   c None",
".  c #260909",
"X  c #671C1C",
"o  c #75181D",
"O  c #593117",
"+  c #703E1F",
"@  c #6A3E1D",
"#  c #512F25",
"$  c #673D22",
"%  c #7A441D",
"&  c #75441E",
"*  c #5E463E",
"=  c #7B4924",
"-  c #774826",
";  c #644038",
":  c #002B7E",
">  c #324160",
",  c #22417F",
"<  c #645759",
"1  c #7E5E59",
"2  c #504E60",
"3  c #785F62",
"4  c #786060",
"5  c #9F151C",
"6  c #A81E1C",
"7  c #87280B",
"8  c #9C1E2B",
"9  c #AF1B21",
"0  c #BE1E26",
"q  c #9A322B",
"w  c #AB262B",
"e  c #B9242A",
"r  c #AF3125",
"t  c #AC3535",
"y  c #C91D26",
"u  c #C51F28",
"i  c #CB1F29",
"p  c #D71D28",
"a  c #E31E29",
"s  c #EB1D28",
"d  c #F21E2B",
"f  c #C6242C",
"g  c #CB232A",
"h  c #C8292F",
"j  c #D3242C",
"k  c #DC242C",
"l  c #C62635",
"z  c #EB262E",
"x  c #E2212C",
"c  c #FD252E",
"v  c #F6242E",
"b  c #F72D34",
"n  c #EC3030",
"m  c #F53135",
"M  c #FC3639",
"N  c #FB383B",
"B  c #EB2A30",
"V  c #93411F",
"C  c #80471D",
"Z  c #8C552C",
"A  c #965B2B",
"S  c #8D5832",
"D  c #8C472D",
"F  c #9F622F",
"G  c #9A633B",
"H  c #A56633",
"J  c #BA753A",
"K  c #AA6831",
"L  c #F0413F",
"P  c #C57C3D",
"I  c #81305C",
"U  c #84304A",
"Y  c #BA3659",
"T  c #DA3B41",
"R  c #88534C",
"E  c #A84548",
"W  c #AD5152",
"Q  c #916850",
"!  c #B66345",
"~  c #AF6F47",
"^  c #8A457C",
"/  c #B0617F",
"(  c #AB696D",
")  c #D8574D",
"_  c #C4534C",
"`  c #FB4242",
"'  c #FB4B4C",
"]  c #F75957",
"[  c #E75355",
"{  c #D3645A",
"}  c #C0775B",
"|  c #D5796E",
" . c #EA676C",
".. c #FB7877",
"X. c #E77276",
"o. c #C8D030",
"O. c #BE8254",
"+. c #B68979",
"@. c #91BB7E",
"#. c #C98D7B",
"$. c #D78A77",
"%. c #E88C79",
"&. c #E6957E",
"*. c #ABCC71",
"=. c #002D80",
"-. c #00338C",
";. c #003693",
":. c #003A9B",
">. c #003897",
",. c #003EA0",
"<. c #154896",
"1. c #2D579A",
"2. c #315390",
"3. c #395285",
"4. c #0041A6",
"5. c #0045AB",
"6. c #004AB5",
"7. c #004CBB",
"8. c #0751BB",
"9. c #3B52B2",
"0. c #2576BD",
"q. c #2761A6",
"w. c #664A82",
"e. c #446C9F",
"r. c #435FA4",
"t. c #476BB9",
"y. c #6963A1",
"u. c #0052C3",
"i. c #0055CB",
"p. c #0058CD",
"a. c #015CD5",
"s. c #005DDB",
"d. c #1675DA",
"f. c #005FE0",
"g. c #0063E3",
"h. c #006BEC",
"j. c #0269E8",
"k. c #0576E7",
"l. c #006EF1",
"z. c #0074F6",
"x. c #0077FC",
"c. c #017CF9",
"v. c #338BBF",
"b. c #0182FE",
"n. c #0788FB",
"m. c #148CFD",
"M. c #1C90FE",
"N. c #1286E7",
"B. c #59A9C8",
"V. c #BF9485",
"C. c #B592A2",
"Z. c #95A7B3",
"A. c #DC9584",
"S. c #D3989C",
"D. c #CE9D8A",
"F. c #FC8987",
"G. c #EA9E85",
"H. c #DCB09B",
"J. c #E8A38C",
"K. c #E5A896",
"L. c #F1AC96",
"P. c #F2B59C",
"I. c #F3B297",
"U. c #FC9EA0",
"Y. c #D9BAA9",
"T. c #D1AEB2",
"R. c #F6BCA3",
"E. c #F0AFAB",
"W. c #F9C4A9",
"Q. c #FDCFB8",
"!. c #F0CCB5",
"~. c #9BADC6",
"^. c #A9BBD4",
"/. c #9BC7DC",
"(. c #B1C4DD",
"). c #B7C4D8",
"_. c #B8C2C6",
"`. c #B5CAE3",
"'. c #BFD2EA",
"]. c #DECDDD",
"[. c #C7CCD1",
"{. c #FCDCC2",
"}. c #F4DCCC",
"|. c #F1D2D5",
" X c #FFE7CC",
".X c #C1D5EE",
"XX c #CCD4E3",
"oX c #D7D7E4",
"OX c #CEDFF5",
"+X c #E2D4E3",
"@X c #DDE4EF",
"#X c #DCEBFB",
"$X c #D5E3F4",
"%X c #CDE0F8",
"&X c #E4EBF5",
"*X c #EBEDF4",
"=X c #E3EAF7",
"-X c #ECF3FB",
";X c #EDF0F6",
":X c #F3F5FB",
">X c #F5F8FD",
",X c #FCFDFE",
"<X c #F0F2F7",
"1X c #EAE6EF",
/* pixels */
"                                                                ",
"                                  >X<X>X*X                      ",
"                                oX*X1X;X&X;X>X                  ",
"                  z c ` F.F.    1X:X:XoXXX1X>X                  ",
"                k z c ..U.F.F.T.].oX+XXX^.[.                    ",
"              j x d c ..U.|.F.X.S.T.@X:X>X-X                    ",
"              j x d c `  . .n t w E oX:X:X=X                    ",
"            g k a d v B p h E O o E oX<X=X                      ",
"            j j a s a 5 o W K.V.E f [ X.T.                      ",
"            f p p p l q #.H.{.[.S.' ' '                         ",
"            u y g r { J.^./.}.Y.!. XQ.]                         ",
"          l u 0 6 q $.W.Z.q.[.P.!.Q.{...                        ",
"          h 9 t 7 7 ! R.T.> 3 Q D.H.+._                         ",
"          h { G.} 7 V R.H.# . . # ; R                           ",
"            L.W.J.~ ! P.!.H.+.4 4 1 $.                          ",
"            R.Q.W.J.G.G.I.W.W.Q q ( F.                          ",
"              R.I.$.| %.%.G.L.A.D.K.{                           ",
"                  7 r ) ) { | $.A./ w.                          ",
"                b n M N L L W r.e.( y.v.                        ",
"          :X<X..M M m m b m m ^ N.Z.B.n.N.            P } K     ",
"    -X>X,X,X>X|.' B k g y p s Y 0.o.*.n.b.n.        J P J F O.  ",
"  #X>X,X,X,X,X:XX.e 9 8 9 y l 9.h.0.0.k.k.m.M.m.n.N.Q K F A     ",
"  %X#X,X,X,X,X$XC.      I I 9.j.h.l.h.l.c.c.b.b.b.b.e.F A S     ",
"  .X'.#X#X$X-XoX        7.u.s.g.j.j.h.h.h.l.l.z.x.x.d.R C S     ",
"  '.`.'.(.~.OX          i.u.a.f.g.g.h.g.g.s.a.g.h.h.j.< C =     ",
"    (.`.(.(.`.          p.7.u.s.f.f.s.a.p.u.7.u.i.a.s.< C ~     ",
"          ^.            p.u.7.u.p.p.i.7.6.5.6.6.6.7.8.* -       ",
"                          u.7.7.7.7.7.6.5.        7.<.O &       ",
"                          -.5.6.6.5.,.,.              O         ",
"                        ;.: : -.-.;.>.                          ",
"                G + , :.>.>.>.>.>.,.5.                          ",
"                G = 1.7.4.5.4.,.5.5.                            ",
"                G & 2.s.7.5.5.5.5.5.                            ",
"                  & 2 a.i.6.5.4.                                ",
"                  = Z 2.u.6.4.                                  ",
"                  = A ~ 3.5.                                    ",
"                  = Z J ~                                       ",
"                  - & A K                                       ",
"                  - O & =                                       ",
"                                                                "
};
