/* XPM */
static char *result[] = {
/* columns rows colors chars-per-pixel */
"32 42 181 2 ",
"   c #010101",
".  c #0D0000",
"X  c #0A0907",
"o  c #0D0D0C",
"O  c #010309",
"+  c #130100",
"@  c #1C0200",
"#  c #15130E",
"$  c #040612",
"%  c #040913",
"&  c #1C0711",
"*  c #1B0D12",
"=  c #0F1111",
"-  c #161611",
";  c #191711",
":  c #1C1A14",
">  c #1C1C1A",
",  c #161919",
"<  c #2D0000",
"1  c #250701",
"2  c #340000",
"3  c #390000",
"4  c #2D1611",
"5  c #211F17",
"6  c #2A1A1A",
"7  c #331B14",
"8  c #25231B",
"9  c #0B1128",
"0  c #1E1E22",
"q  c #1D2124",
"w  c #212224",
"e  c #2B2422",
"r  c #262628",
"t  c #262A2A",
"y  c #282B2B",
"u  c #2B2924",
"i  c #332823",
"p  c #2F3024",
"a  c #363327",
"s  c #3A3629",
"d  c #3D382B",
"f  c #3A3936",
"g  c #5A0000",
"h  c #540000",
"j  c #4F1402",
"k  c #451202",
"l  c #501502",
"z  c #5E1903",
"x  c #5A1D0E",
"c  c #5F1010",
"v  c #640000",
"b  c #6D0000",
"n  c #690809",
"m  c #750000",
"M  c #7E0000",
"N  c #720B08",
"B  c #6A1E06",
"V  c #671D06",
"C  c #661212",
"Z  c #572414",
"A  c #61220E",
"S  c #672917",
"D  c #762106",
"F  c #46142C",
"G  c #413C2D",
"H  c #723226",
"J  c #494333",
"K  c #18204C",
"L  c #1D275A",
"P  c #1E295B",
"I  c #1C2555",
"U  c #26254C",
"Y  c #3F3F40",
"T  c #282450",
"R  c #212B64",
"E  c #252F6C",
"W  c #3E4343",
"Q  c #434445",
"!  c #4E4E5A",
"~  c #504F58",
"^  c #724343",
"/  c #744A4A",
"(  c #655E47",
")  c #715C46",
"_  c #6A634B",
"`  c #6F684F",
"'  c #7A664C",
"]  c #6F6853",
"[  c #726C52",
"{  c #7B7257",
"}  c #7B7458",
"|  c #494F69",
" . c #4F546F",
".. c #686463",
"X. c #7B776B",
"o. c #7A7B7A",
"O. c #797574",
"+. c #756B68",
"@. c #9D0000",
"#. c #A30303",
"$. c #AA0202",
"%. c #B70000",
"&. c #BC0000",
"*. c #982B0A",
"=. c #A42E0A",
"-. c #A82F0A",
";. c #AC310B",
":. c #BD360C",
">. c #B3320B",
",. c #C40000",
"<. c #CA0000",
"1. c #D50000",
"2. c #D90000",
"3. c #C1370C",
"4. c #C5380C",
"5. c #847B5C",
"6. c #887E5F",
"7. c #81775A",
"8. c #887F60",
"9. c #857D7C",
"0. c #8D8363",
"q. c #918765",
"w. c #918866",
"e. c #958A69",
"r. c #998E6C",
"t. c #9C916E",
"y. c #9D9370",
"u. c #323D8A",
"i. c #33418F",
"p. c #36469E",
"a. c #364493",
"s. c #3949A4",
"d. c #3A4AA7",
"f. c #3C4FB4",
"g. c #3E51B5",
"h. c #5C6598",
"j. c #4052B9",
"k. c #4052B7",
"l. c #717FCA",
"z. c #828384",
"x. c #8D8D8D",
"c. c #878787",
"v. c #8E9191",
"b. c #949595",
"n. c #999A9A",
"m. c #979A9A",
"M. c #BBAD83",
"N. c #BEB085",
"B. c #B5B5B5",
"V. c #C4B58A",
"C. c #C7B88D",
"Z. c #CABB8E",
"A. c #C2B287",
"S. c #CEBF91",
"D. c #DDCD9B",
"F. c #D2C293",
"G. c #DED19E",
"H. c #E0CF9D",
"J. c #E1D09E",
"K. c #E5D5A1",
"L. c #EDDCA7",
"P. c #EEDEA8",
"I. c #E8D8A4",
"U. c #F1DFA9",
"Y. c #EFE1AA",
"T. c #F3E2AB",
"R. c #FEEDB3",
"E. c #FFF1B7",
"W. c #FFF2B8",
"Q. c #9BA4D6",
"!. c #BFBFC1",
"~. c #A2ABDC",
"^. c #BFC0C0",
"/. c #C5C5C5",
"(. c #C9C8C8",
"). c #DADADA",
"_. c #E4E4E4",
"`. c #ECECEC",
"'. c #E7E8E8",
"]. c #F6F6F6",
"[. c #FAFAFA",
/* pixels */
"].].].].].].].].].].].].].].].[.[.[.[.[.[.].[.[.[.[.].].].].].].",
"].].].].].].].].].].].].[.[.!.z.z.z.c.z./.'.x.z.z.z.(.[.].].].].",
"].].].].].].].].].].].`.)._.X.+ + + +   O./.u # - # z._.].].].].",
"].].].].].].].].].[.[.b.w q C %.%.%.@.+ - f Z.D.D.D.[ Q '.].].].",
"].].].].].].].].[.`.b.^ v v @.2.2.2.<.m < 8 I.E.R.E._ r _.[.].].",
"].].].].].].].].`.(.e b 2.2.<.&.&.,.,.,.g > F.T.R.R._ r _.].].].",
"].].].].].].].[.m.6 #.,.2.2.M @ @ @ @ @ .   : y.W.R._ r _.[.].].",
"].].].].].[.`.m./ b ,.2.<.M 3                 J y.T._ r _.].].].",
"].].].].].[._.t g 2.,.&.$.4 ; : : : ; : : -     8 F.` f '.[.].].",
"].].].].].[._.w g <.3 @ 4 A.D.D.H.D.D.D.D.M.-   X : c._.].].].].",
"].].].].[./.O.- 2 v . a 8.P.E.T.e.C.T.e.Z.D.; 3 v v / n.`.].].].",
"].].].].[.x.  # o     { E.R.R.J.; 7.J.; 8.D.- m 2.2.g y _.].].].",
"].].].].[.b.# M.{     [ W.R.R.J.: 7.J.; 6.D.; M 2.2.g y _.[.].].",
"].].[.`.b.X.5.P.0.    d w.U.R.U.0.M.P.6.A.L.5.H M <.g y _.[.].].",
"].].[._.r _ E.E.r.#   X p H.T.K.R.R.R.R.R.R.E.[ @ ,.g y _.].].].",
"].].]._.r _ E.R.T.C.: _ K.R.w.s K.E.E.R.R.R.W.[ @ <.g t _.[.].].",
"].].].`.x.X.0.L.W.Y.0.M.T.e.G o [ 5.e.T.E.L.w.s + v ^ x.`.].].].",
"].].].].[.n.r A.K.K.R.R.K.a ; ;     : Z.I.A.# . +   b.[.].].].].",
"].].].].].'.(.f ; a K.E.R.J.D.V.:   X ; 5 :   v @.. x.[.].].].].",
"].].].].].[.`.x.Y o _ 5.w.Y.E.T.0.} } } s + g $.%.+ x.[.].].].].",
"].[.].].].].]._.9.+ @ + 6 C.K.J.K.K.K.I._ @ ,.<.#.6 m.[.].].[.].",
"].].].].].].'.W c %.%.%.$.7 5 5 5 5 5 5 o 1 ,.b i /.'.].].].].].",
"].].].].]./.O.C @.2.2.2.<.m 2     3 v v < . v ^ x.`.[.].].].].].",
"].].].]._.9.1 %.2.1.,.&.&.&.n %   b 2.2.m .   o._.].].].].].].].",
"].].]._.Q C %.1.2.<.2 + @ + T u.% b 2.2.<.@.+ = Q _.].].].].].].",
"].].[._.y g 2.2.#.n ' { { } ! P P F M <.2.,.m < r _.[.].].].].].",
"].].]._.y g 1.,.N p G.R.R.W.w.> a.P & #.&.&.,.h 0 (.`.].].].].].",
"].].]._.y g ,.2 ) G.R.R.R.R.U.C.w P u.& @ @ @ . X , n.[.].].].].",
"].].[.`.v.^ v . [ E.R.R.R.R.E.J.:  .Q.z.| I P 9     x.[.].].].].",
"].].].].[.n., O ( I.R.R.R.R.T.C.0 c.[.[.Q.f.d.K + @ 9._.].].].].",
"].].].].].`.(.w X a G.E.R.W.w.w i.~.[.[.Q.s.9 x ;.-.Z Q '.].].].",
"].].].].[.(.O.S z A ' 7.7.7.~ R d.l.~.~.h.U x *.3.3.l y _.].].].",
"].].].]._.o.. =.:.*.* $ $ $ R j.g.g.f.f.I @ ;.3.3.3.l y _.[.].].",
"].].]._.Q = + =.D - u.s.p.p.d.j.j.j.j.j.P @ ;.:.3.:.l y _.].].].",
"].].[._.y 1 V >.V $ p.j.j.j.j.d.R P P P 9 @ ;.3.:.3.l y _.[.].].",
"].].]._.y l 4.3.V $ p.d.p.p.p.a.r , > 0 o @ ;.:.:.;.k y _.].].].",
"].].[._.y j 3.3.B $ p.E $ $ $ q ^.).).)...+ ;.3.=.1   y _.[.].].",
"].].]._.y l 3.3.B O K | 9.o.O.x.'.[.].[.B.+.V V l X Q b.`.].].].",
"].].[._.W Z -.;.S 5 , z.[.[.[.[.].].].].[.).f , > > m.[.].[.].].",
"].].].]._.9.+ . ..).)._.[.].].].].].].].].].).).).).'.[.].].].].",
"].].].].]./.o.o.B.[.[.].].].].].].].].].].].[.].].].].].].].].].",
"].].].].].[.[.[.[.].].].].].].].].].].].].].].].].].].].].].].]."
};
